<?xml version="1.0" standalone="no"?>
<!DOCTYPE svg PUBLIC "-//W3C//DTD SVG 1.1//EN" "http://www.w3.org/Graphics/SVG/1.1/DTD/svg11.dtd" >
<svg xmlns="http://www.w3.org/2000/svg" xmlns:xlink="http://www.w3.org/1999/xlink" version="1.1">
<metadata>
Created by FontForge 20201107 at Mon May 18 14:32:16 2015
 By 
Copyright (c) 2014, Eduardo Rodriguez Tunni. Copyright (c) 2000, Modular Infotech, Pune, INDIA. All rights reserved.
</metadata>
<defs>
<font id="Arya-Regular" horiz-adv-x="0" >
  <font-face 
    font-family="Arya"
    font-weight="400"
    font-stretch="normal"
    units-per-em="1000"
    panose-1="0 0 5 0 0 0 0 0 0 0"
    ascent="800"
    descent="-200"
    x-height="480"
    cap-height="613"
    bbox="-615 -544 1618 1265"
    underline-thickness="50"
    underline-position="-100"
    unicode-range="U+0001-FB04"
  />
<missing-glyph horiz-adv-x="385" 
 />
    <glyph glyph-name="f_f" unicode="ff" horiz-adv-x="581" 
d="M598 650.5q29 -9.5 59 -27.5l-34 -73q-15 23 -36 37t-43 14q-28 0 -43.5 -18.5t-15.5 -49.5v-53h101v-51h-101v-429h-101v429h-78v51h78v26q0 30 6 54q-44 41 -107 41q-38 0 -63.5 -26.5t-25.5 -76.5v-18h110v-51h-110v-429h-101v429h-78v51h78v6q0 88 50.5 131t139.5 43
q73 0 141 -38q40 38 113 38q32 0 61 -9.5z" />
    <glyph glyph-name="fi" unicode="fi" horiz-adv-x="556" 
d="M473 0h-101v429h-178v-429h-101v429h-78v51h78v6q0 88 50.5 131t139.5 43q49 0 92 -16t76 -39l-36 -72q-50 68 -132 68q-38 0 -63.5 -26.5t-25.5 -76.5v-18h279v-480z" />
    <glyph glyph-name="fl" unicode="fl" horiz-adv-x="556" 
d="M474 647v-647h-101v574q-41 27 -90 27q-38 0 -63.5 -26.5t-25.5 -76.5v-18h110v-51h-110v-429h-101v429h-78v51h78v6q0 88 50.5 131t139.5 43q54 0 111 -23z" />
    <glyph glyph-name="f_f_i" unicode="ffi" horiz-adv-x="846" 
d="M765 0h-101v429h-179v-429h-101v429h-78v51h78v6q0 39 11 70q-47 45 -112 45q-38 0 -63.5 -26.5t-25.5 -76.5v-18h110v-51h-110v-429h-101v429h-78v51h78v6q0 88 50.5 131t139.5 43q80 0 151 -44q48 44 140 44q49 0 92 -16t76 -39l-36 -72q-50 68 -132 68
q-38 0 -63.5 -26.5t-25.5 -76.5v-18h280v-480z" />
    <glyph glyph-name="f_f_l" unicode="ffl" horiz-adv-x="846" 
d="M764 647v-647h-101v575q-37 26 -89 26q-38 0 -63.5 -26.5t-25.5 -76.5v-18h110v-51h-110v-429h-101v429h-78v51h78v6q0 39 11 70q-47 45 -112 45q-38 0 -63.5 -26.5t-25.5 -76.5v-18h110v-51h-110v-429h-101v429h-78v51h78v6q0 88 50.5 131t139.5 43q80 0 151 -44
q48 44 140 44q54 0 111 -23z" />
    <glyph glyph-name=".notdef" horiz-adv-x="385" 
 />
    <glyph glyph-name=".null" 
 />
    <glyph glyph-name="nonmarkingreturn" horiz-adv-x="187" 
 />
    <glyph glyph-name="uni0000" 
 />
    <glyph glyph-name="uni0000" 
 />
    <glyph glyph-name="uni0001" 
 />
    <glyph glyph-name="uni0002" 
 />
    <glyph glyph-name="uni0003" 
 />
    <glyph glyph-name="uni0004" 
 />
    <glyph glyph-name="uni0005" 
 />
    <glyph glyph-name="uni0006" 
 />
    <glyph glyph-name="uni0007" 
 />
    <glyph glyph-name="uni0008" 
 />
    <glyph glyph-name="uni0009" unicode="&#x9;" 
 />
    <glyph glyph-name="uni000A" unicode="&#xa;" 
 />
    <glyph glyph-name="uni000B" 
 />
    <glyph glyph-name="uni000C" 
 />
    <glyph glyph-name="uni000E" 
 />
    <glyph glyph-name="uni000F" 
 />
    <glyph glyph-name="uni0010" 
 />
    <glyph glyph-name="uni0011" 
 />
    <glyph glyph-name="uni0012" 
 />
    <glyph glyph-name="uni0013" 
 />
    <glyph glyph-name="uni0014" 
 />
    <glyph glyph-name="uni0015" 
 />
    <glyph glyph-name="uni0016" 
 />
    <glyph glyph-name="uni0017" 
 />
    <glyph glyph-name="uni0018" 
 />
    <glyph glyph-name="uni0019" 
 />
    <glyph glyph-name="uni001A" 
 />
    <glyph glyph-name="uni001B" 
 />
    <glyph glyph-name="uni001C" 
 />
    <glyph glyph-name="uni001D" 
 />
    <glyph glyph-name="uni001E" 
 />
    <glyph glyph-name="uni001F" 
 />
    <glyph glyph-name="space" unicode=" " horiz-adv-x="235" 
 />
    <glyph glyph-name="exclam" unicode="!" horiz-adv-x="276" 
d="M188 464l-22 -291h-59l-21 291v149h102v-149zM96.5 11q-17.5 18 -17.5 41q0 24 17.5 41t40.5 17q24 0 41.5 -17t17.5 -41t-17.5 -41.5t-41.5 -17.5q-23 0 -40.5 18z" />
    <glyph glyph-name="quotedbl" unicode="&#x22;" horiz-adv-x="348" 
d="M146 562l-22 -165h-57l-21 165v51h100v-51zM301 562l-22 -165h-57l-20 165v51h99v-51z" />
    <glyph glyph-name="numbersign" unicode="#" horiz-adv-x="692" 
d="M549 397l-33 -182h88l-14 -80h-88l-36 -199h-102l36 199h-170l-36 -199h-102l36 199h-88l14 80h89l33 182h-89l15 81h89l36 199h102l-36 -199h169l37 199h102l-37 -199h87l-14 -81h-88zM447 397h-169l-33 -182h169z" />
    <glyph glyph-name="dollar" unicode="$" horiz-adv-x="529" 
d="M301 -5v-90h-68v90q-94 6 -134 49.5t-40 127.5l88 5q0 -69 27.5 -105t90.5 -36q64 0 89 29.5t25 89.5q0 43 -20 68t-64 34l-76 12q-81 12 -117 54t-36 117q0 81 39 125.5t128 51.5v91h68v-91q90 -7 129 -50t39 -123l-91 -8q0 72 -25 106.5t-86 34.5q-57 0 -79.5 -30
t-22.5 -91q0 -44 17.5 -70t57.5 -32l75 -8q165 -23 165 -178q0 -159 -179 -173z" />
    <glyph glyph-name="percent" unicode="%" horiz-adv-x="811" 
d="M76.5 320q-30.5 46 -30.5 130q0 83 30.5 129t109.5 46q80 0 109.5 -45.5t29.5 -129.5q0 -85 -29.5 -130.5t-109.5 -45.5q-79 0 -109.5 46zM234.5 344.5q13.5 38.5 13.5 105.5q0 77 -13 111.5t-50 34.5q-36 0 -49.5 -34.5t-13.5 -111.5q0 -67 14 -105.5t49 -38.5
q36 0 49.5 38.5zM509 613l-164 -613h-42l162 613h44zM515.5 39q-30.5 46 -30.5 130q0 83 30.5 129t109.5 46q80 0 109.5 -45.5t29.5 -129.5q0 -85 -29.5 -130.5t-109.5 -45.5q-79 0 -109.5 46zM673.5 63.5q13.5 38.5 13.5 105.5q0 77 -13 111.5t-50 34.5q-36 0 -49.5 -34.5
t-13.5 -111.5q0 -67 14 -105.5t49 -38.5q36 0 49.5 38.5z" />
    <glyph glyph-name="ampersand" unicode="&#x26;" horiz-adv-x="541" 
d="M544 283h-95v-100q0 -61 -16 -103t-61.5 -67.5t-129.5 -25.5q-71 0 -117.5 24.5t-68 63t-21.5 82.5q0 62 32 103t87 57q-46 17 -74 55.5t-28 88.5q0 75 46.5 119.5t144.5 44.5q80 0 120 -30t51 -94l-87 -26q-9 109 -84 109q-48 0 -68.5 -31t-20.5 -92q0 -55 25 -89.5
t71 -34.5h294v-54zM360 283h-100q-64 0 -94 -29.5t-30 -96.5q0 -56 28 -92t85 -36q58 0 84.5 36t26.5 97v121z" />
    <glyph glyph-name="quotesingle" unicode="'" horiz-adv-x="192" 
d="M146 562l-22 -165h-57l-21 165v51h100v-51z" />
    <glyph glyph-name="parenleft" unicode="(" horiz-adv-x="264" 
d="M84 67.5q-49 97.5 -49 238.5q0 140 49 238.5t172 98.5v-42q-60 0 -87.5 -89t-27.5 -206q0 -116 28 -205t87 -89v-42q-123 0 -172 97.5z" />
    <glyph glyph-name="parenright" unicode=")" horiz-adv-x="264" 
d="M8 12q59 0 87 89t28 205q0 117 -27.5 206t-87.5 89v42q123 0 172 -98.5t49 -238.5q0 -141 -49 -238.5t-172 -97.5v42z" />
    <glyph glyph-name="asterisk" unicode="*" horiz-adv-x="466" 
d="M283 579l-34 -94h-30l-35 94v75h99v-75zM121 529l80 -57l-9 -27l-99 -1l-73 25l28 84zM374 444l-98 -2l-10 30l77 57l74 24l30 -84zM117 370l82 55l23 -21l-27 -91l-46 -64l-77 55zM271 313l-28 91l25 20l80 -54l46 -66l-77 -55z" />
    <glyph glyph-name="plus" unicode="+" horiz-adv-x="487" 
d="M209 304v133h71v-133h134v-71h-134v-135h-71v135h-134v71h134z" />
    <glyph glyph-name="comma" unicode="," horiz-adv-x="175" 
d="M124.5 92.5q15.5 -17.5 15.5 -45.5q0 -51 -29.5 -91t-69.5 -64l-18 23q15 14 21 29t6 38q0 13 -9 35q-9 27 -9 39q0 22 16 38t38 16q23 0 38.5 -17.5z" />
    <glyph glyph-name="hyphen" unicode="-" horiz-adv-x="403" 
d="M350 304v-71h-295v71h295z" />
    <glyph glyph-name="period" unicode="." horiz-adv-x="175" 
d="M46 11q-17 18 -17 41q0 24 17 41t40 17q25 0 42 -17t17 -41t-17 -41.5t-42 -17.5q-23 0 -40 18z" />
    <glyph glyph-name="slash" unicode="/" horiz-adv-x="325" 
d="M314 652l-199 -741h-102l199 741h102z" />
    <glyph glyph-name="zero" unicode="0" horiz-adv-x="541" 
d="M93.5 72q-48.5 84 -48.5 234t49 235t175 85q128 0 177 -84.5t49 -235.5q0 -150 -49 -234t-177 -84q-127 0 -175.5 84zM367 103.5q27 73.5 27 202.5q0 142 -26 210t-99 68q-71 0 -96.5 -68.5t-25.5 -209.5q0 -129 26.5 -202.5t95.5 -73.5q71 0 98 73.5z" />
    <glyph glyph-name="one" unicode="1" horiz-adv-x="541" 
d="M463 42v-42h-358v42h132v475l-137 -3v40q52 1 108 17.5t88 41.5h42v-571h125z" />
    <glyph glyph-name="two" unicode="2" horiz-adv-x="541" 
d="M268 625q94 0 147.5 -40.5t53.5 -109.5q0 -49 -22.5 -92.5t-82.5 -104.5l-195 -197h306v-81h-414v65l212 213q39 40 59 70.5t27.5 59t7.5 67.5q0 52 -25.5 80t-73.5 28q-53 0 -80.5 -37.5t-30.5 -117.5l-88 16q14 181 199 181z" />
    <glyph glyph-name="three" unicode="3" horiz-adv-x="541" 
d="M436.5 255.5q38.5 -37.5 38.5 -100.5q0 -76 -57.5 -121.5t-160.5 -45.5q-96 0 -146.5 39t-58.5 120l88 10q5 -61 34.5 -93.5t82.5 -32.5q59 0 89 31t30 92q0 126 -121 126h-75v48h75q112 0 112 138q0 117 -109 117q-50 0 -76.5 -35t-30.5 -103l-87 12q11 168 194 168
q102 0 156 -43.5t54 -116.5q0 -62 -37 -103t-97 -57q64 -12 102.5 -49.5z" />
    <glyph glyph-name="four" unicode="4" horiz-adv-x="541" 
d="M492 127h-70v-127h-101v127h-299v64l252 422h148v-405h70v-81zM321 208v362l-212 -362h212z" />
    <glyph glyph-name="five" unicode="5" horiz-adv-x="541" 
d="M192.5 68.5q26.5 -38.5 82.5 -38.5q57 0 85.5 39t28.5 102q0 153 -200 153h-87l20 289h330v-80h-294l-14 -169h74q136 0 204 -51.5t68 -141.5q0 -51 -24 -92.5t-72.5 -66t-118.5 -24.5q-189 0 -200 182l88 9q3 -72 29.5 -110.5z" />
    <glyph glyph-name="six" unicode="6" horiz-adv-x="541" 
d="M447.5 310q47.5 -46 47.5 -124q0 -95 -53 -146.5t-161 -51.5q-118 0 -171 79.5t-53 215.5q0 162 51 252t174 90q190 0 199 -174l-87 -9q-6 142 -112 142q-70 0 -96.5 -65.5t-28.5 -192.5q69 30 138 30q105 0 152.5 -46zM396 186q0 54 -29 92.5t-93 38.5q-32 0 -60 -7
t-57 -22q1 -95 13 -151.5t39 -81.5t72 -25q115 0 115 156z" />
    <glyph glyph-name="seven" unicode="7" horiz-adv-x="541" 
d="M392 535h-333v78h415v-62l-257 -551h-94z" />
    <glyph glyph-name="eight" unicode="8" horiz-adv-x="541" 
d="M489 151q0 -47 -26.5 -84t-76 -58t-116.5 -21t-116.5 21t-75.5 58t-26 84q0 60 33 98t99 58q-63 21 -94 58.5t-31 97.5q0 70 54.5 116t156.5 46q68 0 116 -21.5t71.5 -58.5t23.5 -82q0 -113 -122 -155q130 -43 130 -157zM188 550.5q-27 -33.5 -27 -87.5q0 -60 22.5 -92
t79.5 -41l27 -6q44 11 67 48t23 91q0 53 -27.5 87t-82.5 34t-82 -33.5zM357 63.5q31 33.5 31 87.5q0 55 -28.5 91.5t-81.5 46.5l-31 3q-47 -8 -70 -45t-23 -96q0 -53 29 -87t86 -34t88 33.5z" />
    <glyph glyph-name="nine" unicode="9" horiz-adv-x="541" 
d="M431 547q51 -78 51 -223q0 -167 -49.5 -251.5t-176.5 -84.5q-94 0 -145 44t-56 128l86 10q10 -140 115 -140q46 0 72.5 26t38.5 80t14 144q-35 -18 -67.5 -25.5t-68.5 -7.5q-107 0 -153.5 49.5t-46.5 127.5q0 58 25.5 103.5t75.5 71.5t119 26q115 0 166 -78zM175 330.5
q28 -42.5 91 -42.5q33 0 59 6t56 22q0 96 -10.5 153.5t-35.5 86t-70 28.5q-57 0 -87.5 -43t-30.5 -111q0 -57 28 -99.5z" />
    <glyph glyph-name="colon" unicode=":" horiz-adv-x="175" 
d="M46 11q-17 18 -17 41q0 24 17 41t40 17q25 0 42 -17t17 -41t-17 -41.5t-42 -17.5q-23 0 -40 18zM46 349q-17 18 -17 41q0 24 17 41t40 17q25 0 42 -17t17 -41t-17 -41.5t-42 -17.5q-23 0 -40 18z" />
    <glyph glyph-name="semicolon" unicode=";" horiz-adv-x="175" 
d="M124.5 92.5q15.5 -17.5 15.5 -45.5q0 -51 -29.5 -91t-69.5 -64l-18 23q15 14 21 29t6 38q0 13 -9 35q-9 27 -9 39q0 22 16 38t38 16q23 0 38.5 -17.5zM42 349q-17 18 -17 41q0 24 17 41t40 17q25 0 42 -17t17 -41t-17 -41.5t-42 -17.5q-23 0 -40 18z" />
    <glyph glyph-name="less" unicode="&#x3c;" horiz-adv-x="487" 
d="M413 376l-272 -110l272 -109v-79l-339 144v89l339 145v-80z" />
    <glyph glyph-name="equal" unicode="=" horiz-adv-x="487" 
d="M414 394v-72h-339v72h339zM414 214v-71h-339v71h339z" />
    <glyph glyph-name="greater" unicode="&#x3e;" horiz-adv-x="487" 
d="M413 311v-89l-339 -144v79l272 109l-272 110v80z" />
    <glyph glyph-name="question" unicode="?" horiz-adv-x="427" 
d="M86 583q48 42 130 42q62 0 105 -23t64 -61t21 -83q0 -69 -46 -116.5t-119 -72.5l-11 -96h-63l-9 96q81 35 116 83t35 120q0 54 -23.5 83t-69.5 29q-87 0 -101 -132l-87 14q10 75 58 117zM157 10.5q-17 17.5 -17 41.5t17 41t41 17q23 0 40.5 -17t17.5 -41t-17.5 -41.5
t-40.5 -17.5q-24 0 -41 17.5z" />
    <glyph glyph-name="at" unicode="@" horiz-adv-x="878" 
d="M714 549.5q98 -75.5 98 -221.5q0 -99 -47 -160.5t-145 -61.5h-91l-21 40q-26 -24 -54 -36.5t-63 -12.5q-64 0 -100 46.5t-36 142.5q0 87 40 138t125 51q59 0 114 -28l20 28h38v-327h20q52 0 80.5 45.5t28.5 134.5q0 116 -67 188.5t-207 72.5q-133 0 -209.5 -81.5
t-76.5 -235.5q0 -150 68 -233.5t214 -83.5h145v-35h-145q-179 0 -279 85t-100 267q0 100 39.5 179.5t125 126.5t218.5 47q169 0 267 -75.5zM502 421q-25 13 -64 13q-44 0 -69 -37t-25 -111q0 -68 19.5 -108t61.5 -40q43 0 77 35v248z" />
    <glyph glyph-name="A" unicode="A" horiz-adv-x="540" 
d="M373 183h-244l-58 -183h-58l198 613h122l198 -613h-99zM357 232l-106 333l-106 -333h212z" />
    <glyph glyph-name="B" unicode="B" horiz-adv-x="523" 
d="M462 259q28 -42 28 -95q0 -71 -44 -117.5t-150 -46.5h-214v613h185q104 0 149.5 -43t45.5 -114q0 -46 -20.5 -82.5t-68.5 -55.5q61 -17 89 -59zM184 333h76q54 0 77 33.5t23 88.5q0 59 -25 89.5t-75 30.5h-76v-242zM388 164q0 55 -26 93t-76 38h-102v-257h102
q102 0 102 126z" />
    <glyph glyph-name="C" unicode="C" horiz-adv-x="529" 
d="M296 583q-57 0 -88 -30t-43 -89t-12 -158q0 -98 12 -156.5t43 -88.5t88 -30q63 0 90.5 42.5t29.5 119.5l83 -3q-8 -100 -52 -151t-151 -51q-94 0 -148 36.5t-75.5 105.5t-21.5 176t21.5 176.5t75 106t148.5 36.5q101 0 145 -41.5t54 -122.5l-82 -15q-12 137 -117 137z
" />
    <glyph glyph-name="D" unicode="D" horiz-adv-x="599" 
d="M439.5 574q55.5 -39 76.5 -106t21 -162t-21 -161.5t-76.5 -105.5t-154.5 -39h-203v613h203q99 0 154.5 -39zM400.5 108.5q33.5 70.5 33.5 197.5q0 128 -33.5 198.5t-127.5 70.5h-89v-537h89q94 0 127.5 70.5z" />
    <glyph glyph-name="E" unicode="E" horiz-adv-x="470" 
d="M439 51v-51h-357v613h339v-51h-237v-223h216v-53h-216v-235h255z" />
    <glyph glyph-name="F" unicode="F" horiz-adv-x="433" 
d="M184 556v-217h195v-56h-195v-283h-102v613h322v-57h-220z" />
    <glyph glyph-name="G" unicode="G" horiz-adv-x="583" 
d="M510 0h-51l-21 75q-51 -87 -152 -87q-92 0 -143.5 37.5t-71.5 106.5t-20 174q0 107 21.5 176.5t75 106t148.5 36.5q101 0 145 -41.5t54 -122.5l-82 -15q-12 137 -117 137q-57 0 -88 -30t-43 -89t-12 -158q0 -96 11 -155t39.5 -89.5t82.5 -30.5q131 0 136 180v51h-112v50
h200v-312z" />
    <glyph glyph-name="H" unicode="H" horiz-adv-x="611" 
d="M530 613v-613h-103v281h-243v-281h-102v613h102v-281h243v281h103z" />
    <glyph glyph-name="I" unicode="I" horiz-adv-x="266" 
d="M184 0h-102v613h102v-613z" />
    <glyph glyph-name="J" unicode="J" horiz-adv-x="403" 
d="M322 66q-11 -35 -48.5 -56.5t-112.5 -21.5q-71 0 -104.5 23t-42.5 59.5t-9 98.5h90q0 -76 14.5 -107t54.5 -31q39 0 53 27.5t14 95.5v459h102v-459q0 -53 -11 -88z" />
    <glyph glyph-name="K" unicode="K" horiz-adv-x="515" 
d="M218 286h-34v-286h-102v613h102v-275h76l182 275h60l-196 -294l208 -319h-108z" />
    <glyph glyph-name="L" unicode="L" horiz-adv-x="406" 
d="M398 51v-51h-316v613h102v-562h214z" />
    <glyph glyph-name="M" unicode="M" horiz-adv-x="756" 
d="M571 552l-167 -550v-2h-91l-167 557l-14 -557h-60l17 613h133l152 -512l155 512h138l18 -613h-101z" />
    <glyph glyph-name="N" unicode="N" horiz-adv-x="640" 
d="M558 0h-111l-302 512v-512h-60v613h109l303 -511v511h60v-612z" />
    <glyph glyph-name="O" unicode="O" horiz-adv-x="599" 
d="M111.5 65.5q-60.5 77.5 -60.5 240.5q0 165 60 242t187 77q128 0 188 -77.5t60 -241.5q0 -163 -60.5 -240.5t-187.5 -77.5q-126 0 -186.5 77.5zM408 98.5q36 67.5 36 207.5q0 142 -36 209.5t-110 67.5t-109.5 -67t-35.5 -210q0 -142 35.5 -208.5t109.5 -66.5t110 67.5z
" />
    <glyph glyph-name="P" unicode="P" horiz-adv-x="500" 
d="M434 558.5q44 -54.5 44 -141.5t-44 -141t-150 -54h-100v-222h-102v613h202q106 0 150 -54.5zM350.5 300q25.5 42 25.5 117q0 74 -25.5 116t-80.5 42h-86v-317h86q55 0 80.5 42z" />
    <glyph glyph-name="Q" unicode="Q" horiz-adv-x="591" 
d="M504.5 95q-41.5 -76 -127.5 -98l150 -65l-37 -69l-212 125q-116 6 -171.5 83.5t-55.5 234.5q0 165 60 242t187 77q128 0 188 -77.5t60 -241.5q0 -135 -41.5 -211zM188.5 97.5q35.5 -66.5 109.5 -66.5t110 67.5t36 207.5q0 142 -36 209.5t-110 67.5t-109.5 -67t-35.5 -210
q0 -142 35.5 -208.5z" />
    <glyph glyph-name="R" unicode="R" horiz-adv-x="551" 
d="M510 0h-110l-86 213q-12 29 -29.5 38.5t-53.5 9.5h-47v-261h-102v613h205q109 0 153 -53.5t44 -129.5q0 -56 -26.5 -99.5t-91.5 -60.5q36 -13 52 -48zM276 298q54 0 80 38.5t26 93.5q0 61 -26 103t-80 42h-92v-277h92z" />
    <glyph glyph-name="S" unicode="S" horiz-adv-x="512" 
d="M403 580.5q51 -44.5 63 -136.5l-83 -11q-5 72 -37.5 111t-87.5 39q-59 0 -90.5 -28.5t-31.5 -80.5q0 -48 25.5 -72.5t91.5 -41.5l55 -14q89 -25 126 -66t37 -114q0 -86 -56 -132t-160 -46q-99 0 -151.5 44.5t-63.5 136.5l81 12q8 -72 42 -111t92 -39q130 0 130 110
q0 33 -11 53t-36.5 33.5t-74.5 25.5l-51 13q-89 23 -124.5 64.5t-35.5 117.5q0 87 52.5 132t153.5 45q94 0 145 -44.5z" />
    <glyph glyph-name="T" unicode="T" horiz-adv-x="426" 
d="M427 613v-51h-162v-562h-102v562h-164v51h428z" />
    <glyph glyph-name="U" unicode="U" horiz-adv-x="588" 
d="M519 203q0 -77 -32.5 -125.5t-82 -69t-104.5 -20.5q-99 0 -164.5 49.5t-65.5 165.5v410h102v-410q0 -86 36.5 -125.5t98.5 -39.5q64 0 108.5 40.5t44.5 124.5v410h59v-410z" />
    <glyph glyph-name="V" unicode="V" horiz-adv-x="524" 
d="M513 613l-190 -613h-119l-191 613h102l168 -567l168 567h62z" />
    <glyph glyph-name="W" unicode="W" horiz-adv-x="754" 
d="M734 613l-134 -613h-91l-131 502l-127 -502h-97l-133 613h102l102 -490l125 490h93l126 -492l103 492h62z" />
    <glyph glyph-name="X" unicode="X" horiz-adv-x="525" 
d="M408 0l-164 255l-169 -255h-62l203 298l-203 315h117l154 -240l166 240h62l-198 -286l211 -327h-117z" />
    <glyph glyph-name="Y" unicode="Y" horiz-adv-x="476" 
d="M289 212l-1 -1v-211h-102v212l-189 401h103l157 -345l161 345h60z" />
    <glyph glyph-name="Z" unicode="Z" horiz-adv-x="470" 
d="M450 51v-51h-429v65l314 497h-297v51h404v-63l-317 -499h325z" />
    <glyph glyph-name="bracketleft" unicode="[" horiz-adv-x="268" 
d="M166 601v-589h95v-42h-198v673h198v-42h-95z" />
    <glyph glyph-name="backslash" unicode="\" horiz-adv-x="325" 
d="M212 -89l-199 741h102l199 -741h-102z" />
    <glyph glyph-name="bracketright" unicode="]" horiz-adv-x="268" 
d="M206 -30h-199v42h95v589h-95v42h199v-673z" />
    <glyph glyph-name="asciicircum" unicode="^" horiz-adv-x="487" 
d="M337 265l-93 198l-92 -198h-80l127 255h90l126 -255h-78z" />
    <glyph glyph-name="underscore" unicode="_" horiz-adv-x="478" 
d="M424 0v-71h-369v71h369z" />
    <glyph glyph-name="grave" unicode="`" horiz-adv-x="255" 
d="M167 531l-166 109l62 72l125 -158z" />
    <glyph glyph-name="a" unicode="a" horiz-adv-x="511" 
d="M82.5 21.5q-35.5 33.5 -35.5 91.5q0 62 44.5 97.5t135.5 51.5l111 18v49q0 113 -86 113q-51 0 -74 -29t-26 -89l-84 9q6 79 48 119t138 40q93 0 139 -41.5t46 -125.5v-325h-64l-31 70q-31 -40 -74 -61t-91 -21q-61 0 -96.5 33.5zM282.5 61q33.5 20 55.5 47v131l-98 -19
q-50 -11 -75.5 -35t-25.5 -65q0 -36 20.5 -57.5t55.5 -21.5q34 0 67.5 20z" />
    <glyph glyph-name="b" unicode="b" horiz-adv-x="537" 
d="M449 423q42 -69 42 -183t-42 -183t-151 -69q-76 0 -139 54l-32 -42h-45v634l101 13v-185q57 30 115 30q109 0 151 -69zM363 96.5q27 51.5 27 143.5q0 97 -27.5 149.5t-89.5 52.5q-50 0 -90 -23v-343q38 -31 91 -31q62 0 89 51.5z" />
    <glyph glyph-name="c" unicode="c" horiz-adv-x="484" 
d="M169.5 89q22.5 -51 84.5 -51q51 0 73.5 31t24.5 94l86 -3q-6 -84 -48 -128t-138 -44q-118 0 -162 68.5t-44 183.5q0 116 44 184t162 68q96 0 137.5 -41.5t47.5 -121.5l-85 -11q-2 63 -24.5 93.5t-73.5 30.5q-62 0 -84.5 -50.5t-22.5 -151.5q0 -100 22.5 -151z" />
    <glyph glyph-name="d" unicode="d" horiz-adv-x="537" 
d="M457 647v-647h-61l-29 54q-55 -66 -140 -66q-181 0 -181 248q0 256 193 256q61 0 117 -36v178zM356 94v311q-43 32 -93 32q-57 0 -86.5 -51t-29.5 -150q0 -98 27.5 -148t80.5 -50q60 0 101 56z" />
    <glyph glyph-name="e" unicode="e" horiz-adv-x="502" 
d="M147 234v-2q0 -106 25.5 -150t87.5 -44q102 0 107 105l83 -4q-7 -70 -51 -110.5t-142 -40.5q-113 0 -162 62.5t-49 189.5q0 114 46.5 183t163.5 69q113 0 157 -68.5t44 -179.5v-10h-310zM177 403q-24 -39 -29 -119h211q-3 78 -26.5 118t-78.5 40q-53 0 -77 -39z" />
    <glyph glyph-name="f" unicode="f" horiz-adv-x="291" 
d="M307 650.5q29 -9.5 59 -27.5l-34 -73q-15 23 -36 37t-43 14q-28 0 -43.5 -18.5t-15.5 -49.5v-53h101v-51h-101v-429h-101v429h-78v51h78v26q0 76 39.5 115t113.5 39q32 0 61 -9.5z" />
    <glyph glyph-name="g" unicode="g" horiz-adv-x="511" 
d="M473 438h-70q40 -47 40 -122q0 -74 -40.5 -126t-138.5 -52q-67 0 -111 22l-27 -26q-24 -20 -24 -47q0 -15 11.5 -27.5t32.5 -12.5h187q64 0 101 -33t37 -83q0 -76 -62.5 -105t-164.5 -29q-98 0 -152.5 27t-54.5 92q0 26 17.5 51t45.5 39q-26 9 -41.5 28.5t-15.5 44.5
q0 22 8 41.5t29 39.5l31 30q-44 44 -44 126q0 74 42.5 125t145.5 51q49 0 82 -12h136v-42zM325.5 220q20.5 33 20.5 96q0 62 -20.5 94.5t-70.5 32.5t-70 -32.5t-20 -94.5q0 -63 20 -96t70 -33t70.5 33zM134.5 -35.5q-10.5 -21.5 -10.5 -45.5q0 -39 30.5 -55.5t89.5 -16.5
q76 0 108.5 18.5t32.5 65.5q0 33 -24 51t-60 18h-139q-17 -14 -27.5 -35.5z" />
    <glyph glyph-name="h" unicode="h" horiz-adv-x="555" 
d="M445.5 452q37.5 -40 37.5 -113v-339h-101v331q0 53 -19 79t-60 26q-62 0 -120 -46v-390h-101v634l101 13v-205q32 23 70 36.5t76 13.5q79 0 116.5 -40z" />
    <glyph glyph-name="i" unicode="i" horiz-adv-x="263" 
d="M88 561.5q-18 18.5 -18 43.5q0 26 18 44.5t44 18.5t44.5 -18.5t18.5 -44.5q0 -25 -19 -43.5t-44 -18.5q-26 0 -44 18.5zM180 0h-99v480h99v-480z" />
    <glyph glyph-name="j" unicode="j" horiz-adv-x="265" 
d="M88 561.5q-18 18.5 -18 43.5q0 26 18 44.5t44 18.5t44.5 -18.5t18.5 -44.5q0 -25 -19 -43.5t-44 -18.5q-26 0 -44 18.5zM23 -145q27 0 43 20.5t16 54.5v550h101v-530q0 -76 -40 -114.5t-114 -38.5q-59 0 -120 36l33 72q34 -50 81 -50z" />
    <glyph glyph-name="k" unicode="k" horiz-adv-x="484" 
d="M366 0l-148 223l-35 -38v-185h-101v634l101 13v-401l219 234h58l-180 -191l195 -289h-109z" />
    <glyph glyph-name="l" unicode="l" horiz-adv-x="265" 
d="M183 0h-101v634l101 13v-647z" />
    <glyph glyph-name="m" unicode="m" horiz-adv-x="836" 
d="M723.5 452q37.5 -40 37.5 -113v-339h-100v342q0 46 -21 70t-61 24q-60 0 -111 -44q7 -28 7 -53v-339h-102v342q0 94 -84 94q-57 0 -106 -42v-394h-101v480h44l39 -49q32 27 72 44t83 17q96 0 133 -62q31 27 71.5 44.5t84.5 17.5q77 0 114.5 -40z" />
    <glyph glyph-name="n" unicode="n" horiz-adv-x="555" 
d="M483 339v-339h-101v331q0 54 -19 79.5t-60 25.5q-61 0 -120 -46v-390h-101v480h44l40 -50q36 28 79.5 45t83.5 17q154 0 154 -153z" />
    <glyph glyph-name="o" unicode="o" horiz-adv-x="523" 
d="M93.5 57.5q-47.5 69.5 -47.5 182.5q0 114 47.5 183t168.5 69q120 0 168 -69.5t48 -182.5q0 -252 -216 -252q-121 0 -168.5 69.5zM352.5 91q24.5 53 24.5 149q0 97 -24 149.5t-91 52.5t-91 -52t-24 -150q0 -97 24 -149.5t91 -52.5q66 0 90.5 53z" />
    <glyph glyph-name="p" unicode="p" horiz-adv-x="540" 
d="M451 423q42 -69 42 -183q0 -113 -43 -182.5t-152 -69.5q-57 0 -115 22v-200l-101 -13v683h45l37 -41q30 24 66.5 38.5t72.5 14.5q106 0 148 -69zM365.5 91q27.5 53 27.5 149q0 87 -27.5 141.5t-88.5 54.5q-47 0 -94 -33v-348q40 -17 91 -17q64 0 91.5 53z" />
    <glyph glyph-name="q" unicode="q" horiz-adv-x="537" 
d="M457 480v-656l-101 -14v208q-58 -30 -117 -30q-108 0 -150.5 69.5t-42.5 182.5q0 114 42.5 183t150.5 69q78 0 140 -53l33 41h45zM356 61v343q-41 33 -93 33q-60 0 -88 -52.5t-28 -144.5q0 -202 120 -202q47 0 89 23z" />
    <glyph glyph-name="r" unicode="r" horiz-adv-x="340" 
d="M238.5 458q41.5 26 99.5 26v-74q-154 0 -154 -120h-1v-290h-101v480h44l48 -91q23 43 64.5 69z" />
    <glyph glyph-name="s" unicode="s" horiz-adv-x="456" 
d="M383.5 225q33.5 -31 33.5 -90q0 -68 -47.5 -107.5t-134.5 -39.5q-94 0 -140 38.5t-56 111.5l83 10q5 -52 33 -81t80 -29q42 0 69 23t27 53t-24 48t-79 32l-48 14q-64 17 -98 50t-34 93q0 65 48 103t133 38q89 0 132 -37.5t52 -109.5l-83 -7q-5 49 -30.5 76.5t-70.5 27.5
q-47 0 -71 -19t-24 -50q0 -34 23.5 -52t74.5 -32l44 -13q74 -20 107.5 -51z" />
    <glyph glyph-name="t" unicode="t" horiz-adv-x="303" 
d="M307 17q-53 -29 -102 -29q-50 0 -74.5 18.5t-30.5 44.5t-6 64v314h-78v51h78v78l102 38v-116h102v-51h-102v-326q0 -33 8.5 -45.5t28.5 -12.5q28 0 61 18z" />
    <glyph glyph-name="u" unicode="u" horiz-adv-x="556" 
d="M475 480v-480h-66l-28 60q-67 -72 -157 -72q-78 0 -115 40.5t-37 114.5v337h101v-327q0 -112 88 -112q65 0 113 63v376h101z" />
    <glyph glyph-name="v" unicode="v" horiz-adv-x="461" 
d="M452 480l-167 -480h-111l-164 480h101l140 -429l143 429h58z" />
    <glyph glyph-name="w" unicode="w" horiz-adv-x="641" 
d="M631 480l-125 -480h-111l-77 341l-86 -341h-112l-106 480h102l82 -402l97 402h59l-1 -2l3 2h33l84 -404l98 404h60z" />
    <glyph glyph-name="x" unicode="x" horiz-adv-x="432" 
d="M319 0l-124 187l-138 -187h-60l173 226l-167 254h112l118 -180l132 180h60l-167 -219l173 -261h-112z" />
    <glyph glyph-name="y" unicode="y" horiz-adv-x="460" 
d="M452 480l-245 -683l-82 12l93 172l-208 499h101l153 -379l130 379h58z" />
    <glyph glyph-name="z" unicode="z" horiz-adv-x="430" 
d="M401 51v-51h-372v63l258 366h-248v51h352v-63l-256 -366h266z" />
    <glyph glyph-name="braceleft" unicode="{" horiz-adv-x="271" 
d="M158 292q15 -14 15 -40q0 -16 -4 -46q-4 -34 -4 -56q0 -138 98 -138v-42q-106 0 -154 46.5t-48 123.5q0 19 4 53q1 8 2 19t1 25q0 25 -19 37t-41 12v42q21 0 40.5 11.5t19.5 36.5q0 15 -1 26.5t-2 19.5q-4 32 -4 51q0 78 47.5 124t154.5 46v-41q-98 0 -98 -133
q0 -23 4 -55q4 -28 4 -44q0 -26 -15 -41.5t-37 -15.5v-7q22 0 37 -14z" />
    <glyph glyph-name="bar" unicode="|" horiz-adv-x="282" 
d="M195 652v-741h-110v741h110z" />
    <glyph glyph-name="braceright" unicode="}" horiz-adv-x="271" 
d="M150 313q-21 0 -36.5 15.5t-15.5 41.5q0 16 4 44q4 32 4 55q0 133 -98 133v41q107 0 154.5 -46t47.5 -124q0 -12 -1.5 -28t-1.5 -23q-3 -24 -3 -46q0 -25 19 -36.5t40 -11.5v-42q-21 0 -40 -12t-19 -37q0 -21 3 -44q1 -8 2 -24t1 -29q0 -77 -48 -123.5t-154 -46.5v42
q53 0 75.5 36.5t22.5 101.5q0 22 -4 56q-4 30 -4 46q0 26 15 40t37 14v7z" />
    <glyph glyph-name="asciitilde" unicode="~" horiz-adv-x="487" 
d="M148 284q21 0 42 4.5t53 13.5q31 9 53.5 13.5t43.5 4.5q18 0 38.5 -4t35.5 -12v-71q-15 8 -35.5 12.5t-38.5 4.5q-21 0 -43.5 -4.5t-53.5 -13.5q-32 -9 -53 -13.5t-42 -4.5q-42 0 -73 19v71q29 -20 73 -20z" />
    <glyph glyph-name="DEL" 
 />
    <glyph glyph-name="uni00A0" unicode="&#xa0;" horiz-adv-x="235" 
 />
    <glyph glyph-name="exclamdown" unicode="&#xa1;" horiz-adv-x="276" 
d="M178.5 476q17.5 -17 17.5 -41t-17.5 -41t-41.5 -17t-41 17t-17 41q0 23 17.5 40.5t40.5 17.5q24 0 41.5 -17zM86 -127v150l21 291h59l22 -291v-150h-102z" />
    <glyph glyph-name="cent" unicode="&#xa2;" horiz-adv-x="529" 
d="M439.5 83.5q-39.5 -43.5 -124.5 -50.5v-101h-69v102q-106 12 -145.5 84t-39.5 188q0 114 39.5 186t145.5 86v102h69v-100q151 -11 163 -180l-81 -4q-2 64 -27 104t-75 40q-57 0 -86 -31t-38 -80t-9 -123q0 -108 26 -170.5t95 -62.5q63 0 91.5 34t31.5 99l79 -4
q-6 -75 -45.5 -118.5z" />
    <glyph glyph-name="sterling" unicode="&#xa3;" horiz-adv-x="529" 
d="M493 81v-81h-432v62q25 19 36 45.5t11 53.5v93h-53v70h53v118q0 89 45 136t149 47q98 0 140.5 -46t42.5 -139l-90 -5q0 73 -22 111t-71 38q-51 0 -70 -35.5t-19 -106.5v-118h189v-70h-189v-77q0 -37 -10.5 -58t-36.5 -38h327z" />
    <glyph glyph-name="currency" unicode="&#xa4;" horiz-adv-x="529" 
d="M424 197l72 -74l-47 -47l-73 72q-44 -28 -113 -28q-63 0 -107 29l-75 -73l-47 47l76 78q-24 44 -24 105q0 64 25 107l-77 78l47 46l76 -75q45 31 117 31q62 0 103 -27l72 71l47 -46l-73 -73q28 -45 28 -112q0 -64 -27 -109zM339 203q23 42 23 103t-20.5 103.5t-67.5 42.5
q-52 0 -75 -42.5t-23 -103.5q0 -59 21 -102t66 -43q53 0 76 42z" />
    <glyph glyph-name="yen" unicode="&#xa5;" horiz-adv-x="529" 
d="M396 382h80v-60h-109l-30 -65h139v-61h-160v-196h-103v196h-161v61h141l-31 65h-110v60h82l-109 231h103l155 -342l162 342h60z" />
    <glyph glyph-name="brokenbar" unicode="&#xa6;" horiz-adv-x="282" 
d="M195 652v-293h-110v293h110zM195 205v-294h-110v294h110z" />
    <glyph glyph-name="section" unicode="&#xa7;" horiz-adv-x="421" 
d="M290 30q43 -55 43 -115q0 -63 -49 -108t-130 -64l-22 74q37 7 68.5 29.5t31.5 54.5q0 24 -8.5 41.5t-31.5 44.5l-110 129q-60 72 -60 137q0 102 108 149q-42 59 -42 115q0 65 48 109t131 63l22 -73q-39 -8 -69.5 -30t-30.5 -55q0 -23 7.5 -40.5t26.5 -39.5l111 -132
q64 -67 64 -139q0 -102 -108 -150zM280 122q17 18 17 42q0 26 -8.5 43.5t-31.5 43.5l-75 89q-58 -25 -58 -70q0 -26 7 -43t26 -40l80 -94q26 11 43 29z" />
    <glyph glyph-name="dieresis" unicode="&#xa8;" horiz-adv-x="312" 
d="M25.5 566q-16.5 17 -16.5 39q0 24 16.5 41.5t39.5 17.5q24 0 41.5 -17.5t17.5 -41.5q0 -23 -17.5 -39.5t-41.5 -16.5q-23 0 -39.5 17zM207.5 566.5q-17.5 17.5 -17.5 38.5q0 24 17 41.5t40 17.5q24 0 40.5 -17.5t16.5 -41.5q0 -23 -16 -39.5t-41 -16.5q-22 0 -39.5 17.5z
" />
    <glyph glyph-name="copyright" unicode="&#xa9;" horiz-adv-x="616" 
d="M113.5 666q67.5 67 196.5 67q127 0 194 -67t67 -196q0 -127 -67 -194t-194 -67q-129 0 -196.5 67t-67.5 194q0 129 67.5 196zM154.5 313.5q51.5 -53.5 155.5 -53.5q103 0 154.5 53.5t51.5 156.5t-51.5 157.5t-154.5 54.5q-104 0 -155.5 -54t-51.5 -158
q0 -103 51.5 -156.5zM360.5 585.5q-15.5 15.5 -47.5 15.5q-72 0 -72 -129q0 -63 17 -95.5t58 -32.5q32 0 47.5 20t17.5 54l51 -2q-9 -121 -120 -121q-72 0 -101.5 44.5t-29.5 132.5q0 86 30.5 130t100.5 44q109 0 118 -104l-51 -3q-3 31 -18.5 46.5z" />
    <glyph glyph-name="ordfeminine" unicode="&#xaa;" horiz-adv-x="370" 
d="M96 612.5q34 25.5 90 25.5q60 0 97 -25t37 -91v-228h-44l-28 41q-23 -22 -50.5 -35.5t-67.5 -13.5q-47 0 -69 24t-22 66q0 85 118 103l76 9v33q0 46 -12 64.5t-35 18.5q-27 0 -42 -19.5t-19 -64.5l-70 18q7 49 41 74.5zM233 358v102l-43 -6q-72 -12 -72 -76q0 -22 13 -36
t37 -14q39 0 65 30zM326 235v-58h-296v58h296z" />
    <glyph glyph-name="guillemotleft" unicode="&#xab;" horiz-adv-x="434" 
d="M213 131l-32 -31l-151 147v37l151 146l32 -31l-94 -134zM403 131l-35 -31l-148 147v37l148 146l35 -31l-96 -134z" />
    <glyph glyph-name="logicalnot" unicode="&#xac;" horiz-adv-x="487" 
d="M414 233h-1v-116h-68v116h-270v71h339v-71z" />
    <glyph glyph-name="uni00AD" unicode="&#xad;" horiz-adv-x="410" 
d="M52 299h295l26 56h-294z" />
    <glyph glyph-name="registered" unicode="&#xae;" horiz-adv-x="616" 
d="M113.5 666q67.5 67 196.5 67q127 0 194 -67t67 -196q0 -127 -67 -194t-194 -67q-129 0 -196.5 67t-67.5 194q0 129 67.5 196zM154.5 313.5q51.5 -53.5 155.5 -53.5q103 0 154.5 53.5t51.5 156.5t-51.5 157.5t-154.5 54.5q-104 0 -155.5 -54t-51.5 -158
q0 -103 51.5 -156.5zM400.5 611q22.5 -29 22.5 -71q0 -34 -11.5 -60t-45.5 -35q10 -7 20 -30l50 -113h-63l-47 110q-4 13 -12.5 18.5t-21.5 5.5h-29v-134h-59v338h107q67 0 89.5 -29zM363 537q0 25 -10 41.5t-40 16.5h-49v-115h49q50 0 50 57z" />
    <glyph glyph-name="macron" unicode="&#xaf;" horiz-adv-x="298" 
d="M272 641v-71h-246v71h246z" />
    <glyph glyph-name="degree" unicode="&#xb0;" horiz-adv-x="359" 
d="M69 352q-39 38 -39 117q0 73 37 114.5t112 41.5q69 0 108 -38.5t39 -117.5q0 -72 -37 -113.5t-110 -41.5q-71 0 -110 38zM248 469q0 115 -69 115q-33 0 -50.5 -26.5t-17.5 -88.5q0 -111 68 -111q69 0 69 111z" />
    <glyph glyph-name="plusminus" unicode="&#xb1;" horiz-adv-x="487" 
d="M209 346v133h71v-133h134v-71h-134v-135h-71v135h-134v71h134zM414 71v-71h-339v71h339z" />
    <glyph glyph-name="uni00B2" unicode="&#xb2;" horiz-adv-x="373" 
d="M187 679q59 0 92.5 -22t33.5 -62q0 -28 -12.5 -52t-48.5 -55l-114 -94h175v-58h-255v47l126 105q32 29 42 51.5t10 55.5q0 26 -12.5 40t-36.5 14q-56 0 -57 -84l-68 9q9 105 125 105z" />
    <glyph glyph-name="uni00B3" unicode="&#xb3;" horiz-adv-x="373" 
d="M293.5 477q24.5 -20 24.5 -57q0 -39 -35.5 -65t-99.5 -26q-61 0 -92.5 22t-35.5 71l66 7q3 -35 18 -51.5t44 -16.5q62 0 62 59q0 39 -19 52t-54 13h-40v35h41q37 0 51.5 18.5t14.5 55.5q0 29 -13 42t-42 13q-54 0 -57 -74l-66 6q4 52 34.5 75t88.5 23q62 0 95.5 -23.5
t33.5 -61.5t-23.5 -60.5t-62.5 -30.5q42 -6 66.5 -26z" />
    <glyph glyph-name="acute" unicode="&#xb4;" horiz-adv-x="255" 
d="M191 712l62 -72l-164 -109l-21 23z" />
    <glyph glyph-name="mu" unicode="&#xb5;" horiz-adv-x="556" 
d="M484 480v-337q0 -74 -36.5 -114.5t-114.5 -40.5q-88 0 -153 67l-33 -258h-65v683h101v-376q46 -63 113 -63q87 0 87 112v327h101z" />
    <glyph glyph-name="paragraph" unicode="&#xb6;" horiz-adv-x="427" 
d="M327 563v-563h-102v231h-39q-87 0 -129 47t-42 119q0 70 42 118t129 48h141z" />
    <glyph glyph-name="periodcentered" unicode="&#xb7;" horiz-adv-x="175" 
d="M46 234q-17 18 -17 41q0 24 17 41t40 17q25 0 42 -17t17 -41t-17 -41.5t-42 -17.5q-23 0 -40 18z" />
    <glyph glyph-name="cedilla" unicode="&#xb8;" horiz-adv-x="239" 
d="M196.5 -73q25.5 -22 25.5 -56q0 -35 -22.5 -58.5t-72.5 -23.5q-48 0 -71.5 22t-23.5 60l59 8q0 -27 9 -42t26 -15q28 0 28 44q0 24 -17 38t-62 22l23 79h46l-17 -51q44 -5 69.5 -27z" />
    <glyph glyph-name="uni00B9" unicode="&#xb9;" horiz-adv-x="382" 
d="M305 367v-31h-227v31h80v245l-81 -2v29q29 -1 65 9t60 25h33v-306h70z" />
    <glyph glyph-name="ordmasculine" unicode="&#xba;" horiz-adv-x="375" 
d="M30 462q0 176 157 176q87 0 121.5 -48.5t34.5 -127.5t-34.5 -127.5t-121.5 -48.5q-157 0 -157 176zM243.5 357.5q14.5 33.5 14.5 104.5q0 72 -14.5 106.5t-56.5 34.5q-41 0 -55 -34.5t-14 -106.5q0 -71 14 -104.5t55 -33.5q42 0 56.5 33.5zM334 235v-58h-294v58h294z" />
    <glyph glyph-name="guillemotright" unicode="&#xbb;" horiz-adv-x="434" 
d="M32 399l34 31l149 -146v-37l-149 -147l-34 31l95 134zM222 399l32 31l150 -146v-37l-150 -147l-32 31l93 134z" />
    <glyph glyph-name="onequarter" unicode="&#xbc;" horiz-adv-x="860" 
d="M305 312v-31h-227v31h80v245l-81 -2v29q29 -1 65 9t60 25h33v-306h70zM540 613l-164 -613h-42l162 613h44zM809 64h-37v-64h-77v64h-177v48l140 225h114v-216h37v-57zM695 121v189l-115 -189h115z" />
    <glyph glyph-name="onehalf" unicode="&#xbd;" horiz-adv-x="860" 
d="M312 312v-31h-227v31h80v245l-81 -2v29q29 -1 65 9t60 25h33v-306h70zM540 613l-164 -613h-42l162 613h44zM674 343q59 0 92.5 -22t33.5 -62q0 -28 -12.5 -52t-48.5 -55l-114 -94h175v-58h-255v47l126 105q32 29 42 51.5t10 55.5q0 26 -12.5 40t-36.5 14q-56 0 -57 -84
l-68 9q9 105 125 105z" />
    <glyph glyph-name="threequarters" unicode="&#xbe;" horiz-adv-x="860" 
d="M318 365q0 -39 -35.5 -65t-99.5 -26q-61 0 -92.5 22t-35.5 71l66 7q3 -35 18 -51.5t44 -16.5q62 0 62 59q0 39 -19 52t-54 13h-40v35h41q37 0 51.5 18.5t14.5 55.5q0 29 -13 42t-42 13q-54 0 -57 -74l-66 6q4 52 34.5 75t88.5 23q62 0 95.5 -23.5t33.5 -61.5
q0 -37 -23.5 -60t-62.5 -31q91 -12 91 -83zM540 613l-164 -613h-42l162 613h44zM809 64h-37v-64h-77v64h-177v48l140 225h114v-216h37v-57zM695 121v189l-115 -189h115z" />
    <glyph glyph-name="questiondown" unicode="&#xbf;" horiz-adv-x="418" 
d="M258 475.5q17 -17.5 17 -40.5q0 -25 -17 -41.5t-41 -16.5t-41 17t-17 41t17.5 41t40.5 17q24 0 41 -17.5zM329 -97q-48 -42 -130 -42q-62 0 -105 23t-64 61t-21 83q0 69 46 116.5t119 72.5l11 97h63l9 -97q-81 -35 -116 -83t-35 -120q0 -54 23.5 -83t69.5 -29
q87 0 101 133l87 -14q-10 -76 -58 -118z" />
    <glyph glyph-name="Agrave" unicode="&#xc0;" horiz-adv-x="540" 
d="M373 183h-244l-58 -183h-58l198 613h122l198 -613h-99zM357 232l-106 333l-106 -333h212zM316 664l-166 109l62 72l125 -158z" />
    <glyph glyph-name="Aacute" unicode="&#xc1;" horiz-adv-x="540" 
d="M373 183h-244l-58 -183h-58l198 613h122l198 -613h-99zM357 232l-106 333l-106 -333h212zM332 845l62 -72l-164 -109l-21 23z" />
    <glyph glyph-name="Acircumflex" unicode="&#xc2;" horiz-adv-x="540" 
d="M373 183h-244l-58 -183h-58l198 613h122l198 -613h-99zM357 232l-106 333l-106 -333h212zM248 831h45l96 -146l-26 -23l-93 87l-90 -87l-28 23z" />
    <glyph glyph-name="Atilde" unicode="&#xc3;" horiz-adv-x="540" 
d="M373 183h-244l-58 -183h-58l198 613h122l198 -613h-99zM357 232l-106 333l-106 -333h212zM289.5 702q-20.5 7 -25.5 9q-13 5 -27 9.5t-25 4.5q-18 0 -30 -9t-20 -28l-31 11q8 51 29.5 75t49.5 24t68 -18q13 -5 26.5 -9.5t24.5 -4.5q19 0 31.5 8t19.5 26l31 -12
q-9 -49 -30 -71t-49 -22q-22 0 -42.5 7z" />
    <glyph glyph-name="Adieresis" unicode="&#xc4;" horiz-adv-x="540" 
d="M373 183h-244l-58 -183h-58l198 613h122l198 -613h-99zM357 232l-106 333l-106 -333h212zM140.5 699q-16.5 17 -16.5 39q0 24 16.5 41.5t39.5 17.5q24 0 41.5 -17.5t17.5 -41.5q0 -23 -17.5 -39.5t-41.5 -16.5q-23 0 -39.5 17zM322.5 699.5q-17.5 17.5 -17.5 38.5
q0 24 17 41.5t40 17.5q24 0 40.5 -17.5t16.5 -41.5q0 -23 -16 -39.5t-41 -16.5q-22 0 -39.5 17.5z" />
    <glyph glyph-name="Aring" unicode="&#xc5;" horiz-adv-x="540" 
d="M373 183h-244l-58 -183h-58l198 613h122l198 -613h-99zM357 232l-106 333l-106 -333h212zM200.5 685.5q-19.5 27.5 -19.5 64.5q0 93 92 93t92 -93q0 -92 -92 -92q-53 0 -72.5 27.5zM303.5 709q8.5 18 8.5 41q0 59 -40 59q-37 0 -37 -59q0 -23 8 -41t29 -18q23 0 31.5 18z
" />
    <glyph glyph-name="AE" unicode="&#xc6;" horiz-adv-x="779" 
d="M748 51v-51h-357v269h-202l-115 -269h-61l270 613h447v-51h-237v-240h219v-53h-219v-218h255zM391 322v240h-76l-103 -240h179z" />
    <glyph glyph-name="Ccedilla" unicode="&#xc7;" horiz-adv-x="529" 
d="M448.5 41q-42.5 -51 -145.5 -53l-11 -34q44 -5 69.5 -27t25.5 -56q0 -35 -22.5 -58.5t-72.5 -23.5q-48 0 -71.5 22t-23.5 60l59 8q0 -27 9 -42t26 -15q28 0 28 44q0 24 -17 38t-62 22l19 64q-117 10 -162.5 87.5t-45.5 228.5q0 107 21.5 176.5t75 106t148.5 36.5
q101 0 145 -41.5t54 -122.5l-82 -15q-12 137 -117 137q-57 0 -88 -30t-43 -89t-12 -158q0 -98 12 -156.5t43 -88.5t88 -30q63 0 90.5 42.5t29.5 119.5l83 -3q-8 -98 -50.5 -149z" />
    <glyph glyph-name="Egrave" unicode="&#xc8;" horiz-adv-x="470" 
d="M439 51v-51h-357v613h339v-51h-237v-223h216v-53h-216v-235h255zM296 664l-166 109l62 72l125 -158z" />
    <glyph glyph-name="Eacute" unicode="&#xc9;" horiz-adv-x="470" 
d="M439 51v-51h-357v613h339v-51h-237v-223h216v-53h-216v-235h255zM312 845l62 -72l-164 -109l-21 23z" />
    <glyph glyph-name="Ecircumflex" unicode="&#xca;" horiz-adv-x="470" 
d="M439 51v-51h-357v613h339v-51h-237v-223h216v-53h-216v-235h255zM228 831h45l96 -146l-26 -23l-93 87l-90 -87l-28 23z" />
    <glyph glyph-name="Edieresis" unicode="&#xcb;" horiz-adv-x="470" 
d="M439 51v-51h-357v613h339v-51h-237v-223h216v-53h-216v-235h255zM121.5 699q-16.5 17 -16.5 39q0 24 16.5 41.5t39.5 17.5q24 0 41.5 -17.5t17.5 -41.5q0 -23 -17.5 -39.5t-41.5 -16.5q-23 0 -39.5 17zM303.5 699.5q-17.5 17.5 -17.5 38.5q0 24 17 41.5t40 17.5
q24 0 40.5 -17.5t16.5 -41.5q0 -23 -16 -39.5t-41 -16.5q-22 0 -39.5 17.5z" />
    <glyph glyph-name="Igrave" unicode="&#xcc;" horiz-adv-x="266" 
d="M184 0h-102v613h102v-613zM178 664l-166 109l62 72l125 -158z" />
    <glyph glyph-name="Iacute" unicode="&#xcd;" horiz-adv-x="266" 
d="M184 0h-102v613h102v-613zM194 845l62 -72l-164 -109l-21 23z" />
    <glyph glyph-name="Icircumflex" unicode="&#xce;" horiz-adv-x="266" 
d="M184 0h-102v613h102v-613zM110 831h45l96 -146l-26 -23l-93 87l-90 -87l-28 23z" />
    <glyph glyph-name="Idieresis" unicode="&#xcf;" horiz-adv-x="266" 
d="M184 0h-102v613h102v-613zM2.5 699q-16.5 17 -16.5 39q0 24 16.5 41.5t39.5 17.5q24 0 41.5 -17.5t17.5 -41.5q0 -23 -17.5 -39.5t-41.5 -16.5q-23 0 -39.5 17zM184.5 699.5q-17.5 17.5 -17.5 38.5q0 24 17 41.5t40 17.5q24 0 40.5 -17.5t16.5 -41.5q0 -23 -16 -39.5
t-41 -16.5q-22 0 -39.5 17.5z" />
    <glyph glyph-name="Eth" unicode="&#xd0;" horiz-adv-x="599" 
d="M439.5 574q55.5 -39 76.5 -106t21 -162t-21 -161.5t-76.5 -105.5t-154.5 -39h-203v273h-56v64h56v276h203q99 0 154.5 -39zM400.5 108.5q33.5 70.5 33.5 197.5q0 128 -33.5 198.5t-127.5 70.5h-89v-238h151v-64h-151v-235h89q94 0 127.5 70.5z" />
    <glyph glyph-name="Ntilde" unicode="&#xd1;" horiz-adv-x="640" 
d="M558 0h-111l-302 512v-512h-60v613h109l303 -511v511h60v-612zM338.5 702q-20.5 7 -25.5 9q-13 5 -27 9.5t-25 4.5q-18 0 -30 -9t-20 -28l-31 11q8 51 29.5 75t49.5 24t68 -18q13 -5 26.5 -9.5t24.5 -4.5q19 0 31.5 8t19.5 26l31 -12q-9 -49 -30 -71t-49 -22
q-22 0 -42.5 7z" />
    <glyph glyph-name="Ograve" unicode="&#xd2;" horiz-adv-x="599" 
d="M111.5 65.5q-60.5 77.5 -60.5 240.5q0 165 60 242t187 77q128 0 188 -77.5t60 -241.5q0 -163 -60.5 -240.5t-187.5 -77.5q-126 0 -186.5 77.5zM408 98.5q36 67.5 36 207.5q0 142 -36 209.5t-110 67.5t-109.5 -67t-35.5 -210q0 -142 35.5 -208.5t109.5 -66.5t110 67.5z
M345 664l-166 109l62 72l125 -158z" />
    <glyph glyph-name="Oacute" unicode="&#xd3;" horiz-adv-x="599" 
d="M111.5 65.5q-60.5 77.5 -60.5 240.5q0 165 60 242t187 77q128 0 188 -77.5t60 -241.5q0 -163 -60.5 -240.5t-187.5 -77.5q-126 0 -186.5 77.5zM408 98.5q36 67.5 36 207.5q0 142 -36 209.5t-110 67.5t-109.5 -67t-35.5 -210q0 -142 35.5 -208.5t109.5 -66.5t110 67.5z
M361 845l62 -72l-164 -109l-21 23z" />
    <glyph glyph-name="Ocircumflex" unicode="&#xd4;" horiz-adv-x="599" 
d="M111.5 65.5q-60.5 77.5 -60.5 240.5q0 165 60 242t187 77q128 0 188 -77.5t60 -241.5q0 -163 -60.5 -240.5t-187.5 -77.5q-126 0 -186.5 77.5zM408 98.5q36 67.5 36 207.5q0 142 -36 209.5t-110 67.5t-109.5 -67t-35.5 -210q0 -142 35.5 -208.5t109.5 -66.5t110 67.5z
M277 831h45l96 -146l-26 -23l-93 87l-90 -87l-28 23z" />
    <glyph glyph-name="Otilde" unicode="&#xd5;" horiz-adv-x="599" 
d="M111.5 65.5q-60.5 77.5 -60.5 240.5q0 165 60 242t187 77q128 0 188 -77.5t60 -241.5q0 -163 -60.5 -240.5t-187.5 -77.5q-126 0 -186.5 77.5zM408 98.5q36 67.5 36 207.5q0 142 -36 209.5t-110 67.5t-109.5 -67t-35.5 -210q0 -142 35.5 -208.5t109.5 -66.5t110 67.5z
M318.5 702q-20.5 7 -25.5 9q-13 5 -27 9.5t-25 4.5q-18 0 -30 -9t-20 -28l-31 11q8 51 29.5 75t49.5 24t68 -18q13 -5 26.5 -9.5t24.5 -4.5q19 0 31.5 8t19.5 26l31 -12q-9 -49 -30 -71t-49 -22q-22 0 -42.5 7z" />
    <glyph glyph-name="Odieresis" unicode="&#xd6;" horiz-adv-x="599" 
d="M111.5 65.5q-60.5 77.5 -60.5 240.5q0 165 60 242t187 77q128 0 188 -77.5t60 -241.5q0 -163 -60.5 -240.5t-187.5 -77.5q-126 0 -186.5 77.5zM408 98.5q36 67.5 36 207.5q0 142 -36 209.5t-110 67.5t-109.5 -67t-35.5 -210q0 -142 35.5 -208.5t109.5 -66.5t110 67.5z
M169.5 699q-16.5 17 -16.5 39q0 24 16.5 41.5t39.5 17.5q24 0 41.5 -17.5t17.5 -41.5q0 -23 -17.5 -39.5t-41.5 -16.5q-23 0 -39.5 17zM351.5 699.5q-17.5 17.5 -17.5 38.5q0 24 17 41.5t40 17.5q24 0 40.5 -17.5t16.5 -41.5q0 -23 -16 -39.5t-41 -16.5q-22 0 -39.5 17.5z
" />
    <glyph glyph-name="multiply" unicode="&#xd7;" horiz-adv-x="487" 
d="M194 268l-110 110l51 49l109 -109l111 109l49 -49l-109 -110l109 -112l-49 -48l-111 109l-109 -109l-51 48z" />
    <glyph glyph-name="Oslash" unicode="&#xd8;" horiz-adv-x="599" 
d="M508.5 511.5q37.5 -75.5 37.5 -205.5q0 -163 -60.5 -240.5t-187.5 -77.5q-26 0 -50 3l-9 -38h-42l11 47q-80 25 -118.5 100t-38.5 206q0 165 60 242t187 77q30 0 53 -4l8 37h44l-11 -46q79 -25 116.5 -100.5zM170 146q17 -62 51 -90l119 520q-23 7 -42 7
q-74 0 -109.5 -67t-35.5 -210q0 -98 17 -160zM408 98.5q36 67.5 36 207.5q0 189 -65 248l-121 -518q15 -5 40 -5q74 0 110 67.5z" />
    <glyph glyph-name="Ugrave" unicode="&#xd9;" horiz-adv-x="588" 
d="M519 203q0 -77 -32.5 -125.5t-82 -69t-104.5 -20.5q-99 0 -164.5 49.5t-65.5 165.5v410h102v-410q0 -86 36.5 -125.5t98.5 -39.5q64 0 108.5 40.5t44.5 124.5v410h59v-410zM349 664l-166 109l62 72l125 -158z" />
    <glyph glyph-name="Uacute" unicode="&#xda;" horiz-adv-x="588" 
d="M519 203q0 -77 -32.5 -125.5t-82 -69t-104.5 -20.5q-99 0 -164.5 49.5t-65.5 165.5v410h102v-410q0 -86 36.5 -125.5t98.5 -39.5q64 0 108.5 40.5t44.5 124.5v410h59v-410zM365 845l62 -72l-164 -109l-21 23z" />
    <glyph glyph-name="Ucircumflex" unicode="&#xdb;" horiz-adv-x="588" 
d="M519 203q0 -77 -32.5 -125.5t-82 -69t-104.5 -20.5q-99 0 -164.5 49.5t-65.5 165.5v410h102v-410q0 -86 36.5 -125.5t98.5 -39.5q64 0 108.5 40.5t44.5 124.5v410h59v-410zM281 831h45l96 -146l-26 -23l-93 87l-90 -87l-28 23z" />
    <glyph glyph-name="Udieresis" unicode="&#xdc;" horiz-adv-x="588" 
d="M519 203q0 -77 -32.5 -125.5t-82 -69t-104.5 -20.5q-99 0 -164.5 49.5t-65.5 165.5v410h102v-410q0 -86 36.5 -125.5t98.5 -39.5q64 0 108.5 40.5t44.5 124.5v410h59v-410zM173.5 699q-16.5 17 -16.5 39q0 24 16.5 41.5t39.5 17.5q24 0 41.5 -17.5t17.5 -41.5
q0 -23 -17.5 -39.5t-41.5 -16.5q-23 0 -39.5 17zM355.5 699.5q-17.5 17.5 -17.5 38.5q0 24 17 41.5t40 17.5q24 0 40.5 -17.5t16.5 -41.5q0 -23 -16 -39.5t-41 -16.5q-22 0 -39.5 17.5z" />
    <glyph glyph-name="Yacute" unicode="&#xdd;" horiz-adv-x="476" 
d="M289 212l-1 -1v-211h-102v212l-189 401h103l157 -345l161 345h60zM300 845l62 -72l-164 -109l-21 23z" />
    <glyph glyph-name="Thorn" unicode="&#xde;" horiz-adv-x="500" 
d="M478 302q0 -87 -44 -141t-150 -54h-100v-107h-102v605h102v-107h100q194 0 194 -196zM350.5 186.5q25.5 41.5 25.5 115.5q0 157 -106 157h-86v-314h86q55 0 80.5 41.5z" />
    <glyph glyph-name="germandbls" unicode="&#xdf;" horiz-adv-x="551" 
d="M493.5 276.5q41.5 -44.5 41.5 -120.5q0 -72 -41.5 -120t-119.5 -48q-73 0 -111.5 44.5t-38.5 131.5h82q2 -71 15.5 -102.5t47.5 -31.5q37 0 51 35.5t14 96.5q0 72 -26.5 106t-81.5 34h-75v38h43q41 0 63.5 32t22.5 77q0 69 -23 103.5t-73 34.5q-94 0 -94 -138v-449h-101
v449q0 89 50.5 134t144.5 45q96 0 146.5 -45t50.5 -122q0 -44 -28 -80t-74 -53q73 -7 114.5 -51.5z" />
    <glyph glyph-name="agrave" unicode="&#xe0;" horiz-adv-x="511" 
d="M82.5 21.5q-35.5 33.5 -35.5 91.5q0 62 44.5 97.5t135.5 51.5l111 18v49q0 113 -86 113q-51 0 -74 -29t-26 -89l-84 9q6 79 48 119t138 40q93 0 139 -41.5t46 -125.5v-325h-64l-31 70q-31 -40 -74 -61t-91 -21q-61 0 -96.5 33.5zM282.5 61q33.5 20 55.5 47v131l-98 -19
q-50 -11 -75.5 -35t-25.5 -65q0 -36 20.5 -57.5t55.5 -21.5q34 0 67.5 20zM305 531l-166 109l62 72l125 -158z" />
    <glyph glyph-name="aacute" unicode="&#xe1;" horiz-adv-x="511" 
d="M82.5 21.5q-35.5 33.5 -35.5 91.5q0 62 44.5 97.5t135.5 51.5l111 18v49q0 113 -86 113q-51 0 -74 -29t-26 -89l-84 9q6 79 48 119t138 40q93 0 139 -41.5t46 -125.5v-325h-64l-31 70q-31 -40 -74 -61t-91 -21q-61 0 -96.5 33.5zM282.5 61q33.5 20 55.5 47v131l-98 -19
q-50 -11 -75.5 -35t-25.5 -65q0 -36 20.5 -57.5t55.5 -21.5q34 0 67.5 20zM321 712l62 -72l-164 -109l-21 23z" />
    <glyph glyph-name="acircumflex" unicode="&#xe2;" horiz-adv-x="511" 
d="M82.5 21.5q-35.5 33.5 -35.5 91.5q0 62 44.5 97.5t135.5 51.5l111 18v49q0 113 -86 113q-51 0 -74 -29t-26 -89l-84 9q6 79 48 119t138 40q93 0 139 -41.5t46 -125.5v-325h-64l-31 70q-31 -40 -74 -61t-91 -21q-61 0 -96.5 33.5zM282.5 61q33.5 20 55.5 47v131l-98 -19
q-50 -11 -75.5 -35t-25.5 -65q0 -36 20.5 -57.5t55.5 -21.5q34 0 67.5 20zM237 698h45l96 -146l-26 -23l-93 87l-90 -87l-28 23z" />
    <glyph glyph-name="atilde" unicode="&#xe3;" horiz-adv-x="511" 
d="M82.5 21.5q-35.5 33.5 -35.5 91.5q0 62 44.5 97.5t135.5 51.5l111 18v49q0 113 -86 113q-51 0 -74 -29t-26 -89l-84 9q6 79 48 119t138 40q93 0 139 -41.5t46 -125.5v-325h-64l-31 70q-31 -40 -74 -61t-91 -21q-61 0 -96.5 33.5zM282.5 61q33.5 20 55.5 47v131l-98 -19
q-50 -11 -75.5 -35t-25.5 -65q0 -36 20.5 -57.5t55.5 -21.5q34 0 67.5 20zM279.5 569q-20.5 7 -25.5 9q-13 5 -27 9.5t-25 4.5q-18 0 -30 -9t-20 -28l-31 11q8 51 29.5 75t49.5 24t68 -18q13 -5 26.5 -9.5t24.5 -4.5q19 0 31.5 8t19.5 26l31 -12q-9 -49 -30 -71t-49 -22
q-22 0 -42.5 7z" />
    <glyph glyph-name="adieresis" unicode="&#xe4;" horiz-adv-x="511" 
d="M82.5 21.5q-35.5 33.5 -35.5 91.5q0 62 44.5 97.5t135.5 51.5l111 18v49q0 113 -86 113q-51 0 -74 -29t-26 -89l-84 9q6 79 48 119t138 40q93 0 139 -41.5t46 -125.5v-325h-64l-31 70q-31 -40 -74 -61t-91 -21q-61 0 -96.5 33.5zM282.5 61q33.5 20 55.5 47v131l-98 -19
q-50 -11 -75.5 -35t-25.5 -65q0 -36 20.5 -57.5t55.5 -21.5q34 0 67.5 20zM130.5 566q-16.5 17 -16.5 39q0 24 16.5 41.5t39.5 17.5q24 0 41.5 -17.5t17.5 -41.5q0 -23 -17.5 -39.5t-41.5 -16.5q-23 0 -39.5 17zM312.5 566.5q-17.5 17.5 -17.5 38.5q0 24 17 41.5t40 17.5
q24 0 40.5 -17.5t16.5 -41.5q0 -23 -16 -39.5t-41 -16.5q-22 0 -39.5 17.5z" />
    <glyph glyph-name="aring" unicode="&#xe5;" horiz-adv-x="511" 
d="M82.5 21.5q-35.5 33.5 -35.5 91.5q0 62 44.5 97.5t135.5 51.5l111 18v49q0 113 -86 113q-51 0 -74 -29t-26 -89l-84 9q6 79 48 119t138 40q93 0 139 -41.5t46 -125.5v-325h-64l-31 70q-31 -40 -74 -61t-91 -21q-61 0 -96.5 33.5zM282.5 61q33.5 20 55.5 47v131l-98 -19
q-50 -11 -75.5 -35t-25.5 -65q0 -36 20.5 -57.5t55.5 -21.5q34 0 67.5 20zM190.5 552.5q-19.5 27.5 -19.5 64.5q0 93 92 93t92 -93q0 -92 -92 -92q-53 0 -72.5 27.5zM293.5 576q8.5 18 8.5 41q0 59 -40 59q-37 0 -37 -59q0 -23 8 -41t29 -18q23 0 31.5 18z" />
    <glyph glyph-name="ae" unicode="&#xe6;" horiz-adv-x="776" 
d="M421 234v-2q0 -106 25.5 -150t87.5 -44q102 0 107 105l83 -4q-8 -70 -51.5 -110.5t-141.5 -40.5q-132 0 -179 87q-33 -43 -78.5 -65t-94.5 -22q-61 0 -96.5 33.5t-35.5 91.5q0 62 44.5 97.5t135.5 51.5l94 15q4 51 15 84q-13 81 -81 81q-53 0 -76.5 -29t-26.5 -89l-84 9
q6 79 48.5 119t139.5 40q87 0 132 -45q51 45 140 45q115 0 159 -68.5t44 -179.5v-10h-310zM449.5 403.5q-23.5 -38.5 -27.5 -119.5h211q-3 78 -26.5 118t-79.5 40q-54 0 -77.5 -38.5zM282.5 61q33.5 20 54.5 46q-17 50 -17 127l-80 -14q-101 -18 -101 -100q0 -36 20.5 -57.5
t55.5 -21.5q34 0 67.5 20z" />
    <glyph glyph-name="ccedilla" unicode="&#xe7;" horiz-adv-x="484" 
d="M391 33q-41 -44 -134 -45l-11 -34q44 -5 69.5 -27t25.5 -56q0 -35 -22.5 -58.5t-72.5 -23.5q-48 0 -71.5 22t-23.5 60l59 8q0 -27 9 -42t26 -15q28 0 28 44q0 24 -17 38t-62 22l19 64q-95 12 -131 78.5t-36 171.5q0 116 44 184t162 68q96 0 137.5 -41.5t47.5 -121.5
l-85 -11q-2 63 -24.5 93.5t-73.5 30.5q-62 0 -84.5 -50.5t-22.5 -151.5q0 -100 22.5 -151t84.5 -51q51 0 73.5 31t24.5 94l86 -3q-6 -83 -47 -127z" />
    <glyph glyph-name="egrave" unicode="&#xe8;" horiz-adv-x="502" 
d="M147 234v-2q0 -106 25.5 -150t87.5 -44q102 0 107 105l83 -4q-7 -70 -51 -110.5t-142 -40.5q-113 0 -162 62.5t-49 189.5q0 114 46.5 183t163.5 69q113 0 157 -68.5t44 -179.5v-10h-310zM177 403q-24 -39 -29 -119h211q-3 78 -26.5 118t-78.5 40q-53 0 -77 -39zM293 531
l-166 109l62 72l125 -158z" />
    <glyph glyph-name="eacute" unicode="&#xe9;" horiz-adv-x="502" 
d="M147 234v-2q0 -106 25.5 -150t87.5 -44q102 0 107 105l83 -4q-7 -70 -51 -110.5t-142 -40.5q-113 0 -162 62.5t-49 189.5q0 114 46.5 183t163.5 69q113 0 157 -68.5t44 -179.5v-10h-310zM177 403q-24 -39 -29 -119h211q-3 78 -26.5 118t-78.5 40q-53 0 -77 -39zM309 712
l62 -72l-164 -109l-21 23z" />
    <glyph glyph-name="ecircumflex" unicode="&#xea;" horiz-adv-x="502" 
d="M147 234v-2q0 -106 25.5 -150t87.5 -44q102 0 107 105l83 -4q-7 -70 -51 -110.5t-142 -40.5q-113 0 -162 62.5t-49 189.5q0 114 46.5 183t163.5 69q113 0 157 -68.5t44 -179.5v-10h-310zM177 403q-24 -39 -29 -119h211q-3 78 -26.5 118t-78.5 40q-53 0 -77 -39zM225 698
h45l96 -146l-26 -23l-93 87l-90 -87l-28 23z" />
    <glyph glyph-name="edieresis" unicode="&#xeb;" horiz-adv-x="502" 
d="M147 234v-2q0 -106 25.5 -150t87.5 -44q102 0 107 105l83 -4q-7 -70 -51 -110.5t-142 -40.5q-113 0 -162 62.5t-49 189.5q0 114 46.5 183t163.5 69q113 0 157 -68.5t44 -179.5v-10h-310zM177 403q-24 -39 -29 -119h211q-3 78 -26.5 118t-78.5 40q-53 0 -77 -39z
M117.5 566q-16.5 17 -16.5 39q0 24 16.5 41.5t39.5 17.5q24 0 41.5 -17.5t17.5 -41.5q0 -23 -17.5 -39.5t-41.5 -16.5q-23 0 -39.5 17zM299.5 566.5q-17.5 17.5 -17.5 38.5q0 24 17 41.5t40 17.5q24 0 40.5 -17.5t16.5 -41.5q0 -23 -16 -39.5t-41 -16.5q-22 0 -39.5 17.5z
" />
    <glyph glyph-name="igrave" unicode="&#xec;" horiz-adv-x="265" 
d="M183 0h-101v480h101v-480zM177 531l-166 109l62 72l125 -158z" />
    <glyph glyph-name="iacute" unicode="&#xed;" horiz-adv-x="265" 
d="M183 0h-101v480h101v-480zM193 712l62 -72l-164 -109l-21 23z" />
    <glyph glyph-name="icircumflex" unicode="&#xee;" horiz-adv-x="265" 
d="M183 0h-101v480h101v-480zM109 698h45l96 -146l-26 -23l-93 87l-90 -87l-28 23z" />
    <glyph glyph-name="idieresis" unicode="&#xef;" horiz-adv-x="265" 
d="M183 0h-101v480h101v-480zM1.5 566q-16.5 17 -16.5 39q0 24 16.5 41.5t39.5 17.5q24 0 41.5 -17.5t17.5 -41.5q0 -23 -17.5 -39.5t-41.5 -16.5q-23 0 -39.5 17zM183.5 566.5q-17.5 17.5 -17.5 38.5q0 24 17 41.5t40 17.5q24 0 40.5 -17.5t16.5 -41.5q0 -23 -16 -39.5
t-41 -16.5q-22 0 -39.5 17.5z" />
    <glyph glyph-name="eth" unicode="&#xf0;" horiz-adv-x="531" 
d="M478 220q0 -57 -21 -109.5t-69.5 -87.5t-125.5 -35q-114 0 -165 64t-51 154t51 154.5t165 64.5q39 0 73 -15t53 -49q-21 82 -61 147l-103 -42v67l67 27q-16 20 -50 56l45 51q42 -38 73 -79l96 39v-68l-60 -24q83 -137 83 -315zM356 80.5q28 50.5 28 125.5t-27 126.5
t-93 51.5q-63 0 -90 -50.5t-27 -127.5q0 -75 27 -125.5t90 -50.5q64 0 92 50.5z" />
    <glyph glyph-name="ntilde" unicode="&#xf1;" horiz-adv-x="555" 
d="M483 339v-339h-101v331q0 54 -19 79.5t-60 25.5q-61 0 -120 -46v-390h-101v480h44l40 -50q36 28 79.5 45t83.5 17q154 0 154 -153zM294.5 569q-20.5 7 -25.5 9q-13 5 -27 9.5t-25 4.5q-18 0 -30 -9t-20 -28l-31 11q8 51 29.5 75t49.5 24t68 -18q13 -5 26.5 -9.5
t24.5 -4.5q19 0 31.5 8t19.5 26l31 -12q-9 -49 -30 -71t-49 -22q-22 0 -42.5 7z" />
    <glyph glyph-name="ograve" unicode="&#xf2;" horiz-adv-x="523" 
d="M93.5 57.5q-47.5 69.5 -47.5 182.5q0 114 47.5 183t168.5 69q120 0 168 -69.5t48 -182.5q0 -252 -216 -252q-121 0 -168.5 69.5zM352.5 91q24.5 53 24.5 149q0 97 -24 149.5t-91 52.5t-91 -52t-24 -150q0 -97 24 -149.5t91 -52.5q66 0 90.5 53zM305 531l-166 109l62 72
l125 -158z" />
    <glyph glyph-name="oacute" unicode="&#xf3;" horiz-adv-x="523" 
d="M93.5 57.5q-47.5 69.5 -47.5 182.5q0 114 47.5 183t168.5 69q120 0 168 -69.5t48 -182.5q0 -252 -216 -252q-121 0 -168.5 69.5zM352.5 91q24.5 53 24.5 149q0 97 -24 149.5t-91 52.5t-91 -52t-24 -150q0 -97 24 -149.5t91 -52.5q66 0 90.5 53zM321 712l62 -72l-164 -109
l-21 23z" />
    <glyph glyph-name="ocircumflex" unicode="&#xf4;" horiz-adv-x="523" 
d="M93.5 57.5q-47.5 69.5 -47.5 182.5q0 114 47.5 183t168.5 69q120 0 168 -69.5t48 -182.5q0 -252 -216 -252q-121 0 -168.5 69.5zM352.5 91q24.5 53 24.5 149q0 97 -24 149.5t-91 52.5t-91 -52t-24 -150q0 -97 24 -149.5t91 -52.5q66 0 90.5 53zM237 698h45l96 -146
l-26 -23l-93 87l-90 -87l-28 23z" />
    <glyph glyph-name="otilde" unicode="&#xf5;" horiz-adv-x="523" 
d="M93.5 57.5q-47.5 69.5 -47.5 182.5q0 114 47.5 183t168.5 69q120 0 168 -69.5t48 -182.5q0 -252 -216 -252q-121 0 -168.5 69.5zM352.5 91q24.5 53 24.5 149q0 97 -24 149.5t-91 52.5t-91 -52t-24 -150q0 -97 24 -149.5t91 -52.5q66 0 90.5 53zM278.5 569
q-20.5 7 -25.5 9q-13 5 -27 9.5t-25 4.5q-18 0 -30 -9t-20 -28l-31 11q8 51 29.5 75t49.5 24t68 -18q13 -5 26.5 -9.5t24.5 -4.5q19 0 31.5 8t19.5 26l31 -12q-9 -49 -30 -71t-49 -22q-22 0 -42.5 7z" />
    <glyph glyph-name="odieresis" unicode="&#xf6;" horiz-adv-x="523" 
d="M93.5 57.5q-47.5 69.5 -47.5 182.5q0 114 47.5 183t168.5 69q120 0 168 -69.5t48 -182.5q0 -252 -216 -252q-121 0 -168.5 69.5zM352.5 91q24.5 53 24.5 149q0 97 -24 149.5t-91 52.5t-91 -52t-24 -150q0 -97 24 -149.5t91 -52.5q66 0 90.5 53zM129.5 566
q-16.5 17 -16.5 39q0 24 16.5 41.5t39.5 17.5q24 0 41.5 -17.5t17.5 -41.5q0 -23 -17.5 -39.5t-41.5 -16.5q-23 0 -39.5 17zM311.5 566.5q-17.5 17.5 -17.5 38.5q0 24 17 41.5t40 17.5q24 0 40.5 -17.5t16.5 -41.5q0 -23 -16 -39.5t-41 -16.5q-22 0 -39.5 17.5z" />
    <glyph glyph-name="divide" unicode="&#xf7;" horiz-adv-x="487" 
d="M201 368q-10 16 -10 43t10 43.5t41 16.5q32 0 42.5 -16.5t10.5 -43.5t-10.5 -43t-42.5 -16q-31 0 -41 16zM414 304v-71h-339v71h339zM201 72q-10 16 -10 43q0 26 10 43t41 17q32 0 42.5 -17t10.5 -43q0 -27 -10.5 -43t-42.5 -16q-31 0 -41 16z" />
    <glyph glyph-name="oslash" unicode="&#xf8;" horiz-adv-x="523" 
d="M478 240q0 -252 -216 -252q-24 0 -47 3l-15 -57h-42l18 67q-72 24 -101 86.5t-29 152.5q0 114 47.5 183t168.5 69q22 0 43 -3l15 58h44l-18 -67q132 -42 132 -240zM156.5 130.5q9.5 -44.5 35.5 -68.5l99 377q-12 3 -29 3q-67 0 -91 -52t-24 -150q0 -65 9.5 -109.5z
M352.5 91q24.5 53 24.5 149q0 66 -10 111t-37 68l-101 -377q13 -4 33 -4q66 0 90.5 53z" />
    <glyph glyph-name="ugrave" unicode="&#xf9;" horiz-adv-x="556" 
d="M475 480v-480h-66l-28 60q-67 -72 -157 -72q-78 0 -115 40.5t-37 114.5v337h101v-327q0 -112 88 -112q65 0 113 63v376h101zM324 531l-166 109l62 72l125 -158z" />
    <glyph glyph-name="uacute" unicode="&#xfa;" horiz-adv-x="556" 
d="M475 480v-480h-66l-28 60q-67 -72 -157 -72q-78 0 -115 40.5t-37 114.5v337h101v-327q0 -112 88 -112q65 0 113 63v376h101zM340 712l62 -72l-164 -109l-21 23z" />
    <glyph glyph-name="ucircumflex" unicode="&#xfb;" horiz-adv-x="556" 
d="M475 480v-480h-66l-28 60q-67 -72 -157 -72q-78 0 -115 40.5t-37 114.5v337h101v-327q0 -112 88 -112q65 0 113 63v376h101zM256 698h45l96 -146l-26 -23l-93 87l-90 -87l-28 23z" />
    <glyph glyph-name="udieresis" unicode="&#xfc;" horiz-adv-x="556" 
d="M475 480v-480h-66l-28 60q-67 -72 -157 -72q-78 0 -115 40.5t-37 114.5v337h101v-327q0 -112 88 -112q65 0 113 63v376h101zM148.5 566q-16.5 17 -16.5 39q0 24 16.5 41.5t39.5 17.5q24 0 41.5 -17.5t17.5 -41.5q0 -23 -17.5 -39.5t-41.5 -16.5q-23 0 -39.5 17z
M330.5 566.5q-17.5 17.5 -17.5 38.5q0 24 17 41.5t40 17.5q24 0 40.5 -17.5t16.5 -41.5q0 -23 -16 -39.5t-41 -16.5q-22 0 -39.5 17.5z" />
    <glyph glyph-name="yacute" unicode="&#xfd;" horiz-adv-x="460" 
d="M452 480l-245 -683l-82 12l93 172l-208 499h101l153 -379l130 379h58zM309 712l62 -72l-164 -109l-21 23z" />
    <glyph glyph-name="thorn" unicode="&#xfe;" horiz-adv-x="540" 
d="M451 423q42 -69 42 -183q0 -113 -43 -182.5t-152 -69.5q-57 0 -115 22v-200l-101 -13v837l101 13v-195q61 40 120 40q106 0 148 -69zM365.5 91q27.5 53 27.5 149q0 87 -27.5 141.5t-88.5 54.5q-47 0 -94 -33v-348q40 -17 91 -17q64 0 91.5 53z" />
    <glyph glyph-name="ydieresis" unicode="&#xff;" horiz-adv-x="460" 
d="M452 480l-245 -683l-82 12l93 172l-208 499h101l153 -379l130 379h58zM117.5 566q-16.5 17 -16.5 39q0 24 16.5 41.5t39.5 17.5q24 0 41.5 -17.5t17.5 -41.5q0 -23 -17.5 -39.5t-41.5 -16.5q-23 0 -39.5 17zM299.5 566.5q-17.5 17.5 -17.5 38.5q0 24 17 41.5t40 17.5
q24 0 40.5 -17.5t16.5 -41.5q0 -23 -16 -39.5t-41 -16.5q-22 0 -39.5 17.5z" />
    <glyph glyph-name="Amacron" unicode="&#x100;" horiz-adv-x="540" 
d="M373 183h-244l-58 -183h-58l198 613h122l198 -613h-99zM357 232l-106 333l-106 -333h212zM395 775v-72h-246v72h246z" />
    <glyph glyph-name="amacron" unicode="&#x101;" horiz-adv-x="511" 
d="M82.5 21.5q-35.5 33.5 -35.5 91.5q0 62 44.5 97.5t135.5 51.5l111 18v49q0 113 -86 113q-51 0 -74 -29t-26 -89l-84 9q6 79 48 119t138 40q93 0 139 -41.5t46 -125.5v-325h-64l-31 70q-31 -40 -74 -61t-91 -21q-61 0 -96.5 33.5zM282.5 61q33.5 20 55.5 47v131l-98 -19
q-50 -11 -75.5 -35t-25.5 -65q0 -36 20.5 -57.5t55.5 -21.5q34 0 67.5 20zM384 641v-71h-246v71h246z" />
    <glyph glyph-name="Abreve" unicode="&#x102;" horiz-adv-x="540" 
d="M373 183h-244l-58 -183h-58l198 613h122l198 -613h-99zM357 232l-106 333l-106 -333h212zM271 669q-118 0 -118 135h44q0 -32 18 -50.5t56 -18.5t56 18.5t18 50.5h46q0 -135 -120 -135z" />
    <glyph glyph-name="abreve" unicode="&#x103;" horiz-adv-x="511" 
d="M82.5 21.5q-35.5 33.5 -35.5 91.5q0 62 44.5 97.5t135.5 51.5l111 18v49q0 113 -86 113q-51 0 -74 -29t-26 -89l-84 9q6 79 48 119t138 40q93 0 139 -41.5t46 -125.5v-325h-64l-31 70q-31 -40 -74 -61t-91 -21q-61 0 -96.5 33.5zM282.5 61q33.5 20 55.5 47v131l-98 -19
q-50 -11 -75.5 -35t-25.5 -65q0 -36 20.5 -57.5t55.5 -21.5q34 0 67.5 20zM261 537q-118 0 -118 134h44q0 -33 18 -52t56 -19t56 19t18 52h46q0 -134 -120 -134z" />
    <glyph glyph-name="Aogonek" unicode="&#x104;" horiz-adv-x="540" 
d="M547 -98q-19 -34 -51 -57t-66 -23q-38 0 -59.5 19t-21.5 52q0 29 18 52.5t56 47.5l11 7h-2l-59 183h-244l-58 -183h-58l198 613h122l198 -613h-40l-39 -25q-26 -18 -35.5 -31.5t-9.5 -31.5q0 -16 10.5 -25t26.5 -9q21 0 38 12.5t29 33.5zM357 232l-106 333l-106 -333h212
z" />
    <glyph glyph-name="aogonek" unicode="&#x105;" horiz-adv-x="511" 
d="M490 -98q-19 -34 -51 -57t-66 -23q-38 0 -59.5 19t-21.5 52q0 29 18 52.5t56 47.5l11 7h-2l-31 70q-31 -40 -74 -61t-91 -21q-61 0 -96.5 33.5t-35.5 91.5q0 62 44.5 97.5t135.5 51.5l111 18v49q0 113 -86 113q-51 0 -74 -29t-26 -89l-84 9q6 79 48 119t138 40
q93 0 139 -41.5t46 -125.5v-325h-5l-39 -25q-26 -18 -35.5 -31.5t-9.5 -31.5q0 -16 10.5 -25t26.5 -9q21 0 38 12.5t29 33.5zM338 239l-98 -19q-50 -11 -75.5 -35t-25.5 -65q0 -36 20.5 -57.5t55.5 -21.5q34 0 67.5 20t55.5 47v131z" />
    <glyph glyph-name="Cacute" unicode="&#x106;" horiz-adv-x="529" 
d="M296 583q-57 0 -88 -30t-43 -89t-12 -158q0 -98 12 -156.5t43 -88.5t88 -30q63 0 90.5 42.5t29.5 119.5l83 -3q-8 -100 -52 -151t-151 -51q-94 0 -148 36.5t-75.5 105.5t-21.5 176t21.5 176.5t75 106t148.5 36.5q101 0 145 -41.5t54 -122.5l-82 -15q-12 137 -117 137z
M326 847l62 -74l-164 -108l-21 22z" />
    <glyph glyph-name="cacute" unicode="&#x107;" horiz-adv-x="484" 
d="M169.5 89q22.5 -51 84.5 -51q51 0 73.5 31t24.5 94l86 -3q-6 -84 -48 -128t-138 -44q-118 0 -162 68.5t-44 183.5q0 116 44 184t162 68q96 0 137.5 -41.5t47.5 -121.5l-85 -11q-2 63 -24.5 93.5t-73.5 30.5q-62 0 -84.5 -50.5t-22.5 -151.5q0 -100 22.5 -151zM300 712
l62 -72l-164 -109l-21 23z" />
    <glyph glyph-name="Ccircumflex" unicode="&#x108;" horiz-adv-x="529" 
d="M296 583q-57 0 -88 -30t-43 -89t-12 -158q0 -98 12 -156.5t43 -88.5t88 -30q63 0 90.5 42.5t29.5 119.5l83 -3q-8 -100 -52 -151t-151 -51q-94 0 -148 36.5t-75.5 105.5t-21.5 176t21.5 176.5t75 106t148.5 36.5q101 0 145 -41.5t54 -122.5l-82 -15q-12 137 -117 137z
M242 832h45l96 -146l-26 -24l-93 87l-90 -87l-28 24z" />
    <glyph glyph-name="ccircumflex" unicode="&#x109;" horiz-adv-x="484" 
d="M169.5 89q22.5 -51 84.5 -51q51 0 73.5 31t24.5 94l86 -3q-6 -84 -48 -128t-138 -44q-118 0 -162 68.5t-44 183.5q0 116 44 184t162 68q96 0 137.5 -41.5t47.5 -121.5l-85 -11q-2 63 -24.5 93.5t-73.5 30.5q-62 0 -84.5 -50.5t-22.5 -151.5q0 -100 22.5 -151zM216 698h45
l96 -146l-26 -23l-93 87l-90 -87l-28 23z" />
    <glyph glyph-name="Cdotaccent" unicode="&#x10a;" horiz-adv-x="529" 
d="M296 583q-57 0 -88 -30t-43 -89t-12 -158q0 -98 12 -156.5t43 -88.5t88 -30q63 0 90.5 42.5t29.5 119.5l83 -3q-8 -100 -52 -151t-151 -51q-94 0 -148 36.5t-75.5 105.5t-21.5 176t21.5 176.5t75 106t148.5 36.5q101 0 145 -41.5t54 -122.5l-82 -15q-12 137 -117 137z
M243 696q-18 18 -18 44q0 25 18 43.5t44 18.5q25 0 44 -18.5t19 -43.5q0 -26 -19 -44t-44 -18q-26 0 -44 18z" />
    <glyph glyph-name="cdotaccent" unicode="&#x10b;" horiz-adv-x="484" 
d="M169.5 89q22.5 -51 84.5 -51q51 0 73.5 31t24.5 94l86 -3q-6 -84 -48 -128t-138 -44q-118 0 -162 68.5t-44 183.5q0 116 44 184t162 68q96 0 137.5 -41.5t47.5 -121.5l-85 -11q-2 63 -24.5 93.5t-73.5 30.5q-62 0 -84.5 -50.5t-22.5 -151.5q0 -100 22.5 -151zM196 561.5
q-18 18.5 -18 43.5q0 26 18 44.5t44 18.5q25 0 44 -18.5t19 -44.5q0 -25 -19 -43.5t-44 -18.5q-26 0 -44 18.5z" />
    <glyph glyph-name="Ccaron" unicode="&#x10c;" horiz-adv-x="529" 
d="M296 583q-57 0 -88 -30t-43 -89t-12 -158q0 -98 12 -156.5t43 -88.5t88 -30q63 0 90.5 42.5t29.5 119.5l83 -3q-8 -100 -52 -151t-151 -51q-94 0 -148 36.5t-75.5 105.5t-21.5 176t21.5 176.5t75 106t148.5 36.5q101 0 145 -41.5t54 -122.5l-82 -15q-12 137 -117 137z
M176 831l90 -87l93 87l26 -24l-96 -145h-45l-96 145z" />
    <glyph glyph-name="ccaron" unicode="&#x10d;" horiz-adv-x="484" 
d="M169.5 89q22.5 -51 84.5 -51q51 0 73.5 31t24.5 94l86 -3q-6 -84 -48 -128t-138 -44q-118 0 -162 68.5t-44 183.5q0 116 44 184t162 68q96 0 137.5 -41.5t47.5 -121.5l-85 -11q-2 63 -24.5 93.5t-73.5 30.5q-62 0 -84.5 -50.5t-22.5 -151.5q0 -100 22.5 -151zM150 698
l90 -87l93 87l26 -24l-96 -145h-45l-96 145z" />
    <glyph glyph-name="Dcaron" unicode="&#x10e;" horiz-adv-x="599" 
d="M439.5 574q55.5 -39 76.5 -106t21 -162t-21 -161.5t-76.5 -105.5t-154.5 -39h-203v613h203q99 0 154.5 -39zM400.5 108.5q33.5 70.5 33.5 197.5q0 128 -33.5 198.5t-127.5 70.5h-89v-537h89q94 0 127.5 70.5zM208 831l90 -87l93 87l26 -24l-96 -145h-45l-96 145z" />
    <glyph glyph-name="dcaron" unicode="&#x10f;" horiz-adv-x="578" 
d="M457 647v-647h-61l-29 54q-55 -66 -140 -66q-181 0 -181 248q0 256 193 256q61 0 117 -36v178zM356 94v311q-43 32 -93 32q-57 0 -86.5 -51t-29.5 -150q0 -98 27.5 -148t80.5 -50q60 0 101 56zM604.5 734.5q15.5 -17.5 15.5 -45.5q0 -50 -29.5 -90t-69.5 -65l-18 23
q15 15 21 30t6 37q0 13 -9 35q-9 27 -9 39q0 22 16 38t38 16q23 0 38.5 -17.5z" />
    <glyph glyph-name="Dcroat" unicode="&#x110;" horiz-adv-x="599" 
d="M439.5 574q55.5 -39 76.5 -106t21 -162t-21 -161.5t-76.5 -105.5t-154.5 -39h-203v273h-56v64h56v276h203q99 0 154.5 -39zM400.5 108.5q33.5 70.5 33.5 197.5q0 128 -33.5 198.5t-127.5 70.5h-89v-238h151v-64h-151v-235h89q94 0 127.5 70.5z" />
    <glyph glyph-name="dcroat" unicode="&#x111;" horiz-adv-x="537" 
d="M495 530h-38v-530h-61l-29 54q-55 -66 -140 -66q-181 0 -181 248q0 256 193 256q61 0 117 -36v74h-117v64h117v40l101 13v-53h38v-64zM356 94v311q-43 32 -93 32q-57 0 -86.5 -51t-29.5 -150q0 -98 27.5 -148t80.5 -50q60 0 101 56z" />
    <glyph glyph-name="Emacron" unicode="&#x112;" horiz-adv-x="470" 
d="M439 51v-51h-357v613h339v-51h-237v-223h216v-53h-216v-235h255zM375 775v-72h-246v72h246z" />
    <glyph glyph-name="emacron" unicode="&#x113;" horiz-adv-x="502" 
d="M147 234v-2q0 -106 25.5 -150t87.5 -44q102 0 107 105l83 -4q-7 -70 -51 -110.5t-142 -40.5q-113 0 -162 62.5t-49 189.5q0 114 46.5 183t163.5 69q113 0 157 -68.5t44 -179.5v-10h-310zM177 403q-24 -39 -29 -119h211q-3 78 -26.5 118t-78.5 40q-53 0 -77 -39zM372 641
v-71h-246v71h246z" />
    <glyph glyph-name="Ebreve" unicode="&#x114;" horiz-adv-x="470" 
d="M439 51v-51h-357v613h339v-51h-237v-223h216v-53h-216v-235h255zM252 669q-118 0 -118 135h44q0 -32 18 -50.5t56 -18.5t56 18.5t18 50.5h46q0 -135 -120 -135z" />
    <glyph glyph-name="ebreve" unicode="&#x115;" horiz-adv-x="502" 
d="M147 234v-2q0 -106 25.5 -150t87.5 -44q102 0 107 105l83 -4q-7 -70 -51 -110.5t-142 -40.5q-113 0 -162 62.5t-49 189.5q0 114 46.5 183t163.5 69q113 0 157 -68.5t44 -179.5v-10h-310zM177 403q-24 -39 -29 -119h211q-3 78 -26.5 118t-78.5 40q-53 0 -77 -39zM248 537
q-118 0 -118 134h44q0 -33 18 -52t56 -19t56 19t18 52h46q0 -134 -120 -134z" />
    <glyph glyph-name="Edotaccent" unicode="&#x116;" horiz-adv-x="470" 
d="M439 51v-51h-357v613h339v-51h-237v-223h216v-53h-216v-235h255zM208 696q-18 18 -18 44q0 25 18 43.5t44 18.5q25 0 44 -18.5t19 -43.5q0 -26 -19 -44t-44 -18q-26 0 -44 18z" />
    <glyph glyph-name="edotaccent" unicode="&#x117;" horiz-adv-x="502" 
d="M147 234v-2q0 -106 25.5 -150t87.5 -44q102 0 107 105l83 -4q-7 -70 -51 -110.5t-142 -40.5q-113 0 -162 62.5t-49 189.5q0 114 46.5 183t163.5 69q113 0 157 -68.5t44 -179.5v-10h-310zM177 403q-24 -39 -29 -119h211q-3 78 -26.5 118t-78.5 40q-53 0 -77 -39z
M205 561.5q-18 18.5 -18 43.5q0 26 18 44.5t44 18.5q25 0 44 -18.5t19 -44.5q0 -25 -19 -43.5t-44 -18.5q-26 0 -44 18.5z" />
    <glyph glyph-name="Eogonek" unicode="&#x118;" horiz-adv-x="470" 
d="M495 -98q-19 -34 -51 -57t-66 -23q-38 0 -59.5 19t-21.5 52q0 29 18 52.5t56 47.5l11 7h-300v613h339v-51h-237v-223h216v-53h-216v-235h255v-51l-39 -25q-26 -18 -35.5 -31.5t-9.5 -31.5q0 -16 10.5 -25t26.5 -9q21 0 38 12.5t29 33.5z" />
    <glyph glyph-name="eogonek" unicode="&#x119;" horiz-adv-x="502" 
d="M147 234v-2q0 -106 25.5 -150t87.5 -44q102 0 107 105l83 -4q-6 -60 -39.5 -99t-105.5 -49l-25 -16q-26 -18 -35.5 -31.5t-9.5 -31.5q0 -16 10.5 -25t26.5 -9q21 0 38 12.5t29 33.5l36 -22q-19 -34 -51 -57t-66 -23q-38 0 -59.5 19t-21.5 52q0 28 16 50.5t51 44.5
q-106 4 -152 66.5t-46 185.5q0 114 46.5 183t163.5 69q113 0 157 -68.5t44 -179.5v-10h-310zM177 403q-24 -39 -29 -119h211q-3 78 -26.5 118t-78.5 40q-53 0 -77 -39z" />
    <glyph glyph-name="Ecaron" unicode="&#x11a;" horiz-adv-x="470" 
d="M439 51v-51h-357v613h339v-51h-237v-223h216v-53h-216v-235h255zM162 831l90 -87l93 87l26 -24l-96 -145h-45l-96 145z" />
    <glyph glyph-name="ecaron" unicode="&#x11b;" horiz-adv-x="502" 
d="M147 234v-2q0 -106 25.5 -150t87.5 -44q102 0 107 105l83 -4q-7 -70 -51 -110.5t-142 -40.5q-113 0 -162 62.5t-49 189.5q0 114 46.5 183t163.5 69q113 0 157 -68.5t44 -179.5v-10h-310zM177 403q-24 -39 -29 -119h211q-3 78 -26.5 118t-78.5 40q-53 0 -77 -39zM159 698
l90 -87l93 87l26 -24l-96 -145h-45l-96 145z" />
    <glyph glyph-name="Gcircumflex" unicode="&#x11c;" horiz-adv-x="583" 
d="M510 0h-51l-21 75q-51 -87 -152 -87q-92 0 -143.5 37.5t-71.5 106.5t-20 174q0 107 21.5 176.5t75 106t148.5 36.5q101 0 145 -41.5t54 -122.5l-82 -15q-12 137 -117 137q-57 0 -88 -30t-43 -89t-12 -158q0 -96 11 -155t39.5 -89.5t82.5 -30.5q131 0 136 180v51h-112v50
h200v-312zM269 832h45l96 -146l-26 -24l-93 87l-90 -87l-28 24z" />
    <glyph glyph-name="gcircumflex" unicode="&#x11d;" horiz-adv-x="511" 
d="M473 438h-70q40 -47 40 -122q0 -74 -40.5 -126t-138.5 -52q-67 0 -111 22l-27 -26q-24 -20 -24 -47q0 -15 11.5 -27.5t32.5 -12.5h187q64 0 101 -33t37 -83q0 -76 -62.5 -105t-164.5 -29q-98 0 -152.5 27t-54.5 92q0 26 17.5 51t45.5 39q-26 9 -41.5 28.5t-15.5 44.5
q0 22 8 41.5t29 39.5l31 30q-44 44 -44 126q0 74 42.5 125t145.5 51q49 0 82 -12h136v-42zM325.5 220q20.5 33 20.5 96q0 62 -20.5 94.5t-70.5 32.5t-70 -32.5t-20 -94.5q0 -63 20 -96t70 -33t70.5 33zM134.5 -35.5q-10.5 -21.5 -10.5 -45.5q0 -39 30.5 -55.5t89.5 -16.5
q76 0 108.5 18.5t32.5 65.5q0 33 -24 51t-60 18h-139q-17 -14 -27.5 -35.5zM237 698h45l96 -146l-26 -23l-93 87l-90 -87l-28 23z" />
    <glyph glyph-name="Gbreve" unicode="&#x11e;" horiz-adv-x="583" 
d="M510 0h-51l-21 75q-51 -87 -152 -87q-92 0 -143.5 37.5t-71.5 106.5t-20 174q0 107 21.5 176.5t75 106t148.5 36.5q101 0 145 -41.5t54 -122.5l-82 -15q-12 137 -117 137q-57 0 -88 -30t-43 -89t-12 -158q0 -96 11 -155t39.5 -89.5t82.5 -30.5q131 0 136 180v51h-112v50
h200v-312zM292 669q-118 0 -118 135h44q0 -32 18 -50.5t56 -18.5t56 18.5t18 50.5h46q0 -135 -120 -135z" />
    <glyph glyph-name="gbreve" unicode="&#x11f;" horiz-adv-x="511" 
d="M473 438h-70q40 -47 40 -122q0 -74 -40.5 -126t-138.5 -52q-67 0 -111 22l-27 -26q-24 -20 -24 -47q0 -15 11.5 -27.5t32.5 -12.5h187q64 0 101 -33t37 -83q0 -76 -62.5 -105t-164.5 -29q-98 0 -152.5 27t-54.5 92q0 26 17.5 51t45.5 39q-26 9 -41.5 28.5t-15.5 44.5
q0 22 8 41.5t29 39.5l31 30q-44 44 -44 126q0 74 42.5 125t145.5 51q49 0 82 -12h136v-42zM325.5 220q20.5 33 20.5 96q0 62 -20.5 94.5t-70.5 32.5t-70 -32.5t-20 -94.5q0 -63 20 -96t70 -33t70.5 33zM134.5 -35.5q-10.5 -21.5 -10.5 -45.5q0 -39 30.5 -55.5t89.5 -16.5
q76 0 108.5 18.5t32.5 65.5q0 33 -24 51t-60 18h-139q-17 -14 -27.5 -35.5zM261 537q-118 0 -118 134h44q0 -33 18 -52t56 -19t56 19t18 52h46q0 -134 -120 -134z" />
    <glyph glyph-name="Gdotaccent" unicode="&#x120;" horiz-adv-x="583" 
d="M510 0h-51l-21 75q-51 -87 -152 -87q-92 0 -143.5 37.5t-71.5 106.5t-20 174q0 107 21.5 176.5t75 106t148.5 36.5q101 0 145 -41.5t54 -122.5l-82 -15q-12 137 -117 137q-57 0 -88 -30t-43 -89t-12 -158q0 -96 11 -155t39.5 -89.5t82.5 -30.5q131 0 136 180v51h-112v50
h200v-312zM249 696q-18 18 -18 44q0 25 18 43.5t44 18.5q25 0 44 -18.5t19 -43.5q0 -26 -19 -44t-44 -18q-26 0 -44 18z" />
    <glyph glyph-name="gdotaccent" unicode="&#x121;" horiz-adv-x="511" 
d="M473 438h-70q40 -47 40 -122q0 -74 -40.5 -126t-138.5 -52q-67 0 -111 22l-27 -26q-24 -20 -24 -47q0 -15 11.5 -27.5t32.5 -12.5h187q64 0 101 -33t37 -83q0 -76 -62.5 -105t-164.5 -29q-98 0 -152.5 27t-54.5 92q0 26 17.5 51t45.5 39q-26 9 -41.5 28.5t-15.5 44.5
q0 22 8 41.5t29 39.5l31 30q-44 44 -44 126q0 74 42.5 125t145.5 51q49 0 82 -12h136v-42zM325.5 220q20.5 33 20.5 96q0 62 -20.5 94.5t-70.5 32.5t-70 -32.5t-20 -94.5q0 -63 20 -96t70 -33t70.5 33zM134.5 -35.5q-10.5 -21.5 -10.5 -45.5q0 -39 30.5 -55.5t89.5 -16.5
q76 0 108.5 18.5t32.5 65.5q0 33 -24 51t-60 18h-139q-17 -14 -27.5 -35.5zM217 561.5q-18 18.5 -18 43.5q0 26 18 44.5t44 18.5q25 0 44 -18.5t19 -44.5q0 -25 -19 -43.5t-44 -18.5q-26 0 -44 18.5z" />
    <glyph glyph-name="Gcommaaccent" unicode="&#x122;" horiz-adv-x="583" 
d="M510 0h-51l-21 75q-51 -87 -152 -87q-92 0 -143.5 37.5t-71.5 106.5t-20 174q0 107 21.5 176.5t75 106t148.5 36.5q101 0 145 -41.5t54 -122.5l-82 -15q-12 137 -117 137q-57 0 -88 -30t-43 -89t-12 -158q0 -96 11 -155t39.5 -89.5t82.5 -30.5q131 0 136 180v51h-112v50
h200v-312zM329.5 -60q15.5 -18 15.5 -45q0 -50 -29.5 -90t-69.5 -65l-18 23q15 15 21 30t6 37q0 13 -9 35q-9 27 -9 39q0 22 16 38t38 16q23 0 38.5 -18z" />
    <glyph glyph-name="gcommaaccent" unicode="&#x123;" horiz-adv-x="511" 
d="M224.5 540q-15.5 18 -15.5 45q0 50 29.5 90t69.5 65l18 -23q-15 -15 -21 -30t-6 -37q0 -13 9 -35q9 -27 9 -39q0 -22 -16 -38t-38 -16q-23 0 -38.5 18zM473 438h-70q40 -47 40 -122q0 -74 -40.5 -126t-138.5 -52q-67 0 -111 22l-27 -26q-24 -20 -24 -47q0 -15 11.5 -27.5
t32.5 -12.5h187q64 0 101 -33t37 -83q0 -76 -62.5 -105t-164.5 -29q-98 0 -152.5 27t-54.5 92q0 26 17.5 51t45.5 39q-26 9 -41.5 28.5t-15.5 44.5q0 22 8 41.5t29 39.5l31 30q-44 44 -44 126q0 74 42.5 125t145.5 51q49 0 82 -12h136v-42zM325.5 220q20.5 33 20.5 96
q0 62 -20.5 94.5t-70.5 32.5t-70 -32.5t-20 -94.5q0 -63 20 -96t70 -33t70.5 33zM134.5 -35.5q-10.5 -21.5 -10.5 -45.5q0 -39 30.5 -55.5t89.5 -16.5q76 0 108.5 18.5t32.5 65.5q0 33 -24 51t-60 18h-139q-17 -14 -27.5 -35.5z" />
    <glyph glyph-name="Hcircumflex" unicode="&#x124;" horiz-adv-x="611" 
d="M530 613v-613h-103v281h-243v-281h-102v613h102v-281h243v281h103zM283 832h45l96 -146l-26 -24l-93 87l-90 -87l-28 24z" />
    <glyph glyph-name="hcircumflex" unicode="&#x125;" horiz-adv-x="555" 
d="M445.5 452q37.5 -40 37.5 -113v-339h-101v331q0 53 -19 79t-60 26q-62 0 -120 -46v-390h-101v634l101 13v-205q32 23 70 36.5t76 13.5q79 0 116.5 -40zM110 832h45l96 -146l-26 -24l-93 87l-90 -87l-28 24z" />
    <glyph glyph-name="Hbar" unicode="&#x126;" horiz-adv-x="611" 
d="M590 422h-60v-422h-103v281h-243v-281h-102v422h-61v64h61v127h102v-127h243v127h103v-127h60v-64zM427 422h-243v-90h243v90z" />
    <glyph glyph-name="hbar" unicode="&#x127;" horiz-adv-x="555" 
d="M445.5 452q37.5 -40 37.5 -113v-339h-101v331q0 53 -19 79t-60 26q-62 0 -120 -46v-390h-101v530h-52v64h52v40l101 13v-53h103v-64h-103v-88q32 23 70 36.5t76 13.5q79 0 116.5 -40z" />
    <glyph glyph-name="Itilde" unicode="&#x128;" horiz-adv-x="266" 
d="M184 0h-102v613h102v-613zM163.5 698q-13.5 4 -37.5 13q-13 5 -27 9.5t-25 4.5q-18 0 -30 -9t-20 -28l-31 11q8 52 29.5 75.5t49.5 23.5q17 0 32.5 -4.5t35.5 -12.5q13 -5 26.5 -9.5t24.5 -4.5q19 0 31 8t20 26l31 -13q-8 -48 -29.5 -71t-49.5 -23q-17 0 -30.5 4z" />
    <glyph glyph-name="itilde" unicode="&#x129;" horiz-adv-x="265" 
d="M183 0h-101v480h101v-480zM150.5 569q-20.5 7 -25.5 9q-13 5 -27 9.5t-25 4.5q-18 0 -30 -9t-20 -28l-31 11q8 51 29.5 75t49.5 24t68 -18q13 -5 26.5 -9.5t24.5 -4.5q19 0 31.5 8t19.5 26l31 -12q-9 -49 -30 -71t-49 -22q-22 0 -42.5 7z" />
    <glyph glyph-name="Imacron" unicode="&#x12a;" horiz-adv-x="266" 
d="M184 0h-102v613h102v-613zM257 774v-71h-246v71h246z" />
    <glyph glyph-name="imacron" unicode="&#x12b;" horiz-adv-x="265" 
d="M183 0h-101v480h101v-480zM256 641v-71h-246v71h246z" />
    <glyph glyph-name="Ibreve" unicode="&#x12c;" horiz-adv-x="266" 
d="M184 0h-102v613h102v-613zM133 669q-118 0 -118 135h44q0 -32 18 -50.5t56 -18.5t56 18.5t18 50.5h46q0 -135 -120 -135z" />
    <glyph glyph-name="ibreve" unicode="&#x12d;" horiz-adv-x="265" 
d="M183 0h-101v480h101v-480zM132 537q-118 0 -118 134h44q0 -33 18 -52t56 -19t56 19t18 52h46q0 -134 -120 -134z" />
    <glyph glyph-name="Iogonek" unicode="&#x12e;" horiz-adv-x="266" 
d="M235 -98q-19 -34 -51 -57t-66 -23q-38 0 -59.5 19t-21.5 52q0 29 18 52.5t56 47.5l11 7h-40v613h102v-613h-5l-39 -25q-26 -18 -35.5 -31.5t-9.5 -31.5q0 -16 10.5 -25t26.5 -9q21 0 38 12.5t29 33.5z" />
    <glyph glyph-name="iogonek" unicode="&#x12f;" horiz-adv-x="265" 
d="M89 561.5q-18 18.5 -18 43.5q0 26 18 44.5t44 18.5q25 0 44 -18.5t19 -44.5q0 -25 -19 -43.5t-44 -18.5q-26 0 -44 18.5zM236 -98q-19 -34 -51 -57t-66 -23q-38 0 -59.5 19t-21.5 52q0 29 18 52.5t56 47.5l11 7h-41v480h101v-480h-3l-39 -25q-26 -18 -35.5 -31.5
t-9.5 -31.5q0 -16 10.5 -25t26.5 -9q21 0 38 12.5t29 33.5z" />
    <glyph glyph-name="Idotaccent" unicode="&#x130;" horiz-adv-x="266" 
d="M184 0h-102v613h102v-613zM90 696q-18 18 -18 44q0 25 18 43.5t44 18.5q25 0 44 -18.5t19 -43.5q0 -26 -19 -44t-44 -18q-26 0 -44 18z" />
    <glyph glyph-name="dotlessi" unicode="&#x131;" horiz-adv-x="265" 
d="M183 0h-101v480h101v-480z" />
    <glyph glyph-name="IJ" unicode="&#x132;" horiz-adv-x="669" 
d="M184 0h-102v613h102v-613zM588 66q-11 -35 -48.5 -56.5t-112.5 -21.5q-71 0 -104.5 23t-42.5 59.5t-9 98.5h90q0 -76 14.5 -107t54.5 -31q39 0 53 27.5t14 95.5v459h102v-459q0 -53 -11 -88z" />
    <glyph glyph-name="ij" unicode="&#x133;" horiz-adv-x="528" 
d="M88 561.5q-18 18.5 -18 43.5q0 26 18 44.5t44 18.5t44.5 -18.5t18.5 -44.5q0 -25 -19 -43.5t-44 -18.5q-26 0 -44 18.5zM180 0h-99v480h99v-480zM351 561.5q-18 18.5 -18 43.5q0 26 18 44.5t44 18.5t44.5 -18.5t18.5 -44.5q0 -25 -19 -43.5t-44 -18.5q-26 0 -44 18.5z
M286 -145q27 0 43 20.5t16 54.5v550h101v-530q0 -76 -40 -114.5t-114 -38.5q-59 0 -120 36l33 72q34 -50 81 -50z" />
    <glyph glyph-name="Jcircumflex" unicode="&#x134;" horiz-adv-x="403" 
d="M322 66q-11 -35 -48.5 -56.5t-112.5 -21.5q-71 0 -104.5 23t-42.5 59.5t-9 98.5h90q0 -76 14.5 -107t54.5 -31q39 0 53 27.5t14 95.5v459h102v-459q0 -53 -11 -88zM258 832h45l96 -146l-26 -24l-93 87l-90 -87l-28 24z" />
    <glyph glyph-name="jcircumflex" unicode="&#x135;" horiz-adv-x="265" 
d="M23 -145q27 0 43 20.5t16 54.5v550h101v-530q0 -76 -40 -114.5t-114 -38.5q-59 0 -120 36l33 72q34 -50 81 -50zM109 698h45l96 -146l-26 -23l-93 87l-90 -87l-28 23z" />
    <glyph glyph-name="Kcommaaccent" unicode="&#x136;" horiz-adv-x="515" 
d="M218 286h-34v-286h-102v613h102v-275h76l182 275h60l-196 -294l208 -319h-108zM296.5 -60q15.5 -18 15.5 -45q0 -50 -29.5 -90t-69.5 -65l-18 23q15 15 21 30t6 37q0 13 -9 35q-9 27 -9 39q0 22 16 38t38 16q23 0 38.5 -18z" />
    <glyph glyph-name="kcommaaccent" unicode="&#x137;" horiz-adv-x="484" 
d="M366 0l-148 223l-35 -38v-185h-101v634l101 13v-401l219 234h58l-180 -191l195 -289h-109zM296.5 -60q15.5 -18 15.5 -45q0 -50 -29.5 -90t-69.5 -65l-18 23q15 15 21 30t6 37q0 13 -9 35q-9 27 -9 39q0 22 16 38t38 16q23 0 38.5 -18z" />
    <glyph glyph-name="kgreenlandic" unicode="&#x138;" horiz-adv-x="475" 
d="M216 226h-33v-226h-101v480h101v-186h44l130 186h110l-163 -229l176 -251h-110z" />
    <glyph glyph-name="Lacute" unicode="&#x139;" horiz-adv-x="406" 
d="M398 51v-51h-316v613h102v-562h214zM194 847l62 -74l-164 -108l-21 22z" />
    <glyph glyph-name="lacute" unicode="&#x13a;" horiz-adv-x="265" 
d="M183 0h-101v634l101 13v-647zM193 847l62 -74l-164 -108l-21 22z" />
    <glyph glyph-name="Lcommaaccent" unicode="&#x13b;" horiz-adv-x="406" 
d="M398 51v-51h-316v613h102v-562h214zM264.5 -60q15.5 -18 15.5 -45q0 -50 -29.5 -90t-69.5 -65l-18 23q15 15 21 30t6 37q0 13 -9 35q-9 27 -9 39q0 22 16 38t38 16q23 0 38.5 -18z" />
    <glyph glyph-name="lcommaaccent" unicode="&#x13c;" horiz-adv-x="265" 
d="M183 0h-101v634l101 13v-647zM169.5 -60q15.5 -18 15.5 -45q0 -50 -29.5 -90t-69.5 -65l-18 23q15 15 21 30t6 37q0 13 -9 35q-9 27 -9 39q0 22 16 38t38 16q23 0 38.5 -18z" />
    <glyph glyph-name="Lcaron" unicode="&#x13d;" horiz-adv-x="406" 
d="M398 51v-51h-316v613h102v-562h214zM366.5 641.5q15.5 -17.5 15.5 -45.5q0 -50 -29.5 -90t-69.5 -65l-18 23q15 15 21 30t6 37q0 13 -9 35q-9 27 -9 39q0 22 16 38t38 16q23 0 38.5 -17.5z" />
    <glyph glyph-name="lcaron" unicode="&#x13e;" horiz-adv-x="305" 
d="M183 0h-101v634l101 13v-647zM329.5 734.5q15.5 -17.5 15.5 -45.5q0 -50 -29.5 -90t-69.5 -65l-18 23q15 15 21 30t6 37q0 13 -9 35q-9 27 -9 39q0 22 16 38t38 16q23 0 38.5 -17.5z" />
    <glyph glyph-name="Ldot" unicode="&#x13f;" horiz-adv-x="406" 
d="M398 51v-51h-316v613h102v-562h214zM252 302q-17 18 -17 41q0 24 17 41t40 17q25 0 42 -17t17 -41t-17 -41.5t-42 -17.5q-23 0 -40 18z" />
    <glyph glyph-name="ldot" unicode="&#x140;" horiz-adv-x="286" 
d="M183 0h-101v634l101 13v-647zM230 302q-17 18 -17 41q0 24 17 41t40 17q25 0 42 -17t17 -41t-17 -41.5t-42 -17.5q-23 0 -40 18z" />
    <glyph glyph-name="Lslash" unicode="&#x141;" horiz-adv-x="406" 
d="M398 51v-51h-316v264l-62 -25v67l62 25v282h102v-240l67 27v-68l-67 -27v-254h214z" />
    <glyph glyph-name="lslash" unicode="&#x142;" horiz-adv-x="265" 
d="M247 332l-64 -26v-306h-101v265l-66 -26v67l66 27v301l101 13v-273l64 26v-68z" />
    <glyph glyph-name="Nacute" unicode="&#x143;" horiz-adv-x="640" 
d="M558 0h-111l-302 512v-512h-60v613h109l303 -511v511h60v-612zM381 847l62 -74l-164 -108l-21 22z" />
    <glyph glyph-name="nacute" unicode="&#x144;" horiz-adv-x="555" 
d="M483 339v-339h-101v331q0 54 -19 79.5t-60 25.5q-61 0 -120 -46v-390h-101v480h44l40 -50q36 28 79.5 45t83.5 17q154 0 154 -153zM336 712l62 -72l-164 -109l-21 23z" />
    <glyph glyph-name="Ncommaaccent" unicode="&#x145;" horiz-adv-x="640" 
d="M558 0h-111l-302 512v-512h-60v613h109l303 -511v511h60v-612zM357.5 -60q15.5 -18 15.5 -45q0 -50 -29.5 -90t-69.5 -65l-18 23q15 15 21 30t6 37q0 13 -9 35q-9 27 -9 39q0 22 16 38t38 16q23 0 38.5 -18z" />
    <glyph glyph-name="ncommaaccent" unicode="&#x146;" horiz-adv-x="555" 
d="M483 339v-339h-101v331q0 54 -19 79.5t-60 25.5q-61 0 -120 -46v-390h-101v480h44l40 -50q36 28 79.5 45t83.5 17q154 0 154 -153zM312.5 -60q15.5 -18 15.5 -45q0 -50 -29.5 -90t-69.5 -65l-18 23q15 15 21 30t6 37q0 13 -9 35q-9 27 -9 39q0 22 16 38t38 16
q23 0 38.5 -18z" />
    <glyph glyph-name="Ncaron" unicode="&#x147;" horiz-adv-x="640" 
d="M558 0h-111l-302 512v-512h-60v613h109l303 -511v511h60v-612zM231 831l90 -87l93 87l26 -24l-96 -145h-45l-96 145z" />
    <glyph glyph-name="ncaron" unicode="&#x148;" horiz-adv-x="555" 
d="M483 339v-339h-101v331q0 54 -19 79.5t-60 25.5q-61 0 -120 -46v-390h-101v480h44l40 -50q36 28 79.5 45t83.5 17q154 0 154 -153zM186 698l90 -87l93 87l26 -24l-96 -145h-45l-96 145z" />
    <glyph glyph-name="napostrophe" unicode="&#x149;" horiz-adv-x="555" 
d="M483 339v-339h-101v331q0 54 -19 79.5t-60 25.5q-61 0 -120 -46v-390h-101v480h44l40 -50q36 28 79.5 45t83.5 17q154 0 154 -153zM312.5 -60q15.5 -18 15.5 -45q0 -50 -29.5 -90t-69.5 -65l-18 23q15 15 21 30t6 37q0 13 -9 35q-9 27 -9 39q0 22 16 38t38 16
q23 0 38.5 -18z" />
    <glyph glyph-name="Eng" unicode="&#x14a;" horiz-adv-x="640" 
d="M558 0v-50q0 -76 -40 -114.5t-115 -38.5q-57 0 -118 36l33 72q14 -22 34 -36t43 -14q28 0 45 19t17 50v60l-10 16l-302 512v-512h-60v613h109l303 -511v511h60v-612z" />
    <glyph glyph-name="eng" unicode="&#x14b;" horiz-adv-x="555" 
d="M483 0h-3v-50q0 -76 -39 -114.5t-113 -38.5q-59 0 -121 36l34 72q15 -23 35 -36.5t43 -13.5q28 0 45 19t17 50v77h1v330q0 54 -19 79.5t-60 25.5q-61 0 -120 -46v-390h-101v480h44l40 -50q36 28 79.5 45t83.5 17q154 0 154 -153v-339z" />
    <glyph glyph-name="Omacron" unicode="&#x14c;" horiz-adv-x="599" 
d="M111.5 65.5q-60.5 77.5 -60.5 240.5q0 165 60 242t187 77q128 0 188 -77.5t60 -241.5q0 -163 -60.5 -240.5t-187.5 -77.5q-126 0 -186.5 77.5zM408 98.5q36 67.5 36 207.5q0 142 -36 209.5t-110 67.5t-109.5 -67t-35.5 -210q0 -142 35.5 -208.5t109.5 -66.5t110 67.5z
M424 775v-72h-246v72h246z" />
    <glyph glyph-name="omacron" unicode="&#x14d;" horiz-adv-x="523" 
d="M93.5 57.5q-47.5 69.5 -47.5 182.5q0 114 47.5 183t168.5 69q120 0 168 -69.5t48 -182.5q0 -252 -216 -252q-121 0 -168.5 69.5zM352.5 91q24.5 53 24.5 149q0 97 -24 149.5t-91 52.5t-91 -52t-24 -150q0 -97 24 -149.5t91 -52.5q66 0 90.5 53zM384 641v-71h-246v71h246z
" />
    <glyph glyph-name="Obreve" unicode="&#x14e;" horiz-adv-x="599" 
d="M111.5 65.5q-60.5 77.5 -60.5 240.5q0 165 60 242t187 77q128 0 188 -77.5t60 -241.5q0 -163 -60.5 -240.5t-187.5 -77.5q-126 0 -186.5 77.5zM408 98.5q36 67.5 36 207.5q0 142 -36 209.5t-110 67.5t-109.5 -67t-35.5 -210q0 -142 35.5 -208.5t109.5 -66.5t110 67.5z
M300 669q-118 0 -118 135h44q0 -32 18 -50.5t56 -18.5t56 18.5t18 50.5h46q0 -135 -120 -135z" />
    <glyph glyph-name="obreve" unicode="&#x14f;" horiz-adv-x="523" 
d="M93.5 57.5q-47.5 69.5 -47.5 182.5q0 114 47.5 183t168.5 69q120 0 168 -69.5t48 -182.5q0 -252 -216 -252q-121 0 -168.5 69.5zM352.5 91q24.5 53 24.5 149q0 97 -24 149.5t-91 52.5t-91 -52t-24 -150q0 -97 24 -149.5t91 -52.5q66 0 90.5 53zM260 537q-118 0 -118 134
h44q0 -33 18 -52t56 -19t56 19t18 52h46q0 -134 -120 -134z" />
    <glyph glyph-name="Ohungarumlaut" unicode="&#x150;" horiz-adv-x="599" 
d="M111.5 65.5q-60.5 77.5 -60.5 240.5q0 165 60 242t187 77q128 0 188 -77.5t60 -241.5q0 -163 -60.5 -240.5t-187.5 -77.5q-126 0 -186.5 77.5zM408 98.5q36 67.5 36 207.5q0 142 -36 209.5t-110 67.5t-109.5 -67t-35.5 -210q0 -142 35.5 -208.5t109.5 -66.5t110 67.5z
M259 845l62 -72l-165 -109l-21 23zM447 845l60 -72l-163 -109l-21 23z" />
    <glyph glyph-name="ohungarumlaut" unicode="&#x151;" horiz-adv-x="523" 
d="M93.5 57.5q-47.5 69.5 -47.5 182.5q0 114 47.5 183t168.5 69q120 0 168 -69.5t48 -182.5q0 -252 -216 -252q-121 0 -168.5 69.5zM352.5 91q24.5 53 24.5 149q0 97 -24 149.5t-91 52.5t-91 -52t-24 -150q0 -97 24 -149.5t91 -52.5q66 0 90.5 53zM219 712l62 -72l-165 -109
l-21 23zM407 712l60 -72l-163 -109l-21 23z" />
    <glyph glyph-name="OE" unicode="&#x152;" horiz-adv-x="801" 
d="M771 51v-51h-475q-96 0 -149.5 38t-74.5 104.5t-21 163.5q0 98 21 164.5t74.5 104.5t149.5 38h1v0h457v-51h-295q39 -34 57.5 -90t20.5 -133h197v-53h-197q-2 -83 -19.5 -141.5t-58.5 -93.5h312zM183.5 116.5q30.5 -65.5 112.5 -65.5q79 0 109.5 66t30.5 189
q0 125 -30.5 190.5t-110.5 65.5t-111 -65.5t-31 -190.5q0 -124 30.5 -189.5z" />
    <glyph glyph-name="oe" unicode="&#x153;" horiz-adv-x="834" 
d="M479 234v-2q0 -106 25.5 -150t87.5 -44q102 0 107 105l83 -4q-7 -70 -51 -110.5t-142 -40.5q-113 0 -163 65q-54 -65 -164 -65q-121 0 -168.5 69.5t-47.5 182.5q0 114 47.5 183t168.5 69q111 0 165 -66q53 66 161 66q113 0 157 -68.5t44 -179.5v-10h-310zM352.5 91
q24.5 53 24.5 149q0 97 -24 149.5t-91 52.5t-91 -52t-24 -150q0 -97 24 -149.5t91 -52.5q66 0 90.5 53zM509 403q-24 -39 -29 -119h211q-3 78 -26.5 118t-78.5 40q-53 0 -77 -39z" />
    <glyph glyph-name="Racute" unicode="&#x154;" horiz-adv-x="551" 
d="M510 0h-110l-86 213q-12 29 -29.5 38.5t-53.5 9.5h-47v-261h-102v613h205q109 0 153 -53.5t44 -129.5q0 -56 -26.5 -99.5t-91.5 -60.5q36 -13 52 -48zM276 298q54 0 80 38.5t26 93.5q0 61 -26 103t-80 42h-92v-277h92zM334 847l62 -74l-164 -108l-21 22z" />
    <glyph glyph-name="racute" unicode="&#x155;" horiz-adv-x="340" 
d="M238.5 458q41.5 26 99.5 26v-74q-154 0 -154 -120h-1v-290h-101v480h44l48 -91q23 43 64.5 69zM259 712l62 -72l-164 -109l-21 23z" />
    <glyph glyph-name="Rcommaaccent" unicode="&#x156;" horiz-adv-x="551" 
d="M510 0h-110l-86 213q-12 29 -29.5 38.5t-53.5 9.5h-47v-261h-102v613h205q109 0 153 -53.5t44 -129.5q0 -56 -26.5 -99.5t-91.5 -60.5q36 -13 52 -48zM276 298q54 0 80 38.5t26 93.5q0 61 -26 103t-80 42h-92v-277h92zM310.5 -60q15.5 -18 15.5 -45q0 -50 -29.5 -90
t-69.5 -65l-18 23q15 15 21 30t6 37q0 13 -9 35q-9 27 -9 39q0 22 16 38t38 16q23 0 38.5 -18z" />
    <glyph glyph-name="rcommaaccent" unicode="&#x157;" horiz-adv-x="340" 
d="M238.5 458q41.5 26 99.5 26v-74q-154 0 -154 -120h-1v-290h-101v480h44l48 -91q23 43 64.5 69zM169.5 -60q15.5 -18 15.5 -45q0 -50 -29.5 -90t-69.5 -65l-18 23q15 15 21 30t6 37q0 13 -9 35q-9 27 -9 39q0 22 16 38t38 16q23 0 38.5 -18z" />
    <glyph glyph-name="Rcaron" unicode="&#x158;" horiz-adv-x="551" 
d="M510 0h-110l-86 213q-12 29 -29.5 38.5t-53.5 9.5h-47v-261h-102v613h205q109 0 153 -53.5t44 -129.5q0 -56 -26.5 -99.5t-91.5 -60.5q36 -13 52 -48zM276 298q54 0 80 38.5t26 93.5q0 61 -26 103t-80 42h-92v-277h92zM184 831l90 -87l93 87l26 -24l-96 -145h-45l-96 145
z" />
    <glyph glyph-name="rcaron" unicode="&#x159;" horiz-adv-x="340" 
d="M238.5 458q41.5 26 99.5 26v-74q-154 0 -154 -120h-1v-290h-101v480h44l48 -91q23 43 64.5 69zM109 698l90 -87l93 87l26 -24l-96 -145h-45l-96 145z" />
    <glyph glyph-name="Sacute" unicode="&#x15a;" horiz-adv-x="512" 
d="M403 580.5q51 -44.5 63 -136.5l-83 -11q-5 72 -37.5 111t-87.5 39q-59 0 -90.5 -28.5t-31.5 -80.5q0 -48 25.5 -72.5t91.5 -41.5l55 -14q89 -25 126 -66t37 -114q0 -86 -56 -132t-160 -46q-99 0 -151.5 44.5t-63.5 136.5l81 12q8 -72 42 -111t92 -39q130 0 130 110
q0 33 -11 53t-36.5 33.5t-74.5 25.5l-51 13q-89 23 -124.5 64.5t-35.5 117.5q0 87 52.5 132t153.5 45q94 0 145 -44.5zM321 847l62 -74l-164 -108l-21 22z" />
    <glyph glyph-name="sacute" unicode="&#x15b;" horiz-adv-x="456" 
d="M383.5 225q33.5 -31 33.5 -90q0 -68 -47.5 -107.5t-134.5 -39.5q-94 0 -140 38.5t-56 111.5l83 10q5 -52 33 -81t80 -29q42 0 69 23t27 53t-24 48t-79 32l-48 14q-64 17 -98 50t-34 93q0 65 48 103t133 38q89 0 132 -37.5t52 -109.5l-83 -7q-5 49 -30.5 76.5t-70.5 27.5
q-47 0 -71 -19t-24 -50q0 -34 23.5 -52t74.5 -32l44 -13q74 -20 107.5 -51zM288 712l62 -72l-164 -109l-21 23z" />
    <glyph glyph-name="Scircumflex" unicode="&#x15c;" horiz-adv-x="512" 
d="M403 580.5q51 -44.5 63 -136.5l-83 -11q-5 72 -37.5 111t-87.5 39q-59 0 -90.5 -28.5t-31.5 -80.5q0 -48 25.5 -72.5t91.5 -41.5l55 -14q89 -25 126 -66t37 -114q0 -86 -56 -132t-160 -46q-99 0 -151.5 44.5t-63.5 136.5l81 12q8 -72 42 -111t92 -39q130 0 130 110
q0 33 -11 53t-36.5 33.5t-74.5 25.5l-51 13q-89 23 -124.5 64.5t-35.5 117.5q0 87 52.5 132t153.5 45q94 0 145 -44.5zM237 832h45l96 -146l-26 -24l-93 87l-90 -87l-28 24z" />
    <glyph glyph-name="scircumflex" unicode="&#x15d;" horiz-adv-x="456" 
d="M383.5 225q33.5 -31 33.5 -90q0 -68 -47.5 -107.5t-134.5 -39.5q-94 0 -140 38.5t-56 111.5l83 10q5 -52 33 -81t80 -29q42 0 69 23t27 53t-24 48t-79 32l-48 14q-64 17 -98 50t-34 93q0 65 48 103t133 38q89 0 132 -37.5t52 -109.5l-83 -7q-5 49 -30.5 76.5t-70.5 27.5
q-47 0 -71 -19t-24 -50q0 -34 23.5 -52t74.5 -32l44 -13q74 -20 107.5 -51zM204 698h45l96 -146l-26 -23l-93 87l-90 -87l-28 23z" />
    <glyph glyph-name="Scedilla" unicode="&#x15e;" horiz-adv-x="512" 
d="M420.5 38.5q-50.5 -45.5 -145.5 -50.5l-11 -34q44 -5 69.5 -27t25.5 -56q0 -35 -22.5 -58.5t-72.5 -23.5q-48 0 -71.5 22t-23.5 60l59 8q0 -27 9 -42t26 -15q28 0 28 44q0 24 -17 38t-62 22l18 63q-87 5 -133.5 49.5t-56.5 130.5l81 12q8 -72 42 -111t92 -39
q130 0 130 110q0 33 -11 53t-36.5 33.5t-74.5 25.5l-51 13q-89 23 -124.5 64.5t-35.5 117.5q0 87 52.5 132t153.5 45q94 0 145 -44.5t63 -136.5l-83 -11q-5 72 -37.5 111t-87.5 39q-59 0 -90.5 -28.5t-31.5 -80.5q0 -48 25.5 -72.5t91.5 -41.5l55 -14q89 -25 126 -66
t37 -114q0 -82 -50.5 -127.5z" />
    <glyph glyph-name="scedilla" unicode="&#x15f;" horiz-adv-x="456" 
d="M375.5 32.5q-41.5 -38.5 -118.5 -43.5l-12 -35q44 -5 69.5 -27t25.5 -56q0 -35 -22.5 -58.5t-72.5 -23.5q-48 0 -71.5 22t-23.5 60l59 8q0 -27 9 -42t26 -15q28 0 28 44q0 24 -17 38t-62 22l18 63q-82 4 -122 42.5t-50 106.5l83 10q5 -52 33 -81t80 -29q42 0 69 23t27 53
t-24 48t-79 32l-48 14q-64 17 -98 50t-34 93q0 65 48 103t133 38q89 0 132 -37.5t52 -109.5l-83 -7q-5 49 -30.5 76.5t-70.5 27.5q-47 0 -71 -19t-24 -50q0 -34 23.5 -52t74.5 -32l44 -13q74 -20 107.5 -51t33.5 -90q0 -64 -41.5 -102.5z" />
    <glyph glyph-name="Scaron" unicode="&#x160;" horiz-adv-x="512" 
d="M403 580.5q51 -44.5 63 -136.5l-83 -11q-5 72 -37.5 111t-87.5 39q-59 0 -90.5 -28.5t-31.5 -80.5q0 -48 25.5 -72.5t91.5 -41.5l55 -14q89 -25 126 -66t37 -114q0 -86 -56 -132t-160 -46q-99 0 -151.5 44.5t-63.5 136.5l81 12q8 -72 42 -111t92 -39q130 0 130 110
q0 33 -11 53t-36.5 33.5t-74.5 25.5l-51 13q-89 23 -124.5 64.5t-35.5 117.5q0 87 52.5 132t153.5 45q94 0 145 -44.5zM171 831l90 -87l93 87l26 -24l-96 -145h-45l-96 145z" />
    <glyph glyph-name="scaron" unicode="&#x161;" horiz-adv-x="456" 
d="M383.5 225q33.5 -31 33.5 -90q0 -68 -47.5 -107.5t-134.5 -39.5q-94 0 -140 38.5t-56 111.5l83 10q5 -52 33 -81t80 -29q42 0 69 23t27 53t-24 48t-79 32l-48 14q-64 17 -98 50t-34 93q0 65 48 103t133 38q89 0 132 -37.5t52 -109.5l-83 -7q-5 49 -30.5 76.5t-70.5 27.5
q-47 0 -71 -19t-24 -50q0 -34 23.5 -52t74.5 -32l44 -13q74 -20 107.5 -51zM138 698l90 -87l93 87l26 -24l-96 -145h-45l-96 145z" />
    <glyph glyph-name="uni0162" unicode="&#x162;" horiz-adv-x="426" 
d="M238 0l-15 -46q44 -5 69.5 -27t25.5 -56q0 -35 -22.5 -58.5t-72.5 -23.5q-48 0 -71.5 22t-23.5 60l59 8q0 -27 9 -42t26 -15q28 0 28 44q0 24 -17 38t-62 22l22 74h-30v562h-164v51h428v-51h-162v-562h-27z" />
    <glyph glyph-name="uni0163" unicode="&#x163;" horiz-adv-x="303" 
d="M233.5 -73q25.5 -22 25.5 -56q0 -35 -22.5 -58.5t-72.5 -23.5q-48 0 -71.5 22t-23.5 60l59 8q0 -27 9 -42t26 -15q28 0 28 44q0 24 -17 38t-62 22l23 78q-27 15 -34 42t-7 69v314h-78v51h78v78l102 38v-116h102v-51h-102v-326q0 -33 8.5 -45.5t28.5 -12.5q28 0 61 18
l13 -46q-53 -29 -102 -29q-11 0 -29 2l-12 -36q44 -5 69.5 -27z" />
    <glyph glyph-name="Tcaron" unicode="&#x164;" horiz-adv-x="426" 
d="M427 613v-51h-162v-562h-102v562h-164v51h428zM124 831l90 -87l93 87l26 -24l-96 -145h-45l-96 145z" />
    <glyph glyph-name="tcaron" unicode="&#x165;" horiz-adv-x="310" 
d="M307 17q-53 -29 -102 -29q-50 0 -74.5 18.5t-30.5 44.5t-6 64v314h-78v51h78v78l102 38v-116h102v-51h-102v-326q0 -33 8.5 -45.5t28.5 -12.5q28 0 61 18zM338.5 734.5q15.5 -17.5 15.5 -45.5q0 -50 -29.5 -90t-69.5 -65l-18 23q15 15 21 30t6 37q0 13 -9 35q-9 27 -9 39
q0 22 16 38t38 16q23 0 38.5 -17.5z" />
    <glyph glyph-name="Tbar" unicode="&#x166;" horiz-adv-x="426" 
d="M265 562v-238h131v-64h-131v-260h-102v260h-131v64h131v238h-164v51h428v-51h-162z" />
    <glyph glyph-name="tbar" unicode="&#x167;" horiz-adv-x="303" 
d="M307 17q-53 -29 -102 -29q-50 0 -74.5 18.5t-30.5 44.5t-6 64v117h-80v64h80v133h-78v51h78v78l102 38v-116h102v-51h-102v-133h71v-64h-71v-129q0 -33 8.5 -45.5t28.5 -12.5q28 0 61 18z" />
    <glyph glyph-name="Utilde" unicode="&#x168;" horiz-adv-x="588" 
d="M519 203q0 -77 -32.5 -125.5t-82 -69t-104.5 -20.5q-99 0 -164.5 49.5t-65.5 165.5v410h102v-410q0 -86 36.5 -125.5t98.5 -39.5q64 0 108.5 40.5t44.5 124.5v410h59v-410zM334.5 698q-13.5 4 -37.5 13q-13 5 -27 9.5t-25 4.5q-18 0 -30 -9t-20 -28l-31 11
q8 52 29.5 75.5t49.5 23.5q17 0 32.5 -4.5t35.5 -12.5q13 -5 26.5 -9.5t24.5 -4.5q19 0 31 8t20 26l31 -13q-8 -48 -29.5 -71t-49.5 -23q-17 0 -30.5 4z" />
    <glyph glyph-name="utilde" unicode="&#x169;" horiz-adv-x="556" 
d="M475 480v-480h-66l-28 60q-67 -72 -157 -72q-78 0 -115 40.5t-37 114.5v337h101v-327q0 -112 88 -112q65 0 113 63v376h101zM297.5 569q-20.5 7 -25.5 9q-13 5 -27 9.5t-25 4.5q-18 0 -30 -9t-20 -28l-31 11q8 51 29.5 75t49.5 24t68 -18q13 -5 26.5 -9.5t24.5 -4.5
q19 0 31.5 8t19.5 26l31 -12q-9 -49 -30 -71t-49 -22q-22 0 -42.5 7z" />
    <glyph glyph-name="Umacron" unicode="&#x16a;" horiz-adv-x="588" 
d="M519 203q0 -77 -32.5 -125.5t-82 -69t-104.5 -20.5q-99 0 -164.5 49.5t-65.5 165.5v410h102v-410q0 -86 36.5 -125.5t98.5 -39.5q64 0 108.5 40.5t44.5 124.5v410h59v-410zM428 775v-72h-246v72h246z" />
    <glyph glyph-name="umacron" unicode="&#x16b;" horiz-adv-x="556" 
d="M475 480v-480h-66l-28 60q-67 -72 -157 -72q-78 0 -115 40.5t-37 114.5v337h101v-327q0 -112 88 -112q65 0 113 63v376h101zM403 641v-71h-246v71h246z" />
    <glyph glyph-name="Ubreve" unicode="&#x16c;" horiz-adv-x="588" 
d="M519 203q0 -77 -32.5 -125.5t-82 -69t-104.5 -20.5q-99 0 -164.5 49.5t-65.5 165.5v410h102v-410q0 -86 36.5 -125.5t98.5 -39.5q64 0 108.5 40.5t44.5 124.5v410h59v-410zM304 669q-118 0 -118 135h44q0 -32 18 -50.5t56 -18.5t56 18.5t18 50.5h46q0 -135 -120 -135z
" />
    <glyph glyph-name="ubreve" unicode="&#x16d;" horiz-adv-x="556" 
d="M475 480v-480h-66l-28 60q-67 -72 -157 -72q-78 0 -115 40.5t-37 114.5v337h101v-327q0 -112 88 -112q65 0 113 63v376h101zM279 537q-118 0 -118 134h44q0 -33 18 -52t56 -19t56 19t18 52h46q0 -134 -120 -134z" />
    <glyph glyph-name="Uring" unicode="&#x16e;" horiz-adv-x="588" 
d="M519 203q0 -77 -32.5 -125.5t-82 -69t-104.5 -20.5q-99 0 -164.5 49.5t-65.5 165.5v410h102v-410q0 -86 36.5 -125.5t98.5 -39.5q64 0 108.5 40.5t44.5 124.5v410h59v-410zM233.5 685.5q-19.5 27.5 -19.5 64.5q0 93 92 93t92 -93q0 -92 -92 -92q-53 0 -72.5 27.5z
M336.5 709q8.5 18 8.5 41q0 59 -40 59q-37 0 -37 -59q0 -23 8 -41t29 -18q23 0 31.5 18z" />
    <glyph glyph-name="uring" unicode="&#x16f;" horiz-adv-x="556" 
d="M475 480v-480h-66l-28 60q-67 -72 -157 -72q-78 0 -115 40.5t-37 114.5v337h101v-327q0 -112 88 -112q65 0 113 63v376h101zM208.5 552.5q-19.5 27.5 -19.5 64.5q0 93 92 93t92 -93q0 -92 -92 -92q-53 0 -72.5 27.5zM311.5 576q8.5 18 8.5 41q0 59 -40 59q-37 0 -37 -59
q0 -23 8 -41t29 -18q23 0 31.5 18z" />
    <glyph glyph-name="Uhungarumlaut" unicode="&#x170;" horiz-adv-x="588" 
d="M519 203q0 -77 -32.5 -125.5t-82 -69t-104.5 -20.5q-99 0 -164.5 49.5t-65.5 165.5v410h102v-410q0 -86 36.5 -125.5t98.5 -39.5q64 0 108.5 40.5t44.5 124.5v410h59v-410zM263 845l62 -72l-165 -109l-21 23zM451 845l60 -72l-163 -109l-21 23z" />
    <glyph glyph-name="uhungarumlaut" unicode="&#x171;" horiz-adv-x="556" 
d="M475 480v-480h-66l-28 60q-67 -72 -157 -72q-78 0 -115 40.5t-37 114.5v337h101v-327q0 -112 88 -112q65 0 113 63v376h101zM238 712l62 -72l-165 -109l-21 23zM426 712l60 -72l-163 -109l-21 23z" />
    <glyph glyph-name="Uogonek" unicode="&#x172;" horiz-adv-x="588" 
d="M519 613v-410q0 -101 -54 -152t-132 -61l-23 -15q-26 -18 -35.5 -31.5t-9.5 -31.5q0 -16 10.5 -25t26.5 -9q21 0 38 12.5t29 33.5l36 -22q-19 -34 -51 -57t-66 -23q-38 0 -59.5 19t-21.5 52q0 28 16.5 50.5t50.5 45.5q-90 5 -147 55t-57 159v410h102v-410
q0 -86 36.5 -125.5t98.5 -39.5q64 0 108.5 40.5t44.5 124.5v410h59z" />
    <glyph glyph-name="uogonek" unicode="&#x173;" horiz-adv-x="556" 
d="M526 -98q-19 -34 -51 -57t-66 -23q-38 0 -59.5 19t-21.5 52q0 29 18 52.5t56 47.5l11 7h-4l-28 60q-67 -72 -157 -72q-78 0 -115 40.5t-37 114.5v337h101v-327q0 -112 88 -112q65 0 113 63v376h101v-480h-5l-39 -25q-26 -18 -35.5 -31.5t-9.5 -31.5q0 -16 10.5 -25
t26.5 -9q21 0 38 12.5t29 33.5z" />
    <glyph glyph-name="Wcircumflex" unicode="&#x174;" horiz-adv-x="754" 
d="M734 613l-134 -613h-91l-131 502l-127 -502h-97l-133 613h102l102 -490l125 490h93l126 -492l103 492h62zM372 832h45l96 -146l-26 -24l-93 87l-90 -87l-28 24z" />
    <glyph glyph-name="wcircumflex" unicode="&#x175;" horiz-adv-x="641" 
d="M631 480l-125 -480h-111l-77 341l-86 -341h-112l-106 480h102l82 -402l97 402h59l-1 -2l3 2h33l84 -404l98 404h60zM300 698h45l96 -146l-26 -23l-93 87l-90 -87l-28 23z" />
    <glyph glyph-name="Ycircumflex" unicode="&#x176;" horiz-adv-x="476" 
d="M289 212l-1 -1v-211h-102v212l-189 401h103l157 -345l161 345h60zM216 832h45l96 -146l-26 -24l-93 87l-90 -87l-28 24z" />
    <glyph glyph-name="ycircumflex" unicode="&#x177;" horiz-adv-x="460" 
d="M452 480l-245 -683l-82 12l93 172l-208 499h101l153 -379l130 379h58zM225 698h45l96 -146l-26 -23l-93 87l-90 -87l-28 23z" />
    <glyph glyph-name="Ydieresis" unicode="&#x178;" horiz-adv-x="476" 
d="M289 212l-1 -1v-211h-102v212l-189 401h103l157 -345l161 345h60zM109.5 699q-16.5 17 -16.5 39q0 24 16.5 41.5t39.5 17.5q24 0 41.5 -17.5t17.5 -41.5q0 -23 -17.5 -39.5t-41.5 -16.5q-23 0 -39.5 17zM291.5 699.5q-17.5 17.5 -17.5 38.5q0 24 17 41.5t40 17.5
q24 0 40.5 -17.5t16.5 -41.5q0 -23 -16 -39.5t-41 -16.5q-22 0 -39.5 17.5z" />
    <glyph glyph-name="Zacute" unicode="&#x179;" horiz-adv-x="470" 
d="M450 51v-51h-429v65l314 497h-297v51h404v-63l-317 -499h325zM294 847l62 -74l-164 -108l-21 22z" />
    <glyph glyph-name="zacute" unicode="&#x17a;" horiz-adv-x="430" 
d="M401 51v-51h-372v63l258 366h-248v51h352v-63l-256 -366h266zM277 712l62 -72l-164 -109l-21 23z" />
    <glyph glyph-name="Zdotaccent" unicode="&#x17b;" horiz-adv-x="470" 
d="M450 51v-51h-429v65l314 497h-297v51h404v-63l-317 -499h325zM190 696q-18 18 -18 44q0 25 18 43.5t44 18.5q25 0 44 -18.5t19 -43.5q0 -26 -19 -44t-44 -18q-26 0 -44 18z" />
    <glyph glyph-name="zdotaccent" unicode="&#x17c;" horiz-adv-x="430" 
d="M401 51v-51h-372v63l258 366h-248v51h352v-63l-256 -366h266zM173 561.5q-18 18.5 -18 43.5q0 26 18 44.5t44 18.5q25 0 44 -18.5t19 -44.5q0 -25 -19 -43.5t-44 -18.5q-26 0 -44 18.5z" />
    <glyph glyph-name="Zcaron" unicode="&#x17d;" horiz-adv-x="470" 
d="M450 51v-51h-429v65l314 497h-297v51h404v-63l-317 -499h325zM144 831l90 -87l93 87l26 -24l-96 -145h-45l-96 145z" />
    <glyph glyph-name="zcaron" unicode="&#x17e;" horiz-adv-x="430" 
d="M401 51v-51h-372v63l258 366h-248v51h352v-63l-256 -366h266zM127 698l90 -87l93 87l26 -24l-96 -145h-45l-96 145z" />
    <glyph glyph-name="florin" unicode="&#x192;" horiz-adv-x="529" 
d="M308 548.5q-16 -19.5 -16 -50.5v-175h137v-69h-137v-243q0 -71 -15.5 -112.5t-57 -62t-119.5 -20.5l-7 41q40 0 61 15t29 48t8 93v241h-93v69h93v147q0 78 39.5 116.5t113.5 38.5q31 0 59.5 -9.5t60.5 -27.5l-34 -71q-34 51 -78 51q-28 0 -44 -19.5z" />
    <glyph glyph-name="Aringacute" unicode="&#x1fa;" horiz-adv-x="540" 
d="M373 183h-244l-58 -183h-58l198 613h122l198 -613h-99zM357 232l-106 333l-106 -333h212zM354 804q11 -20 11 -54q0 -92 -92 -92q-53 0 -72.5 27.5t-19.5 64.5q0 93 92 93q24 0 45 -7l51 64l50 -58zM303.5 709q8.5 18 8.5 41q0 59 -40 59q-37 0 -37 -59q0 -23 8 -41
t29 -18q23 0 31.5 18z" />
    <glyph glyph-name="aringacute" unicode="&#x1fb;" horiz-adv-x="511" 
d="M82.5 21.5q-35.5 33.5 -35.5 91.5q0 62 44.5 97.5t135.5 51.5l111 18v49q0 113 -86 113q-51 0 -74 -29t-26 -89l-84 9q6 79 48 119t138 40q93 0 139 -41.5t46 -125.5v-325h-64l-31 70q-31 -40 -74 -61t-91 -21q-61 0 -96.5 33.5zM282.5 61q33.5 20 55.5 47v131l-98 -19
q-50 -11 -75.5 -35t-25.5 -65q0 -36 20.5 -57.5t55.5 -21.5q34 0 67.5 20zM344 671q11 -21 11 -54q0 -92 -92 -92q-53 0 -72.5 27.5t-19.5 64.5q0 93 92 93q24 0 45 -7l51 64l50 -58zM293.5 576q8.5 18 8.5 41q0 59 -40 59q-37 0 -37 -59q0 -23 8 -41t29 -18q23 0 31.5 18z
" />
    <glyph glyph-name="AEacute" unicode="&#x1fc;" horiz-adv-x="779" 
d="M748 51v-51h-357v269h-202l-115 -269h-61l270 613h447v-51h-237v-240h219v-53h-219v-218h255zM391 322v240h-76l-103 -240h179zM552 847l62 -74l-164 -108l-21 22z" />
    <glyph glyph-name="aeacute" unicode="&#x1fd;" horiz-adv-x="764" 
d="M482 712l62 -72l-164 -109l-21 23zM421 234v-2q0 -106 25.5 -150t87.5 -44q102 0 107 105l83 -4q-8 -70 -51.5 -110.5t-141.5 -40.5q-132 0 -179 87q-33 -43 -78.5 -65t-94.5 -22q-61 0 -96.5 33.5t-35.5 91.5q0 62 44.5 97.5t135.5 51.5l94 15q4 51 15 84q-13 81 -81 81
q-53 0 -76.5 -29t-26.5 -89l-84 9q6 79 48.5 119t139.5 40q87 0 132 -45q51 45 140 45q115 0 159 -68.5t44 -179.5v-10h-310zM449.5 403.5q-23.5 -38.5 -27.5 -119.5h211q-3 78 -26.5 118t-79.5 40q-54 0 -77.5 -38.5zM282.5 61q33.5 20 54.5 46q-17 50 -17 127l-80 -14
q-101 -18 -101 -100q0 -36 20.5 -57.5t55.5 -21.5q34 0 67.5 20z" />
    <glyph glyph-name="Oslashacute" unicode="&#x1fe;" horiz-adv-x="599" 
d="M381 846l62 -72l-164 -109l-21 23zM508.5 511.5q37.5 -75.5 37.5 -205.5q0 -163 -60.5 -240.5t-187.5 -77.5q-26 0 -50 3l-9 -38h-42l11 47q-80 25 -118.5 100t-38.5 206q0 165 60 242t187 77q30 0 53 -4l8 37h44l-11 -46q79 -25 116.5 -100.5zM170 146q17 -62 51 -90
l119 520q-23 7 -42 7q-74 0 -109.5 -67t-35.5 -210q0 -98 17 -160zM408 98.5q36 67.5 36 207.5q0 189 -65 248l-121 -518q15 -5 40 -5q74 0 110 67.5z" />
    <glyph glyph-name="oslashacute" unicode="&#x1ff;" horiz-adv-x="502" 
d="M346 712l62 -72l-164 -109l-21 23zM478 240q0 -252 -216 -252q-24 0 -47 3l-15 -57h-42l18 67q-72 24 -101 86.5t-29 152.5q0 114 47.5 183t168.5 69q22 0 43 -3l15 58h44l-18 -67q132 -42 132 -240zM156.5 130.5q9.5 -44.5 35.5 -68.5l99 377q-12 3 -29 3q-67 0 -91 -52
t-24 -150q0 -65 9.5 -109.5zM352.5 91q24.5 53 24.5 149q0 66 -10 111t-37 68l-101 -377q13 -4 33 -4q66 0 90.5 53z" />
    <glyph glyph-name="Scommaaccent" unicode="&#x218;" horiz-adv-x="512" 
d="M403 580.5q51 -44.5 63 -136.5l-83 -11q-5 72 -37.5 111t-87.5 39q-59 0 -90.5 -28.5t-31.5 -80.5q0 -48 25.5 -72.5t91.5 -41.5l55 -14q89 -25 126 -66t37 -114q0 -86 -56 -132t-160 -46q-99 0 -151.5 44.5t-63.5 136.5l81 12q8 -72 42 -111t92 -39q130 0 130 110
q0 33 -11 53t-36.5 33.5t-74.5 25.5l-51 13q-89 23 -124.5 64.5t-35.5 117.5q0 87 52.5 132t153.5 45q94 0 145 -44.5zM291.5 -60q15.5 -18 15.5 -45q0 -50 -29.5 -90t-69.5 -65l-18 23q15 15 21 30t6 37q0 13 -9 35q-9 27 -9 39q0 22 16 38t38 16q23 0 38.5 -18z" />
    <glyph glyph-name="scommaaccent" unicode="&#x219;" horiz-adv-x="456" 
d="M383.5 225q33.5 -31 33.5 -90q0 -68 -47.5 -107.5t-134.5 -39.5q-94 0 -140 38.5t-56 111.5l83 10q5 -52 33 -81t80 -29q42 0 69 23t27 53t-24 48t-79 32l-48 14q-64 17 -98 50t-34 93q0 65 48 103t133 38q89 0 132 -37.5t52 -109.5l-83 -7q-5 49 -30.5 76.5t-70.5 27.5
q-47 0 -71 -19t-24 -50q0 -34 23.5 -52t74.5 -32l44 -13q74 -20 107.5 -51zM272.5 -60q15.5 -18 15.5 -45q0 -50 -29.5 -90t-69.5 -65l-18 23q15 15 21 30t6 37q0 13 -9 35q-9 27 -9 39q0 22 16 38t38 16q23 0 38.5 -18z" />
    <glyph glyph-name="uni021A" unicode="&#x21a;" horiz-adv-x="426" 
d="M427 613v-51h-162v-562h-102v562h-164v51h428zM250.5 -60q15.5 -18 15.5 -45q0 -50 -29.5 -90t-69.5 -65l-18 23q15 15 21 30t6 37q0 13 -9 35q-9 27 -9 39q0 22 16 38t38 16q23 0 38.5 -18z" />
    <glyph glyph-name="uni021B" unicode="&#x21b;" horiz-adv-x="303" 
d="M307 17q-53 -29 -102 -29q-50 0 -74.5 18.5t-30.5 44.5t-6 64v314h-78v51h78v78l102 38v-116h102v-51h-102v-326q0 -33 8.5 -45.5t28.5 -12.5q28 0 61 18zM191.5 -60q15.5 -18 15.5 -45q0 -50 -29.5 -90t-69.5 -65l-18 23q15 15 21 30t6 37q0 13 -9 35q-9 27 -9 39
q0 22 16 38t38 16q23 0 38.5 -18z" />
    <glyph glyph-name="uni0237" unicode="&#x237;" horiz-adv-x="265" 
d="M23 -145q27 0 43 20.5t16 54.5v550h101v-530q0 -76 -40 -114.5t-114 -38.5q-59 0 -120 36l33 72q34 -50 81 -50z" />
    <glyph glyph-name="circumflex" unicode="&#x2c6;" horiz-adv-x="318" 
d="M136 698h45l96 -146l-26 -23l-93 87l-90 -87l-28 23z" />
    <glyph glyph-name="caron" unicode="&#x2c7;" horiz-adv-x="318" 
d="M68 698l90 -87l93 87l26 -24l-96 -145h-45l-96 145z" />
    <glyph glyph-name="breve" unicode="&#x2d8;" horiz-adv-x="340" 
d="M169 537q-118 0 -118 134h44q0 -33 18 -52t56 -19t56 19t18 52h46q0 -134 -120 -134z" />
    <glyph glyph-name="dotaccent" unicode="&#x2d9;" horiz-adv-x="263" 
d="M89 561.5q-18 18.5 -18 43.5q0 26 18 44.5t44 18.5q25 0 44 -18.5t19 -44.5q0 -25 -19 -43.5t-44 -18.5q-26 0 -44 18.5z" />
    <glyph glyph-name="ring" unicode="&#x2da;" horiz-adv-x="226" 
d="M40.5 552.5q-19.5 27.5 -19.5 64.5q0 93 92 93t92 -93q0 -92 -92 -92q-53 0 -72.5 27.5zM143.5 576q8.5 18 8.5 41q0 59 -40 59q-37 0 -37 -59q0 -23 8 -41t29 -18q23 0 31.5 18z" />
    <glyph glyph-name="ogonek" unicode="&#x2db;" horiz-adv-x="269" 
d="M76.5 -159q-21.5 19 -21.5 52q0 29 18 52.5t56 47.5l35 23l33 -16l-39 -25q-26 -18 -35.5 -31.5t-9.5 -31.5q0 -16 10.5 -25t26.5 -9q21 0 38 12.5t29 33.5l36 -22q-19 -34 -51 -57t-66 -23q-38 0 -59.5 19z" />
    <glyph glyph-name="tilde" unicode="&#x2dc;" horiz-adv-x="335" 
d="M186.5 569q-20.5 7 -25.5 9q-13 5 -27 9.5t-25 4.5q-18 0 -30 -9t-20 -28l-31 11q8 51 29.5 75t49.5 24t68 -18q13 -5 26.5 -9.5t24.5 -4.5q19 0 31.5 8t19.5 26l31 -12q-9 -49 -30 -71t-49 -22q-22 0 -42.5 7z" />
    <glyph glyph-name="hungarumlaut" unicode="&#x2dd;" horiz-adv-x="449" 
d="M184 712l62 -72l-165 -109l-21 23zM372 712l60 -72l-163 -109l-21 23z" />
    <glyph glyph-name="uni0326" unicode="&#x326;" 
d="M-80.5 -60q15.5 -18 15.5 -45q0 -50 -29.5 -90t-69.5 -65l-18 23q15 15 21 30t6 37q0 13 -9 35q-9 27 -9 39q0 22 16 38t38 16q23 0 38.5 -18z" />
    <glyph glyph-name="uni0394" unicode="&#x394;" horiz-adv-x="570" 
d="M561 0h-551l219 613h112zM435 68l-172 492l-170 -492h342z" />
    <glyph glyph-name="uni03A9" unicode="&#x3a9;" horiz-adv-x="673" 
d="M483 68h114v-68h-188v152q115 47 115 212q0 98 -45 159t-142 61q-98 0 -144 -61t-46 -159q0 -164 117 -212v-4h1v-148h-190v68h115v69q-71 36 -105.5 99t-34.5 131t29.5 127t93.5 95.5t164 36.5q99 0 163 -36.5t93.5 -95.5t29.5 -127q0 -67 -35 -130t-105 -99v-70z" />
    <glyph glyph-name="uni03BC" unicode="&#x3bc;" horiz-adv-x="556" 
d="M484 480v-337q0 -74 -36.5 -114.5t-114.5 -40.5q-88 0 -153 67l-33 -258h-65v683h101v-376q46 -63 113 -63q87 0 87 112v327h101z" />
    <glyph glyph-name="pi" unicode="&#x3c0;" horiz-adv-x="546" 
d="M501 429h-50v-429h-101v429h-156v-429h-101v429h-50v51h458v-51z" />
    <glyph glyph-name="uni0901" unicode="&#x901;" 
d="M-148 791q-18 18 -18 43q0 26 17.5 43.5t43.5 17.5q25 0 43 -17.5t18 -43.5q0 -25 -18 -43t-43 -18t-43 18zM59 832q-22 -80 -76 -120t-118 -40q-70 0 -123.5 36.5t-72.5 106.5l88 31q9 -65 44 -99t81 -34q53 0 95.5 33t61.5 100z" />
    <glyph glyph-name="uni0902" unicode="&#x902;" 
d="M-178 763q-18 18 -18 43q0 26 17.5 43.5t43.5 17.5q25 0 43 -17.5t18 -43.5q0 -25 -18 -43t-43 -18t-43 18z" />
    <glyph glyph-name="uni0903" unicode="&#x903;" horiz-adv-x="311" 
d="M90 363q-17 18 -17 41q0 24 17 41t40 17q25 0 42 -17t17 -41t-17 -41.5t-42 -17.5q-23 0 -40 18zM90 121q-17 18 -17 41q0 24 17 41t40 17q25 0 42 -17t17 -41t-17 -41.5t-42 -17.5q-23 0 -40 18z" />
    <glyph glyph-name="uni0904" unicode="&#x904;" horiz-adv-x="793" 
d="M805 600v-36h-96v-564h-102v248q-38 -18 -80 -18q-16 0 -40 4q14 -31 14 -66q0 -49 -32.5 -90.5t-88 -65.5t-121.5 -24q-63 0 -110.5 20t-72.5 53t-25 71q0 35 29.5 56.5t76.5 21.5q-4 -17 -4 -54q0 -35 14.5 -65.5t39 -48.5t52.5 -18q63 0 96.5 40t33.5 104
q0 42 -21.5 76t-58.5 54t-80 20q-42 0 -78 -12l24 48q172 0 172 138q0 38 -23.5 64t-58.5 26q-44 0 -72 -22.5t-28 -52.5q0 -36 22 -54q-29 -42 -74 -42q-20 0 -35 15.5t-15 44.5q0 38 27 70.5t73.5 51.5t101.5 19q92 0 143 -34t51 -86q0 -45 -37.5 -83.5t-114.5 -60.5
q80 -7 129 -48q41 -29 91 -29q41 0 80 22v271h-60v36h258zM607.5 687.5q-29.5 30.5 -72.5 42.5t-115 22q-64 9 -103 18t-71.5 31t-45.5 62q13 14 31 22.5t46 8.5q14 -43 46 -67.5t70 -35t98 -20.5q66 -11 103.5 -22.5t63.5 -41t26 -83.5q-8 -12 -18.5 -18t-28.5 -6
q0 57 -29.5 87.5z" />
    <glyph glyph-name="uni0905" unicode="&#x905;" horiz-adv-x="793" 
d="M805 600v-36h-96v-564h-102v248q-38 -18 -80 -18q-16 0 -40 4q14 -31 14 -66q0 -49 -32.5 -90.5t-88 -65.5t-121.5 -24q-63 0 -110.5 20t-72.5 53t-25 71q0 35 29.5 56.5t76.5 21.5q-4 -17 -4 -54q0 -35 14.5 -65.5t39 -48.5t52.5 -18q63 0 96.5 40t33.5 104
q0 42 -21.5 76t-58.5 54t-80 20q-42 0 -78 -12l24 48q172 0 172 138q0 38 -23.5 64t-58.5 26q-44 0 -72 -22.5t-28 -52.5q0 -36 22 -54q-29 -42 -74 -42q-20 0 -35 15.5t-15 44.5q0 38 27 70.5t73.5 51.5t101.5 19q92 0 143 -34t51 -86q0 -45 -37.5 -83.5t-114.5 -60.5
q80 -7 129 -48q41 -29 91 -29q41 0 80 22v271h-60v36h258z" />
    <glyph glyph-name="uni0906" unicode="&#x906;" horiz-adv-x="1063" 
d="M1075 564h-96v-564h-102v564h-168v-564h-102v248q-38 -18 -80 -18q-16 0 -40 4q14 -31 14 -66q0 -49 -32.5 -90.5t-88 -65.5t-121.5 -24q-63 0 -110.5 20t-72.5 53t-25 71q0 35 29.5 56.5t76.5 21.5q-4 -17 -4 -54q0 -35 14.5 -65.5t39 -48.5t52.5 -18q63 0 96.5 40
t33.5 104q0 42 -21.5 76t-58.5 54t-80 20q-42 0 -78 -12l24 48q172 0 172 138q0 38 -23.5 64t-58.5 26q-44 0 -72 -22.5t-28 -52.5q0 -36 22 -54q-29 -42 -74 -42q-20 0 -35 15.5t-15 44.5q0 38 27 70.5t73.5 51.5t101.5 19q92 0 143 -34t51 -86q0 -45 -37.5 -83.5
t-114.5 -60.5q80 -7 129 -48q41 -29 91 -29q41 0 80 22v271h-60v36h528v-36z" />
    <glyph glyph-name="uni0907" unicode="&#x907;" horiz-adv-x="579" 
d="M220.5 472.5q-23.5 -13.5 -23.5 -42.5q0 -31 33 -48t105 -37q70 -20 114.5 -38.5t76.5 -54t32 -90.5q0 -60 -46 -101t-122 -60q24 -31 53 -48t68 -17q-10 -18 -31 -28.5t-51 -10.5q-40 0 -70.5 24.5t-56.5 67.5q-10 -1 -29 -1q-61 0 -112 20t-81 52.5t-30 67.5
q0 47 35 69.5t84 22.5q45 0 76.5 -20t52 -48.5t47.5 -76.5l24 -42q43 16 69 45t26 69q0 32 -23 53.5t-56.5 35t-91.5 30.5q-64 19 -101 34t-63 40.5t-26 64.5q0 56 45 83.5t114 27.5q66 0 138 -32v80h-412v36h603v-36h-89v-119l-78 -25q-29 31 -69.5 48.5t-83.5 17.5
q-27 0 -50.5 -13.5zM286 18q-11 20 -29 60q-29 59 -47 85.5t-41 26.5q-20 0 -28.5 -14t-8.5 -32q0 -38 21.5 -67t55 -44t70.5 -15h7z" />
    <glyph glyph-name="uni0908" unicode="&#x908;" horiz-adv-x="579" 
d="M220.5 472.5q-23.5 -13.5 -23.5 -42.5q0 -31 33 -48t105 -37q70 -20 114.5 -38.5t76.5 -54t32 -90.5q0 -60 -46 -101t-122 -60q24 -31 53 -48t68 -17q-10 -18 -31 -28.5t-51 -10.5q-40 0 -70.5 24.5t-56.5 67.5q-10 -1 -29 -1q-61 0 -112 20t-81 52.5t-30 67.5
q0 47 35 69.5t84 22.5q45 0 76.5 -20t52 -48.5t47.5 -76.5l24 -42q43 16 69 45t26 69q0 32 -23 53.5t-56.5 35t-91.5 30.5q-64 19 -101 34t-63 40.5t-26 64.5q0 56 45 83.5t114 27.5q66 0 138 -32v80h-412v36h603v-36h-89v-119l-78 -25q-29 31 -69.5 48.5t-83.5 17.5
q-27 0 -50.5 -13.5zM286 18q-11 20 -29 60q-29 59 -47 85.5t-41 26.5q-20 0 -28.5 -14t-8.5 -32q0 -38 21.5 -67t55 -44t70.5 -15h7zM343.5 672q-31.5 45 -31.5 96q0 73 46.5 111t119.5 38q28 0 64 -9t66 -22q0 -27 -12 -41.5t-24 -14.5q-13 24 -40 37.5t-52 13.5
q-36 0 -58.5 -30t-22.5 -73q0 -50 20 -89.5t58 -64.5q-18 -24 -56 -24q-46 27 -77.5 72z" />
    <glyph glyph-name="uni0909" unicode="&#x909;" horiz-adv-x="535" 
d="M547 564h-159q31 -15 47.5 -36.5t16.5 -47.5q0 -43 -37.5 -77t-114.5 -55q67 -6 110.5 -34t63.5 -67.5t20 -78.5q0 -49 -32.5 -90.5t-88 -65.5t-121.5 -24q-64 0 -111.5 20t-72 53t-24.5 71q0 35 29 56.5t77 21.5q-4 -26 -4 -54q0 -35 14.5 -65.5t39 -48.5t52.5 -18
q63 0 96.5 40t33.5 104q0 42 -21.5 76t-58.5 54t-80 20q-42 0 -78 -12l24 48q172 0 172 126q0 37 -23.5 60.5t-58.5 23.5h-270v36h559v-36z" />
    <glyph glyph-name="uni090A" unicode="&#x90a;" horiz-adv-x="800" 
d="M812 564h-424q31 -15 47.5 -36.5t16.5 -47.5q0 -43 -37.5 -77t-114.5 -55q80 -7 133 -51q27 67 66 92t88 25q53 0 95.5 -27t66.5 -74t24 -106q0 -62 -24.5 -112t-67.5 -78.5t-97 -28.5q-33 0 -54.5 14.5t-21.5 36.5q79 0 121 51t42 150q0 28 -10.5 61.5t-32 58
t-53.5 24.5q-37 0 -67.5 -32.5t-45.5 -86.5q16 -22 24 -47.5t8 -49.5q0 -49 -32.5 -90.5t-88 -65.5t-121.5 -24q-64 0 -111.5 20t-72 53t-24.5 71q0 35 29 56.5t77 21.5q-4 -26 -4 -54q0 -35 14.5 -65.5t39 -48.5t52.5 -18q63 0 96.5 40t33.5 104q0 42 -21.5 76t-58.5 54
t-80 20q-42 0 -78 -12l24 48q172 0 172 126q0 37 -23.5 60.5t-58.5 23.5h-270v36h824v-36z" />
    <glyph glyph-name="uni090B" unicode="&#x90b;" horiz-adv-x="925" 
d="M937 564h-400v-275l106 61q-17 24 -17 52q0 41 27 62.5t66 21.5q37 0 64 -20.5t27 -57.5l-102 -59q189 -83 189 -193q0 -44 -28 -79.5t-76.5 -56t-105.5 -20.5q-21 0 -31.5 11t-10.5 30q68 0 109 20t41 65q0 48 -28 100t-98 98l-132 -75v-249h-102v189l-330 -192l-17 30
l81 48q63 37 87.5 89.5t24.5 129.5q0 74 -23 118t-75 44q-43 0 -70.5 -35.5t-27.5 -92.5q0 -9 2 -31q-28 0 -50 20.5t-22 51.5q0 60 52 88.5t116 28.5q60 0 105.5 -22t70 -61.5t24.5 -88.5q0 -44 -17.5 -82.5t-62.5 -79.5l132 78v334h-447v36h949v-36z" />
    <glyph glyph-name="uni090C" unicode="&#x90c;" horiz-adv-x="739" 
d="M580 564v-103q53 -23 86.5 -74.5t33.5 -115.5q0 -47 -16 -82.5t-39 -60t-62 -57.5q-35 -29 -55.5 -50.5t-34 -50t-13.5 -64.5q0 -99 85 -99q57 0 81 44t24 97q31 0 51 -18t20 -51q0 -28 -21.5 -51t-62.5 -37t-95 -14q-81 0 -132.5 35t-51.5 94q0 42 21.5 68.5t66.5 58.5
q42 32 68 58t45 70.5t19 108.5q0 31 -10.5 72t-32 71.5t-53.5 30.5q-47 0 -75.5 -46t-29.5 -116h-54q-2 70 -30 116t-75 46q-32 0 -53.5 -30.5t-32 -71.5t-10.5 -72q0 -110 46 -163t140 -53q-3 -24 -26.5 -42t-67.5 -18q-56 0 -100 31.5t-69 87t-25 124.5q0 66 24 120
t66.5 85.5t95.5 31.5q47 0 83.5 -21t60.5 -81q34 86 108 99v93h-490v36h763v-36h-171z" />
    <glyph glyph-name="uni090D" unicode="&#x90d;" horiz-adv-x="586" 
d="M184 -256q-47 20 -72 53t-25 71q0 35 29 56.5t76 21.5q-3 -20 -3 -54q0 -35 14 -65.5t38.5 -48.5t52.5 -18q53 0 89.5 32.5t36.5 87.5q0 34 -21.5 65t-53 57t-85.5 64q-62 45 -99 75.5t-63 71t-26 87.5v264h-84v36h610v-36h-84v-158q0 -52 -25.5 -97.5t-73.5 -75
t-113 -35.5q55 36 82.5 94t27.5 123v149h-238v-246q0 -37 18.5 -66.5t46 -52t75.5 -54.5q58 -39 93 -69t60 -74.5t25 -104.5q0 -48 -27 -87.5t-72.5 -62.5t-98.5 -23q-63 0 -110 20zM519 832q-22 -80 -76 -120t-118 -40q-70 0 -123.5 36.5t-72.5 106.5l88 31q9 -65 44 -99
t81 -34q53 0 95.5 33t61.5 100z" />
    <glyph glyph-name="uni090E" unicode="&#x90e;" horiz-adv-x="586" 
d="M184 -256q-47 20 -72 53t-25 71q0 35 29 56.5t76 21.5q-3 -20 -3 -54q0 -35 14 -65.5t38.5 -48.5t52.5 -18q53 0 89.5 32.5t36.5 87.5q0 34 -21.5 65t-53 57t-85.5 64q-62 45 -99 75.5t-63 71t-26 87.5v264h-84v36h610v-36h-84v-158q0 -52 -25.5 -97.5t-73.5 -75
t-113 -35.5q55 36 82.5 94t27.5 123v149h-238v-246q0 -37 18.5 -66.5t46 -52t75.5 -54.5q58 -39 93 -69t60 -74.5t25 -104.5q0 -48 -27 -87.5t-72.5 -62.5t-98.5 -23q-63 0 -110 20zM412.5 687.5q-29.5 30.5 -72.5 42.5t-115 22q-64 9 -103 18t-71.5 31t-45.5 62
q13 14 31 22.5t46 8.5q14 -43 46 -67.5t70 -35t98 -20.5q66 -11 103.5 -22.5t63.5 -41t26 -83.5q-8 -12 -18.5 -18t-28.5 -6q0 57 -29.5 87.5z" />
    <glyph glyph-name="uni090F" unicode="&#x90f;" horiz-adv-x="586" 
d="M184 -256q-47 20 -72 53t-25 71q0 35 29 56.5t76 21.5q-3 -20 -3 -54q0 -35 14 -65.5t38.5 -48.5t52.5 -18q53 0 89.5 32.5t36.5 87.5q0 34 -21.5 65t-53 57t-85.5 64q-62 45 -99 75.5t-63 71t-26 87.5v264h-84v36h610v-36h-84v-158q0 -52 -25.5 -97.5t-73.5 -75
t-113 -35.5q55 36 82.5 94t27.5 123v149h-238v-246q0 -37 18.5 -66.5t46 -52t75.5 -54.5q58 -39 93 -69t60 -74.5t25 -104.5q0 -48 -27 -87.5t-72.5 -62.5t-98.5 -23q-63 0 -110 20z" />
    <glyph glyph-name="uni0910" unicode="&#x910;" horiz-adv-x="586" 
d="M184 -256q-47 20 -72 53t-25 71q0 35 29 56.5t76 21.5q-3 -20 -3 -54q0 -35 14 -65.5t38.5 -48.5t52.5 -18q53 0 89.5 32.5t36.5 87.5q0 34 -21.5 65t-53 57t-85.5 64q-62 45 -99 75.5t-63 71t-26 87.5v264h-84v36h610v-36h-84v-158q0 -52 -25.5 -97.5t-73.5 -75
t-113 -35.5q55 36 82.5 94t27.5 123v149h-238v-246q0 -37 18.5 -66.5t46 -52t75.5 -54.5q58 -39 93 -69t60 -74.5t25 -104.5q0 -48 -27 -87.5t-72.5 -62.5t-98.5 -23q-63 0 -110 20zM270 943l219 -319q-17 -24 -47 -24l-260 312q23 31 88 31z" />
    <glyph glyph-name="uni0911" unicode="&#x911;" horiz-adv-x="1063" 
d="M1075 564h-96v-564h-102v564h-168v-564h-102v248q-38 -18 -80 -18q-16 0 -40 4q14 -31 14 -66q0 -49 -32.5 -90.5t-88 -65.5t-121.5 -24q-63 0 -110.5 20t-72.5 53t-25 71q0 35 29.5 56.5t76.5 21.5q-4 -17 -4 -54q0 -35 14.5 -65.5t39 -48.5t52.5 -18q63 0 96.5 40
t33.5 104q0 42 -21.5 76t-58.5 54t-80 20q-42 0 -78 -12l24 48q172 0 172 138q0 38 -23.5 64t-58.5 26q-44 0 -72 -22.5t-28 -52.5q0 -36 22 -54q-29 -42 -74 -42q-20 0 -35 15.5t-15 44.5q0 38 27 70.5t73.5 51.5t101.5 19q92 0 143 -34t51 -86q0 -45 -37.5 -83.5
t-114.5 -60.5q80 -7 129 -48q41 -29 91 -29q41 0 80 22v271h-60v36h528v-36zM1002 832q-22 -80 -76 -120t-118 -40q-70 0 -123.5 36.5t-72.5 106.5l88 31q9 -65 44 -99t81 -34q53 0 95.5 33t61.5 100z" />
    <glyph glyph-name="uni0912" unicode="&#x912;" horiz-adv-x="1063" 
d="M936 606q-10 -6 -28 -6q0 57 -29.5 87.5t-72.5 42.5t-115 22q-64 9 -103.5 18t-72 31t-45.5 62q13 14 31 22.5t46 8.5q14 -43 46 -67.5t70 -35t98 -20.5q66 -11 103.5 -22.5t63.5 -41t26 -83.5q-8 -12 -18 -18zM1075 564h-96v-564h-102v564h-168v-564h-102v248
q-38 -18 -80 -18q-16 0 -40 4q14 -31 14 -66q0 -49 -32.5 -90.5t-88 -65.5t-121.5 -24q-63 0 -110.5 20t-72.5 53t-25 71q0 35 29.5 56.5t76.5 21.5q-4 -17 -4 -54q0 -35 14.5 -65.5t39 -48.5t52.5 -18q63 0 96.5 40t33.5 104q0 42 -21.5 76t-58.5 54t-80 20q-42 0 -78 -12
l24 48q172 0 172 138q0 38 -23.5 64t-58.5 26q-44 0 -72 -22.5t-28 -52.5q0 -36 22 -54q-29 -42 -74 -42q-20 0 -35 15.5t-15 44.5q0 38 27 70.5t73.5 51.5t101.5 19q92 0 143 -34t51 -86q0 -45 -37.5 -83.5t-114.5 -60.5q80 -7 129 -48q41 -29 91 -29q41 0 80 22v271h-60
v36h528v-36z" />
    <glyph glyph-name="uni0913" unicode="&#x913;" horiz-adv-x="1063" 
d="M1075 564h-96v-564h-102v564h-168v-564h-102v248q-38 -18 -80 -18q-16 0 -40 4q14 -31 14 -66q0 -49 -32.5 -90.5t-88 -65.5t-121.5 -24q-63 0 -110.5 20t-72.5 53t-25 71q0 35 29.5 56.5t76.5 21.5q-4 -17 -4 -54q0 -35 14.5 -65.5t39 -48.5t52.5 -18q63 0 96.5 40
t33.5 104q0 42 -21.5 76t-58.5 54t-80 20q-42 0 -78 -12l24 48q172 0 172 138q0 38 -23.5 64t-58.5 26q-44 0 -72 -22.5t-28 -52.5q0 -36 22 -54q-29 -42 -74 -42q-20 0 -35 15.5t-15 44.5q0 38 27 70.5t73.5 51.5t101.5 19q92 0 143 -34t51 -86q0 -45 -37.5 -83.5
t-114.5 -60.5q80 -7 129 -48q41 -29 91 -29q41 0 80 22v271h-60v36h528v-36zM734 943l219 -319q-17 -24 -47 -24l-260 312q23 31 88 31z" />
    <glyph glyph-name="uni0914" unicode="&#x914;" horiz-adv-x="1063" 
d="M1075 564h-96v-564h-102v564h-168v-564h-102v248q-38 -18 -80 -18q-16 0 -40 4q14 -31 14 -66q0 -49 -32.5 -90.5t-88 -65.5t-121.5 -24q-63 0 -110.5 20t-72.5 53t-25 71q0 35 29.5 56.5t76.5 21.5q-4 -17 -4 -54q0 -35 14.5 -65.5t39 -48.5t52.5 -18q63 0 96.5 40
t33.5 104q0 42 -21.5 76t-58.5 54t-80 20q-42 0 -78 -12l24 48q172 0 172 138q0 38 -23.5 64t-58.5 26q-44 0 -72 -22.5t-28 -52.5q0 -36 22 -54q-29 -42 -74 -42q-20 0 -35 15.5t-15 44.5q0 38 27 70.5t73.5 51.5t101.5 19q92 0 143 -34t51 -86q0 -45 -37.5 -83.5
t-114.5 -60.5q80 -7 129 -48q41 -29 91 -29q41 0 80 22v271h-60v36h528v-36zM942 620q-4 -8 -16.5 -14t-24.5 -6l-356 149q-2 18 6 40t31 37l299 -178l-235 264q23 31 88 31z" />
    <glyph glyph-name="uni0915" unicode="&#x915;" horiz-adv-x="919" 
d="M547 564v-141q54 81 146 81q85 0 137 -57t52 -150q0 -66 -23.5 -120.5t-66.5 -85.5t-99 -31q-34 0 -56.5 14.5t-20.5 36.5q76 0 120 49t44 125q0 72 -30.5 125t-86.5 53q-71 0 -116 -87v-376h-102v204q-26 -66 -79.5 -105t-120.5 -39q-61 0 -108 26t-73 73t-26 108
q0 72 26.5 125.5t72.5 82.5t103 29q74 0 116 -27.5t42 -74.5q0 -33 -26 -53t-67 -20q0 61 -15 103t-50 42q-28 0 -51 -26t-36 -68.5t-13 -88.5q0 -83 35 -136.5t100 -53.5q55 0 101 47t69 122v294h-457v36h943v-36h-384z" />
    <glyph glyph-name="uni0916" unicode="&#x916;" horiz-adv-x="1031" 
d="M1043 564h-99v-564h-102v204q-26 -66 -79 -105t-120 -39q-76 0 -129 39q-43 -55 -90 -82t-112 -27q-50 0 -88.5 26t-64.5 63t-58 94q-33 58 -55 85t-49 27q12 21 30 33t38 12q19 0 30 -4t24 -12q12 -8 24.5 -12.5t32.5 -4.5q33 0 59.5 23.5t26.5 69.5q0 116 -81 174h-194
v36h1056v-36zM842 564h-582q50 -26 77 -70.5t27 -95.5q0 -32 -14 -64t-46.5 -54t-84.5 -22q-30 0 -57 9q46 -96 83 -145.5t64.5 -64.5t54.5 -15q28 0 61 20.5t61 61.5q-50 56 -50 143q0 72 26 125.5t72 82.5t104 29q74 0 116 -27.5t42 -74.5q0 -33 -26 -53t-67 -20
q0 60 -15 102.5t-50 42.5q-28 0 -51 -26t-36 -68.5t-13 -88.5q0 -83 34.5 -136.5t100.5 -53.5q55 0 101 47t68 122v294z" />
    <glyph glyph-name="uni0917" unicode="&#x917;" horiz-adv-x="694" 
d="M706 600v-36h-96v-564h-102v564h-226q69 -46 104.5 -112t35.5 -134q0 -60 -25 -110.5t-74 -81t-116 -30.5q-57 0 -98 23t-61.5 61.5t-20.5 83.5q0 51 26 93.5t71 67.5t99 25q10 0 15 -8.5t5 -21.5q-30 0 -56.5 -20.5t-42 -55.5t-15.5 -74q0 -68 25.5 -107t61.5 -39
q46 0 75 48t29 146q0 84 -40.5 153.5t-102.5 92.5h-189v36h718z" />
    <glyph glyph-name="uni0918" unicode="&#x918;" horiz-adv-x="602" 
d="M614 564h-103v-564h-102v150q-27 -46 -74 -71t-103 -25q-51 0 -94 23.5t-68.5 63.5t-25.5 87q0 61 44 105t109 57q-121 18 -121 95q0 20 16.5 43t53.5 36h-158v36h626v-36zM282 564q-53 0 -78.5 -22t-25.5 -59q0 -34 23.5 -56t66.5 -22h66v-30h-59q-34 0 -63.5 -20
t-47.5 -53.5t-18 -73.5q0 -63 26 -103.5t83 -40.5q54 0 97 40.5t57 103.5v336h-127z" />
    <glyph glyph-name="uni0919" unicode="&#x919;" horiz-adv-x="623" 
d="M382 48.5q43 30.5 43 85.5q0 36 -23 59t-57.5 36t-91.5 27q-62 16 -99 30.5t-63 41.5t-26 71q0 53 41.5 85t113.5 32q66 0 138 -32v80h-370v36h647v-36h-175v-119l-78 -25q-29 31 -69.5 48.5t-83.5 17.5q-28 0 -50 -14t-22 -45q0 -27 19.5 -45t49.5 -28.5t82 -24.5
q67 -18 108 -34.5t70.5 -48.5t29.5 -84q0 -56 -34.5 -95t-92 -59t-125.5 -20q-72 0 -125.5 20t-81.5 53t-28 71q0 35 32 56.5t84 21.5q-7 -9 -10.5 -25t-3.5 -29q0 -60 34.5 -99t98.5 -39q75 0 118 30.5zM560.5 394q16.5 -17 16.5 -38t-16.5 -38t-37.5 -17q-22 0 -38.5 17
t-16.5 38t16.5 38t38.5 17q21 0 37.5 -17z" />
    <glyph glyph-name="uni091A" unicode="&#x91a;" horiz-adv-x="655" 
d="M667 564h-102v-564h-102v168q-20 -41 -67 -74.5t-108 -33.5q-85 0 -136.5 47.5t-51.5 126.5q0 46 22.5 87t62 70t86.5 38h-259v30h402v-30q-57 0 -106 -26.5t-77.5 -73t-28.5 -101.5q-1 -57 22.5 -97.5t79.5 -40.5q58 0 102.5 47.5t56.5 120.5v306h-475v36h679v-36z" />
    <glyph glyph-name="uni091B" unicode="&#x91b;" horiz-adv-x="730" 
d="M570 564v-80q62 -17 95 -68t33 -122q0 -85 -42 -155t-118 -110.5t-176 -40.5q-93 0 -165.5 30t-112.5 80.5t-40 111.5q0 56 44 101.5t108 60.5q-68 17 -97 47t-29 67q0 22 11 43t31 35h-124v36h754v-36h-172zM468 564h-256q-18 -8 -29 -29.5t-11 -48.5q0 -39 31.5 -65
t98.5 -34v-30q-73 -7 -109.5 -46.5t-36.5 -100.5q0 -52 28 -96t75.5 -70t102.5 -26q69 0 120.5 27.5t80.5 85.5q-63 9 -113 39.5t-78 75.5t-28 96q0 46 33.5 88t90.5 56v78zM596 300q0 71 -22 116t-56 45q-31 0 -51.5 -35.5t-20.5 -83.5q0 -58 34.5 -108.5t95.5 -69.5
q20 57 20 136z" />
    <glyph glyph-name="uni091C" unicode="&#x91c;" horiz-adv-x="771" 
d="M585 420h-261q77 -34 116.5 -89.5t39.5 -111.5q0 -52 -29.5 -92.5t-79.5 -62.5t-110 -22q-64 0 -111 20t-71.5 53t-24.5 71q0 35 29.5 59.5t77.5 24.5q-5 -32 -5 -60q0 -64 30 -98t75 -34q51 0 84 33t33 87q0 50 -25.5 99.5t-69 86t-94.5 48.5l23 18h373v114h-597v36h795
v-36h-96v-564h-102v420z" />
    <glyph glyph-name="uni091D" unicode="&#x91d;" horiz-adv-x="822" 
d="M834 564h-96v-564h-102v234q-29 -12 -65 -12q-23 0 -45 5q6 -18 6 -41q0 -58 -43.5 -97.5t-115.5 -56.5q22 -30 49.5 -46t66.5 -16q-11 -18 -31.5 -28.5t-48.5 -10.5q-39 0 -69 24t-54 65q-10 -1 -29 -1q-58 0 -106 18.5t-76 49t-28 65.5q0 45 33.5 66t81.5 21
q42 0 72.5 -18.5t49.5 -45t45 -71.5q12 -24 22 -39q36 14 57.5 40.5t21.5 63.5q0 30 -21.5 51t-53 33.5t-84.5 28.5q-59 18 -93 32.5t-58 39t-24 61.5q0 53 43 79.5t109 26.5q64 0 131 -29v72h-391v36h846v-36zM636 278v286h-155v-111l-79 -23q-28 28 -66 44.5t-77 16.5
q-22 0 -41.5 -12.5t-19.5 -39.5q0 -29 30.5 -45t96.5 -35q57 -16 94.5 -31t64.5 -39q40 -26 87 -26q33 0 65 15zM270 49q-18 36 -26 54q-25 54 -42.5 80t-39.5 26q-19 0 -27 -13t-8 -30q0 -36 20 -62.5t51.5 -40.5t66.5 -14h5z" />
    <glyph glyph-name="uni091E" unicode="&#x91e;" horiz-adv-x="726" 
d="M738 600v-36h-96v-564h-102v227h-8q-40 0 -72 20q-7 -63 -38.5 -108t-77.5 -68t-98 -23q-67 0 -116 24.5t-75 64t-26 81.5q0 46 27.5 76t74.5 30q39 0 66 -19q-64 -38 -64 -115q0 -45 28.5 -78t84.5 -33q49 0 83 24.5t50.5 61.5t16.5 75q0 89 -64.5 143t-193.5 54
q0 23 20 42t52 19q75 0 131 -28.5t86.5 -75.5t33.5 -103q35 -23 71 -23h8v296h-552v36h750z" />
    <glyph glyph-name="uni091F" unicode="&#x91f;" horiz-adv-x="589" 
d="M367 281q27 19 66 19q47 0 75.5 -30t28.5 -76q0 -45 -29 -87t-83.5 -68.5t-125.5 -26.5q-127 0 -194.5 61t-67.5 167q0 71 38.5 124t101 81.5t134.5 28.5q32 0 62 -6v96h-385v36h613v-36h-126v-108l-72 -30q-37 12 -71 12q-87 0 -140 -53t-53 -145q0 -98 44.5 -147.5
t115.5 -49.5q41 0 71 18t45.5 46t15.5 59q0 77 -64 115z" />
    <glyph glyph-name="uni0920" unicode="&#x920;" horiz-adv-x="613" 
d="M168 40q-62 28 -96.5 79.5t-34.5 120.5q0 71 38.5 124t101 81.5t134.5 28.5q32 0 62 -6v96h-385v36h637v-36h-150v-108l-72 -30q-37 12 -71 12q-87 0 -140 -53t-53 -145q0 -98 47.5 -147.5t124.5 -49.5q46 0 85 18.5t63.5 58.5t24.5 99q0 72 -44.5 117.5t-111.5 48.5
q42 30 96 30q45 0 82 -20.5t58.5 -59t21.5 -89.5q0 -75 -41 -128t-104.5 -79.5t-129.5 -26.5q-81 0 -143 28z" />
    <glyph glyph-name="uni0921" unicode="&#x921;" horiz-adv-x="537" 
d="M382 48.5q43 30.5 43 85.5q0 36 -23 59t-57.5 36t-91.5 27q-62 16 -99 30.5t-63 41.5t-26 71q0 53 41.5 85t113.5 32q66 0 138 -32v80h-370v36h561v-36h-89v-119l-78 -25q-29 31 -69.5 48.5t-83.5 17.5q-28 0 -50 -14t-22 -45q0 -27 19.5 -45t49.5 -28.5t82 -24.5
q67 -18 108 -34.5t70.5 -48.5t29.5 -84q0 -56 -34.5 -95t-92 -59t-125.5 -20q-72 0 -125.5 20t-81.5 53t-28 71q0 35 32 56.5t84 21.5q-7 -9 -10.5 -25t-3.5 -29q0 -60 34.5 -99t98.5 -39q75 0 118 30.5z" />
    <glyph glyph-name="uni0922" unicode="&#x922;" horiz-adv-x="589" 
d="M520.5 300q43.5 -37 43.5 -102q0 -45 -26.5 -87.5t-85 -70.5t-148.5 -28q-129 0 -198 61t-69 167q0 70 38.5 123t101.5 82t134 29q32 0 62 -6v96h-385v36h613v-36h-126v-108l-72 -30q-37 12 -71 12q-87 0 -140 -53.5t-53 -144.5q0 -98 45 -148t120 -50q71 0 119.5 40.5
t48.5 124.5q0 41 -22 69t-49 28q-28 0 -45.5 -23.5t-17.5 -52.5q0 -39 12.5 -64.5t54.5 -32.5q0 -10 -14 -17.5t-33 -7.5q-54 0 -80.5 32.5t-26.5 78.5q0 31 18 58.5t52.5 44.5t82.5 17q73 0 116.5 -37z" />
    <glyph glyph-name="uni0923" unicode="&#x923;" horiz-adv-x="766" 
d="M778 564h-96v-564h-102v564h-198q54 -49 87 -108t33 -120q0 -60 -31.5 -106.5t-85 -72t-117.5 -25.5t-117 25.5t-83.5 72t-30.5 106.5q0 63 28 122.5t77 105.5h-154v36h790v-36zM211 564q-34 -36 -53 -86.5t-19 -111.5t16 -107.5t45 -71.5t65 -25q61 0 98 57t37 153
q0 107 -87 192h-102z" />
    <glyph glyph-name="uni0924" unicode="&#x924;" horiz-adv-x="579" 
d="M591 564h-96v-564h-102v370q-47 66 -126 66q-54 0 -88 -40.5t-34 -127.5q0 -73 20 -126t47 -80t47 -27q-5 -19 -19.5 -30t-38.5 -11q-42 0 -81 34.5t-63 95t-24 133.5q0 61 24.5 110t73.5 78t121 29q39 0 77 -10t64 -32v132h-405v36h603v-36z" />
    <glyph glyph-name="uni0925" unicode="&#x925;" horiz-adv-x="639" 
d="M453 189q-37 -51 -85.5 -78t-104.5 -27q-60 0 -107.5 26.5t-74.5 70.5t-27 95q0 31 19.5 43.5t62.5 23.5q42 10 69.5 23t47.5 46.5t20 95.5q0 40 -20 66t-55 26q-31 0 -53 -27t-22 -65q0 -36 19.5 -68.5t57.5 -39.5q0 -11 -5 -18.5t-14 -7.5q-44 0 -77 18t-50.5 46.5
t-17.5 59.5q0 36 22.5 66.5t59.5 48t80 17.5q44 0 81 -17t59 -47t22 -68q0 -65 -44.5 -108t-118.5 -64q-21 -6 -29.5 -16t-10 -19t-1.5 -24q0 -64 32 -108.5t85 -44.5q42 0 81 20.5t65.5 52.5t33.5 65v312h-57v36h261v-36h-102v-564h-102v189z" />
    <glyph glyph-name="uni0926" unicode="&#x926;" horiz-adv-x="589" 
d="M192 384.5q-53 -53.5 -53 -144.5q0 -88 37 -137t100 -58q-31 69 -31 132q0 53 23 89t59.5 53.5t78.5 17.5q71 0 114.5 -37.5t43.5 -101.5q0 -59 -43.5 -110t-132.5 -68q29 -39 69.5 -60.5t80.5 -21.5q0 -20 -16.5 -33t-51.5 -13q-50 0 -96.5 33t-79.5 87
q-124 2 -190.5 63.5t-66.5 164.5q0 70 38.5 123t101.5 82t134 29q32 0 62 -6v96h-385v36h613v-36h-126v-108l-72 -30q-37 12 -71 12q-87 0 -140 -53.5zM358 277.5q-21 -29.5 -21 -88.5q0 -77 31 -137q47 15 75.5 53.5t28.5 101.5q0 43 -19 71.5t-44 28.5q-30 0 -51 -29.5z
" />
    <glyph glyph-name="uni0927" unicode="&#x927;" horiz-adv-x="660" 
d="M281.5 580q-14.5 23 -42.5 23q-32 0 -48 -27.5t-16 -71.5t26 -77.5t71 -51.5t100 -18v-30q-51 0 -96 -20t-72 -51t-27 -61q0 -50 32.5 -79t81.5 -29q55 0 102.5 26t80.5 73v378h-63v36h261v-36h-96v-564h-102v138q-41 -48 -94 -72t-113 -24q-82 0 -137 38t-55 103
q0 57 49 100t119 53q-72 17 -115.5 61t-43.5 107q0 36 20.5 66t55 48t74.5 18q70 0 109.5 -30.5t39.5 -77.5q0 -50 -34.5 -87t-100.5 -37q-9 0 -13.5 7.5t-4.5 18.5q38 7 52 34t14 64q0 29 -14.5 52z" />
    <glyph glyph-name="uni0928" unicode="&#x928;" horiz-adv-x="656" 
d="M668 564h-96v-564h-102v386q-90 54 -172 54q-81 -1 -131.5 -55.5t-50.5 -153.5q0 -31 11 -66.5t32 -59.5t50 -24q43 0 63 33t20 72q0 65 -31.5 102.5t-78.5 37.5q33 37 78 37q58 0 96 -38.5t38 -97.5q0 -42 -22.5 -83t-64.5 -67t-98 -26q-60 0 -104 26.5t-67.5 71
t-23.5 94.5q0 71 38 122.5t99.5 78t131.5 26.5q50 0 98.5 -12t88.5 -35v141h-482v36h680v-36z" />
    <glyph glyph-name="uni0929" unicode="&#x929;" horiz-adv-x="656" 
d="M668 564h-96v-564h-102v386q-90 54 -172 54q-81 -1 -131.5 -55.5t-50.5 -153.5q0 -31 11 -66.5t32 -59.5t50 -24q43 0 63 33t20 72q0 65 -31.5 102.5t-78.5 37.5q33 37 78 37q58 0 96 -38.5t38 -97.5q0 -42 -22.5 -83t-64.5 -67t-98 -26q-60 0 -104 26.5t-67.5 71
t-23.5 94.5q0 71 38 122.5t99.5 78t131.5 26.5q50 0 98.5 -12t88.5 -35v141h-482v36h680v-36zM243 -16.5q18 -17.5 18 -43.5t-18 -43.5t-43 -17.5q-26 0 -43.5 17.5t-17.5 43.5t17.5 43.5t43.5 17.5q25 0 43 -17.5z" />
    <glyph glyph-name="uni092A" unicode="&#x92a;" horiz-adv-x="606" 
d="M618 564h-96v-564h-102v219q-10 -29 -36.5 -56t-65 -44t-81.5 -17q-83 0 -127 49t-44 128v285h-78v36h630v-36zM168 564v-285q0 -65 23 -98.5t67 -33.5q58 0 101.5 44t60.5 112v261h-252z" />
    <glyph glyph-name="uni092B" unicode="&#x92b;" horiz-adv-x="895" 
d="M522 564v-132q53 72 144 72q57 0 100 -26t67 -73t24 -108q0 -67 -23.5 -121t-66 -85t-99.5 -31q-34 0 -56.5 14.5t-20.5 36.5q76 0 120 49t44 125q0 72 -30.5 125t-86.5 53q-71 0 -116 -84v-379h-102v219q-10 -29 -36.5 -56t-65 -44t-81.5 -17q-83 0 -127 49t-44 128v285
h-78v36h919v-36h-385zM420 564h-252v-285q0 -65 23 -98.5t67 -33.5q58 0 101.5 46t60.5 116v255z" />
    <glyph glyph-name="uni092C" unicode="&#x92c;" horiz-adv-x="634" 
d="M646 600v-36h-99v-564h-102v204q-26 -66 -79 -105t-120 -39q-61 0 -108 26t-73 73t-26 108q0 72 26 125.5t72 82.5t104 29q74 0 115.5 -27.5t41.5 -74.5q0 -33 -25.5 -53t-66.5 -20q0 60 -15 102.5t-50 42.5q-36 0 -63 -42l187 -295q56 50 80 133v294h-457v36h658z
M175.5 154.5q34.5 -53.5 100.5 -53.5q27 0 55 14l-173 276q-17 -46 -17 -100q0 -83 34.5 -136.5z" />
    <glyph glyph-name="uni092D" unicode="&#x92d;" horiz-adv-x="692" 
d="M704 600v-36h-96v-564h-102v333h-121q0 -67 -24 -127t-71 -97t-113 -37q-44 0 -80 18t-56.5 48.5t-20.5 68.5q0 74 59.5 115t167.5 41h37v135q0 58 -21.5 86t-51.5 28q-33 0 -48 -21.5t-15 -56.5q0 -30 18.5 -50.5t44.5 -18.5q-35 -29 -76 -29q-30 0 -54.5 25t-24.5 56
q0 63 44 94t111 31q48 0 88.5 -20.5t63.5 -56.5t23 -79v-123h120v201h-74v36h272zM284 333h-37q-67 0 -96 -33.5t-29 -89.5q0 -108 66 -108q47 0 71.5 53t24.5 125v53z" />
    <glyph glyph-name="uni092E" unicode="&#x92e;" horiz-adv-x="701" 
d="M713 600v-36h-96v-564h-102v333h-122q0 -67 -24 -127t-71 -97t-114 -37q-44 0 -79.5 18t-55.5 48.5t-20 68.5q0 74 59.5 115t167.5 41h29q-11 70 -37 122t-59 79h-201v36h725zM515 564h-239q51 -28 80 -81.5t35 -119.5h124v201zM289 333h-33q-125 0 -125 -123
q0 -108 66 -108q46 0 70.5 50.5t24.5 127.5q0 28 -3 53z" />
    <glyph glyph-name="uni092F" unicode="&#x92f;" horiz-adv-x="621" 
d="M633 564h-102v-564h-102v180q-34 -46 -79.5 -71t-96.5 -25q-63 0 -114 26t-80.5 70t-29.5 96q0 32 18.5 52t58.5 20q67 0 102 27.5t35 77.5q0 83 -60 111h-195v36h645v-36zM262 564q36 -12 59.5 -42.5t23.5 -68.5q0 -37 -24.5 -68t-66.5 -49t-91 -18q-23 0 -27.5 -14
t-4.5 -37q0 -63 36.5 -108t96.5 -45q37 0 73 19.5t60.5 49.5t31.5 60v321h-167z" />
    <glyph glyph-name="uni0930" unicode="&#x930;" horiz-adv-x="397" 
d="M409 564h-149q50 -26 77 -70.5t27 -95.5q0 -32 -14 -64t-46.5 -54t-84.5 -22q-30 0 -57 9q51 -100 86.5 -146.5t59.5 -57.5t56 -11q-14 -31 -39.5 -46.5t-54.5 -15.5q-31 0 -58.5 23.5t-49.5 56t-53 87.5q-37 65 -61.5 96.5t-50.5 31.5q12 21 30 33t38 12q19 0 30 -4
t24 -12q12 -8 24.5 -12.5t32.5 -4.5q33 0 59.5 23.5t26.5 69.5q0 116 -81 174h-194v36h422v-36z" />
    <glyph glyph-name="uni0931" unicode="&#x931;" horiz-adv-x="397" 
d="M409 564h-149q50 -26 77 -70.5t27 -95.5q0 -32 -14 -64t-46.5 -54t-84.5 -22q-30 0 -57 9q51 -100 86.5 -146.5t59.5 -57.5t56 -11q-14 -31 -39.5 -46.5t-54.5 -15.5q-31 0 -58.5 23.5t-49.5 56t-53 87.5q-37 65 -61.5 96.5t-50.5 31.5q12 21 30 33t38 12q19 0 30 -4
t24 -12q12 -8 24.5 -12.5t32.5 -4.5q33 0 59.5 23.5t26.5 69.5q0 116 -81 174h-194v36h422v-36zM120 43.5q18 -17.5 18 -43.5t-18 -43.5t-43 -17.5q-26 0 -43.5 17.5t-17.5 43.5t17.5 43.5t43.5 17.5q25 0 43 -17.5z" />
    <glyph glyph-name="uni0932" unicode="&#x932;" horiz-adv-x="724" 
d="M736 600v-36h-96v-564h-102v436q-18 8 -36 8q-47 0 -75.5 -46t-29.5 -116h-54q-2 70 -30 116t-75 46q-32 0 -54 -29t-32 -69.5t-10 -75.5q0 -103 46.5 -159.5t139.5 -56.5q-3 -24 -27 -42t-67 -18q-55 0 -99.5 31.5t-69.5 87t-25 124.5q0 66 24 120t66.5 85.5t95.5 31.5
q47 0 83.5 -21t60.5 -81q24 60 60.5 81t83.5 21q12 0 24 -3v93h-550v36h748z" />
    <glyph glyph-name="uni0933" unicode="&#x933;" horiz-adv-x="811" 
d="M654 564v-97q49 -26 80.5 -81.5t31.5 -133.5q0 -68 -29 -126t-79.5 -92t-109.5 -34q-45 0 -83.5 22.5t-58.5 60.5q-33 -41 -78 -62t-93 -21t-90.5 28t-69 81.5t-26.5 124.5q0 68 29 126t78.5 92t108.5 34q45 0 83 -22t59 -60q28 34 65.5 54.5t79.5 25.5v80h-564v36h835
v-36h-169zM395 109q-35 155 -54.5 223t-38.5 96t-49 28q-27 0 -50.5 -22.5t-37.5 -61t-14 -84.5q0 -106 33 -173.5t97 -67.5q54 0 114 62zM612.5 53q23.5 23 37.5 61.5t14 83.5q0 105 -34.5 173.5t-97.5 68.5q-49 0 -113 -62q2 -10 4 -15l-1 -5q33 -144 52 -209.5t38.5 -92
t49.5 -26.5q27 0 50.5 23z" />
    <glyph glyph-name="uni0934" unicode="&#x934;" horiz-adv-x="811" 
d="M654 564v-97q49 -26 80.5 -81.5t31.5 -133.5q0 -68 -29 -126t-79.5 -92t-109.5 -34q-45 0 -83.5 22.5t-58.5 60.5q-33 -41 -78 -62t-93 -21t-90.5 28t-69 81.5t-26.5 124.5q0 68 29 126t78.5 92t108.5 34q45 0 83 -22t59 -60q28 34 65.5 54.5t79.5 25.5v80h-564v36h835
v-36h-169zM395 109q-35 155 -54.5 223t-38.5 96t-49 28q-27 0 -50.5 -22.5t-37.5 -61t-14 -84.5q0 -106 33 -173.5t97 -67.5q54 0 114 62zM612.5 53q23.5 23 37.5 61.5t14 83.5q0 105 -34.5 173.5t-97.5 68.5q-49 0 -113 -62q2 -10 4 -15l-1 -5q33 -144 52 -209.5t38.5 -92
t49.5 -26.5q27 0 50.5 23zM462 -52.5q18 -17.5 18 -43.5t-18 -43.5t-43 -17.5q-26 0 -43.5 17.5t-17.5 43.5t17.5 43.5t43.5 17.5q25 0 43 -17.5z" />
    <glyph glyph-name="uni0935" unicode="&#x935;" horiz-adv-x="634" 
d="M445 204q-26 -66 -79 -105t-120 -39q-61 0 -108 26t-73 73t-26 108q0 72 26 125.5t72 82.5t104 29q74 0 115.5 -27.5t41.5 -74.5q0 -33 -25.5 -53t-66.5 -20q0 60 -15 102.5t-50 42.5q-28 0 -51 -26t-36 -68.5t-13 -88.5q0 -83 34.5 -136.5t100.5 -53.5q54 0 100.5 47
t68.5 122v294h-457v36h658v-36h-99v-564h-102v204z" />
    <glyph glyph-name="uni0936" unicode="&#x936;" horiz-adv-x="763" 
d="M422.5 586q58.5 -50 58.5 -136q0 -66 -44.5 -122t-121 -88.5t-166.5 -32.5q68 -62 112 -94.5t81 -46.5t80 -14q-14 -30 -38.5 -46t-50.5 -16q-39 0 -84.5 30t-109.5 85q-44 38 -70.5 56.5t-43.5 18.5q0 23 19.5 40t61.5 17q68 0 131 25.5t102.5 73t39.5 108.5
q0 81 -32 119.5t-75 38.5q-37 0 -64 -32t-27 -90q0 -56 36.5 -95.5t89.5 -39.5q-4 -12 -26 -21t-43 -9q-45 0 -81 20.5t-57 55.5t-21 77q0 51 25.5 89t69.5 58.5t98 20.5q92 0 150.5 -50zM775 564h-96v-564h-102v564h-84v36h282v-36z" />
    <glyph glyph-name="uni0937" unicode="&#x937;" horiz-adv-x="606" 
d="M618 600v-36h-96v-564h-102v219q-10 -29 -36.5 -56t-65 -44t-81.5 -17q-83 0 -127 49t-44 128v285h-78v36h630zM168 564v-2l251 -260v0.5t1 0.5v261h-252zM343 177q38 30 61 80l-236 246v-224q0 -65 23 -98.5t67 -33.5q47 0 85 30z" />
    <glyph glyph-name="uni0938" unicode="&#x938;" horiz-adv-x="667" 
d="M679 564h-96v-564h-102v252q-33 -7 -68 -7q-73 0 -127 26q-29 -13 -67 -13q-30 0 -57 9q51 -100 86.5 -146.5t59.5 -57.5t56 -11q-14 -31 -39.5 -46.5t-54.5 -15.5q-31 0 -58.5 23.5t-49.5 56t-53 87.5q-37 65 -61.5 96.5t-50.5 31.5q12 21 30 33t38 12q19 0 30 -4
t24 -12q12 -8 24.5 -12.5t32.5 -4.5q33 0 59.5 23.5t26.5 69.5q0 116 -81 174h-194v36h692v-36zM481 295v269h-221q50 -26 77 -70.5t27 -95.5q0 -26 -9 -52t-28 -46q39 -14 86 -14q37 0 68 9z" />
    <glyph glyph-name="uni0939" unicode="&#x939;" horiz-adv-x="561" 
d="M159 -33.5q-55 26.5 -86 72t-31 99.5q0 48 30.5 94t83.5 77q-42 16 -64 43t-22 57q0 28 19.5 52.5t58 39.5t93.5 15q66 0 138 -32v80h-391v36h585v-36h-92v-119l-78 -25q-30 31 -70 48.5t-83 17.5q-37 0 -57.5 -20t-20.5 -50q0 -20 10 -42t28 -38q48 18 117 18
q55 0 102 -20t74.5 -54.5t27.5 -75.5q0 -32 -16 -59.5t-43 -44t-58 -16.5q-46 0 -66 24q36 11 58.5 37.5t22.5 58.5q0 33 -18 60.5t-49 43.5t-68 16q-41 0 -75.5 -21.5t-54.5 -58.5t-20 -82q0 -192 210 -192h144l-36 -30h-180q-68 0 -123 26.5z" />
    <glyph glyph-name="uni093A" unicode="&#x93a;" 
d="M-84 600h-102v138h102v-138z" />
    <glyph glyph-name="uni093B" unicode="&#x93b;" horiz-adv-x="270" 
d="M282 564h-96v-564h-102v564h-96v36h294v-36zM186 600h-102v138h102v-138z" />
    <glyph glyph-name="uni093C" unicode="&#x93c;" 
d="M-92 43.5q18 -17.5 18 -43.5t-18 -43.5t-43 -17.5q-26 0 -43.5 17.5t-17.5 43.5t17.5 43.5t43.5 17.5q25 0 43 -17.5z" />
    <glyph glyph-name="uni093D" unicode="&#x93d;" horiz-adv-x="561" 
d="M467 555q-101 0 -184.5 -19t-83.5 -59q0 -24 29 -44t94 -51q66 -32 106.5 -57t70.5 -61.5t30 -83.5q0 -56 -34 -98t-92 -65t-128 -23q-78 0 -147 31t-117 89l24 42q30 -53 90 -83.5t132 -30.5q61 0 108.5 24t47.5 75q0 33 -33 59t-104 63q-62 32 -100.5 56.5t-65.5 60
t-27 81.5q0 50 57 81t140 44.5t163 13.5z" />
    <glyph glyph-name="uni093E" unicode="&#x93e;" horiz-adv-x="270" 
d="M282 564h-96v-564h-102v564h-96v36h294v-36z" />
    <glyph glyph-name="uni093F" unicode="&#x93f;" horiz-adv-x="270" 
d="M472 822.5q105 -65.5 197 -177.5l-36 -27q-176 219 -357 219q-69 0 -107.5 -29.5t-38.5 -78.5q0 -31 19.5 -60.5t51.5 -44.5l-48 -24h129v-36h-96v-564h-102v564h-96v36h103q-29 26 -46 61t-17 68q0 46 27.5 82t79.5 56.5t123 20.5q109 0 214 -65.5z" />
    <glyph glyph-name="uni0940" unicode="&#x940;" horiz-adv-x="270" 
d="M282 600v-36h-96v-564h-102v564h-96v36h123l-48 24q32 16 51.5 48t19.5 66q0 48 -23.5 73.5t-67.5 25.5q-35 0 -69.5 -24.5t-59 -78t-30.5 -134.5l-38 24q5 103 43 161.5t84.5 80.5t87.5 22q80 0 127.5 -41.5t47.5 -108.5q0 -37 -17 -73.5t-46 -64.5h109z" />
    <glyph glyph-name="uni0941" unicode="&#x941;" 
d="M28 -95q35 -35 35 -90q0 -41 -26 -73t-71 -50t-101 -18q-75 0 -132 29t-88 77t-31 102q0 41 23 56.5t64 15.5q0 -133 47 -186t125 -53q55 0 81.5 25.5t26.5 67.5q0 40 -23 65.5t-51 25.5q-22 0 -40.5 -9.5t-29.5 -26.5l-18 28q18 23 47.5 36t62.5 13q64 0 99 -35z" />
    <glyph glyph-name="uni0942" unicode="&#x942;" 
d="M-304 -291q-35 35 -35 89q0 41 26 73.5t71 50.5t101 18q75 0 132.5 -29t89 -77t31.5 -102q0 -41 -23 -56.5t-64 -15.5q0 239 -173 239q-55 0 -82.5 -26.5t-27.5 -68.5q0 -40 23 -64.5t53 -24.5q21 0 40 10t29 26l17 -29q-17 -22 -46 -35t-62 -13q-65 0 -100 35z" />
    <glyph glyph-name="uni0943" unicode="&#x943;" 
d="M-105 0q-89 0 -123 -38t-34 -91q0 -59 32.5 -88t83.5 -29q50 0 77.5 35t27.5 84q28 0 46.5 -14t18.5 -27q0 -34 -26.5 -58.5t-67.5 -37t-83 -12.5q-59 0 -107 19.5t-76 53.5t-28 74q0 44 29 80.5t82 57.5t121 21h27v-30z" />
    <glyph glyph-name="uni0944" unicode="&#x944;" 
d="M14.5 -226.5q18.5 -13.5 18.5 -27.5q0 -34 -29 -58.5t-74 -37t-92 -12.5q-54 0 -98 14.5t-69.5 40t-25.5 55.5q0 34 27.5 61t77.5 41q-48 13 -76.5 34t-28.5 45q0 28 29 51.5t81.5 36.5t121.5 13h27v-30q-157 0 -157 -71q0 -26 34.5 -44t81.5 -18v-1h17v-30
q-76 0 -104.5 -26.5t-28.5 -61.5q0 -39 28 -59.5t70 -20.5q58 0 90.5 35t32.5 84q28 0 46.5 -13.5z" />
    <glyph glyph-name="uni0945" unicode="&#x945;" 
d="M59 832q-22 -80 -76 -120t-118 -40q-70 0 -123.5 36.5t-72.5 106.5l88 31q9 -65 44 -99t81 -34q53 0 95.5 33t61.5 100z" />
    <glyph glyph-name="uni0946" unicode="&#x946;" 
d="M-185.5 687.5q-29.5 30.5 -72.5 42.5t-115 22q-64 9 -103 18t-71.5 31t-45.5 62q13 14 31 22.5t46 8.5q14 -43 46 -67.5t70 -35t98 -20.5q66 -11 103.5 -22.5t63.5 -41t26 -83.5q-8 -12 -18.5 -18t-28.5 -6q0 57 -29.5 87.5z" />
    <glyph glyph-name="uni0947" unicode="&#x947;" 
d="M-328 943l219 -319q-17 -24 -47 -24l-260 312q23 31 88 31z" />
    <glyph glyph-name="uni0948" unicode="&#x948;" 
d="M-120 620q-4 -8 -16.5 -14t-24.5 -6l-356 149q-2 18 6 40t31 37l299 -178l-235 264q23 31 88 31z" />
    <glyph glyph-name="uni0949" unicode="&#x949;" horiz-adv-x="270" 
d="M282 564h-96v-564h-102v564h-96v36h294v-36zM329 832q-22 -80 -76 -120t-118 -40q-70 0 -123.5 36.5t-72.5 106.5l88 31q9 -65 44 -99t81 -34q53 0 95.5 33t61.5 100z" />
    <glyph glyph-name="uni094A" unicode="&#x94a;" horiz-adv-x="270" 
d="M282 564h-96v-564h-102v564h-96v36h294v-36zM84.5 687.5q-29.5 30.5 -72.5 42.5t-115 22q-64 9 -103 18t-71.5 31t-45.5 62q13 14 31 22.5t46 8.5q14 -43 46 -67.5t70 -35t98 -20.5q66 -11 103.5 -22.5t63.5 -41t26 -83.5q-8 -12 -18.5 -18t-28.5 -6q0 57 -29.5 87.5z
" />
    <glyph glyph-name="uni094B" unicode="&#x94b;" horiz-adv-x="270" 
d="M282 564h-96v-564h-102v564h-96v36h294v-36zM-58 943l219 -319q-17 -24 -47 -24l-260 312q23 31 88 31z" />
    <glyph glyph-name="uni094C" unicode="&#x94c;" horiz-adv-x="270" 
d="M282 564h-96v-564h-102v564h-96v36h294v-36zM150 620q-4 -8 -16.5 -14t-24.5 -6l-356 149q-2 18 6 40t31 37l299 -178l-235 264q23 31 88 31z" />
    <glyph glyph-name="uni094D" unicode="&#x94d;" 
d="M84 -243l-51 -47l-190 190l-72 -59l-28 33l122 96z" />
    <glyph glyph-name="uni0950" unicode="&#x950;" horiz-adv-x="1045" 
d="M586 720q-18 18 -18 43q0 26 18 43.5t43 17.5q26 0 43.5 -17.5t17.5 -43.5q0 -25 -18 -43t-43 -18t-43 18zM475.5 637.5q-53.5 36.5 -72.5 106.5l88 31q9 -65 44 -99t81 -34q54 0 96 33t61 100l20 -14q-22 -80 -76 -120t-118 -40q-70 0 -123.5 36.5zM952 476
q56 -64 56 -167q0 -72 -29.5 -128.5t-82.5 -88.5t-121 -32q-59 0 -102.5 20t-66.5 53t-23 71q0 35 28.5 56.5t76.5 21.5q-3 -19 -3 -54q0 -58 27 -98t69 -40q50 0 78.5 60.5t28.5 158.5q0 55 -16 101.5t-42 73t-53 26.5q-25 0 -41.5 -18.5t-40.5 -60.5q-27 -48 -52 -79
t-69 -54.5t-110 -25.5q37 -47 37 -104q0 -49 -32.5 -90.5t-88 -65.5t-121.5 -24q-63 0 -110.5 20t-72.5 53t-25 71q0 35 29.5 56.5t76.5 21.5q-4 -17 -4 -54q0 -35 14.5 -65.5t39 -48.5t52.5 -18q63 0 96.5 40t33.5 104q0 42 -21.5 76t-58.5 54t-80 20q-42 0 -78 -12l24 48
q172 0 172 138q0 38 -23.5 64t-58.5 26q-44 0 -72 -22.5t-28 -52.5q0 -36 22 -54q-29 -42 -74 -42q-20 0 -35 15.5t-15 44.5q0 38 27 70.5t73.5 51.5t101.5 19q92 0 143 -34t51 -86q0 -45 -37.5 -83.5t-114.5 -60.5q62 -6 104 -31v1q26 -13 48 -13q31 0 54.5 21.5t58.5 68.5
q33 45 60.5 74.5t69 50t96.5 20.5q98 0 154 -64z" />
    <glyph glyph-name="uni0951" unicode="&#x951;" 
d="M-99 708h-72v276h72v-276z" />
    <glyph glyph-name="uni0952" unicode="&#x952;" 
d="M-243 -90h-372v48h372v-48z" />
    <glyph glyph-name="uni0953" unicode="&#x953;" 
d="M-60 602h-18l-133 245h98z" />
    <glyph glyph-name="uni0954" unicode="&#x954;" 
d="M-192 602h-19l54 245h97z" />
    <glyph glyph-name="uni0956" unicode="&#x956;" 
d="M31 -61q-22 -60 -76 -95t-118 -35q-73 0 -130 29t-76 78l76 33q9 -45 46.5 -72t87.5 -27q58 0 102 26.5t66 72.5z" />
    <glyph glyph-name="uni0957" unicode="&#x957;" 
d="M31 -61q-22 -60 -76 -95t-118 -35q-73 0 -130 29t-76 78l76 33q9 -45 46.5 -72t87.5 -27q58 0 102 26.5t66 72.5zM31 -229q-22 -60 -76 -95t-118 -35q-73 0 -130 29t-76 78l76 33q9 -45 46.5 -72t87.5 -27q58 0 102 26.5t66 72.5z" />
    <glyph glyph-name="uni0958" unicode="&#x958;" horiz-adv-x="919" 
d="M547 564v-141q54 81 146 81q85 0 137 -57t52 -150q0 -66 -23.5 -120.5t-66.5 -85.5t-99 -31q-34 0 -56.5 14.5t-20.5 36.5q76 0 120 49t44 125q0 72 -30.5 125t-86.5 53q-71 0 -116 -87v-376h-102v204q-26 -66 -79.5 -105t-120.5 -39q-61 0 -108 26t-73 73t-26 108
q0 72 26.5 125.5t72.5 82.5t103 29q74 0 116 -27.5t42 -74.5q0 -33 -26 -53t-67 -20q0 61 -15 103t-50 42q-28 0 -51 -26t-36 -68.5t-13 -88.5q0 -83 35 -136.5t100 -53.5q55 0 101 47t69 122v294h-457v36h943v-36h-384zM276 -16.5q18 -17.5 18 -43.5t-18 -43.5t-43 -17.5
q-26 0 -43.5 17.5t-17.5 43.5t17.5 43.5t43.5 17.5q25 0 43 -17.5z" />
    <glyph glyph-name="uni0959" unicode="&#x959;" horiz-adv-x="1031" 
d="M1043 564h-99v-564h-102v204q-26 -66 -79 -105t-120 -39q-76 0 -129 39q-43 -55 -90 -82t-112 -27q-50 0 -88.5 26t-64.5 63t-58 94q-33 58 -55 85t-49 27q12 21 30 33t38 12q19 0 30 -4t24 -12q12 -8 24.5 -12.5t32.5 -4.5q33 0 59.5 23.5t26.5 69.5q0 116 -81 174h-194
v36h1056v-36zM842 564h-582q50 -26 77 -70.5t27 -95.5q0 -32 -14 -64t-46.5 -54t-84.5 -22q-30 0 -57 9q46 -96 83 -145.5t64.5 -64.5t54.5 -15q28 0 61 20.5t61 61.5q-50 56 -50 143q0 72 26 125.5t72 82.5t104 29q74 0 116 -27.5t42 -74.5q0 -33 -26 -53t-67 -20
q0 60 -15 102.5t-50 42.5q-28 0 -51 -26t-36 -68.5t-13 -88.5q0 -83 34.5 -136.5t100.5 -53.5q55 0 101 47t68 122v294zM182 -16.5q18 -17.5 18 -43.5t-18 -43.5t-43 -17.5q-26 0 -43.5 17.5t-17.5 43.5t17.5 43.5t43.5 17.5q25 0 43 -17.5z" />
    <glyph glyph-name="uni095A" unicode="&#x95a;" horiz-adv-x="694" 
d="M275 -17.5q18 -17.5 18 -43.5t-18 -43.5t-43 -17.5q-26 0 -43.5 17.5t-17.5 43.5t17.5 43.5t43.5 17.5q25 0 43 -17.5zM706 600v-36h-96v-564h-102v564h-226q69 -46 104.5 -112t35.5 -134q0 -60 -25 -110.5t-74 -81t-116 -30.5q-57 0 -98 23t-61.5 61.5t-20.5 83.5
q0 51 26 93.5t71 67.5t99 25q10 0 15 -8.5t5 -21.5q-30 0 -56.5 -20.5t-42 -55.5t-15.5 -74q0 -68 25.5 -107t61.5 -39q46 0 75 48t29 146q0 84 -40.5 153.5t-102.5 92.5h-189v36h718z" />
    <glyph glyph-name="uni095B" unicode="&#x95b;" horiz-adv-x="771" 
d="M585 420h-261q77 -34 116.5 -89.5t39.5 -111.5q0 -52 -29.5 -92.5t-79.5 -62.5t-110 -22q-64 0 -111 20t-71.5 53t-24.5 71q0 35 29.5 59.5t77.5 24.5q-5 -32 -5 -60q0 -64 30 -98t75 -34q51 0 84 33t33 87q0 50 -25.5 99.5t-69 86t-94.5 48.5l23 18h373v114h-597v36h795
v-36h-96v-564h-102v420zM298 -16.5q18 -17.5 18 -43.5t-18 -43.5t-43 -17.5q-26 0 -43.5 17.5t-17.5 43.5t17.5 43.5t43.5 17.5q25 0 43 -17.5z" />
    <glyph glyph-name="uni095C" unicode="&#x95c;" horiz-adv-x="537" 
d="M382 48.5q43 30.5 43 85.5q0 36 -23 59t-57.5 36t-91.5 27q-62 16 -99 30.5t-63 41.5t-26 71q0 53 41.5 85t113.5 32q66 0 138 -32v80h-370v36h561v-36h-89v-119l-78 -25q-29 31 -69.5 48.5t-83.5 17.5q-28 0 -50 -14t-22 -45q0 -27 19.5 -45t49.5 -28.5t82 -24.5
q67 -18 108 -34.5t70.5 -48.5t29.5 -84q0 -56 -34.5 -95t-92 -59t-125.5 -20q-72 0 -125.5 20t-81.5 53t-28 71q0 35 32 56.5t84 21.5q-7 -9 -10.5 -25t-3.5 -29q0 -60 34.5 -99t98.5 -39q75 0 118 30.5zM316 -76.5q18 -17.5 18 -43.5t-18 -43.5t-43 -17.5q-26 0 -43.5 17.5
t-17.5 43.5t17.5 43.5t43.5 17.5q25 0 43 -17.5z" />
    <glyph glyph-name="uni095D" unicode="&#x95d;" horiz-adv-x="589" 
d="M520.5 300q43.5 -37 43.5 -102q0 -45 -26.5 -87.5t-85 -70.5t-148.5 -28q-129 0 -198 61t-69 167q0 70 38.5 123t101.5 82t134 29q32 0 62 -6v96h-385v36h613v-36h-126v-108l-72 -30q-37 12 -71 12q-87 0 -140 -53.5t-53 -144.5q0 -98 45 -148t120 -50q71 0 119.5 40.5
t48.5 124.5q0 41 -22 69t-49 28q-28 0 -45.5 -23.5t-17.5 -52.5q0 -39 12.5 -64.5t54.5 -32.5q0 -10 -14 -17.5t-33 -7.5q-54 0 -80.5 32.5t-26.5 78.5q0 31 18 58.5t52.5 44.5t82.5 17q73 0 116.5 -37zM354 -76.5q18 -17.5 18 -43.5t-18 -43.5t-43 -17.5q-26 0 -43.5 17.5
t-17.5 43.5t17.5 43.5t43.5 17.5q25 0 43 -17.5z" />
    <glyph glyph-name="uni095E" unicode="&#x95e;" horiz-adv-x="895" 
d="M522 564v-132q53 72 144 72q57 0 100 -26t67 -73t24 -108q0 -67 -23.5 -121t-66 -85t-99.5 -31q-34 0 -56.5 14.5t-20.5 36.5q76 0 120 49t44 125q0 72 -30.5 125t-86.5 53q-71 0 -116 -84v-379h-102v219q-10 -29 -36.5 -56t-65 -44t-81.5 -17q-83 0 -127 49t-44 128v285
h-78v36h919v-36h-385zM420 564h-252v-285q0 -65 23 -98.5t67 -33.5q58 0 101.5 46t60.5 116v255zM247 -16.5q18 -17.5 18 -43.5t-18 -43.5t-43 -17.5q-26 0 -43.5 17.5t-17.5 43.5t17.5 43.5t43.5 17.5q25 0 43 -17.5z" />
    <glyph glyph-name="uni095F" unicode="&#x95f;" horiz-adv-x="621" 
d="M181 -16.5q18 -17.5 18 -43.5t-18 -43.5t-43 -17.5q-26 0 -43.5 17.5t-17.5 43.5t17.5 43.5t43.5 17.5q25 0 43 -17.5zM633 564h-102v-564h-102v180q-34 -46 -79.5 -71t-96.5 -25q-63 0 -114 26t-80.5 70t-29.5 96q0 32 18.5 52t58.5 20q67 0 102 27.5t35 77.5
q0 83 -60 111h-195v36h645v-36zM262 564q36 -12 59.5 -42.5t23.5 -68.5q0 -37 -24.5 -68t-66.5 -49t-91 -18q-23 0 -27.5 -14t-4.5 -37q0 -63 36.5 -108t96.5 -45q37 0 73 19.5t60.5 49.5t31.5 60v321h-167z" />
    <glyph glyph-name="uni0960" unicode="&#x960;" horiz-adv-x="925" 
d="M937 564h-400v-275l109 65q-15 21 -15 51q0 39 25.5 60t62.5 21t64 -20.5t27 -57.5l-273 -159v-249h-102v189l-330 -192l-17 30l81 48q63 37 87.5 89.5t24.5 129.5q0 74 -23 118t-75 44q-43 0 -70.5 -35.5t-27.5 -92.5q0 -9 2 -31q-28 0 -50 20.5t-22 51.5q0 60 52 88.5
t116 28.5q60 0 105.5 -22t70 -61.5t24.5 -88.5q0 -44 -17.5 -82.5t-62.5 -79.5l132 78v334h-447v36h949v-36zM669 324l52 -63q-39 -26 -63 -64t-24 -74q0 -58 37.5 -90.5t96.5 -32.5q45 0 82 18.5t66 62.5l-21 35q-16 -27 -41.5 -43t-56.5 -16q-30 0 -49.5 20.5t-19.5 56.5
q0 41 14.5 69.5t42.5 52.5l-77 93z" />
    <glyph glyph-name="uni0961" unicode="&#x961;" horiz-adv-x="739" 
d="M580 564v-103q53 -23 86.5 -74.5t33.5 -115.5q0 -41 -17.5 -71t-42 -49t-60.5 -41q-33 -20 -47.5 -33t-14.5 -28q0 -25 26 -43.5t54 -18.5l-1 -1h29v-30q-79 0 -111.5 -26.5t-32.5 -61.5q0 -38 26.5 -59t60.5 -21q56 0 84.5 34.5t28.5 84.5q28 0 46.5 -13.5t18.5 -27.5
q0 -51 -54 -79.5t-130 -28.5q-48 0 -90 15t-67.5 40t-25.5 55q0 36 32 63.5t90 41.5q-39 12 -62.5 32.5t-23.5 43.5q0 14 13.5 25t43.5 28q37 20 62.5 39t44 51t18.5 78q0 31 -10.5 72t-32 71.5t-53.5 30.5q-47 0 -75.5 -46t-29.5 -116h-54q-2 70 -30 116t-75 46
q-32 0 -53.5 -30.5t-32 -71.5t-10.5 -72q0 -110 46 -163t140 -53q-3 -24 -26.5 -42t-67.5 -18q-54 0 -98.5 31.5t-70 87t-25.5 124.5q0 66 24 120t66.5 85.5t95.5 31.5q47 0 83.5 -21t60.5 -81q34 86 108 99v93h-490v36h763v-36h-171z" />
    <glyph glyph-name="uni0962" unicode="&#x962;" 
d="M86.5 -145.5q-15.5 -22.5 -47.5 -52.5q-25 -22 -37.5 -39t-12.5 -39q0 -54 45 -54q19 0 38.5 10t34.5 24l28 -35q-16 -20 -55.5 -36t-78.5 -16q-42 0 -67.5 20t-25.5 65q0 21 11.5 37t35.5 38q31 29 47.5 54.5t16.5 65.5q0 46 -19.5 67.5t-42.5 21.5q-26 0 -42 -24.5
t-16 -62.5h-65q0 36 -19.5 61.5t-45.5 25.5q-62 0 -62 -78q0 -36 15.5 -67t40 -49.5t50.5 -18.5l-48 -29q-38 0 -70 19.5t-50.5 53t-18.5 73.5q0 34 17.5 63t48 46t66.5 17q41 0 68.5 -20.5t38.5 -56.5q34 77 126 77q51 0 81 -28t30 -77q0 -34 -15.5 -56.5z" />
    <glyph glyph-name="uni0963" unicode="&#x963;" 
d="M-94 -339q0 26 22 47t58 31v4q-36 0 -52 10.5t-16 27.5q0 12 10.5 22.5t30.5 24.5q30 21 45 38t15 43q0 40 -19 58.5t-43 18.5q-26 0 -42 -24.5t-16 -62.5h-65q0 36 -19.5 61.5t-45.5 25.5q-62 0 -62 -78q0 -36 15.5 -67t40 -49.5t50.5 -18.5l-48 -29q-38 0 -70 19.5
t-50.5 53t-18.5 73.5q0 34 17.5 63t48 46t66.5 17q41 0 68.5 -20.5t38.5 -56.5q31 77 114 77q56 0 89.5 -24.5t33.5 -68.5q0 -26 -17 -44t-50 -42q-24 -16 -36 -28t-12 -25q0 -14 15.5 -19.5t52.5 -5.5l9 -21q-36 -7 -56.5 -22.5t-20.5 -35.5q0 -17 12 -25t32 -8
q19 0 39.5 10t35.5 24l27 -35q-16 -20 -56 -36t-79 -16q-92 0 -92 67z" />
    <glyph glyph-name="uni0964" unicode="&#x964;" horiz-adv-x="354" 
d="M270 -48h-102v696h102v-696z" />
    <glyph glyph-name="uni0965" unicode="&#x965;" horiz-adv-x="606" 
d="M270 -48h-102v696h102v-696zM522 -48h-102v696h102v-696z" />
    <glyph glyph-name="uni0966" unicode="&#x966;" horiz-adv-x="660" 
d="M485 557q54 -40 81.5 -104.5t27.5 -139.5q0 -78 -30.5 -149.5t-90.5 -116t-143 -44.5q-78 0 -134 40t-84 105t-28 140q0 79 31.5 150t92.5 115t146 44q77 0 131 -40zM216.5 500.5q-30.5 -60.5 -30.5 -151.5q0 -74 21.5 -146t61 -118t91.5 -46q63 0 97.5 61t34.5 150
q0 75 -22 147t-64.5 118t-99.5 46q-59 0 -89.5 -60.5z" />
    <glyph glyph-name="uni0967" unicode="&#x967;" horiz-adv-x="659" 
d="M467 421q-24 -31 -76 -70q-39 -29 -64 -49.5t-32.5 -30t-7.5 -20.5q0 -10 8 -20.5t27 -25.5q6 -5 53 -40q58 -44 81.5 -63.5t33.5 -34t10 -31.5q0 -29 -17.5 -41.5t-42.5 -12.5q-18 0 -34.5 4.5t-25.5 13.5q25 9 25 29q0 9 -7 17.5t-32.5 29t-64.5 50.5l-81 62
q-35 25 -35 55q0 18 10 33.5t33 34t76 55.5q-31 0 -61 12.5t-49 38t-19 60.5q0 56 47 87.5t111 31.5t111 -28t47 -78q0 -38 -24 -69zM293 540.5q-16 -20.5 -16 -50.5q0 -32 16.5 -59t42.5 -40q32 26 42.5 51.5t10.5 55.5q0 24 -16 43.5t-40 19.5t-40 -20.5z" />
    <glyph glyph-name="uni0968" unicode="&#x968;" horiz-adv-x="660" 
d="M518.5 562q61.5 -41 61.5 -112q0 -66 -48 -122t-131 -88.5t-182 -32.5q123 -90 191.5 -122.5t135.5 -32.5q-14 -30 -39 -46t-50 -16q-43 0 -94 29t-127 83q-57 40 -88.5 59t-52.5 19q0 23 19.5 40t62.5 17q77 0 146 25.5t112 72.5t43 109t-35.5 92.5t-84.5 30.5
q-41 0 -71.5 -27t-30.5 -77q0 -32 19 -59t51.5 -43t70.5 -16q-4 -12 -27.5 -21t-43.5 -9q-47 0 -86.5 18t-62.5 49.5t-23 68.5q0 46 27 80.5t74 53t103 18.5q99 0 160.5 -41z" />
    <glyph glyph-name="uni0969" unicode="&#x969;" horiz-adv-x="660" 
d="M442.5 595.5q44.5 -16.5 67 -44t22.5 -61.5q0 -52 -41 -95t-121 -63q103 -21 148.5 -65.5t45.5 -101.5q0 -47 -33.5 -88t-90 -65t-122.5 -24q-98 0 -158 37t-60 108q0 34 36.5 58.5t81.5 24.5q-8 -16 -11.5 -35.5t-3.5 -33.5q0 -60 33 -91.5t83 -31.5q69 0 106 42t37 100
q0 48 -26 81.5t-68 50t-90 16.5q-21 0 -34 -2.5t-29 -9.5l27 42q97 0 142.5 37.5t45.5 102.5q0 36 -29.5 64t-70.5 28q-38 0 -68 -20t-30 -49q0 -12 5.5 -34.5t14.5 -29.5q-13 -12 -29 -18t-31 -6q-27 0 -45.5 18.5t-18.5 49.5q0 33 28.5 62t77 46t103.5 17
q61 0 105.5 -16.5z" />
    <glyph glyph-name="uni096A" unicode="&#x96a;" horiz-adv-x="660" 
d="M420 326q42 -34 65.5 -56.5t39 -53t15.5 -70.5q0 -53 -27.5 -89.5t-72 -55t-95.5 -18.5q-49 0 -92 17.5t-69.5 52.5t-26.5 85q0 58 26 113.5t89 119.5q-60 45 -92 89.5t-32 109.5q0 30 14.5 51.5t35.5 32.5t42 11q0 -83 21.5 -143t59.5 -106q98 86 274 196q29 0 29 -34
q-169 -119 -258 -208q18 -16 54 -44zM411 52q27 28 27 92q0 59 -28.5 101.5t-81.5 83.5q-41 -50 -55 -89.5t-14 -84.5q0 -60 25.5 -95.5t61.5 -35.5q38 0 65 28z" />
    <glyph glyph-name="uni096B" unicode="&#x96b;" horiz-adv-x="660" 
d="M521 347.5q10 -31.5 31 -85.5q20 -49 30.5 -83t10.5 -64q0 -58 -28 -95.5t-85 -37.5q-26 0 -45 14t-19 31q86 10 86 88q0 31 -12 66.5t-34 87.5q-4 9 -8.5 20t-9.5 23q-17 -56 -64 -94t-104 -38q-58 0 -104.5 24.5t-73 69t-26.5 104.5q0 68 48.5 129t136.5 105q8 0 19 -9
t11 -25q-53 -40 -81 -89t-28 -111q0 -70 33 -107t83 -37q35 0 65 20t48 54t18 75q0 56 29 82.5t97 26.5q-34 -41 -34 -84q0 -29 10 -60.5z" />
    <glyph glyph-name="uni096C" unicode="&#x96c;" horiz-adv-x="660" 
d="M500 583q49 -23 49 -57q0 -18 -25.5 -31.5t-70.5 -13.5q-6 41 -36 65t-68 24q-43 0 -71.5 -24.5t-28.5 -67.5q0 -35 25.5 -64t69 -46t94.5 -17v-36q-106 0 -164 -40.5t-58 -105.5q0 -40 18 -74.5t52.5 -55.5t80.5 -21q54 0 102 23.5t88 85.5l30 -20q-49 -71 -110 -98
t-138 -27q-62 0 -113.5 24t-81.5 64.5t-30 89.5q0 39 23 75.5t64.5 62.5t95.5 35q-51 9 -85 31.5t-49.5 50t-15.5 51.5q0 69 62 104.5t160 35.5q82 0 131 -23z" />
    <glyph glyph-name="uni096D" unicode="&#x96d;" horiz-adv-x="661" 
d="M480.5 475q43.5 -35 69.5 -94t26 -129q0 -76 -23 -137.5t-69 -97t-111 -35.5q-85 0 -155.5 58.5t-111.5 164t-41 239.5q0 81 38.5 115.5t89.5 34.5q-26 -85 -26 -150q0 -114 31.5 -212t82 -156t104.5 -58q49 0 74 44t25 116q0 50 -4 89q-34 -57 -99 -57q-57 0 -95 41
t-38 110q0 40 19 74.5t51 54.5t70 20q49 0 92.5 -35zM443.5 267.5q20.5 21.5 27.5 64.5q-12 64 -33.5 103t-49.5 39q-24 0 -38.5 -30t-14.5 -76q0 -50 19.5 -86t47.5 -36q21 0 41.5 21.5z" />
    <glyph glyph-name="uni096E" unicode="&#x96e;" horiz-adv-x="660" 
d="M210 162q0 -45 18.5 -78t48 -49.5t63.5 -16.5q44 0 75 34.5t31 97.5q0 15 -7 60q50 0 79.5 -21.5t29.5 -62.5q0 -38 -26 -71t-74 -53t-112 -20q-62 0 -113.5 20.5t-83 64.5t-31.5 110q0 99 93.5 205.5t289.5 214.5q13 0 21 -8.5t8 -24.5q-310 -191 -310 -402z" />
    <glyph glyph-name="uni096F" unicode="&#x96f;" horiz-adv-x="661" 
d="M461 0q32 0 32 31q0 14 -8.5 27t-28.5 33l-283 248q-35 32 -56 60t-21 58q0 38 25 69.5t67 49.5t92 18q46 0 83.5 -15t59 -40.5t21.5 -54.5q0 -27 -19 -50.5t-56.5 -38t-91.5 -14.5h-30l242 -212q53 -48 72 -74t19 -55q0 -28 -15.5 -46t-50.5 -18q-36 0 -53 24z
M314.5 428.5q29.5 17.5 29.5 52.5q0 31 -22.5 54t-51.5 23q-42 0 -65 -23t-23 -57q0 -19 8 -36.5t22 -30.5q73 0 102.5 17.5z" />
    <glyph glyph-name="uni0970" unicode="&#x970;" horiz-adv-x="780" 
d="M553 306.5q66 -23.5 104.5 -63.5t38.5 -87q0 -41 -44 -77t-118.5 -57.5t-161.5 -21.5q-79 0 -145 24t-104.5 65.5t-38.5 89.5q0 41 44 75.5t118 55t162 20.5q79 0 145 -23.5zM247 272.5q-37 -26.5 -37 -63.5q0 -50 28 -92.5t75.5 -67.5t103.5 -25q41 0 76.5 14t56 38.5
t20.5 52.5q0 46 -31.5 85t-85.5 62t-117 23q-52 0 -89 -26.5z" />
    <glyph glyph-name="uni0971" unicode="&#x971;" horiz-adv-x="309" 
d="M100.5 751.5q-22.5 22.5 -22.5 53.5q0 33 22 55t54 22q33 0 55 -22t22 -55q0 -31 -22 -53.5t-55 -22.5q-31 0 -53.5 22.5z" />
    <glyph glyph-name="uni0972" unicode="&#x972;" horiz-adv-x="793" 
d="M805 600v-36h-96v-564h-102v248q-38 -18 -80 -18q-16 0 -40 4q14 -31 14 -66q0 -49 -32.5 -90.5t-88 -65.5t-121.5 -24q-63 0 -110.5 20t-72.5 53t-25 71q0 35 29.5 56.5t76.5 21.5q-4 -17 -4 -54q0 -35 14.5 -65.5t39 -48.5t52.5 -18q63 0 96.5 40t33.5 104
q0 42 -21.5 76t-58.5 54t-80 20q-42 0 -78 -12l24 48q172 0 172 138q0 38 -23.5 64t-58.5 26q-44 0 -72 -22.5t-28 -52.5q0 -36 22 -54q-29 -42 -74 -42q-20 0 -35 15.5t-15 44.5q0 38 27 70.5t73.5 51.5t101.5 19q92 0 143 -34t51 -86q0 -45 -37.5 -83.5t-114.5 -60.5
q80 -7 129 -48q41 -29 91 -29q41 0 80 22v271h-60v36h258zM852 832q-22 -80 -76 -120t-118 -40q-70 0 -123.5 36.5t-72.5 106.5l88 31q9 -65 44 -99t81 -34q53 0 95.5 33t61.5 100z" />
    <glyph glyph-name="uni0973" unicode="&#x973;" horiz-adv-x="793" 
d="M805 600v-36h-96v-564h-102v248q-38 -18 -80 -18q-16 0 -40 4q14 -31 14 -66q0 -49 -32.5 -90.5t-88 -65.5t-121.5 -24q-63 0 -110.5 20t-72.5 53t-25 71q0 35 29.5 56.5t76.5 21.5q-4 -17 -4 -54q0 -35 14.5 -65.5t39 -48.5t52.5 -18q63 0 96.5 40t33.5 104
q0 42 -21.5 76t-58.5 54t-80 20q-42 0 -78 -12l24 48q172 0 172 138q0 38 -23.5 64t-58.5 26q-44 0 -72 -22.5t-28 -52.5q0 -36 22 -54q-29 -42 -74 -42q-20 0 -35 15.5t-15 44.5q0 38 27 70.5t73.5 51.5t101.5 19q92 0 143 -34t51 -86q0 -45 -37.5 -83.5t-114.5 -60.5
q80 -7 129 -48q41 -29 91 -29q41 0 80 22v271h-60v36h258zM709 600h-102v138h102v-138z" />
    <glyph glyph-name="uni0974" unicode="&#x974;" horiz-adv-x="1063" 
d="M1075 564h-96v-564h-102v564h-168v-564h-102v248q-38 -18 -80 -18q-16 0 -40 4q14 -31 14 -66q0 -49 -32.5 -90.5t-88 -65.5t-121.5 -24q-63 0 -110.5 20t-72.5 53t-25 71q0 35 29.5 56.5t76.5 21.5q-4 -17 -4 -54q0 -35 14.5 -65.5t39 -48.5t52.5 -18q63 0 96.5 40
t33.5 104q0 42 -21.5 76t-58.5 54t-80 20q-42 0 -78 -12l24 48q172 0 172 138q0 38 -23.5 64t-58.5 26q-44 0 -72 -22.5t-28 -52.5q0 -36 22 -54q-29 -42 -74 -42q-20 0 -35 15.5t-15 44.5q0 38 27 70.5t73.5 51.5t101.5 19q92 0 143 -34t51 -86q0 -45 -37.5 -83.5
t-114.5 -60.5q80 -7 129 -48q41 -29 91 -29q41 0 80 22v271h-60v36h528v-36zM979 600h-102v138h102v-138z" />
    <glyph glyph-name="uni0976" unicode="&#x976;" horiz-adv-x="750" 
d="M805 600v-36h-96v-564h-102v248q-38 -18 -80 -18q-16 0 -40 4q14 -31 14 -66q0 -49 -32.5 -90.5t-88 -65.5t-121.5 -24q-63 0 -110.5 20t-72.5 53t-25 71q0 35 29.5 56.5t76.5 21.5q-4 -17 -4 -54q0 -35 14.5 -65.5t39 -48.5t52.5 -18q63 0 96.5 40t33.5 104
q0 42 -21.5 76t-58.5 54t-80 20q-42 0 -78 -12l24 48q172 0 172 138q0 38 -23.5 64t-58.5 26q-44 0 -72 -22.5t-28 -52.5q0 -36 22 -54q-29 -42 -74 -42q-20 0 -35 15.5t-15 44.5q0 38 27 70.5t73.5 51.5t101.5 19q92 0 143 -34t51 -86q0 -45 -37.5 -83.5t-114.5 -60.5
q80 -7 129 -48q41 -29 91 -29q41 0 80 22v271h-60v36h258zM568 -97q-22 -60 -76 -95t-118 -35q-73 0 -130 29t-76 78l76 33q9 -45 46.5 -72t87.5 -27q58 0 102 26.5t66 72.5z" />
    <glyph glyph-name="uni0977" unicode="&#x977;" horiz-adv-x="750" 
d="M805 600v-36h-96v-564h-102v248q-38 -18 -80 -18q-16 0 -40 4q14 -31 14 -66q0 -49 -32.5 -90.5t-88 -65.5t-121.5 -24q-63 0 -110.5 20t-72.5 53t-25 71q0 35 29.5 56.5t76.5 21.5q-4 -17 -4 -54q0 -35 14.5 -65.5t39 -48.5t52.5 -18q63 0 96.5 40t33.5 104
q0 42 -21.5 76t-58.5 54t-80 20q-42 0 -78 -12l24 48q172 0 172 138q0 38 -23.5 64t-58.5 26q-44 0 -72 -22.5t-28 -52.5q0 -36 22 -54q-29 -42 -74 -42q-20 0 -35 15.5t-15 44.5q0 38 27 70.5t73.5 51.5t101.5 19q92 0 143 -34t51 -86q0 -45 -37.5 -83.5t-114.5 -60.5
q80 -7 129 -48q41 -29 91 -29q41 0 80 22v271h-60v36h258zM568 -97q-22 -60 -76 -95t-118 -35q-73 0 -130 29t-76 78l76 33q9 -45 46.5 -72t87.5 -27q58 0 102 26.5t66 72.5zM568 -265q-22 -60 -76 -95t-118 -35q-73 0 -130 29t-76 78l76 33q9 -45 46.5 -72t87.5 -27
q58 0 102 26.5t66 72.5z" />
    <glyph glyph-name="uni0979" unicode="&#x979;" horiz-adv-x="771" 
d="M585 420h-261q77 -34 116.5 -89.5t39.5 -111.5q0 -52 -29.5 -92.5t-79.5 -62.5t-110 -22q-64 0 -111 20t-71.5 53t-24.5 71q0 35 29.5 59.5t77.5 24.5q-5 -32 -5 -60q0 -64 30 -98t75 -34q51 0 84 33t33 87q0 50 -25.5 99.5t-69 86t-94.5 48.5l23 18h373v114h-597v36h795
v-36h-96v-564h-102v420zM199 -16.5q18 -17.5 18 -43.5t-18 -43.5t-43 -17.5q-26 0 -43.5 17.5t-17.5 43.5t17.5 43.5t43.5 17.5q25 0 43 -17.5zM415 -16.5q18 -17.5 18 -43.5t-18 -43.5t-43 -17.5q-26 0 -43.5 17.5t-17.5 43.5t17.5 43.5t43.5 17.5q25 0 43 -17.5z
M307 -130.5q18 -17.5 18 -43.5t-18 -43.5t-43 -17.5q-26 0 -43.5 17.5t-17.5 43.5t17.5 43.5t43.5 17.5q25 0 43 -17.5z" />
    <glyph glyph-name="uni097A" unicode="&#x97a;" horiz-adv-x="621" 
d="M633 600v-36h-102v-564h-102v180q-34 -46 -79.5 -71t-96.5 -25q-63 0 -114 26t-80.5 70t-29.5 96q0 32 18.5 52t58.5 20q67 0 102 27.5t35 77.5q0 83 -60 111h-195v36h645zM262 564q36 -12 59.5 -42.5t23.5 -68.5q0 -27 -13 -51t-37 -42l133 -117h1v321h-167zM345.5 138
q39.5 24 63.5 60l-155 138q-44 -18 -91 -18q-23 0 -27.5 -14t-4.5 -37q0 -63 36.5 -108t96.5 -45q42 0 81.5 24z" />
    <glyph glyph-name="uni097B" unicode="&#x97b;" horiz-adv-x="694" 
d="M706 600v-36h-96v-564h-102v564h-226q69 -46 104.5 -112t35.5 -134q0 -60 -25 -110.5t-74 -81t-116 -30.5q-57 0 -98 23t-61.5 61.5t-20.5 83.5q0 51 26 93.5t71 67.5t99 25q10 0 15 -8.5t5 -21.5q-30 0 -56.5 -20.5t-42 -55.5t-15.5 -74q0 -68 25.5 -107t61.5 -39
q46 0 75 48t29 146q0 84 -40.5 153.5t-102.5 92.5h-189v36h718zM40 -42h372v-48h-372v48z" />
    <glyph glyph-name="uni097C" unicode="&#x97c;" horiz-adv-x="771" 
d="M585 420h-261q77 -34 116.5 -89.5t39.5 -111.5q0 -52 -29.5 -92.5t-79.5 -62.5t-110 -22q-64 0 -111 20t-71.5 53t-24.5 71q0 35 29.5 59.5t77.5 24.5q-5 -32 -5 -60q0 -64 30 -98t75 -34q51 0 84 33t33 87q0 50 -25.5 99.5t-69 86t-94.5 48.5l23 18h373v114h-597v36h795
v-36h-96v-564h-102v420zM452 -90h-372v48h372v-48z" />
    <glyph glyph-name="uni097D" unicode="&#x97d;" horiz-adv-x="492" 
d="M352 578q53 -22 83.5 -59.5t30.5 -82.5q0 -48 -14.5 -84t-36 -61t-58.5 -60q-39 -35 -62.5 -63.5t-40 -70t-16.5 -97.5q-29 0 -47.5 24.5t-18.5 60.5q0 39 14 71.5t34 57.5t53 60q46 48 68.5 82.5t22.5 79.5q0 59 -30.5 96.5t-86.5 37.5q-57 0 -90.5 -45t-33.5 -137
q-43 0 -67.5 13t-24.5 49q0 43 31.5 77.5t79 53.5t94.5 19q63 0 116 -22z" />
    <glyph glyph-name="uni097E" unicode="&#x97e;" horiz-adv-x="537" 
d="M382 48.5q43 30.5 43 85.5q0 36 -23 59t-57.5 36t-91.5 27q-62 16 -99 30.5t-63 41.5t-26 71q0 53 41.5 85t113.5 32q66 0 138 -32v80h-370v36h561v-36h-89v-119l-78 -25q-29 31 -69.5 48.5t-83.5 17.5q-28 0 -50 -14t-22 -45q0 -27 19.5 -45t49.5 -28.5t82 -24.5
q67 -18 108 -34.5t70.5 -48.5t29.5 -84q0 -56 -34.5 -95t-92 -59t-125.5 -20q-72 0 -125.5 20t-81.5 53t-28 71q0 35 32 56.5t84 21.5q-7 -9 -10.5 -25t-3.5 -29q0 -60 34.5 -99t98.5 -39q75 0 118 30.5zM452 -90h-372v48h372v-48z" />
    <glyph glyph-name="uni097F" unicode="&#x97f;" horiz-adv-x="625" 
d="M646 600v-36h-99v-564h-102v204q-26 -66 -79 -105t-120 -39q-61 0 -108 26t-73 73t-26 108q0 72 26 125.5t72 82.5t104 29q74 0 115.5 -27.5t41.5 -74.5q0 -33 -25.5 -53t-66.5 -20q0 60 -15 102.5t-50 42.5q-36 0 -63 -42l187 -295q56 50 80 133v294h-457v36h658z
M175.5 154.5q34.5 -53.5 100.5 -53.5q27 0 55 14l-173 276q-17 -46 -17 -100q0 -83 34.5 -136.5zM56 -42h372v-48h-372v48z" />
    <glyph glyph-name="Wgrave" unicode="&#x1e80;" horiz-adv-x="754" 
d="M734 613l-134 -613h-91l-131 502l-127 -502h-97l-133 613h102l102 -490l125 490h93l126 -492l103 492h62zM440 665l-166 108l62 74l125 -160z" />
    <glyph glyph-name="wgrave" unicode="&#x1e81;" horiz-adv-x="641" 
d="M631 480l-125 -480h-111l-77 341l-86 -341h-112l-106 480h102l82 -402l97 402h59l-1 -2l3 2h33l84 -404l98 404h60zM368 531l-166 109l62 72l125 -158z" />
    <glyph glyph-name="Wacute" unicode="&#x1e82;" horiz-adv-x="754" 
d="M734 613l-134 -613h-91l-131 502l-127 -502h-97l-133 613h102l102 -490l125 490h93l126 -492l103 492h62zM456 847l62 -74l-164 -108l-21 22z" />
    <glyph glyph-name="wacute" unicode="&#x1e83;" horiz-adv-x="641" 
d="M631 480l-125 -480h-111l-77 341l-86 -341h-112l-106 480h102l82 -402l97 402h59l-1 -2l3 2h33l84 -404l98 404h60zM384 712l62 -72l-164 -109l-21 23z" />
    <glyph glyph-name="Wdieresis" unicode="&#x1e84;" horiz-adv-x="754" 
d="M734 613l-134 -613h-91l-131 502l-127 -502h-97l-133 613h102l102 -490l125 490h93l126 -492l103 492h62zM265.5 700q-16.5 17 -16.5 40q0 24 16.5 41t39.5 17q24 0 41.5 -17t17.5 -41q0 -23 -17.5 -40t-41.5 -17q-23 0 -39.5 17zM447.5 700.5q-17.5 17.5 -17.5 39.5
q0 24 17 41t40 17q24 0 40.5 -17t16.5 -41t-16.5 -40.5t-40.5 -16.5q-22 0 -39.5 17.5z" />
    <glyph glyph-name="wdieresis" unicode="&#x1e85;" horiz-adv-x="641" 
d="M631 480l-125 -480h-111l-77 341l-86 -341h-112l-106 480h102l82 -402l97 402h59l-1 -2l3 2h33l84 -404l98 404h60zM193.5 566q-16.5 17 -16.5 39q0 24 16.5 41.5t39.5 17.5q24 0 41.5 -17.5t17.5 -41.5q0 -23 -17.5 -39.5t-41.5 -16.5q-23 0 -39.5 17zM375.5 566.5
q-17.5 17.5 -17.5 38.5q0 24 17 41.5t40 17.5q24 0 40.5 -17.5t16.5 -41.5q0 -23 -16 -39.5t-41 -16.5q-22 0 -39.5 17.5z" />
    <glyph glyph-name="Ygrave" unicode="&#x1ef2;" horiz-adv-x="476" 
d="M289 212l-1 -1v-211h-102v212l-189 401h103l157 -345l161 345h60zM284 665l-166 108l62 74l125 -160z" />
    <glyph glyph-name="ygrave" unicode="&#x1ef3;" horiz-adv-x="460" 
d="M452 480l-245 -683l-82 12l93 172l-208 499h101l153 -379l130 379h58zM293 531l-166 109l62 72l125 -158z" />
    <glyph glyph-name="uni2000" unicode="&#x2000;" horiz-adv-x="1800" 
 />
    <glyph glyph-name="uni2001" unicode="&#x2001;" horiz-adv-x="1200" 
 />
    <glyph glyph-name="uni2002" unicode="&#x2002;" horiz-adv-x="600" 
 />
    <glyph glyph-name="uni2003" unicode="&#x2003;" horiz-adv-x="1200" 
 />
    <glyph glyph-name="uni2004" unicode="&#x2004;" horiz-adv-x="400" 
 />
    <glyph glyph-name="uni2005" unicode="&#x2005;" horiz-adv-x="300" 
 />
    <glyph glyph-name="uni2006" unicode="&#x2006;" horiz-adv-x="200" 
 />
    <glyph glyph-name="uni2007" unicode="&#x2007;" horiz-adv-x="755" 
 />
    <glyph glyph-name="uni2008" unicode="&#x2008;" horiz-adv-x="424" 
 />
    <glyph glyph-name="uni2009" unicode="&#x2009;" horiz-adv-x="240" 
 />
    <glyph glyph-name="uni200A" unicode="&#x200a;" horiz-adv-x="120" 
 />
    <glyph glyph-name="uni200C" unicode="&#x200c;" 
 />
    <glyph glyph-name="uni200D" unicode="&#x200d;" 
 />
    <glyph glyph-name="endash" unicode="&#x2013;" horiz-adv-x="478" 
d="M424 304v-71h-369v71h369z" />
    <glyph glyph-name="emdash" unicode="&#x2014;" horiz-adv-x="757" 
d="M704 304v-71h-649v71h649z" />
    <glyph glyph-name="quoteleft" unicode="&#x2018;" horiz-adv-x="185" 
d="M50.5 431.5q-15.5 17.5 -15.5 44.5q0 51 29.5 91t69.5 64l18 -23q-15 -14 -21 -29t-6 -38q0 -11 8 -33q10 -26 10 -41q0 -22 -16 -37.5t-38 -15.5q-23 0 -38.5 17.5z" />
    <glyph glyph-name="quoteright" unicode="&#x2019;" horiz-adv-x="185" 
d="M135.5 616.5q15.5 -17.5 15.5 -45.5q0 -50 -29.5 -90t-69.5 -65l-18 23q15 15 21 30t6 37q0 13 -9 35q-9 27 -9 39q0 22 16 38t38 16q23 0 38.5 -17.5z" />
    <glyph glyph-name="quotesinglbase" unicode="&#x201a;" horiz-adv-x="175" 
d="M124.5 92.5q15.5 -17.5 15.5 -45.5q0 -51 -29.5 -91t-69.5 -64l-18 23q15 14 21 29t6 38q0 13 -9 35q-9 27 -9 39q0 22 16 38t38 16q23 0 38.5 -17.5z" />
    <glyph glyph-name="quotedblleft" unicode="&#x201c;" horiz-adv-x="341" 
d="M50.5 431.5q-15.5 17.5 -15.5 44.5q0 51 29.5 91t69.5 64l18 -23q-15 -14 -21 -29t-6 -38q0 -11 8 -33q10 -26 10 -41q0 -22 -16 -37.5t-38 -15.5q-23 0 -38.5 17.5zM205.5 431.5q-15.5 17.5 -15.5 44.5q0 51 29.5 91t69.5 64l18 -23q-15 -14 -21 -29t-6 -38q0 -11 8 -33
q10 -26 10 -41q0 -22 -16 -37.5t-38 -15.5q-23 0 -38.5 17.5z" />
    <glyph glyph-name="quotedblright" unicode="&#x201d;" horiz-adv-x="341" 
d="M135.5 616.5q15.5 -17.5 15.5 -45.5q0 -51 -29.5 -91t-69.5 -64l-18 23q15 14 21 29t6 38q0 13 -9 35q-9 27 -9 39q0 22 16 38t38 16q23 0 38.5 -17.5zM291.5 616.5q15.5 -17.5 15.5 -45.5q0 -51 -29.5 -91t-69.5 -64l-18 23q15 14 21 29t6 38q0 13 -9 35q-9 27 -9 39
q0 22 16 38t38 16q23 0 38.5 -17.5z" />
    <glyph glyph-name="quotedblbase" unicode="&#x201e;" horiz-adv-x="349" 
d="M299.5 92.5q15.5 -17.5 15.5 -45.5q0 -51 -29.5 -91t-69.5 -64l-18 23q15 14 21 29t6 38q0 13 -9 35q-9 27 -9 39q0 22 16 38t38 16q23 0 38.5 -17.5zM124.5 92.5q15.5 -17.5 15.5 -45.5q0 -51 -29.5 -91t-69.5 -64l-18 23q15 14 21 29t6 38q0 13 -9 35q-9 27 -9 39
q0 22 16 38t38 16q23 0 38.5 -17.5z" />
    <glyph glyph-name="dagger" unicode="&#x2020;" horiz-adv-x="391" 
d="M379 391l-136 10l-12 -401h-73l-13 401l-132 -10v82l130 -10l-5 150h112l-5 -150l134 10v-82z" />
    <glyph glyph-name="daggerdbl" unicode="&#x2021;" horiz-adv-x="391" 
d="M231 306l6 -94l142 10v-80l-139 8l10 -150h-112l10 150l-135 -8v80l139 -10l6 94l-6 95l-139 -10v82l135 -10l-10 150h112l-10 -150l139 10v-82l-142 10z" />
    <glyph glyph-name="bullet" unicode="&#x2022;" horiz-adv-x="234" 
d="M53.5 241.5q-25.5 26.5 -25.5 61.5q0 37 25.5 62t60.5 25q37 0 62 -25t25 -62q0 -36 -25.5 -62t-61.5 -26q-35 0 -60.5 26.5z" />
    <glyph glyph-name="ellipsis" unicode="&#x2026;" horiz-adv-x="574" 
d="M46 11q-17 18 -17 41q0 24 17 41t40 17q25 0 42 -17t17 -41t-17 -41.5t-42 -17.5q-23 0 -40 18zM446 11q-17 18 -17 41q0 24 17 41t40 17q25 0 42 -17t17 -41t-17 -41.5t-42 -17.5q-23 0 -40 18zM246 11q-17 18 -17 41q0 24 17 41t40 17q25 0 42 -17t17 -41t-17 -41.5
t-42 -17.5q-23 0 -40 18z" />
    <glyph glyph-name="perthousand" unicode="&#x2030;" horiz-adv-x="1027" 
d="M295.5 579.5q29.5 -45.5 29.5 -129.5q0 -85 -29.5 -130.5t-109.5 -45.5q-79 0 -109.5 46t-30.5 130q0 83 30.5 129t109.5 46q80 0 109.5 -45.5zM509 613l-164 -613h-42l162 613h44zM234.5 344.5q13.5 38.5 13.5 105.5q0 77 -13 111.5t-50 34.5q-36 0 -49.5 -34.5
t-13.5 -111.5q0 -67 14 -105.5t49 -38.5q36 0 49.5 38.5zM950.5 298.5q29.5 -45.5 29.5 -129.5q0 -85 -29.5 -130.5t-109.5 -45.5q-75 0 -108 44q-33 -44 -108 -44q-79 0 -109.5 46t-30.5 130q0 83 30.5 129t109.5 46q75 0 108 -44q33 44 108 44q80 0 109.5 -45.5z
M673.5 63.5q13.5 38.5 13.5 105.5q0 77 -13 111.5t-50 34.5q-36 0 -49.5 -34.5t-13.5 -111.5q0 -67 14 -105.5t49 -38.5q36 0 49.5 38.5zM889.5 63.5q13.5 38.5 13.5 105.5q0 77 -13 111.5t-50 34.5q-36 0 -49.5 -34.5t-13.5 -111.5q0 -67 14 -105.5t49 -38.5
q36 0 49.5 38.5z" />
    <glyph glyph-name="guilsinglleft" unicode="&#x2039;" horiz-adv-x="246" 
d="M213 131l-32 -31l-151 147v37l151 146l32 -31l-94 -134z" />
    <glyph glyph-name="guilsinglright" unicode="&#x203a;" horiz-adv-x="246" 
d="M33 399l32 31l151 -146v-37l-151 -147l-32 31l94 134z" />
    <glyph glyph-name="fraction" unicode="&#x2044;" horiz-adv-x="236" 
d="M220 613l-164 -613h-42l162 613h44z" />
    <glyph glyph-name="uni2070" unicode="&#x2070;" horiz-adv-x="373" 
d="M76.5 375q-30.5 46 -30.5 130q0 83 30.5 129t109.5 46q80 0 109.5 -45.5t29.5 -129.5q0 -85 -29.5 -130.5t-109.5 -45.5q-79 0 -109.5 46zM234.5 399.5q13.5 38.5 13.5 105.5q0 77 -13 111.5t-50 34.5q-36 0 -49.5 -34.5t-13.5 -111.5q0 -67 14 -105.5t49 -38.5
q36 0 49.5 38.5z" />
    <glyph glyph-name="uni2074" unicode="&#x2074;" horiz-adv-x="373" 
d="M322 400h-37v-64h-77v64h-177v48l140 225h114v-216h37v-57zM208 457v189l-115 -189h115z" />
    <glyph glyph-name="uni2075" unicode="&#x2075;" horiz-adv-x="373" 
d="M184 361q30 0 44.5 20t14.5 51q0 36 -26 56t-88 20h-52l12 165h206v-58h-181l-4 -77h49q79 0 119.5 -29t40.5 -77q0 -42 -35.5 -72.5t-99.5 -30.5q-116 0 -124 107l65 5q3 -80 59 -80z" />
    <glyph glyph-name="uni2076" unicode="&#x2076;" horiz-adv-x="373" 
d="M293.5 511q28.5 -25 28.5 -72q0 -110 -132 -110q-73 0 -106.5 44.5t-33.5 115.5q0 91 31 140.5t109 49.5q60 0 90.5 -24.5t32.5 -75.5l-66 -6q0 36 -14.5 57t-42.5 21q-36 0 -50 -30.5t-16 -96.5q37 12 77 12q64 0 92.5 -25zM234 380q13 19 13 59q0 66 -65 66
q-30 0 -58 -11q0 -76 15 -104.5t51 -28.5q31 0 44 19z" />
    <glyph glyph-name="uni2077" unicode="&#x2077;" horiz-adv-x="373" 
d="M251 614h-196v59h257v-47l-154 -290h-67z" />
    <glyph glyph-name="uni2078" unicode="&#x2078;" horiz-adv-x="373" 
d="M305 475q18 -22 18 -53q0 -40 -37.5 -66.5t-99.5 -26.5q-63 0 -99.5 26.5t-36.5 66.5q0 32 19 52t57 31q-71 21 -71 83q0 40 33.5 65.5t97.5 25.5t98 -25.5t34 -65.5q0 -57 -65 -80q34 -11 52 -33zM144 633q-14 -18 -14 -45q0 -31 13.5 -47t43.5 -20l15 -1q0 -1 1 -1
q19 8 28.5 26.5t9.5 42.5q0 27 -13.5 45t-41.5 18t-42 -18zM231 376.5q15 15.5 15 45.5t-15 48t-41 22l-14 2q-49 -9 -49 -72q0 -27 15.5 -44t43.5 -17q30 0 45 15.5z" />
    <glyph glyph-name="uni2079" unicode="&#x2079;" horiz-adv-x="373" 
d="M291.5 637.5q32.5 -41.5 32.5 -114.5q0 -101 -32 -147.5t-112 -46.5q-121 0 -124 100l65 7q2 -75 59 -75q37 0 50.5 28t15.5 94q-33 -14 -76 -14q-121 0 -121 99q0 49 36.5 80t102.5 31q71 0 103.5 -41.5zM142 520.5q15 -21.5 50 -21.5q29 0 54 12q-1 70 -14 105t-44 35
t-46 -22t-15 -58q0 -29 15 -50.5z" />
    <glyph glyph-name="uni2080" unicode="&#x2080;" horiz-adv-x="373" 
d="M76.5 -117q-30.5 46 -30.5 130q0 83 30.5 129t109.5 46q80 0 109.5 -45.5t29.5 -129.5q0 -85 -29.5 -130.5t-109.5 -45.5q-79 0 -109.5 46zM234.5 -92.5q13.5 38.5 13.5 105.5q0 77 -13 111.5t-50 34.5q-36 0 -49.5 -34.5t-13.5 -111.5q0 -67 14 -105.5t49 -38.5
q36 0 49.5 38.5z" />
    <glyph glyph-name="uni2081" unicode="&#x2081;" horiz-adv-x="382" 
d="M305 -125v-31h-227v31h80v245l-81 -2v29q29 -1 65 9t60 25h33v-306h70z" />
    <glyph glyph-name="uni2082" unicode="&#x2082;" horiz-adv-x="373" 
d="M187 187q59 0 92.5 -22t33.5 -62q0 -28 -12.5 -52t-48.5 -55l-114 -94h175v-58h-255v47l126 105q32 29 42 51.5t10 55.5q0 26 -12.5 40t-36.5 14q-56 0 -57 -84l-68 9q9 105 125 105z" />
    <glyph glyph-name="uni2083" unicode="&#x2083;" horiz-adv-x="373" 
d="M293.5 -15q24.5 -20 24.5 -57q0 -39 -35.5 -65t-99.5 -26q-61 0 -92.5 22t-35.5 71l66 7q3 -35 18 -51.5t44 -16.5q62 0 62 59q0 39 -19 52t-54 13h-40v35h41q37 0 51.5 18.5t14.5 55.5q0 29 -13 42t-42 13q-54 0 -57 -74l-66 6q4 52 34.5 75t88.5 23q62 0 95.5 -23.5
t33.5 -61.5t-23.5 -60.5t-62.5 -30.5q42 -6 66.5 -26z" />
    <glyph glyph-name="uni2084" unicode="&#x2084;" horiz-adv-x="373" 
d="M322 -92h-37v-64h-77v64h-177v48l140 225h114v-216h37v-57zM208 -35v189l-115 -189h115z" />
    <glyph glyph-name="uni2085" unicode="&#x2085;" horiz-adv-x="373" 
d="M184 -131q30 0 44.5 20t14.5 51q0 36 -26 56t-88 20h-52l12 165h206v-58h-181l-4 -77h49q79 0 119.5 -29t40.5 -77q0 -42 -35.5 -72.5t-99.5 -30.5q-116 0 -124 107l65 5q3 -80 59 -80z" />
    <glyph glyph-name="uni2086" unicode="&#x2086;" horiz-adv-x="373" 
d="M293.5 19q28.5 -25 28.5 -72q0 -110 -132 -110q-73 0 -106.5 44.5t-33.5 115.5q0 91 31 140.5t109 49.5q60 0 90.5 -24.5t32.5 -75.5l-66 -6q0 36 -14.5 57t-42.5 21q-36 0 -50 -30.5t-16 -96.5q37 12 77 12q64 0 92.5 -25zM234 -112q13 19 13 59q0 66 -65 66
q-31 0 -58 -11q0 -76 15 -104.5t51 -28.5q31 0 44 19z" />
    <glyph glyph-name="uni2087" unicode="&#x2087;" horiz-adv-x="373" 
d="M251 122h-196v59h257v-47l-154 -290h-67z" />
    <glyph glyph-name="uni2088" unicode="&#x2088;" horiz-adv-x="373" 
d="M305 -17q18 -22 18 -53q0 -40 -37.5 -66.5t-99.5 -26.5q-63 0 -99.5 26.5t-36.5 66.5q0 32 19 52t57 31q-71 21 -71 83q0 40 33.5 65.5t97.5 25.5t98 -25.5t34 -65.5q0 -57 -65 -80q34 -11 52 -33zM144 141q-14 -18 -14 -45q0 -31 13.5 -47t43.5 -20l15 -1q0 -1 1 -1
q19 8 28.5 26.5t9.5 42.5q0 27 -13.5 45t-41.5 18t-42 -18zM231 -115.5q15 15.5 15 45.5t-15 48t-41 22l-14 2q-49 -9 -49 -72q0 -27 15.5 -44t43.5 -17q30 0 45 15.5z" />
    <glyph glyph-name="uni2089" unicode="&#x2089;" horiz-adv-x="373" 
d="M291.5 145.5q32.5 -41.5 32.5 -114.5q0 -101 -32 -147.5t-112 -46.5q-121 0 -124 100l65 7q2 -75 59 -75q37 0 50.5 28t15.5 94q-33 -14 -76 -14q-121 0 -121 99q0 49 36.5 80t102.5 31q71 0 103.5 -41.5zM142 28.5q15 -21.5 50 -21.5q29 0 54 12q-1 70 -14 105t-44 35
t-46 -22t-15 -58q0 -29 15 -50.5z" />
    <glyph glyph-name="franc" unicode="&#x20a3;" horiz-adv-x="433" 
d="M184 556v-217h195v-56h-195v-110h113v-57h-113v-116h-102v116h-58v57h58v440h322v-57h-220z" />
    <glyph glyph-name="lira" unicode="&#x20a4;" horiz-adv-x="529" 
d="M493 81v-81h-432v62q25 19 36 45.5t11 53.5v11h-56v63h56v69h-56v61h56v77q0 89 45 136t149 47q98 0 140.5 -46t42.5 -139l-90 -5q0 73 -22 111t-71 38q-51 0 -70 -35.5t-19 -106.5v-77h190v-61h-190v-69h190v-63h-191q0 -35 -10.5 -55t-35.5 -36h327z" />
    <glyph glyph-name="Euro" unicode="&#x20ac;" horiz-adv-x="529" 
d="M389.5 64.5q29.5 34.5 29.5 95.5l87 -7q-1 -79 -49 -122t-144 -43q-108 0 -160.5 59.5t-65.5 166.5h-58v61h54q-1 10 -1 31q0 22 1 33h-54v62h58q14 106 66.5 165t159.5 59q95 0 143 -42t50 -120l-88 -6q0 60 -29.5 93.5t-75.5 33.5q-60 0 -89.5 -47t-36.5 -136h169v-62
h-172v-33v-31h172v-61h-169q7 -90 36 -137t90 -47q47 0 76.5 34.5z" />
    <glyph glyph-name="uni20B9" unicode="&#x20b9;" horiz-adv-x="772" 
d="M694 563h-224q28 -16 46.5 -49t22.5 -74h155v-36h-156q-8 -73 -59.5 -115.5t-143.5 -42.5q-39 0 -80 7q107 -96 184 -149t131 -53q-31 -59 -93 -59q-39 0 -98.5 44.5t-149.5 126.5q-58 54 -95 84t-60 38q19 22 41.5 34t43.5 12q16 0 29.5 -5t31.5 -14q23 -12 41 -18
t41 -6q65 0 95.5 27.5t38.5 88.5h-358v36h359q-6 41 -30 73.5t-61 49.5h-268v37h616v-37z" />
    <glyph glyph-name="uni2113" unicode="&#x2113;" horiz-adv-x="299" 
d="M200 -12q-50 0 -74 18.5t-30 44.5t-6 64v498h101v-510q0 -33 8.5 -45.5t28.5 -12.5q30 0 60 18l15 -46q-54 -29 -103 -29z" />
    <glyph glyph-name="trademark" unicode="&#x2122;" horiz-adv-x="796" 
d="M21 670h276v-39h-98v-330h-81v330h-97v39zM655 301l-10 311l-92 -311h-71l-96 323l-10 -323h-49l15 369h97l89 -309l91 309h100l17 -369h-81z" />
    <glyph glyph-name="Omega" unicode="&#x2126;" horiz-adv-x="673" 
d="M483 68h114v-68h-188v152q115 47 115 212q0 98 -45 159t-142 61q-98 0 -144 -61t-46 -159q0 -164 117 -212v-4h1v-148h-190v68h115v69q-71 36 -105.5 99t-34.5 131t29.5 127t93.5 95.5t164 36.5q99 0 163 -36.5t93.5 -95.5t29.5 -127q0 -67 -35 -130t-105 -99v-70z" />
    <glyph glyph-name="estimated" unicode="&#x212e;" horiz-adv-x="504" 
d="M411.5 385q-55.5 65 -158.5 65q-66 0 -115 -29.5t-75 -82.5t-26 -121q0 -64 26 -116.5t74.5 -83.5t115.5 -31q65 0 106 26t86 88l-29 16q-58 -100 -163 -100q-70 0 -121 50v151h340q-5 103 -60.5 168zM132 370q48 50 121 50q69 0 124 -50v-122h-245v122z" />
    <glyph glyph-name="partialdiff" unicode="&#x2202;" horiz-adv-x="507" 
d="M438.5 142.5q-32.5 -73.5 -91.5 -114t-135 -40.5q-79 0 -128 50t-49 130q0 77 30 135t85 90t127 32q34 0 63.5 -11.5t40.5 -29.5q-16 117 -92 201l58 57q49 -54 86.5 -134t37.5 -196q0 -96 -32.5 -169.5zM297.5 87.5q31.5 23.5 49 66.5t17.5 99q0 43 -24.5 70t-65.5 27
q-61 0 -99 -50.5t-38 -131.5q0 -46 24.5 -75t64.5 -29t71.5 23.5z" />
    <glyph glyph-name="uni2206" unicode="&#x2206;" horiz-adv-x="570" 
d="M561 0h-551l219 613h112zM435 68l-172 492l-170 -492h342z" />
    <glyph glyph-name="product" unicode="&#x220f;" horiz-adv-x="636" 
d="M585 545h-55v-695h-101v695h-224v-695h-101v695h-54v68h535v-68z" />
    <glyph glyph-name="summation" unicode="&#x2211;" horiz-adv-x="502" 
d="M476 545h-334l206 -317l-202 -310h330v-68h-441v68l204 310l-204 317v68h441v-68z" />
    <glyph glyph-name="minus" unicode="&#x2212;" horiz-adv-x="487" 
d="M414 304v-71h-339v71h339z" />
    <glyph glyph-name="radical" unicode="&#x221a;" horiz-adv-x="475" 
d="M523 546h-115l-164 -546h-113l-137 367h104l85 -247l143 493h197v-67z" />
    <glyph glyph-name="infinity" unicode="&#x221e;" horiz-adv-x="515" 
d="M458 390.5q33 -34.5 33 -122.5t-33 -122.5t-98 -34.5q-38 0 -63 12t-39 37q-15 -26 -39.5 -37.5t-65.5 -11.5q-64 0 -97.5 35t-33.5 122t33.5 122t97.5 35q38 0 63 -12t39 -37q15 26 40 37.5t65 11.5q65 0 98 -34.5zM202.5 208q13.5 17 19.5 51l7 28q-7 24 -24.5 40
t-41.5 16q-34 0 -50.5 -16t-16.5 -59q0 -44 16.5 -60.5t50.5 -16.5q26 0 39.5 17zM400.5 207.5q16.5 16.5 16.5 60.5q0 43 -16.5 59t-49.5 16q-27 0 -40 -16.5t-19 -49.5l-8 -30q7 -24 25 -40t42 -16q33 0 49.5 16.5z" />
    <glyph glyph-name="integral" unicode="&#x222b;" horiz-adv-x="403" 
d="M194.5 578.5q41.5 46.5 130.5 46.5q66 0 114 -29l-30 -71q-29 18 -75 18q-79 0 -79 -108v-465q0 -97 -42 -143.5t-131 -46.5q-64 0 -115 30l29 70q31 -19 75 -19q82 0 82 109v465q0 97 41.5 143.5z" />
    <glyph glyph-name="approxequal" unicode="&#x2248;" horiz-adv-x="487" 
d="M148 368q21 0 42 4.5t53 13.5q31 9 53.5 13.5t43.5 4.5q18 0 38.5 -4t35.5 -12v-71q-15 8 -35.5 12.5t-38.5 4.5q-21 0 -43.5 -4.5t-53.5 -13.5q-32 -9 -53 -13.5t-42 -4.5q-42 0 -73 19v71q29 -20 73 -20zM148 200q21 0 42 4.5t53 13.5q31 9 53.5 13.5t43.5 4.5
q18 0 38.5 -4t35.5 -12v-71q-15 8 -35.5 12.5t-38.5 4.5q-21 0 -43.5 -4.5t-53.5 -13.5q-32 -9 -53 -13.5t-42 -4.5q-42 0 -73 19v71q29 -20 73 -20z" />
    <glyph glyph-name="notequal" unicode="&#x2260;" horiz-adv-x="487" 
d="M281 322l-29 -108h159v-71h-178l-49 -183h-43l48 183h-118v71h137l29 108h-166v72h185l47 179h45l-48 -179h111v-72h-130z" />
    <glyph glyph-name="lessequal" unicode="&#x2264;" horiz-adv-x="487" 
d="M413 435l-272 -110l272 -109v-79l-339 144v89l339 145v-80zM414 71v-71h-339v71h339z" />
    <glyph glyph-name="greaterequal" unicode="&#x2265;" horiz-adv-x="487" 
d="M413 370v-89l-339 -144v79l272 109l-272 110v80zM414 71v-71h-339v71h339z" />
    <glyph glyph-name="lozenge" unicode="&#x25ca;" horiz-adv-x="471" 
d="M450 281l-158 -365h-112l-159 365l159 366h112zM349 281l-114 272l-112 -272l112 -271z" />
    <glyph glyph-name="uni25CC" unicode="&#x25cc;" horiz-adv-x="835" 
d="M393 623q13 11 25 11q13 0 24 -11q12 -14 12 -25q0 -14 -12 -24q-8 -12 -24 -12t-25 12q-11 11 -11 24q0 10 11 25zM249 585q13 11 25 11q7 0 12.5 -3.5t11.5 -7.5q12 -14 12 -25q0 -14 -12 -24q-7 -7 -12 -10t-12 -3q-14 0 -25 13q-12 9 -12 24q0 13 12 25zM537 585
q6 4 11.5 7.5t12.5 3.5q12 0 25 -11q12 -12 12 -25q0 -15 -12 -24q-11 -13 -25 -13q-7 0 -12 3t-12 10q-11 11 -11 24q0 10 11 25zM144 478q11 12 25 12q12 0 24 -12t12 -25q0 -7 -3.5 -12.5t-8.5 -11.5q-13 -11 -24 -11q-14 0 -25 11q-12 12 -12 24q0 15 12 25zM644 478
q11 12 25 12q12 0 24 -12q11 -11 11 -25q0 -11 -11 -24q-13 -11 -24 -11q-14 0 -25 11q-7 7 -10 12t-3 12q0 14 13 25zM104 334q15 11 25 11q13 0 24 -11q11 -10 11 -25q0 -16 -11 -24q-9 -11 -24 -11q-12 0 -25 11q-11 11 -11 24q0 12 11 25zM682 334q13 11 25 11
q7 0 12.5 -3.5t11.5 -7.5q11 -11 11 -25q0 -15 -11 -24q-13 -11 -24 -11q-14 0 -25 11q-11 8 -11 24q0 15 11 25zM144 190q13 11 25 11q7 0 12.5 -3.5t11.5 -7.5q12 -14 12 -25q0 -14 -12 -24q-7 -7 -12 -10t-12 -3q-14 0 -25 13q-12 9 -12 24q0 13 12 25zM644 190
q13 11 25 11q7 0 12.5 -3.5t11.5 -7.5q11 -13 11 -25q0 -15 -11 -24q-7 -7 -12 -10t-12 -3q-14 0 -25 13q-13 10 -13 24q0 12 13 25zM249 85q13 11 25 11q7 0 12.5 -3.5t11.5 -7.5q5 -6 8.5 -11.5t3.5 -12.5q0 -15 -12 -27q-13 -11 -24 -11q-14 0 -25 11q-12 11 -12 27
q0 12 12 24zM529.5 73.5q3.5 5.5 7.5 11.5q6 4 11.5 7.5t12.5 3.5q12 0 25 -11q12 -12 12 -24q0 -16 -12 -27q-11 -11 -25 -11q-11 0 -24 11q-11 13 -11 27q0 7 3.5 12.5zM393 45q10 11 25 11q16 0 24 -11q12 -12 12 -25q0 -7 -3.5 -13t-8.5 -12q-11 -11 -24 -11
q-12 0 -25 11q-1 2 -6 9t-5 16q0 12 11 25z" />
    <glyph glyph-name="uniF8FF" unicode="&#xf8ff;" horiz-adv-x="766" 
d="M445 -84q-1 -1 -8.5 -5.5t-13.5 -4.5t-19.5 4.5t-21.5 4.5q-6 0 -18 -5.5t-19 -5.5q-8 0 -20 10q-6 5 -12.5 8.5t-14.5 3.5q-5 0 -9.5 -1.5t-9.5 -1.5q-10 0 -17 5t-14.5 14t-11.5 11q-10 6 -21.5 7t-18.5 5q-8 5 -14 21q-6 14 -10 18q-5 4 -16 8t-16 12q-5 7 -7 20
q-2 12 -6 20q-2 3 -10.5 10t-13.5 14t-5 16q0 6 1 11.5t1 9.5q0 9 -10 23t-10 24q0 6 4 18t4 19t-4 18t-4 17q0 10 10 26t10 25v21q0 9 4 14.5t13 13t12 12.5t5 18t5 18q4 6 16.5 11t16.5 10q4 4 10.5 16.5t11.5 16.5q7 6 22 9.5t20 5.5q5 3 12.5 12.5t13.5 14.5t15 5l21 -1
q12 0 26 10q11 9 21 9q5 0 18 -5.5t19 -5.5t20 6q15 5 19 5q11 0 24 -11q12 -10 21 -10q7 0 13 1t11 1q9 0 14 -3.5t12 -11.5q8 -11 16 -15q6 -3 18 -5.5t18 -6.5q7 -4 12 -16.5t9 -17.5q5 -4 21 -12t22 -18q3 -4 3.5 -17t2.5 -17q3 -6 12 -13t13.5 -13t4.5 -16l-1 -21
q0 -11 10 -27q10 -14 10 -24q0 -6 -5.5 -17t-5.5 -16q0 -7 5.5 -19t5.5 -18q-1 -8 -7 -14t-9.5 -12t-3.5 -15l1 -26q0 -10 -4 -15t-13 -11.5t-12 -12.5q-3 -5 -6 -21t-8 -22q-4 -4 -15 -8.5t-15 -9.5q-4 -4 -12 -18t-15 -18q-5 -4 -19.5 -8t-19.5 -7t-11.5 -10t-12 -10.5
t-15.5 -3.5h-19h-8q-5 -2 -18 -10zM448 4q4 0 7 -1t5 -1q7 0 11 2.5t9 8t9 7.5q3 2 14 5.5t15 6.5q5 3 10 12t9 14q3 3 11 6t11 7q4 5 5.5 15.5t3.5 15.5q3 4 9.5 8.5t9.5 8.5t3 13l-1 17q0 8 7 16.5t8 13.5q0 4 -3.5 13t-3.5 14q0 4 3.5 12t3.5 11q0 6 -7.5 18.5t-7.5 20.5
l1 13q0 7 -3 11.5t-10 9.5t-9 10q-1 3 -2 12.5t-4 12.5q-4 8 -15.5 14t-14.5 9t-6.5 11.5t-7.5 11.5q-5 4 -14 5t-14 4t-9 9t-7.5 9.5t-10.5 3.5l-17 -1q-9 0 -18 7t-17 7q-6 0 -15 -3.5t-14 -3.5q-3 0 -12.5 3.5t-13.5 3.5q-6 0 -16.5 -7t-18.5 -7l-14 1q-7 0 -11.5 -3.5
t-10 -10.5t-8.5 -9q-5 -2 -15.5 -4t-14.5 -5q-5 -3 -9.5 -13t-7.5 -13t-12 -6.5t-12 -7.5q-2 -4 -3.5 -12.5t-3.5 -13.5q-2 -4 -12 -12.5t-10 -17.5l1 -14q0 -8 -7 -19q-1 -2 -4 -7.5t-3 -11.5q0 -5 3.5 -13t3.5 -12q0 -5 -3.5 -14.5t-3.5 -13.5q0 -7 7 -18t7 -17l-1 -13
q0 -11 9 -19.5t10 -10.5q5 -6 6.5 -15t4.5 -14q4 -5 12 -8.5t11 -5.5q3 -3 8 -14.5t11 -14.5q4 -3 11 -3q10 0 17 -4q3 -2 8 -8.5t10 -10.5t13 -4l12 1q10 0 18.5 -7t13.5 -8q7 0 16.5 4t13.5 4q6 0 16 -3t14 -3q5 0 14.5 6t14.5 7q1 2 7 2zM455 331q33 -19 52 -51.5
t19 -71.5t-19 -72t-52 -52t-73 -19q-38 0 -70.5 19t-51.5 52t-19 72t19 71.5t51.5 51.5t70.5 19q40 0 73 -19zM464 302h-161v-57h46v-147h72v147h43v57z" />
    <glyph glyph-name="NULL" 
 />
    <glyph glyph-name="i.loclTRK" horiz-adv-x="265" 
d="M183 0h-101v480h101v-480zM89 561.5q-18 18.5 -18 43.5q0 26 18 44.5t44 18.5q25 0 44 -18.5t19 -44.5q0 -25 -19 -43.5t-44 -18.5q-26 0 -44 18.5z" />
    <glyph glyph-name="f.alt" horiz-adv-x="291" 
d="M375 644q43 -16 76 -39l-36 -72q-50 68 -132 68q-38 0 -63.5 -26.5t-25.5 -76.5v-18h110v-51h-110v-429h-101v429h-78v51h78v6q0 88 50.5 131t139.5 43q49 0 92 -16z" />
    <glyph glyph-name="uni093F0902" horiz-adv-x="270" 
d="M472 822.5q105 -65.5 197 -177.5l-36 -27q-176 219 -357 219q-69 0 -107.5 -29.5t-38.5 -78.5q0 -31 19.5 -60.5t51.5 -44.5l-48 -24h129v-36h-96v-564h-102v564h-96v36h103q-29 26 -46 61t-17 68q0 46 27.5 82t79.5 56.5t123 20.5q109 0 214 -65.5zM650 763
q-18 18 -18 43q0 26 17.5 43.5t43.5 17.5q25 0 43 -17.5t18 -43.5q0 -25 -18 -43t-43 -18t-43 18z" />
    <glyph glyph-name="uni093F0930094D" horiz-adv-x="270" 
d="M785 908q36 -9 65 -22q0 -27 -12 -41.5t-24 -14.5q-13 24 -40 37.5t-52 13.5q-36 0 -58.5 -30t-22.5 -73q0 -50 20.5 -89.5t58.5 -64.5q-18 -24 -57 -24q-16 9 -28 19l-2 -1l-7 9q-27 24 -42 48q-154 162 -308 162q-69 0 -107.5 -29.5t-38.5 -78.5q0 -31 19.5 -60.5
t51.5 -44.5l-48 -24h129v-36h-96v-564h-102v564h-96v36h103q-29 26 -46 61t-17 68q0 46 27.5 82t79.5 56.5t123 20.5q148 0 296 -125v5q0 73 46.5 111t120.5 38q28 0 64 -9z" />
    <glyph glyph-name="uni093F0930094D0902" horiz-adv-x="270" 
d="M785 908q36 -9 65 -22q0 -27 -12 -41.5t-24 -14.5q-13 24 -40 37.5t-52 13.5q-41 0 -64 -38q16 11 35 11q25 0 42 -16.5t17 -41.5q0 -23 -17 -40.5t-42 -17.5q-17 0 -30.5 9t-21.5 23q1 -47 22 -84.5t57 -61.5q-18 -24 -57 -24q-16 9 -28 19l-2 -1l-7 9q-27 24 -42 48
q-154 162 -308 162q-69 0 -107.5 -29.5t-38.5 -78.5q0 -31 19.5 -60.5t51.5 -44.5l-48 -24h129v-36h-96v-564h-102v564h-96v36h103q-29 26 -46 61t-17 68q0 46 27.5 82t79.5 56.5t123 20.5q148 0 296 -125v5q0 73 46.5 111t120.5 38q28 0 64 -9z" />
    <glyph glyph-name="uni09400902" horiz-adv-x="270" 
d="M282 600v-36h-96v-564h-102v564h-96v36h123l-48 24q32 16 51.5 48t19.5 66q0 48 -23.5 73.5t-67.5 25.5q-35 0 -69.5 -24.5t-59 -78t-30.5 -134.5l-38 24q5 103 43 161.5t84.5 80.5t87.5 22q80 0 127.5 -41.5t47.5 -108.5q0 -37 -17 -73.5t-46 -64.5h109zM276 763
q-18 18 -18 43q0 26 17.5 43.5t43.5 17.5q25 0 43 -17.5t18 -43.5q0 -25 -18 -43t-43 -18t-43 18z" />
    <glyph glyph-name="uni09400930094D" horiz-adv-x="270" 
d="M116.5 851q-22.5 -30 -22.5 -73q0 -50 20.5 -89.5t58.5 -64.5q-18 -24 -57 -24q-46 27 -77.5 72t-31.5 96q0 50 24 85q-34 14 -75 14q-42 0 -77 -18t-56 -51.5t-21 -76.5q0 -51 32 -108l-33 -13q-21 35 -33 73.5t-12 71.5q0 51 26.5 91t72.5 62t101 22q58 0 118 -27
q42 24 100 24q28 0 64 -9t65 -22q0 -27 -12 -41.5t-24 -14.5q-13 24 -40 37.5t-52 13.5q-36 0 -58.5 -30zM-12 600h294v-36h-96v-564h-102v564h-96v36z" />
    <glyph glyph-name="uni09400930094D0902" horiz-adv-x="270" 
d="M299 844.5q-12 -14.5 -24 -14.5q-13 24 -40 37.5t-52 13.5q-36 0 -58.5 -30t-22.5 -73q0 -50 20.5 -89.5t58.5 -64.5q-18 -24 -57 -24q-46 27 -77.5 72t-31.5 96q0 48 22 83q-39 16 -81 16t-77 -18t-56 -51.5t-21 -76.5q0 -51 32 -108l-33 -13q-21 35 -33 73.5t-12 71.5
q0 51 26.5 91t72.5 62t101 22q59 0 123 -29q40 26 103 26q28 0 64 -9t65 -22q0 -27 -12 -41.5zM253 785.5q17 -16.5 17 -41.5q0 -23 -17 -40.5t-42 -17.5q-24 0 -41 17.5t-17 40.5q0 25 17 41.5t41 16.5q25 0 42 -16.5zM-12 600h294v-36h-96v-564h-102v564h-96v36z" />
    <glyph glyph-name="uni094B0902" horiz-adv-x="270" 
d="M282 564h-96v-564h-102v564h-96v36h294v-36zM-58 943l219 -319q-17 -24 -47 -24l-260 312q23 31 88 31zM92 763q-18 18 -18 43q0 26 17.5 43.5t43.5 17.5q25 0 43 -17.5t18 -43.5q0 -25 -18 -43t-43 -18t-43 18z" />
    <glyph glyph-name="uni094B0930094D" horiz-adv-x="270" 
d="M282 564h-96v-564h-102v564h-96v36h294v-36zM222 908q36 -9 66 -22q0 -27 -12.5 -41.5t-24.5 -14.5q-13 24 -40 37.5t-52 13.5q-36 0 -58.5 -30t-22.5 -73q0 -50 20.5 -89.5t58.5 -64.5q-18 -24 -57 -24q-45 27 -74 67l-205 245q23 31 88 31l88 -128q14 50 57 76t104 26
q28 0 64 -9z" />
    <glyph glyph-name="uni094B0930094D0902" horiz-adv-x="270" 
d="M101 600q-41 24 -70 61l-210 251q23 31 88 31l89 -129q14 51 57 77t104 26q28 0 64 -9t65 -22q0 -27 -12 -41.5t-24 -14.5q-13 24 -40 37.5t-52 13.5q-22 0 -39.5 -12.5t-28.5 -33.5q17 19 43 19q25 0 42 -16.5t17 -41.5q0 -23 -17 -40.5t-42 -17.5q-20 0 -35.5 12.5
t-20.5 30.5v-3q0 -50 20.5 -89.5t58.5 -64.5q-18 -24 -57 -24zM282 600v-36h-96v-564h-102v564h-96v36h294z" />
    <glyph glyph-name="uni094C0902" horiz-adv-x="270" 
d="M282 564h-96v-564h-102v564h-96v36h294v-36zM150 620q-4 -8 -16.5 -14t-24.5 -6l-356 149q-2 18 6 40t31 37l299 -178l-235 264q23 31 88 31zM92 763q-18 18 -18 43q0 26 17.5 43.5t43.5 17.5q25 0 43 -17.5t18 -43.5q0 -25 -18 -43t-43 -18t-43 18z" />
    <glyph glyph-name="uni094C0930094D" horiz-adv-x="270" 
d="M105 600l-4 2t-4 3l-344 144q-2 18 6 40t31 37l225 -134q-15 32 -18 60l-143 160q23 31 88 31l68 -106q19 39 59.5 59.5t93.5 20.5q28 0 64 -9t65 -22q0 -27 -12 -41.5t-24 -14.5q-13 24 -40 37.5t-52 13.5q-36 0 -58.5 -30t-22.5 -73q0 -37 13 -74l37 -56q15 -15 29 -24
q-17 -20 -47 -24h-6h-4zM282 564h-96v-564h-102v564h-96v36h294v-36z" />
    <glyph glyph-name="uni094C0930094D0902" horiz-adv-x="270" 
d="M105 600l-4 2t-4 3l-344 144q-2 18 6 40t31 37l225 -134q-15 32 -18 60l-143 160q23 31 88 31l68 -106q19 39 59.5 59.5t93.5 20.5q28 0 64 -9t65 -22q0 -27 -12 -41.5t-24 -14.5q-13 24 -40 37.5t-52 13.5q-41 0 -64 -38q16 11 35 11q25 0 42 -16.5t17 -41.5
q0 -23 -17 -40.5t-42 -17.5q-17 0 -30.5 9t-21.5 23q2 -38 13 -66l37 -56q15 -15 29 -24q-17 -20 -47 -24h-6h-4zM282 564h-96v-564h-102v564h-96v36h294v-36z" />
    <glyph glyph-name="uni093F.0" horiz-adv-x="270" 
d="M509.5 820.5q125.5 -67.5 213.5 -175.5l-35 -27q-79 98 -190 158.5t-222 60.5q-69 0 -107.5 -29.5t-38.5 -78.5q0 -31 19.5 -60.5t51.5 -44.5l-48 -24h129v-36h-96v-564h-102v564h-96v36h103q-29 26 -46 61t-17 68q0 46 27.5 82t79.5 56.5t123 20.5q126 0 251.5 -67.5z
" />
    <glyph glyph-name="uni093F0902.0" horiz-adv-x="270" 
d="M509.5 820.5q125.5 -67.5 213.5 -175.5l-35 -27q-79 98 -190 158.5t-222 60.5q-69 0 -107.5 -29.5t-38.5 -78.5q0 -31 19.5 -60.5t51.5 -44.5l-48 -24h129v-36h-96v-564h-102v564h-96v36h103q-29 26 -46 61t-17 68q0 46 27.5 82t79.5 56.5t123 20.5q126 0 251.5 -67.5z
M718 763q-18 18 -18 43q0 26 17.5 43.5t43.5 17.5q25 0 43 -17.5t18 -43.5q0 -25 -18 -43t-43 -18t-43 18z" />
    <glyph glyph-name="uni093F0930094D.0" horiz-adv-x="270" 
d="M853 908q36 -9 65 -22q0 -27 -12 -41.5t-24 -14.5q-13 24 -40 37.5t-52 13.5q-36 0 -58.5 -30t-22.5 -73q0 -50 20.5 -89.5t58.5 -64.5q-18 -24 -57 -24q-21 12 -35 25l-8 -7q-79 98 -190 158.5t-222 60.5q-69 0 -107.5 -29.5t-38.5 -78.5q0 -31 19.5 -60.5t51.5 -44.5
l-48 -24h129v-36h-96v-564h-102v564h-96v36h103q-29 26 -46 61t-17 68q0 46 27.5 82t79.5 56.5t123 20.5q94 0 189 -38.5t177 -105.5q-2 16 -2 24q0 73 46.5 111t120.5 38q28 0 64 -9z" />
    <glyph glyph-name="uni093F0930094D0902.0" horiz-adv-x="270" 
d="M853 908q36 -9 65 -22q0 -27 -12 -41.5t-24 -14.5q-13 24 -40 37.5t-52 13.5q-20 0 -36 -10t-27 -27q15 10 33 10q25 0 42 -16.5t17 -41.5q0 -23 -17 -40.5t-42 -17.5q-16 0 -29.5 8.5t-21.5 21.5q2 -46 22.5 -83.5t56.5 -60.5q-18 -24 -57 -24q-21 12 -35 25l-8 -7
q-79 98 -190 158.5t-222 60.5q-69 0 -107.5 -29.5t-38.5 -78.5q0 -31 19.5 -60.5t51.5 -44.5l-48 -24h129v-36h-96v-564h-102v564h-96v36h103q-29 26 -46 61t-17 68q0 46 27.5 82t79.5 56.5t123 20.5q94 0 189 -38.5t177 -105.5q-2 16 -2 24q0 73 46.5 111t120.5 38
q28 0 64 -9z" />
    <glyph glyph-name="uni0907.alt" horiz-adv-x="552" 
d="M217.5 478.5q-19.5 -12.5 -19.5 -39.5q0 -29 30.5 -45t96.5 -35q64 -18 106 -36t71.5 -51.5t29.5 -85.5q0 -58 -43.5 -97.5t-115.5 -56.5q22 -30 49.5 -46t66.5 -16q-11 -18 -31.5 -28.5t-48.5 -10.5q-39 0 -69 24t-54 65q-10 -1 -29 -1q-58 0 -106 18.5t-76 49t-28 65.5
q0 45 33.5 66t81.5 21q42 0 72.5 -18.5t49.5 -45t45 -71.5q12 -24 22 -39q36 14 57.5 40.5t21.5 63.5q0 30 -21.5 51t-53 33.5t-84.5 28.5q-59 18 -93 32.5t-58 39t-24 61.5q0 53 43 79.5t109 26.5q64 0 131 -29v72h-391v36h576v-36h-83v-111l-79 -23q-28 28 -66 44.5
t-77 16.5q-22 0 -41.5 -12.5zM270 49q-18 36 -26 54q-25 54 -42.5 80t-39.5 26q-19 0 -27 -13t-8 -30q0 -36 20 -62.5t51.5 -40.5t66.5 -14h5z" />
    <glyph glyph-name="uni093F.05" horiz-adv-x="270" 
d="M601 821.5q169 -66.5 322 -176.5l-38 -27q-140 101 -290 160t-286 59q-86 0 -132.5 -29.5t-46.5 -78.5q0 -31 19.5 -60.5t51.5 -44.5l-48 -24h129v-36h-96v-564h-102v564h-96v36h103q-29 26 -46 61t-17 68q0 45 31.5 81.5t89 57t133.5 20.5q150 0 319 -66.5z" />
    <glyph glyph-name="uni093F.10" horiz-adv-x="270" 
d="M965 645l-38 -27q-157 100 -315.5 159.5t-302.5 59.5q-91 0 -135 -30t-44 -78q0 -31 19.5 -60.5t51.5 -44.5l-48 -24h129v-36h-96v-564h-102v564h-96v36h103q-29 26 -46 61t-17 68q0 45 30 81t87 57t137 21q311 0 683 -243z" />
    <glyph glyph-name="uni093F0902.05" horiz-adv-x="270" 
d="M601 821.5q169 -66.5 322 -176.5l-38 -27q-140 101 -290 160t-286 59q-86 0 -132.5 -29.5t-46.5 -78.5q0 -31 19.5 -60.5t51.5 -44.5l-48 -24h129v-36h-96v-564h-102v564h-96v36h103q-29 26 -46 61t-17 68q0 45 31.5 81.5t89 57t133.5 20.5q150 0 319 -66.5zM895 763
q-18 18 -18 43q0 26 17.5 43.5t43.5 17.5q25 0 43 -17.5t18 -43.5q0 -25 -18 -43t-43 -18t-43 18z" />
    <glyph glyph-name="uni093F0902.10" horiz-adv-x="270" 
d="M965 645l-38 -27q-157 100 -315.5 159.5t-302.5 59.5q-91 0 -135 -30t-44 -78q0 -31 19.5 -60.5t51.5 -44.5l-48 -24h129v-36h-96v-564h-102v564h-96v36h103q-29 26 -46 61t-17 68q0 45 30 81t87 57t137 21q311 0 683 -243zM937 763q-18 18 -18 43q0 26 17.5 43.5
t43.5 17.5q25 0 43 -17.5t18 -43.5q0 -25 -18 -43t-43 -18t-43 18z" />
    <glyph glyph-name="uni093F0930094D.05" horiz-adv-x="270" 
d="M1030 908q36 -9 65 -22q0 -27 -12 -41.5t-24 -14.5q-13 24 -40 37.5t-52 13.5q-36 0 -58.5 -30t-22.5 -73q0 -50 20.5 -89.5t58.5 -64.5q-18 -24 -57 -24q-24 14 -43 32q-136 95 -280.5 150t-275.5 55q-86 0 -132.5 -29.5t-46.5 -78.5q0 -31 19.5 -60.5t51.5 -44.5
l-48 -24h129v-36h-96v-564h-102v564h-96v36h103q-29 26 -46 61t-17 68q0 45 31.5 81.5t89 57t133.5 20.5q121 0 256.5 -44.5t267.5 -122.5q-7 26 -7 47q0 73 46.5 111t120.5 38q28 0 64 -9z" />
    <glyph glyph-name="uni093F0930094D.10" horiz-adv-x="270" 
d="M1072 908q36 -9 65 -22q0 -27 -12 -41.5t-24 -14.5q-13 24 -40 37.5t-52 13.5q-36 0 -58.5 -30t-22.5 -73q0 -50 20.5 -89.5t58.5 -64.5q-18 -24 -57 -24q-21 13 -38 27q-154 97 -308 153.5t-295 56.5q-91 0 -135 -30t-44 -78q0 -31 19.5 -60.5t51.5 -44.5l-48 -24h129
v-36h-96v-564h-102v564h-96v36h103q-29 26 -46 61t-17 68q0 45 30 81t87 57t137 21q263 0 568 -173q-9 26 -9 53q0 73 46.5 111t120.5 38q28 0 64 -9z" />
    <glyph glyph-name="uni093F0930094D0902.05" horiz-adv-x="270" 
d="M1030 908q36 -9 65 -22q0 -27 -12 -41.5t-24 -14.5q-13 24 -40 37.5t-52 13.5q-20 0 -36 -10t-27 -27q15 10 33 10q25 0 42 -16.5t17 -41.5q0 -23 -17 -40.5t-42 -17.5q-16 0 -29.5 8.5t-21.5 21.5q2 -46 22.5 -83.5t56.5 -60.5q-18 -24 -57 -24q-24 14 -43 32
q-136 95 -280.5 150t-275.5 55q-86 0 -132.5 -29.5t-46.5 -78.5q0 -31 19.5 -60.5t51.5 -44.5l-48 -24h129v-36h-96v-564h-102v564h-96v36h103q-29 26 -46 61t-17 68q0 45 31.5 81.5t89 57t133.5 20.5q121 0 256.5 -44.5t267.5 -122.5q-7 26 -7 47q0 73 46.5 111t120.5 38
q28 0 64 -9z" />
    <glyph glyph-name="uni093F0930094D0902.10" horiz-adv-x="270" 
d="M1072 908q36 -9 65 -22q0 -27 -12 -41.5t-24 -14.5q-13 24 -40 37.5t-52 13.5q-20 0 -36 -10t-27 -27q15 10 33 10q25 0 42 -16.5t17 -41.5q0 -23 -17 -40.5t-42 -17.5q-16 0 -29.5 8.5t-21.5 21.5q2 -46 22.5 -83.5t56.5 -60.5q-18 -24 -57 -24q-21 13 -38 27
q-154 97 -308 153.5t-295 56.5q-91 0 -135 -30t-44 -78q0 -31 19.5 -60.5t51.5 -44.5l-48 -24h129v-36h-96v-564h-102v564h-96v36h103q-29 26 -46 61t-17 68q0 45 30 81t87 57t137 21q263 0 568 -173q-9 26 -9 53q0 73 46.5 111t120.5 38q28 0 64 -9z" />
    <glyph glyph-name="uni0940.02" horiz-adv-x="270" 
d="M282 600v-36h-96v-564h-102v564h-96v36h123l-48 24q32 15 51.5 44.5t19.5 60.5q0 49 -38.5 78.5t-107.5 29.5q-112 0 -223 -60.5t-189 -158.5l-36 27q88 108 214 175.5t252 67.5q71 0 123 -20.5t79.5 -56.5t27.5 -82q0 -33 -17 -68t-46 -61h109z" />
    <glyph glyph-name="uni09400902.02" horiz-adv-x="270" 
d="M282 600v-36h-96v-564h-102v564h-96v36h123l-48 24q32 15 51.5 44.5t19.5 60.5q0 49 -38.5 78.5t-107.5 29.5q-112 0 -223 -60.5t-189 -158.5l-36 27q88 108 214 175.5t252 67.5q71 0 123 -20.5t79.5 -56.5t27.5 -82q0 -33 -17 -68t-46 -61h109zM276 763q-18 18 -18 43
q0 26 17.5 43.5t43.5 17.5q25 0 43 -17.5t18 -43.5q0 -25 -18 -43t-43 -18t-43 18z" />
    <glyph glyph-name="uni09400930094D.02" horiz-adv-x="270" 
d="M116.5 851q-22.5 -30 -22.5 -73q0 -50 20.5 -89.5t58.5 -64.5q-18 -24 -57 -24q-43 25 -71 63q-92 104 -185 154t-179 50q-67 0 -113.5 -36t-46.5 -110q0 -49 32 -108l-33 -13q-20 37 -32 75t-12 70q0 87 58.5 131t147.5 44q159 0 326 -134q6 64 51.5 97.5t114.5 33.5
q28 0 64 -9t65 -22q0 -27 -12 -41.5t-24 -14.5q-13 24 -40 37.5t-52 13.5q-36 0 -58.5 -30zM-12 600h294v-36h-96v-564h-102v564h-96v36z" />
    <glyph glyph-name="uni09400930094D0902.02" horiz-adv-x="270" 
d="M299 844.5q-12 -14.5 -24 -14.5q-13 24 -40 37.5t-52 13.5q-36 0 -58.5 -30t-22.5 -73q0 -50 20.5 -89.5t58.5 -64.5q-18 -24 -57 -24q-39 23 -67 58q-94 106 -191 157.5t-185 51.5q-67 0 -113.5 -36t-46.5 -110q0 -49 32 -108l-33 -13q-20 37 -32 75t-12 70
q0 87 58.5 131t147.5 44q80 0 164.5 -34t169.5 -101q5 64 50.5 98t115.5 34q28 0 64 -9t65 -22q0 -27 -12 -41.5zM253 785.5q17 -16.5 17 -41.5q0 -23 -17 -40.5t-42 -17.5q-24 0 -41 17.5t-17 40.5q0 25 17 41.5t41 16.5q25 0 42 -16.5zM-12 600h294v-36h-96v-564h-102v564
h-96v36z" />
    <glyph glyph-name="uni0932.alt" horiz-adv-x="545" 
d="M87 17.5q-34 22.5 -54.5 63t-20.5 93.5q0 46 20 84.5t54.5 60.5t74.5 22q81 0 110 -79q33 79 113 79q40 0 74.5 -22t54.5 -60.5t20 -84.5q0 -53 -20.5 -93.5t-55 -63t-75.5 -22.5q-30 0 -49.5 18t-20.5 39q57 0 91 41.5t34 108.5q0 41 -16.5 75.5t-45.5 34.5
q-31 0 -54.5 -33.5t-24.5 -82.5h-49q0 32 -11 58.5t-29 42t-37 15.5q-29 0 -45.5 -34.5t-16.5 -75.5q0 -67 34 -108.5t91 -41.5q-1 -21 -21 -39t-51 -18q-40 0 -74 22.5z" />
    <glyph glyph-name="uni0932.loclMAR" horiz-adv-x="739" 
d="M580 564v-104q54 -25 87 -85.5t33 -137.5q0 -69 -25 -124.5t-69.5 -87t-100.5 -31.5q-43 0 -67 18t-27 42q95 0 141 53t46 163q0 31 -10.5 72t-32 71.5t-53.5 30.5q-47 0 -75.5 -46t-29.5 -116h-54q-2 70 -30 116t-75 46q-32 0 -53.5 -30.5t-32 -71.5t-10.5 -72
q0 -110 46 -163t140 -53q-3 -24 -26.5 -42t-67.5 -18q-56 0 -100 31.5t-69 87t-25 124.5q0 66 24 120t66.5 85.5t95.5 31.5q47 0 83.5 -21t60.5 -81q34 86 108 99v93h-490v36h763v-36h-171z" />
    <glyph glyph-name="uni0936.loclMAR" horiz-adv-x="763" 
d="M775 600v-36h-96v-564h-102v564h-243v-55q67 -15 107 -62t40 -117q0 -66 -44.5 -122t-121 -88.5t-166.5 -32.5q68 -62 112 -95t81 -47t80 -13q-14 -30 -38.5 -46t-50.5 -16q-39 0 -84.5 30t-109.5 85q-44 38 -70.5 56.5t-43.5 18.5q0 23 19.5 40t61.5 17q68 0 131 25.5
t102.5 73t39.5 108.5q0 81 -32 119.5t-75 38.5q-37 0 -64 -32t-27 -90q0 -56 36.5 -95.5t89.5 -39.5q-4 -12 -26 -21t-43 -9q-45 0 -81 20.5t-57 55.5t-21 77q0 66 42.5 110t110.5 55v51h-244v36h787z" />
    <glyph glyph-name="uni091D.loclNEP" horiz-adv-x="982" 
d="M608 564v-133q53 73 146 73q57 0 100 -26t67 -73t24 -108q0 -66 -23.5 -120.5t-66.5 -85.5t-99 -31q-34 0 -56.5 14.5t-20.5 36.5q76 0 120 49t44 125q0 71 -31 124.5t-86 53.5q-71 0 -118 -87v-376h-102v333h-121q0 -67 -24 -127t-71 -97t-113 -37q-44 0 -80 18
t-56.5 48.5t-20.5 68.5q0 74 59.5 115t167.5 41h37v135q0 58 -22 86t-54 28q-24 0 -46 -23.5t-22 -54.5q0 -30 18.5 -50.5t44.5 -18.5q-35 -29 -76 -29q-37 0 -63 24.5t-26 56.5q0 63 48 94t122 31q49 0 89.5 -20.5t64.5 -56.5t24 -79v-123h120v201h-110v36h598v-36h-386z
M284 333h-37q-67 0 -96 -33.5t-29 -89.5q0 -108 66 -108q47 0 71.5 53t24.5 125v53z" />
    <glyph glyph-name="uni0979.loclNEP" horiz-adv-x="822" 
d="M834 564h-553q80 -33 127.5 -78.5t69.5 -95.5q32 54 114 54q90 0 143.5 -48.5t53.5 -134.5q0 -66 -44 -122t-120 -88.5t-166 -32.5q67 -62 110.5 -95t81 -47t79.5 -13q-14 -30 -38 -46t-50 -16q-39 0 -83.5 29.5t-110.5 84.5q-43 38 -70 57t-45 19q0 23 20 40t62 17
q69 0 131.5 27t101.5 77.5t39 117.5q0 47 -14 79.5t-36 48.5t-45 16q-44 0 -69 -28.5t-25 -82.5q0 -55 -33 -98t-87.5 -67t-116.5 -24q-102 0 -165 46t-63 128q0 41 29.5 68.5t91.5 27.5q0 -1 -9.5 -25t-9.5 -62q0 -67 39 -110t100 -43q31 0 58 16.5t44 48.5t17 76
q0 56 -35.5 115.5t-91.5 104t-113 59.5h-165v36h846v-36z" />
    <glyph glyph-name="uni0928.post" 
d="M-129 177l-217 -98q37 -6 63 -35t26 -68q0 -46 -39.5 -78t-104.5 -32q-68 0 -106 29.5t-38 74.5q0 28 22 56.5t74 49.5l320 142v-41zM-441.5 37q-16.5 -22 -16.5 -54q0 -36 16.5 -61.5t40.5 -25.5t40.5 22.5t16.5 54.5q0 36 -16.5 61t-40.5 25t-40.5 -22z" />
    <glyph glyph-name="uni092F.post" horiz-adv-x="608" 
d="M620 600v-36h-96v-564h-102v123q-34 -46 -79 -71t-96 -25q-63 0 -114.5 26t-81 70t-29.5 96q0 33 19 52.5t60 19.5q66 0 100.5 26.5t34.5 75.5q0 39 -28 63t-89 24q-117 0 -235 -48v30q115 48 235 48q100 0 159.5 -30.5t59.5 -86.5q0 -61 -52 -96.5t-129 -35.5
q-21 0 -27 -14t-6 -34q0 -65 36 -110.5t97 -45.5q37 0 73 19.5t60.5 49.5t31.5 60v378h-560v36h758z" />
    <glyph glyph-name="uni0930.post" 
d="M-129 174l-332 -258l-31 40l363 272v-54z" />
    <glyph glyph-name="uni0935.post" 
d="M-180 -231q-33 -38 -76.5 -57.5t-85.5 -19.5q-73 0 -116 35t-43 88q0 32 20 59.5t53.5 43t73.5 15.5q62 0 98 -22t36 -58q0 -25 -20 -40.5t-52 -15.5q0 46 -14 76t-48 30q-25 0 -42.5 -24t-17.5 -60q0 -44 20.5 -70.5t72.5 -26.5q45 0 81 23t60 64v227h108v-374h-108v107
z" />
    <glyph glyph-name="uni0915094D0915" horiz-adv-x="1606" 
d="M1233 564v-141q53 81 146 81q86 0 137.5 -57t51.5 -150q0 -67 -23.5 -121t-66 -85t-99.5 -31q-34 0 -55.5 14.5t-20.5 36.5q75 0 119 49t44 125q0 72 -30.5 125t-86.5 53q-69 0 -116 -87v-376h-102v204q-26 -66 -79 -105t-120 -39q-61 0 -108 26t-73 73t-26 108
q0 74 29 132q-33 64 -91 64q-71 0 -116 -87v-376h-102v204q-26 -66 -79.5 -105t-120.5 -39q-61 0 -108 26t-73 73t-26 108q0 72 26.5 125.5t72.5 82.5t103 29q74 0 116 -27.5t42 -74.5q0 -33 -26 -53t-67 -20q0 61 -15 103t-50 42q-28 0 -51 -26t-36 -68.5t-13 -88.5
q0 -83 35 -136.5t100 -53.5q55 0 101 47t69 122v294h-457v36h1630v-36h-385zM1131 564h-584v-141q54 81 146 81q68 0 116 -39q51 39 118 39q73 0 115 -27.5t42 -74.5q0 -33 -25.5 -53t-66.5 -20q0 60 -15 102.5t-50 42.5q-28 0 -51 -26t-36 -68.5t-13 -88.5
q0 -83 34.5 -136.5t100.5 -53.5q54 0 100.5 47t68.5 122v294z" />
    <glyph glyph-name="uni0915094D0924" horiz-adv-x="921" 
d="M546 564v-142q55 82 148 82q85 0 136 -57t51 -150q0 -67 -23 -121t-65.5 -85t-98.5 -31q-35 0 -57.5 14.5t-20.5 36.5q76 0 119.5 49t43.5 125q0 72 -30 125t-85 53q-71 0 -118 -87v-376h-102v441h-156q-46 0 -77.5 -30t-46 -72.5t-14.5 -80.5q0 -97 51.5 -150.5
t153.5 -53.5q0 -24 -25.5 -42t-70.5 -18q-59 0 -107.5 30t-76 83t-27.5 118q0 73 35.5 131t96.5 85h-156v30h420v93h-456v36h945v-36h-387z" />
    <glyph glyph-name="uni0915094D0930" horiz-adv-x="919" 
d="M547 564v-141q54 81 146 81q85 0 137 -57t52 -150q0 -66 -23.5 -120.5t-66.5 -85.5t-99 -31q-34 0 -56.5 14.5t-20.5 36.5q76 0 120 49t44 125q0 72 -30.5 125t-86.5 53q-71 0 -116 -87v-376h-102v151l-276 -269l-36 37l155 145q-28 -4 -43 -4q-61 0 -108 26t-73 73
t-26 108q0 72 26.5 125.5t72.5 82.5t103 29q74 0 116 -27.5t42 -74.5q0 -33 -26 -53t-67 -20q0 61 -15 103t-50 42q-28 0 -51 -26t-36 -68.5t-13 -88.5q0 -83 35 -136.5t100 -53.5q55 0 101 47t69 122v294h-457v36h943v-36h-384z" />
    <glyph glyph-name="uni0915094D0932" horiz-adv-x="1420" 
d="M1433 564h-96v-564h-102v436q-18 8 -36 8q-47 0 -75.5 -46t-29.5 -116h-54q-2 70 -30 116t-75 46q-32 0 -54 -29t-32 -69.5t-10 -75.5q0 -103 46.5 -159.5t139.5 -56.5q-3 -24 -27 -42t-67 -18q-55 0 -99.5 31.5t-69.5 87t-25 124.5q0 74 30 132q-14 43 -40.5 68.5
t-63.5 25.5q-71 0 -116 -87v-376h-102v204q-26 -66 -79.5 -105t-120.5 -39q-61 0 -108 26t-73 73t-26 108q0 72 26.5 125.5t72.5 82.5t103 29q74 0 116 -27.5t42 -74.5q0 -33 -26 -53t-67 -20q0 61 -15 103t-50 42q-28 0 -51 -26t-36 -68.5t-13 -88.5q0 -83 35 -136.5
t100 -53.5q55 0 101 47t69 122v294h-457v36h1445v-36zM1235 471v93h-688v-141q54 81 146 81q84 0 138 -59q40 29 92 29q47 0 83.5 -21t60.5 -81q24 60 60.5 81t83.5 21q12 0 24 -3z" />
    </font>
</defs>
</svg>
