<svg width="192" height="193" viewBox="0 0 192 193" fill="none" xmlns="http://www.w3.org/2000/svg">
<path d="M139.346 170.86L132.182 164.878L147.622 172.177C144.863 173.612 136.703 175.79 126.129 173.014C115.556 170.238 103.113 174.57 98.2131 177.082C103.03 168.707 119.459 167.582 126.129 169.305C132.182 170.868 136.629 171.14 139.346 170.86Z" fill="#7034B2"/>
<path d="M127.718 165.386L120.751 158.134L130.331 162.928L133.814 164.895C132.137 166.724 127.718 169.32 115.774 169.32C109.181 169.32 100.347 174.36 98.2322 176.818C102.089 170.18 107.318 166.945 112.789 166.616C117.753 166.317 125.757 166.294 127.718 165.386Z" fill="#57B7FF"/>
<path d="M57.2678 170.86L64.5949 164.878L48.8037 172.177C51.6251 173.612 59.9713 175.79 70.7851 173.014C81.5989 170.238 94.3246 174.57 99.3356 177.082C94.4088 168.707 77.6069 167.582 70.7851 169.305C64.5949 170.868 60.0471 171.14 57.2678 170.86Z" fill="#7034B2"/>
<path d="M151.5 178.583L142.218 170.425L162.221 180.378C158.647 182.336 148.075 185.305 134.378 181.52C120.68 177.734 104.561 183.641 98.2136 187.067C104.454 175.646 125.737 174.112 134.378 176.462C142.218 178.594 147.979 178.964 151.5 178.583Z" fill="#FF5076"/>
<path d="M45.1153 178.583L54.5592 170.425L34.2061 180.378C37.8425 182.336 48.5998 185.305 62.5376 181.52C76.4755 177.734 92.8774 183.641 99.3361 187.067C92.9859 175.646 71.3302 174.112 62.5376 176.462C54.5592 178.594 48.6975 178.964 45.1153 178.583Z" fill="#FF5076"/>
<path d="M69.1186 165.553L76.1963 158.185L66.4644 163.055L62.9256 165.053C64.6294 166.912 69.1186 169.549 81.2518 169.549C87.9502 169.549 96.9237 174.669 99.0723 177.166C95.1543 170.423 89.8423 167.136 84.285 166.802C79.2423 166.498 71.1111 166.475 69.1186 165.553Z" fill="#57B7FF"/>
<path d="M102.728 128.446C103.159 127.858 103.984 127.218 105.111 126.576C112.208 122.132 132.717 114.019 146.75 124.452C160.577 134.732 149.54 144.155 142.699 147.084L100.298 164.924C104.889 161.463 114.071 152.41 122.173 148.682C135.947 142.345 144.725 138.215 141.888 130.842C136.676 117.293 113.17 121.985 105.111 126.576C103.875 127.349 103.046 128.012 102.728 128.446Z" fill="#E53C38"/>
<path d="M62.9104 141.981C47.024 133.363 55.0937 123.219 60.7937 119.358C57.1163 120.705 48.5972 125.075 48.1066 132.285C47.4653 141.711 60.0603 146.379 67.0474 148.714C67.0474 148.714 78.0663 152.765 84.9749 155.716C92.0814 158.751 102.902 164.064 102.902 164.064C97.9377 156.793 80.8378 149.791 80.8378 149.791C80.8378 149.791 68.9537 145.259 62.9104 141.981Z" fill="#E53C38"/>
<path d="M7.4043 131.223L49.4335 119.009L45.5877 112.224L7.4043 131.223Z" fill="url(#paint0_linear_121_212)"/>
<path d="M51.0784 126.067C45.6913 118.012 42.0142 107.724 41.5306 98.0664C41.0471 88.4087 43.1966 78.8004 47.7525 70.2544C52.3084 61.7084 59.1018 54.5414 67.4166 49.5091C75.7315 44.4768 85.2596 41.7656 94.9964 41.6613C104.733 41.5571 114.318 44.0636 122.74 48.9167C131.162 53.7698 138.11 60.7896 142.85 69.236C147.591 77.6824 149.948 87.2425 149.675 96.9084C149.401 106.574 146.506 115.988 141.295 124.156L133.978 119.553C138.355 112.692 140.787 104.785 141.017 96.6666C141.247 88.5478 139.266 80.5177 135.285 73.4231C131.303 66.3285 125.467 60.4322 118.393 56.3559C111.319 52.2795 103.268 50.1741 95.0898 50.2617C86.9113 50.3493 78.9082 52.6266 71.9241 56.8535C64.94 61.0804 59.2338 67.1003 55.4071 74.2785C51.5804 81.4567 49.7749 89.5273 50.1811 97.6393C50.5872 105.751 53.1899 113.604 57.7148 120.37L54.3748 123.625L51.0784 126.067Z" fill="#FFD83D"/>
<path d="M0.536133 95.9409L42.2906 99.7407V90.5127L0.536133 95.9409Z" fill="url(#paint1_linear_121_212)"/>
<path d="M7.13379 59.5699L44.2184 78.8402L47.7895 71.2406L7.13379 59.5699Z" fill="url(#paint2_linear_121_212)"/>
<path d="M29.3845 28.8574L54.3823 60.884L60.4257 54.6845L29.3845 28.8574Z" fill="url(#paint3_linear_121_212)"/>
<path d="M7.13379 59.5699L44.2184 78.8402L47.7895 71.2406L7.13379 59.5699Z" stroke="black"/>
<path d="M29.3845 28.8574L54.3823 60.884L60.4257 54.6845L29.3845 28.8574Z" stroke="black"/>
<path d="M58.7773 7.18848L71.6883 47.3575L79.3799 44.372L58.7773 7.18848Z" fill="url(#paint4_linear_121_212)"/>
<path d="M96.4043 0.673828L91.7344 41.9285H100.799L96.4043 0.673828Z" fill="url(#paint5_linear_121_212)"/>
<path d="M132.115 9.35902L112.886 44.3712L120.853 47.8996L132.115 9.35902Z" fill="url(#paint6_linear_121_212)"/>
<path d="M164.255 28.6293L131.017 54.9563L137.06 61.1988L164.255 28.6293Z" fill="url(#paint7_linear_121_212)"/>
<path d="M185.133 59.0275L143.927 71.7838L147.224 79.9262L185.133 59.0275Z" fill="url(#paint8_linear_121_212)"/>
<path d="M192 95.6681L149.422 91.3255V100.282L192 95.6681Z" fill="url(#paint9_linear_121_212)"/>
<path d="M183.759 131.495L147.224 111.681L142.829 119.824L183.759 131.495Z" fill="url(#paint10_linear_121_212)"/>
<ellipse cx="96.3354" cy="99.0021" rx="10.9594" ry="10.8282" fill="#E53C38"/>
<path d="M61.5771 79.4732C65.0448 91.5316 72.4164 96.7513 75.4382 97.4867C77.3215 96.2176 80.2312 94.9564 83.0818 95.8346C83.1756 93.772 85.0538 90.2707 87.1357 88.6496C86.4606 87.6051 84.0874 85.4328 84.6217 81.2105C76.6222 75.8049 65.9255 77.8 61.5771 79.4732Z" fill="#57B7FF"/>
<path d="M96.1287 59.2988C87.1573 68.1629 86.1322 77.0661 86.9535 80.032C88.9925 81.0393 91.5242 82.9363 92.1359 85.8238C94.0049 84.9005 98.0148 84.8165 100.462 85.8238C101.056 84.7326 101.821 81.6268 105.814 80.032C106.697 70.4964 99.7252 62.2367 96.1287 59.2988Z" fill="#FFBA00"/>
<path d="M131.31 78.9144C118.765 74.9792 110.013 78.3065 107.658 80.4749C107.706 82.8158 107.166 86.0317 104.783 87.9715C106.54 89.2333 108.55 92.8484 108.795 95.561C110.094 95.5808 113.343 94.7913 116.747 97.6676C126.017 93.9086 130.318 83.5992 131.31 78.9144Z" fill="#57B7FF"/>
<path d="M75.5986 64.8389C74.851 67.6592 74.5508 73.065 74.4941 75.4153C76.8446 75.6671 81.9873 76.6072 83.7544 78.3532C83.5505 75.4657 85.1421 70.9945 85.9633 69.1198C84.3208 68.0006 79.9484 65.5775 75.5986 64.8389Z" fill="#FF5076"/>
<path d="M116.159 64.6271C113.286 65.2905 108.307 67.5517 106.177 68.5994C107.049 70.7707 108.608 75.7031 107.87 78.0622C110.36 76.5361 115.105 75.8395 117.166 75.6819C117.401 73.7243 117.529 68.7727 116.159 64.6271Z" fill="#FF5076"/>
<path d="M136.226 98.6125C134.137 96.5533 129.562 93.5733 127.536 92.3407C126.131 94.2198 122.718 98.1351 120.301 98.7635C122.929 100.044 126.036 103.656 127.261 105.301C129.067 104.463 133.388 101.953 136.226 98.6125Z" fill="#FF5076"/>
<path d="M56.0166 99.4052C58.1201 101.45 62.7159 104.398 64.7508 105.617C66.1419 103.728 69.5272 99.7889 71.9394 99.1438C69.3033 97.8811 66.1707 94.2915 64.934 92.6546C63.1339 93.5049 58.8303 96.0455 56.0166 99.4052Z" fill="#FF5076"/>
<path d="M88.8626 123.167L104.194 131.324H86.5039C83.9094 131.323 78.7675 130.951 79.8997 125.73C81.0318 120.51 86.3467 121.846 88.8626 123.167Z" fill="#E53C38"/>
<path d="M103.954 128.992L99.0007 125.963L105.369 122.933C109.379 121.069 113.243 123.053 112.588 127.998C111.933 132.942 105.41 130.243 103.954 128.992Z" fill="#E53C38"/>
<path d="M102.541 120.836V115.942L106.787 120.836C107.494 121.691 109.712 123.306 112.919 122.933C115.75 122.604 115.278 119.321 113.627 118.506C111.976 117.69 110.561 118.273 110.561 118.273L102.541 107.087H98.5314V104.29C104.192 101.96 101.362 96.1335 99.0032 94.7353L97.588 94.2692L96.1728 94.0361L94.7576 94.2692L93.3424 94.7353C88.1533 98.2309 91.2196 103.591 93.3424 104.523V107.087H89.3326L80.8414 118.273C80.8414 118.273 79.6621 117.749 78.011 118.827C76.36 119.904 76.2786 122.708 79.4262 123.4C81.549 123.866 84.5367 122.467 85.3229 121.535L89.8044 115.942V121.535L96.6445 124.332L102.541 120.836Z" fill="#FFBA00"/>
<defs>
<linearGradient id="paint0_linear_121_212" x1="28.4189" y1="112.224" x2="28.4189" y2="131.223" gradientUnits="userSpaceOnUse">
<stop stop-color="#FFCC00"/>
<stop offset="1" stop-color="#FAB63F"/>
</linearGradient>
<linearGradient id="paint1_linear_121_212" x1="21.4134" y1="90.5127" x2="21.4134" y2="99.7407" gradientUnits="userSpaceOnUse">
<stop stop-color="#FFCC00"/>
<stop offset="1" stop-color="#FAB63F"/>
</linearGradient>
<linearGradient id="paint2_linear_121_212" x1="33.7798" y1="28.8574" x2="33.7798" y2="78.8402" gradientUnits="userSpaceOnUse">
<stop stop-color="#FFCC00"/>
<stop offset="1" stop-color="#FAB63F"/>
</linearGradient>
<linearGradient id="paint3_linear_121_212" x1="33.7798" y1="28.8574" x2="33.7798" y2="78.8402" gradientUnits="userSpaceOnUse">
<stop stop-color="#FFCC00"/>
<stop offset="1" stop-color="#FAB63F"/>
</linearGradient>
<linearGradient id="paint4_linear_121_212" x1="69.0786" y1="7.18848" x2="69.0786" y2="47.3575" gradientUnits="userSpaceOnUse">
<stop stop-color="#FFCC00"/>
<stop offset="1" stop-color="#FAB63F"/>
</linearGradient>
<linearGradient id="paint5_linear_121_212" x1="141.867" y1="0.673828" x2="141.867" y2="131.495" gradientUnits="userSpaceOnUse">
<stop stop-color="#FFCC00"/>
<stop offset="1" stop-color="#FAB63F"/>
</linearGradient>
<linearGradient id="paint6_linear_121_212" x1="141.867" y1="0.673828" x2="141.867" y2="131.495" gradientUnits="userSpaceOnUse">
<stop stop-color="#FFCC00"/>
<stop offset="1" stop-color="#FAB63F"/>
</linearGradient>
<linearGradient id="paint7_linear_121_212" x1="141.867" y1="0.673828" x2="141.867" y2="131.495" gradientUnits="userSpaceOnUse">
<stop stop-color="#FFCC00"/>
<stop offset="1" stop-color="#FAB63F"/>
</linearGradient>
<linearGradient id="paint8_linear_121_212" x1="141.867" y1="0.673828" x2="141.867" y2="131.495" gradientUnits="userSpaceOnUse">
<stop stop-color="#FFCC00"/>
<stop offset="1" stop-color="#FAB63F"/>
</linearGradient>
<linearGradient id="paint9_linear_121_212" x1="141.867" y1="0.673828" x2="141.867" y2="131.495" gradientUnits="userSpaceOnUse">
<stop stop-color="#FFCC00"/>
<stop offset="1" stop-color="#FAB63F"/>
</linearGradient>
<linearGradient id="paint10_linear_121_212" x1="141.867" y1="0.673828" x2="141.867" y2="131.495" gradientUnits="userSpaceOnUse">
<stop stop-color="#FFCC00"/>
<stop offset="1" stop-color="#FAB63F"/>
</linearGradient>
</defs>
</svg>
