<svg width="275" height="540" viewBox="0 0 275 540" fill="none" xmlns="http://www.w3.org/2000/svg">
<circle cx="5.88865" cy="267.365" r="72.9179" fill="#252D65" fill-opacity="0.3"/>
<path d="M4.58329 0C-55.1077 59.691 -61.9277 119.646 -56.4635 139.618C-42.8972 146.401 -26.0526 159.176 -21.9828 178.621C-9.54714 172.403 17.132 171.838 33.4113 178.621C37.3681 171.272 42.4564 150.358 69.0224 139.618C74.9011 75.4051 28.5124 19.7839 4.58329 0Z" fill="#252D65" fill-opacity="0.3"/>
<path d="M238.655 132.08C155.186 105.58 96.9542 127.987 81.2839 142.588C81.6053 158.352 78.0155 180.008 62.1568 193.071C73.8479 201.568 87.2227 225.912 88.8516 244.179C97.4927 244.312 119.112 238.996 141.756 258.365C203.437 233.052 232.055 163.628 238.655 132.08Z" fill="#252D65" fill-opacity="0.3"/>
<path d="M6.22854 539.66C68.361 477.944 75.46 415.956 69.7723 395.306C55.6511 388.293 38.1175 375.085 33.8812 354.98C20.9369 361.409 -6.83343 361.993 -23.7786 354.98C-27.8973 362.578 -33.1936 384.202 -60.8463 395.306C-66.9654 461.697 -18.6794 519.205 6.22854 539.66Z" fill="#252D65" fill-opacity="0.3"/>
<path d="M241.215 398.44C218.518 315.551 168.999 279.538 148.613 274.419C135.8 283.093 116.046 291.688 96.8271 285.593C96.0644 299.756 83.1466 323.759 68.9692 334.844C73.469 342.033 89.3806 357.005 85.5053 385.99C139.258 423.293 211.709 409.833 241.215 398.44Z" fill="#252D65" fill-opacity="0.3"/>
<path d="M137.846 35.8911C118.728 40.3582 85.6032 55.5853 71.4305 62.6404C77.2313 77.2622 87.6056 110.477 82.6965 126.363C99.2593 116.087 130.83 111.395 144.545 110.335C146.108 97.1518 146.958 63.8073 137.846 35.8911Z" fill="#252D65" fill-opacity="0.3"/>
<path d="M271.297 264.738C257.398 250.871 226.961 230.804 213.48 222.504C204.135 235.158 181.426 261.523 165.346 265.755C182.825 274.381 203.498 298.699 211.649 309.779C223.665 304.137 252.418 287.23 271.297 264.738Z" fill="#252D65" fill-opacity="0.3"/>
<path d="M142.522 497.038C146.931 477.907 147.847 441.461 147.755 425.629C132.072 424.398 97.6829 419.085 85.582 407.682C87.5148 427.078 77.8235 457.488 72.7362 470.268C83.8832 477.478 113.446 492.925 142.522 497.038Z" fill="#252D65" fill-opacity="0.3"/>
</svg>
