<svg width="1920" height="300" viewBox="0 0 1920 300" fill="none" xmlns="http://www.w3.org/2000/svg">
<path d="M-6.16283 202.191H-11V300L1920 286.206V195.294L1905.49 192.159L1899.68 188.397L1877.43 192.159H1867.76L1862.92 183.381L1853.25 184.635L1842.61 188.397H1827.13V185.889L1838.74 184.635L1845.51 179.619L1824.22 170.841H1811.65L1791.33 178.365L1788.43 170.841L1779.72 163.944L1766.18 170.841H1730.38L1707.16 162.69L1697.49 163.944L1691.69 176.484L1660.73 167.079L1655.89 170.841L1648.15 172.722L1626.87 162.69L1610.42 162.063L1599.78 157.048H1590.1L1586.23 162.69L1582.37 158.929L1579.46 154.54L1558.18 145.135L1524.32 147.643V150.778L1509.81 158.929H1502.07L1494.33 154.54L1486.59 150.778H1478.85L1470.14 155.794L1458.53 157.048L1442.09 162.69L1431.45 162.063L1425.64 155.794L1413.06 147.643L1389.85 145.135L1379.2 142L1371.46 146.389L1368.56 155.794L1361.79 149.524L1342.44 147.643L1333.73 149.524L1320.19 155.794V162.063L1326 162.69L1327.93 165.198H1318.26L1308.58 167.706L1312.45 172.722L1318.26 177.738H1312.45L1299.87 179.619L1291.17 180.873L1282.46 185.262L1273.75 187.77L1277.62 190.905L1279.56 193.413L1277.62 195.294V200.937H1269.88H1255.37H1227.32H1178.94H1166.37V195.294H1160.56V192.786L1166.37 190.905V187.77L1156.69 185.262L1149.92 183.381L1144.12 180.873L1142.18 183.381H1137.35H1133.48L1126.7 185.262L1124.77 187.77V194.04H1117.03V200.937L1037.7 201.563L1028.03 187.77L1012.55 164.571L990.295 155.167L960.305 147.016H944.826L898.389 162.69L874.203 200.937H782.297V198.429L784.232 194.667L772.622 187.77L762.948 185.262L758.111 183.381H751.339L746.501 188.397L726.185 189.024L719.413 191.532L715.544 195.921H712.641L713.609 200.937H696.195V198.429L686.521 194.667H679.748L675.879 198.429L666.204 196.548L657.498 201.563L626.54 199.683V196.548H621.702L613.963 194.667L616.865 192.786V185.889L605.256 181.5L592.679 178.365C592.357 177.111 591.325 174.603 589.777 174.603H574.298V172.095H585.907V167.079L582.038 162.69L574.298 159.556L566.559 158.302H554.949C552.047 158.72 545.469 159.932 542.373 161.437C539.277 162.941 536.203 162.899 535.054 162.69L533.666 159.556V157.048L530.764 152.032C528.506 152.032 523.604 151.781 522.057 150.778C520.509 149.775 518.832 151.196 518.187 152.032C517.219 152.659 514.898 153.913 513.35 153.913C511.802 153.913 510.125 156.003 509.48 157.048H497.871H493.034L488.196 158.302L478.522 162.69H469.815H458.206L452.401 161.437L446.597 159.556L438.857 157.048L434.02 155.167L427.248 153.913L420.476 152.032H416.606L411.769 153.913L407.899 157.048H394.355H386.616C382.746 155.376 373.652 150.903 368.234 146.389L343.081 147.643L332.439 152.032L327.602 155.167L320.83 161.437C318.25 162.899 313.091 165.575 313.091 164.571V161.437L309.221 159.556H303.416L301.481 161.437L290.84 164.571L285.035 165.825H279.23L277.296 164.571H273.426L268.589 167.706L259.882 170.841L250.207 175.23H243.435H237.631H234.728L231.826 177.738L227.956 180.873L221.184 182.126L211.51 177.738C210.22 177.321 206.286 176.735 200.868 177.738C199.32 178.24 198.933 178.783 198.933 178.992L196.999 182.126V185.263L193.129 190.278C192.161 189.651 189.453 187.771 186.357 185.263C183.261 182.755 183.777 184.218 184.422 185.263C183.132 185.263 177.65 184.635 166.041 182.126C154.431 179.618 159.913 181.081 164.106 182.126C162.493 182.754 159.075 184.259 158.301 185.263C157.527 186.266 152.174 186.517 149.594 186.517C148.627 187.144 146.298 188.398 144.725 188.398C142.758 188.398 143.79 193.413 143.79 194.667C143.79 195.921 149.594 197.175 151.529 197.175C153.077 197.175 153.464 199.264 153.464 200.309H149.594H143.79L136.05 202.191H119.604H112.832H110.897V200.309C109.284 199.264 105.866 197.175 105.092 197.175C104.318 197.175 100.9 194.667 99.2876 193.413C97.9977 193.204 94.8374 192.661 92.5155 192.159C90.1937 191.658 89.6132 190.696 89.6132 190.278H85.7435H81.8737H77.0366L74.1343 192.159L70.2645 192.786H60.5902C58.9778 192.577 54.7856 190.78 50.9158 185.263C47.0461 182.128 46.0787 184.009 42.2089 184.009C39.1131 184.009 40.919 184.845 42.2089 185.263L36.4043 186.517L30.5997 188.398L25.7625 190.278V192.159H22.8602L21.8928 192.786H18.9905L18.023 190.278H12.2184L9.31613 193.413H5.44639H3.51152V194.667L1.57665 197.175H-0.358216H-2.29309L-4.22796 198.429L-6.16283 202.191Z" fill="#1D2352"/>
<path d="M1086.52 208H815.086L817.346 135.455L814.898 136.777L810 134.133L817.346 128.276L821.867 127.52L823.374 93.515L819.607 94.2707L818.853 92.7593L824.881 89.5477L826.2 66.1217H822.809L826.2 64.2325C826.137 63.9806 826.162 62.0033 826.765 56.109C827.367 50.2147 834.676 47.1038 838.255 46.2852V44.2071H840.327V43.4514L841.457 43.0736L842.588 37.406L842.964 43.0736L844.66 43.4514V44.7738L847.297 45.1517L847.673 46.2852C854.003 48.5522 856.338 54.2828 856.715 56.8647V64.7993H858.599V66.1217H856.715L856.338 78.7793C859.804 78.7793 869.085 71.3485 873.291 67.6331V55.2852L870.278 56.7965L869.901 55.2852L873.857 53.2071C874.007 49.731 874.798 45.5873 875.175 43.95C878.792 36.2421 886.226 33.1892 889.491 33.1262V31.6149H891.186L891.751 30.4814H893.447V28.97L894.389 20.8465H895.707L896.272 28.97L897.968 31.426L899.851 31.6149V33.8819C903.761 33.6443 912.566 39.4624 915.709 45.3121C916.168 45.2881 916.716 45.2673 917.302 45.2495C921.076 22.4067 938.46 21.1402 948.45 16.436H952.594L954.666 14.5468L956.927 13.2243L958.057 12.8465V11.1462L959.564 10.3906L960.694 0H961.824L961.071 10.7684L962.201 11.3351V13.2243L962.954 13.4133L963.52 14.9246L965.968 15.3025V17.9473C987.97 21.5746 1000.5 31.1717 1003.27 47.9855C1006.73 38.0105 1013 35.8946 1015.7 36.0836V34.5722L1018.15 34.3833V32.8719H1020.59V31.1717L1022.48 27.96L1022.1 23.426L1023.04 22.1035V23.9927V32.8719L1024.36 33.0609V34.3833L1027.38 34.7611V36.4614C1037.77 37.5193 1039.12 49.119 1038.49 54.7866L1039.62 55.9201V57.2425H1038.49L1039.05 69.9759C1045 74.5 1051.12 79.5 1054.12 82V76.1344L1051.5 74.6231L1054.12 74.6231V68.7666V67.5C1054.12 58 1064.23 55.5258 1065.11 54.7866C1065.71 54.284 1066.63 53.0863 1066.63 53.0863L1067.19 47.4187H1068.14L1068.7 53.0863L1070.4 54.7866C1075.97 57.2047 1081.63 58 1081.5 67.5C1081.37 77 1081.63 68.7666 1081.63 68.7666V74.6231L1083.7 74.6231L1081.63 76.1344V93.1371L1086.52 95.9709V98.238L1083.7 97.1044V134.322L1095 142.445L1086.52 146.223V208Z" fill="#1D2352"/>
<path d="M695.27 185.618V207H706.657V185.618L709.188 183.105C709.188 177.654 711.465 167.758 720.577 171.785C729.688 175.813 742.09 170.107 747.152 166.751C747.996 166.333 751.202 163.484 757.276 155.434C763.35 147.385 760.651 147.047 758.541 147.885C757.276 147.885 753.226 148.137 747.152 149.146C741.078 150.154 744.621 144.533 747.152 141.596L750.949 140.341C750.949 140.341 753.508 138.342 753.479 136.568C753.441 134.103 749.824 134.82 748.418 132.795C746.436 129.941 749.621 126.434 747.152 123.99C743.972 120.842 737.628 129.316 735.763 125.248C734.944 123.462 735.763 120.217 735.763 120.217L744.621 107.638C745.043 106.381 745.633 103.111 744.621 100.093C743.609 97.0741 734.075 92.1269 729.435 90.0306L716.78 87.5151L711.719 84.9996C711.719 84.9996 706.518 83.2471 704.126 84.9996C701.99 86.5642 703.288 89.2532 701.595 91.2884C699.755 93.4994 695.27 95.0607 695.27 95.0607C683.123 84.9986 671.646 91.7067 667.427 96.3185L664.898 107.638L657.303 111.412C661.099 116.023 667.173 124.49 661.099 121.472C655.025 118.453 647.602 123.568 644.65 126.503C641.698 129.438 639.384 138.948 644.65 141.596C647.299 142.928 652.241 141.596 652.241 141.596C654.772 143.692 658.821 147.885 654.772 147.885C649.71 147.885 649.712 155.431 644.65 161.72C640.601 166.751 656.461 168.847 664.898 169.267C664.898 169.267 681.216 175.428 678.818 170.524C677.9 168.647 675.035 168.841 675.022 166.751C675.004 163.786 682.615 166.751 682.615 166.751L691.473 170.524L692.739 181.844L695.27 185.618Z" fill="#1D2352"/>
<path d="M1236.27 185.618V207H1247.66V185.618L1250.19 183.105C1250.19 177.654 1252.46 167.758 1261.58 171.785C1270.69 175.813 1283.09 170.107 1288.15 166.751C1288.99 166.333 1292.2 163.484 1298.27 155.434C1304.35 147.385 1301.65 147.047 1299.54 147.885C1298.27 147.885 1294.23 148.137 1288.15 149.146C1282.08 150.154 1285.62 144.533 1288.15 141.596L1291.95 140.341C1291.95 140.341 1294.51 138.342 1294.48 136.568C1294.44 134.103 1289.42 132.795 1289.42 132.795C1289.42 132.795 1290.62 126.434 1288.15 123.99C1284.97 120.842 1278.63 129.316 1276.76 125.248C1275.94 123.462 1276.47 122.16 1276.76 120.217C1277.64 114.274 1285.62 107.638 1285.62 107.638C1286.04 106.381 1286.63 103.111 1285.62 100.093C1284.61 97.0741 1275.07 92.1269 1270.43 90.0306L1257.78 87.5151L1252.72 84.9996C1252.72 84.9996 1247.52 83.2471 1245.12 84.9996C1242.99 86.5642 1244.29 89.2532 1242.59 91.2884C1240.75 93.4994 1248.42 105.123 1236.27 95.0607C1224.12 84.9986 1212.65 91.7067 1208.43 96.3185C1204.21 100.93 1205.9 107.638 1205.9 107.638C1205.9 107.638 1194.5 106.801 1198.3 111.412C1202.1 116.023 1208.17 124.49 1202.1 121.472C1196.02 118.453 1188.6 123.568 1185.65 126.503C1185.65 126.503 1180.38 138.948 1185.65 141.596C1188.3 142.928 1193.24 141.596 1193.24 141.596C1195.77 143.692 1199.82 147.885 1195.77 147.885C1190.71 147.885 1190.71 155.431 1185.65 161.72C1181.6 166.751 1197.46 168.847 1205.9 169.267C1205.9 169.267 1222.21 175.428 1219.82 170.524C1218.9 168.647 1216.02 166.751 1216.02 166.751H1223.61L1232.47 170.524L1233.74 181.844L1236.27 185.618Z" fill="#1D2352"/>
</svg>
