<svg width="388" height="86" viewBox="0 0 388 86" fill="none" xmlns="http://www.w3.org/2000/svg">
<path d="M143.699 25.5661V29.5472H140.797V48.0547H136.16V43.6482L134.484 42.7972L128.77 48.389H123.265V47.9635L130.954 41.0042L127.543 39.2416L123.355 42.5845H118V42.0375L123.983 37.2967C122.747 36.4863 121.809 35.5948 121.171 34.6223C120.533 33.6499 120.214 32.5457 120.214 31.3098C120.214 30.155 120.473 29.1218 120.992 28.2101C121.53 27.2984 122.288 26.5893 123.265 26.0828C124.263 25.556 125.429 25.2926 126.766 25.2926C128.122 25.2926 129.299 25.5459 130.296 26.0524C131.313 26.5386 132.091 27.2275 132.629 28.1189C133.168 28.9901 133.437 29.9828 133.437 31.0971C133.437 32.2114 133.228 33.194 132.809 34.0449C132.39 34.8756 131.682 35.7468 130.685 36.6585L136.16 39.4543V25.5661H143.699ZM124.582 31.5226C124.582 32.8192 125.33 33.8727 126.825 34.6831L127.125 34.8351C127.763 34.3488 128.261 33.8525 128.62 33.346C128.999 32.8395 129.189 32.2519 129.189 31.5833C129.189 30.9553 128.979 30.4184 128.561 29.9727C128.162 29.5067 127.613 29.2636 126.915 29.2433C126.237 29.2433 125.679 29.4662 125.24 29.9119C124.801 30.3576 124.582 30.8945 124.582 31.5226Z" fill="white"/>
<path d="M153.252 25.5661V29.5472H150.32V48.0547H145.623V29.5472H142.691V25.5661H145.773V24.4113C145.773 21.9599 144.935 20.7341 143.26 20.7341C141.505 20.7341 140.627 21.9599 140.627 24.4113V26.6298H136.08V24.6544C136.08 22.203 136.648 20.2682 137.785 18.85C138.922 17.4318 140.747 16.7227 143.26 16.7227C147.967 16.7227 150.32 19.3666 150.32 24.6544V25.5661H153.252Z" fill="white"/>
<path d="M179.855 29.5472H176.924V48.0547H172.227V41.2777L172.137 41.3993L166.213 48.8448H161.128L166.363 42.858C164.668 42.5541 163.371 41.7336 162.474 40.3964C161.576 39.039 161.128 37.3574 161.128 35.3517V29.5472H158.585V25.5661H179.855V29.5472ZM172.227 29.5472H165.824V35.3517C165.824 36.5268 166.084 37.4587 166.602 38.1476C167.141 38.8364 167.949 39.1808 169.026 39.1808C170.043 39.1808 170.831 38.8465 171.389 38.178C171.947 37.5094 172.227 36.6585 172.227 35.6252V29.5472Z" fill="white"/>
<path d="M181.763 48.0547V29.5472H178.831V25.5661H189.392V29.5472H186.46V48.0547H181.763Z" fill="white"/>
<path d="M216.207 29.5472H213.245V48.0547H208.549V29.5472H204.54V36.9624C204.54 38.9681 203.971 40.5889 202.834 41.8248C201.698 43.0404 200.062 43.6482 197.928 43.6482C195.794 43.6482 194.159 43.0201 193.022 41.764C191.885 40.5079 191.316 38.9073 191.316 36.9624V29.5472H188.385V25.5661H216.207V29.5472ZM199.932 29.5472H195.924V37.3878C195.924 38.0564 196.103 38.6034 196.462 39.0289C196.841 39.4341 197.34 39.6367 197.958 39.6367C198.596 39.6367 199.085 39.4341 199.424 39.0289C199.763 38.6237 199.932 38.0767 199.932 37.3878V29.5472Z" fill="white"/>
<path d="M240.843 29.5472H237.911V48.0547H233.185V36.9624H229.415C229.934 37.9146 230.193 38.958 230.193 40.0925C230.193 41.3284 229.904 42.392 229.325 43.2835C228.767 44.1749 228.009 44.8435 227.052 45.2892C226.114 45.7349 225.067 45.9578 223.91 45.9578C222.714 45.9578 221.597 45.7045 220.56 45.198C219.543 44.6713 218.725 43.9217 218.107 42.9492C217.488 41.9564 217.179 40.8016 217.179 39.4847C217.179 38.0868 217.498 36.9016 218.136 35.9291C218.775 34.9364 219.632 34.1969 220.709 33.7106C221.786 33.2244 222.983 32.9813 224.299 32.9813H233.185V29.5472H215.205V25.5661H240.843V29.5472ZM223.97 41.9159C224.708 41.9159 225.307 41.6931 225.765 41.2474C226.224 40.7814 226.453 40.1837 226.453 39.4543C226.453 38.725 226.224 38.1273 225.765 37.6613C225.307 37.1954 224.708 36.9624 223.97 36.9624C223.232 36.9624 222.624 37.1954 222.145 37.6613C221.667 38.1273 221.427 38.725 221.427 39.4543C221.427 40.1837 221.657 40.7814 222.115 41.2474C222.594 41.6931 223.212 41.9159 223.97 41.9159Z" fill="white"/>
<path d="M242.765 48.0547V29.5472H239.833V25.5661H250.394V29.5472H247.462V48.0547H242.765Z" fill="white"/>
<path d="M274.158 25.5661V29.5472H271.226V48.0547H266.529V42.2806C266.031 43.2126 265.213 43.9926 264.076 44.6206C262.959 45.2487 261.613 45.5627 260.037 45.5627C258.342 45.5627 256.846 45.2183 255.55 44.5295C254.273 43.8204 253.286 42.8175 252.588 41.5209C251.89 40.204 251.541 38.6642 251.541 36.9016C251.541 36.0709 251.591 35.3416 251.691 34.7135H254.293C256.009 34.7135 257.355 34.4603 258.332 33.9538C259.329 33.4473 259.828 32.5862 259.828 31.3706C259.828 30.7831 259.668 30.307 259.349 29.9423C259.03 29.5573 258.591 29.3649 258.033 29.3649C257.455 29.3649 256.996 29.5573 256.657 29.9423C256.318 30.307 256.148 30.8135 256.148 31.4618C256.148 31.7252 256.188 32.0797 256.268 32.5254H252.02C251.94 31.9987 251.9 31.6036 251.9 31.3402C251.9 30.0436 252.179 28.9394 252.738 28.0277C253.296 27.116 254.044 26.4373 254.981 25.9916C255.919 25.5256 256.956 25.2926 258.093 25.2926C259.309 25.2926 260.376 25.5459 261.294 26.0524C262.231 26.5589 262.959 27.2882 263.478 28.2404C263.996 29.1724 264.256 30.2563 264.256 31.4922C264.256 33.5182 263.558 35.1288 262.161 36.3242C260.785 37.5195 258.791 38.1172 256.178 38.1172H256.118C256.238 39.1099 256.677 39.9406 257.435 40.6092C258.192 41.2575 259.299 41.5816 260.755 41.5816C261.832 41.5816 262.81 41.3487 263.687 40.8827C264.565 40.3964 265.253 39.6873 265.751 38.7554C266.27 37.8032 266.529 36.6585 266.529 35.3213V25.5661H274.158Z" fill="white"/>
<path d="M306.225 29.5472H303.293V48.0547H298.596V37.2967H295.156V38.2084C295.156 39.5253 294.876 40.7003 294.318 41.7336C293.779 42.7668 293.002 43.5772 291.984 44.1648C290.967 44.7321 289.771 45.0157 288.394 45.0157C286.2 45.0157 284.505 44.3978 283.308 43.1619C282.132 41.9058 281.543 40.2546 281.543 38.2084V33.2244H286.27V38.0868C286.27 38.958 286.45 39.6367 286.809 40.1229C287.188 40.6092 287.726 40.8523 288.424 40.8523C289.102 40.8523 289.621 40.6092 289.98 40.1229C290.359 39.6367 290.548 38.958 290.548 38.0868V33.2244H298.596V29.5472H279.479V25.5661H306.225V29.5472Z" fill="white"/>
<path d="M315.779 25.5661V29.5472H312.847V48.0547H308.15V29.5472H305.218V25.5661H308.3V24.4113C308.3 21.9599 307.462 20.7341 305.787 20.7341C304.031 20.7341 303.154 21.9599 303.154 24.4113V26.6298H298.607V24.6544C298.607 22.203 299.175 20.2682 300.312 18.85C301.449 17.4318 303.274 16.7227 305.787 16.7227C310.493 16.7227 312.847 19.3666 312.847 24.6544V25.5661H315.779Z" fill="white"/>
<path d="M342.083 25.5661V29.5472H339.151V48.0547H334.574V43.9824C334.055 44.6915 333.397 45.2386 332.6 45.6235C331.822 45.9882 330.924 46.1705 329.907 46.1705C328.531 46.1705 327.334 45.8565 326.317 45.2284C325.32 44.6004 324.552 43.7292 324.013 42.6149C323.475 41.5006 323.206 40.2445 323.206 38.8465C323.206 37.4891 323.475 36.2837 324.013 35.2301C324.552 34.1564 325.33 33.3156 326.347 32.7078C327.364 32.1 328.551 31.7961 329.907 31.7961C330.904 31.7961 331.802 31.9784 332.6 32.3431C333.397 32.7078 334.055 33.2345 334.574 33.9234V29.5472H321.111V25.5661H342.083ZM331.193 42.3718C332.251 42.3718 333.078 42.0375 333.677 41.3689C334.275 40.7003 334.574 39.9102 334.574 38.9985V38.9681C334.574 38.0361 334.275 37.246 333.677 36.5977C333.078 35.9494 332.251 35.6252 331.193 35.6252C330.196 35.6252 329.379 35.9392 328.74 36.5673C328.122 37.1751 327.813 37.9754 327.813 38.9681C327.813 39.9811 328.122 40.8016 328.74 41.4297C329.379 42.0577 330.196 42.3718 331.193 42.3718Z" fill="white"/>
<path d="M343.998 48.0547V29.5472H341.066V25.5661H351.626V29.5472H348.695V48.0547H343.998Z" fill="white"/>
<path d="M378.442 29.5472H375.48V48.0547H370.783V29.5472H366.774V36.9624C366.774 38.9681 366.206 40.5889 365.069 41.8248C363.932 43.0404 362.297 43.6482 360.163 43.6482C358.029 43.6482 356.393 43.0201 355.256 41.764C354.12 40.5079 353.551 38.9073 353.551 36.9624V29.5472H350.619V25.5661H378.442V29.5472ZM362.167 29.5472H358.158V37.3878C358.158 38.0564 358.338 38.6034 358.697 39.0289C359.076 39.4341 359.574 39.6367 360.193 39.6367C360.831 39.6367 361.32 39.4341 361.659 39.0289C361.998 38.6237 362.167 38.0767 362.167 37.3878V29.5472Z" fill="white"/>
<path d="M388 25.5661V29.5472H385.068V48.0547H380.371V29.5472H377.439V25.5661H380.521V24.4113C380.521 21.9599 379.683 20.7341 378.008 20.7341C376.253 20.7341 375.375 21.9599 375.375 24.4113V26.6298H370.828V24.6544C370.828 22.203 371.396 20.2682 372.533 18.85C373.67 17.4318 375.495 16.7227 378.008 16.7227C382.715 16.7227 385.068 19.3666 385.068 24.6544V25.5661H388Z" fill="white"/>
<path d="M180.575 75.417H178.516V62.3453H180.575V75.417Z" fill="#FFF983"/>
<path d="M184.937 75.417H182.877V62.3453H184.937V75.417Z" fill="#FFF983"/>
<path d="M199.412 64.8217H197.79V73.7145H195.921V70.2531L195.76 70.436L192.546 74.01H190.501L193.247 71.1677C192.332 71.0832 191.631 70.7315 191.144 70.1124C190.667 69.4839 190.428 68.6771 190.428 67.6922V64.8217H189.04V63.3021H199.412V64.8217ZM195.921 64.8217H192.327V67.6922C192.327 68.3301 192.473 68.8319 192.765 69.1978C193.067 69.5542 193.52 69.7324 194.124 69.7324C194.689 69.7324 195.127 69.5589 195.438 69.2118C195.76 68.8554 195.921 68.4145 195.921 67.8892V64.8217Z" fill="#FFF983"/>
<path d="M195.847 63.3584C195.409 62.7017 195.053 62.228 194.781 61.9372C194.508 61.6464 194.235 61.4541 193.963 61.3603C193.68 61.2665 193.3 61.2196 192.823 61.2196H192.107V59.7422H192.779C193.558 59.7516 194.177 59.8313 194.635 59.9814C195.092 60.1315 195.545 60.4598 195.993 60.9663C196.441 61.4635 196.986 62.2609 197.629 63.3584H195.847Z" fill="#FFF983"/>
<path d="M211.112 64.8217H209.491V73.7145H207.592V68.7193H205.415V69.5495C205.415 70.5251 205.157 71.2849 204.641 71.829C204.135 72.3731 203.404 72.6451 202.45 72.6451C201.544 72.6451 200.814 72.3965 200.259 71.8993C199.713 71.4022 199.441 70.7455 199.441 69.9294C199.441 69.0664 199.728 68.4051 200.302 67.9455C200.887 67.4764 201.637 67.2419 202.552 67.2419H203.662V64.8217H198.506V63.3021H211.112V64.8217ZM207.592 64.8217H205.415V67.2419H207.592V64.8217ZM203.662 68.7193H202.611C202.182 68.7193 201.836 68.8272 201.573 69.043C201.32 69.2493 201.194 69.5401 201.194 69.9154C201.194 70.2812 201.306 70.572 201.53 70.7877C201.763 71.0035 202.06 71.1114 202.421 71.1114C202.81 71.1114 203.112 70.9801 203.326 70.7174C203.55 70.4547 203.662 70.0983 203.662 69.648V68.7193Z" fill="#FFF983"/>
<path d="M228.197 63.3021V64.8217H226.576V73.7145H224.706V71.1677C224.287 71.7305 223.649 72.0119 222.792 72.0119C222.685 72.0119 222.524 72.0025 222.31 71.9838C221.979 72.5278 221.531 72.964 220.966 73.2923C220.411 73.6207 219.759 73.7848 219.009 73.7848C217.791 73.7848 216.827 73.4518 216.116 72.7858C215.415 72.1198 215.065 71.1911 215.065 69.9998V68.0721H215.503C216.155 68.0721 216.652 67.922 216.993 67.6218C217.334 67.3216 217.504 66.8245 217.504 66.1303V64.8217H213.706V63.3021H228.197ZM219.052 72.223C219.861 72.223 220.465 71.9228 220.864 71.3224C220.572 71.0598 220.348 70.7408 220.192 70.3656C220.036 69.981 219.958 69.5589 219.958 69.0993C219.958 68.5458 220.08 68.0533 220.323 67.6218C220.567 67.1809 220.903 66.8386 221.331 66.5947C221.77 66.3508 222.257 66.2288 222.792 66.2288C223.63 66.2288 224.268 66.5102 224.706 67.0731V64.8217H219.403V66.3695C219.403 67.3076 219.179 68.0252 218.731 68.5224C218.283 69.0195 217.684 69.2962 216.934 69.3525V70.2108C216.934 70.8112 217.119 71.299 217.489 71.6742C217.869 72.04 218.39 72.223 219.052 72.223ZM223.201 70.6189C223.678 70.6189 224.048 70.4688 224.311 70.1686C224.574 69.8685 224.706 69.5167 224.706 69.1133C224.706 68.71 224.574 68.3629 224.311 68.0721C224.058 67.7719 223.688 67.6218 223.201 67.6218C222.753 67.6218 222.378 67.7578 222.076 68.0299C221.784 68.2925 221.638 68.649 221.638 69.0993C221.638 69.5777 221.784 69.9529 222.076 70.2249C222.378 70.4876 222.753 70.6189 223.201 70.6189Z" fill="#FFF983"/>
<path d="M232.568 63.3021V64.8217H230.946V73.7145H229.062V64.8217H227.44V63.3021H229.12C228.692 62.6642 228.341 62.2046 228.068 61.9232C227.806 61.6324 227.538 61.4448 227.265 61.3603C226.992 61.2665 226.617 61.2196 226.14 61.2196H225.424V59.7422H226.096C226.875 59.7516 227.489 59.8313 227.937 59.9814C228.395 60.1315 228.843 60.4551 229.281 60.9523C229.729 61.4401 230.274 62.2233 230.917 63.3021H232.568Z" fill="#FFF983"/>
<path d="M242.597 64.8217V66.4399C243.191 66.6556 243.663 67.0355 244.014 67.5796C244.374 68.1143 244.555 68.7756 244.555 69.5636C244.555 70.2484 244.413 70.8581 244.131 71.3928C243.849 71.9275 243.43 72.3449 242.875 72.6451C242.329 72.9453 241.667 73.0954 240.888 73.0954C240.81 73.0954 240.645 73.086 240.391 73.0672V71.4772L240.786 71.5054C241.36 71.5054 241.813 71.3318 242.144 70.9847C242.475 70.6377 242.641 70.1733 242.641 69.5917C242.641 69.0758 242.505 68.6537 242.232 68.3254C241.969 67.997 241.594 67.8329 241.107 67.8329C240.591 67.8329 240.201 68.0205 239.938 68.3957C239.685 68.7616 239.559 69.2447 239.559 69.845V70.1405H237.981V69.845C237.981 69.254 237.854 68.7709 237.601 68.3957C237.348 68.0205 236.973 67.8329 236.476 67.8329C235.97 67.8329 235.58 67.997 235.308 68.3254C235.035 68.6443 234.899 69.0664 234.899 69.5917C234.899 70.1733 235.064 70.6377 235.395 70.9847C235.726 71.3318 236.179 71.5054 236.754 71.5054L237.148 71.4772V73.0672C236.895 73.086 236.73 73.0954 236.652 73.0954C235.882 73.0954 235.22 72.9453 234.665 72.6451C234.11 72.3355 233.691 71.9181 233.409 71.3928C233.126 70.8581 232.985 70.2484 232.985 69.5636C232.985 68.8507 233.126 68.2456 233.409 67.7485C233.691 67.2513 234.076 66.8761 234.563 66.6228C235.059 66.3695 235.61 66.2429 236.213 66.2429C236.885 66.2429 237.426 66.407 237.835 66.7354C238.254 67.0637 238.556 67.4858 238.741 68.0017H238.784C238.95 67.5702 239.189 67.2044 239.5 66.9042C239.822 66.604 240.235 66.4024 240.742 66.2992V64.8217H231.816V63.3021H245.709V64.8217H242.597Z" fill="#FFF983"/>
<path d="M253.559 67.664C252.917 67.664 252.396 67.8235 251.996 68.1424C251.597 68.4614 251.397 68.907 251.397 69.4792C251.397 69.9951 251.558 70.4078 251.88 70.7174C252.201 71.0176 252.629 71.1677 253.165 71.1677C253.603 71.1677 253.978 71.0363 254.29 70.7737C254.611 70.511 254.772 70.1358 254.772 69.648H256.51V74.0944H254.67V71.7727C254.455 72.0447 254.173 72.2558 253.822 72.4059C253.472 72.5466 253.073 72.617 252.625 72.617C252.04 72.617 251.509 72.495 251.032 72.2511C250.555 72.0072 250.175 71.6461 249.893 71.1677C249.61 70.6893 249.469 70.1077 249.469 69.4229C249.469 68.7193 249.635 68.119 249.966 67.6218C250.307 67.1153 250.769 66.7354 251.354 66.4821C251.948 66.2288 252.62 66.1022 253.37 66.1022H254.1V64.8217H248.301V63.3021H257.84L257.825 64.8217H255.999V67.664H253.559Z" fill="#FFF983"/>
<path d="M254.066 63.3584C253.628 62.7017 253.272 62.228 253 61.9372C252.727 61.6464 252.454 61.4541 252.182 61.3603C251.899 61.2665 251.519 61.2196 251.042 61.2196H250.326V59.7422H250.998C251.777 59.7516 252.396 59.8313 252.854 59.9814C253.311 60.1315 253.764 60.4598 254.212 60.9663C254.66 61.4635 255.205 62.2609 255.848 63.3584H254.066Z" fill="#FFF983"/>
<path d="M267.325 63.3021V64.8217H265.718V73.7145H263.877V71.4913C263.624 71.8571 263.283 72.1432 262.855 72.3496C262.436 72.556 261.954 72.6592 261.409 72.6592C260.747 72.6592 260.162 72.5185 259.656 72.237C259.159 71.9462 258.774 71.5476 258.502 71.041C258.239 70.5345 258.107 69.9529 258.107 69.2962C258.107 68.6678 258.244 68.1049 258.516 67.6078C258.789 67.1106 259.174 66.726 259.67 66.4539C260.177 66.1725 260.756 66.0318 261.409 66.0318C261.964 66.0318 262.451 66.135 262.87 66.3414C263.288 66.5478 263.624 66.8339 263.877 67.1997V64.8217H256.939V63.3021H267.325ZM261.905 71.2099C262.324 71.2099 262.68 71.1208 262.972 70.9425C263.274 70.7643 263.498 70.5345 263.644 70.2531C263.8 69.9716 263.877 69.6762 263.877 69.3666V69.3525C263.877 68.846 263.702 68.4098 263.352 68.0439C263.011 67.6781 262.529 67.4952 261.905 67.4952C261.341 67.4952 260.873 67.664 260.503 68.0017C260.143 68.3394 259.963 68.785 259.963 69.3385C259.963 69.9013 260.143 70.3562 260.503 70.7033C260.873 71.041 261.341 71.2099 261.905 71.2099Z" fill="#FFF983"/>
<path d="M263.774 63.3584C263.336 62.7017 262.98 62.228 262.708 61.9372C262.435 61.6464 262.162 61.4541 261.89 61.3603C261.607 61.2665 261.227 61.2196 260.75 61.2196H260.034V59.7422H260.706C261.486 59.7516 262.104 59.8313 262.562 59.9814C263.019 60.1315 263.472 60.4598 263.92 60.9663C264.368 61.4635 264.914 62.2609 265.556 63.3584H263.774Z" fill="#FFF983"/>
<path d="M282.433 64.8217H280.796V73.7145H278.927V69.2259H272.967V70.8581C272.967 71.2896 273.069 71.6367 273.273 71.8993C273.478 72.162 273.785 72.2933 274.194 72.2933C274.573 72.2933 274.871 72.1714 275.085 71.9275C275.299 71.6836 275.406 71.3693 275.406 70.9847V70.8018H277.218C277.227 70.8769 277.232 70.966 277.232 71.0692C277.232 71.9228 276.964 72.5982 276.429 73.0954C275.893 73.5925 275.158 73.8411 274.223 73.8411C273.23 73.8411 272.46 73.5597 271.915 72.9969C271.369 72.4247 271.097 71.6836 271.097 70.7737V67.9314H272.28C273.059 67.9314 273.629 67.7532 273.989 67.3967C274.349 67.0309 274.53 66.529 274.53 65.8911V64.8217H269.767V63.3021H282.433V64.8217ZM278.927 64.8217H276.399V65.8911C276.399 66.604 276.229 67.2232 275.888 67.7485H278.927V64.8217Z" fill="#FFF983"/>
<path d="M292.34 63.3021V64.8217H290.733V73.7145H288.907V71.5898C288.663 71.9369 288.327 72.2136 287.899 72.42C287.47 72.617 286.974 72.7154 286.409 72.7154C285.737 72.7154 285.128 72.5747 284.583 72.2933C284.047 72.0025 283.624 71.5992 283.312 71.0832C283 70.5579 282.844 69.9623 282.844 69.2962C282.844 68.6396 282.995 68.058 283.297 67.5515C283.609 67.0449 284.033 66.6509 284.568 66.3695C285.104 66.0881 285.708 65.9474 286.38 65.9474C286.935 65.9474 287.422 66.0459 287.84 66.2429C288.269 66.4399 288.624 66.7072 288.907 67.0449V64.8217H281.676V63.3021H292.34ZM286.774 67.1434C286.199 67.1434 285.708 67.3029 285.299 67.6218L288.761 70.3093C288.926 69.9716 289.009 69.6293 289.009 69.2822C289.009 68.907 288.921 68.5552 288.746 68.2269C288.571 67.8985 288.313 67.6359 287.972 67.4389C287.641 67.2419 287.241 67.1434 286.774 67.1434ZM284.495 69.2962C284.495 69.7278 284.597 70.103 284.802 70.4219C285.006 70.7408 285.284 70.9847 285.635 71.1536C285.985 71.3224 286.365 71.4069 286.774 71.4069C287.358 71.4069 287.855 71.2427 288.264 70.9144L284.773 68.2269C284.588 68.5552 284.495 68.9116 284.495 69.2962Z" fill="#FFF983"/>
<path d="M300.093 67.6218C299.46 67.6218 298.968 67.7532 298.617 68.0158C298.267 68.2691 298.091 68.6443 298.091 69.1415C298.091 69.5824 298.232 69.9388 298.515 70.2108C298.807 70.4735 299.201 70.6048 299.698 70.6048C300.127 70.6048 300.497 70.4782 300.808 70.2249C301.13 69.9716 301.29 69.6246 301.29 69.1837H302.926V77.1055H301.188V75.3185C300.964 75.6187 300.672 75.8439 300.312 75.9939C299.961 76.1534 299.562 76.2331 299.114 76.2331C298.549 76.2331 298.057 76.1159 297.638 75.8814C297.22 75.6469 296.898 75.3232 296.674 74.9105C296.45 74.5071 296.338 74.0522 296.338 73.5456C296.338 73.0578 296.445 72.6216 296.66 72.237C296.874 71.8524 297.171 71.5476 297.551 71.3224C297.142 71.0973 296.82 70.7878 296.587 70.3938C296.353 69.9998 296.236 69.5308 296.236 68.9867C296.236 68.058 296.567 67.3451 297.229 66.8479C297.901 66.3508 298.802 66.1022 299.932 66.1022H300.735V64.8217H294.936V63.3021H304.431V64.8217H302.634V67.6218H300.093ZM301.188 71.2239C300.808 71.6742 300.234 71.9369 299.464 72.0119C299.026 72.0494 298.676 72.1995 298.413 72.4622C298.159 72.7154 298.033 73.0438 298.033 73.4471C298.033 73.8786 298.179 74.2257 298.471 74.4884C298.763 74.751 299.138 74.8823 299.596 74.8823C300.093 74.8823 300.482 74.7323 300.765 74.4321C301.047 74.1413 301.188 73.7989 301.188 73.4049V71.2239Z" fill="#FFF983"/>
<path d="M305.299 73.7145V64.8217H303.677V63.3021H308.805V64.8217H307.183V73.7145H305.299Z" fill="#FFF983"/>
<path d="M311.238 69.2962V70.8862C311.238 71.3084 311.336 71.6508 311.53 71.9134C311.735 72.1667 312.032 72.2933 312.422 72.2933C312.782 72.2933 313.064 72.1761 313.269 71.9416C313.483 71.6977 313.59 71.3787 313.59 70.9847V70.633H315.402C315.411 70.7174 315.416 70.8159 315.416 70.9285C315.416 71.8196 315.153 72.5278 314.627 73.0531C314.101 73.5785 313.376 73.8411 312.451 73.8411C311.457 73.8411 310.693 73.5597 310.157 72.9969C309.631 72.434 309.368 71.7024 309.368 70.8018V67.8188H310.873C311.652 67.8188 312.217 67.65 312.568 67.3123C312.928 66.9652 313.108 66.4586 313.108 65.7926V64.8217H308.039V63.3021H316.424V64.8217H314.993V65.7926C314.993 68.1284 313.848 69.2962 311.56 69.2962H311.238Z" fill="#FFF983"/>
<path d="M322.61 75.417H320.551V62.3453H322.61V75.417Z" fill="#FFF983"/>
<path d="M326.972 75.417H324.913V62.3453H326.972V75.417Z" fill="#FFF983"/>
<path d="M8.65637 80.737L14.9208 72.6517L0 84.495C8.08687 86.317 15.6042 84.0395 27.6776 78.5734C37.3363 74.2005 49.926 76.144 55.0135 77.6624C55.3552 78.3456 56.6081 79.7577 58.8861 79.9399C61.1641 80.1221 62.1892 78.4975 62.417 77.6624C78.2718 75.7492 86.8674 77.4726 89.1834 78.5734C107.863 86.6814 116.178 85.8236 118 84.3811L102.851 72.6517L109.23 80.737C105.927 80.737 101.598 79.7121 89.1834 73.7905C76.7683 67.8689 65.1506 74.7015 62.0753 76.9791C59.6151 78.8011 57.0257 77.7382 56.0386 76.9791C51.5965 73.5248 39.7054 68.0511 27.6776 73.7905C15.6498 79.5299 9.9852 80.8129 8.65637 80.737Z" fill="#FFF983"/>
<path d="M98.1749 69.7409L91.6022 64.0977L105.768 70.9824C103.237 72.3368 95.7498 74.3909 86.0494 71.7725C76.3489 69.154 64.9335 73.2397 60.4383 75.6098C64.8579 67.7093 79.9299 66.6484 86.0494 68.2736C91.6022 69.7484 95.6818 70.0042 98.1749 69.7409Z" fill="#FF8AC8"/>
<path d="M19.4637 69.7409L26.0365 64.0977L11.8711 70.9824C14.402 72.3368 21.8889 74.3909 31.5893 71.7725C41.2898 69.154 52.7052 73.2397 57.2003 75.6098C52.7807 67.7093 37.7088 66.6484 31.5893 68.2736C26.0365 69.7484 21.9569 70.0042 19.4637 69.7409Z" fill="#FF8AC8"/>
<path d="M87.7333 62.8791L81.3732 56.1783L90.1184 60.6077L93.2984 62.4248C91.7673 64.1153 87.7333 66.5135 76.8302 66.5135C70.8109 66.5135 62.7472 71.17 60.8164 73.4414C64.3372 67.3085 69.1106 64.3191 74.1045 64.0148C78.636 63.7387 85.9428 63.7176 87.7333 62.8791Z" fill="#57B7FF"/>
<path d="M30.097 61.95L37.2116 53.6695L27.8599 59.3508L24.4408 61.6629C25.8559 63.6084 29.7696 66.2833 40.9314 65.7845C47.0935 65.5092 54.9291 70.6923 56.701 73.3123C53.6492 66.1609 49.0318 62.815 43.9469 62.6807C39.3327 62.5588 31.8544 62.8678 30.097 61.95Z" fill="#57B7FF"/>
<path d="M60.3663 53.8651C60.5443 53.6192 60.8853 53.3514 61.3512 53.0827C64.2856 51.2231 72.765 47.8283 78.5665 52.1937C84.2833 56.4954 79.7203 60.4387 76.8916 61.6644L59.3613 69.1296C61.2595 67.6812 65.0559 63.8929 68.4056 62.333C74.1002 59.6812 77.7295 57.953 76.5567 54.8678C74.4015 49.1983 64.6831 51.1615 61.3512 53.0827C60.8405 53.4064 60.4977 53.6835 60.3663 53.8651Z" fill="#EAFF78"/>
<path d="M43.9057 59.5319C37.3375 55.9257 39.5324 52.2149 41.889 50.5996C40.3686 51.1631 37.988 52.4577 37.7851 55.4749C37.52 59.4192 42.7273 61.3726 45.6161 62.3493C45.6161 62.3493 50.1718 64.0447 53.0281 65.2794C55.9662 66.5494 60.44 68.7729 60.44 68.7729C58.3875 65.7301 51.3176 62.8001 51.3176 62.8001C51.3176 62.8001 46.4042 60.9038 43.9057 59.5319Z" fill="#EAFF78"/>
<path d="M20.9551 55.0302L38.3318 49.9194L36.7417 47.0801L20.9551 55.0302Z" fill="url(#paint0_linear_319_302)"/>
<path d="M38.7973 52.7568C36.5701 49.3861 35.0498 45.081 34.8499 41.0397C34.65 36.9984 35.5386 32.9778 37.4222 29.4017C39.3058 25.8256 42.1146 22.8266 45.5523 20.7208C48.99 18.615 52.9293 17.4805 56.9549 17.4369C60.9805 17.3932 64.9433 18.4421 68.4254 20.4729C71.9074 22.5037 74.7799 25.4411 76.7397 28.9755C78.6996 32.51 79.6744 36.5104 79.5612 40.5551C79.4481 44.5998 78.7951 47.6956 76.6407 51.1138C76.6407 51.1138 75.533 50.7244 74.8391 50.5125C74.1326 50.2967 72.9824 50.1506 72.9824 50.1506C74.792 47.2795 75.8867 43.8513 75.9817 40.4539C76.0768 37.0566 75.258 33.6964 73.6118 30.7276C71.9656 27.7589 69.5529 25.2916 66.6281 23.5858C63.7034 21.8801 60.3748 20.9991 56.9935 21.0357C53.6122 21.0724 50.3033 22.0253 47.4158 23.794C44.5283 25.5628 42.1691 28.0818 40.587 31.0856C39.0049 34.0893 38.2584 37.4665 38.4263 40.861C38.5943 44.2555 40.0202 47.77 41.8909 50.6012C41.8909 50.6012 40.6323 51.1779 39.9984 51.5925C39.4042 51.9812 38.7973 52.7568 38.7973 52.7568Z" fill="#FFCC00"/>
<path d="M18.1152 40.2656L35.3783 41.8556V37.9941L18.1152 40.2656Z" fill="url(#paint1_linear_319_302)"/>
<path d="M20.8398 25.049L36.1722 33.1126L37.6487 29.9326L20.8398 25.049Z" fill="url(#paint2_linear_319_302)"/>
<path d="M30.0393 12.1972L40.3744 25.5989L42.873 23.0046L30.0393 12.1972Z" fill="url(#paint3_linear_319_302)"/>
<path d="M42.1934 3.12695L47.5313 19.9358L50.7113 18.6865L42.1934 3.12695Z" fill="url(#paint4_linear_319_302)"/>
<path d="M57.7714 0.402344L55.8574 17.5678H59.5728L57.7714 0.402344Z" fill="url(#paint5_linear_319_302)"/>
<path d="M72.408 4.01613L64.5267 18.5842L67.7918 20.0523L72.408 4.01613Z" fill="url(#paint6_linear_319_302)"/>
<path d="M85.5808 12.0342L71.9576 22.9885L74.4345 25.5859L85.5808 12.0342Z" fill="url(#paint7_linear_319_302)"/>
<path d="M94.1376 24.6825L77.2493 29.9902L78.6003 33.3781L94.1376 24.6825Z" fill="url(#paint8_linear_319_302)"/>
<path d="M96.9523 39.9281L79.501 38.1212V41.848L96.9523 39.9281Z" fill="url(#paint9_linear_319_302)"/>
<path d="M93.5746 54.835L78.6003 46.5911L76.7989 49.979L93.5746 54.835Z" fill="url(#paint10_linear_319_302)"/>
<circle cx="57.7206" cy="41.5506" r="4.5311" fill="#FF5076"/>
<path d="M43.3522 33.3794C44.7859 38.4252 47.8336 40.6094 49.0829 40.9172C49.8616 40.3861 51.0646 39.8584 52.2431 40.2258C52.2819 39.3627 53.0585 37.8976 53.9192 37.2193C53.6401 36.7822 52.6589 35.8732 52.8798 34.1063C49.5724 31.8444 45.15 32.6792 43.3522 33.3794Z" fill="#57B7FF"/>
<path d="M57.64 24.9355C53.9308 28.6447 53.507 32.3703 53.8466 33.6114C54.6896 34.0329 55.7363 34.8267 55.9892 36.035C56.762 35.6486 58.4198 35.6135 59.4314 36.035C59.6773 35.5784 59.9934 34.2787 61.6442 33.6114C62.0095 29.6212 59.127 26.1649 57.64 24.9355Z" fill="#FFBA00"/>
<path d="M72.1842 33.1419C66.9975 31.4952 63.379 32.8876 62.4053 33.7949C62.4252 34.7744 62.2022 36.1202 61.2167 36.9319C61.9432 37.4599 62.7743 38.9726 62.8755 40.1077C63.4125 40.116 64.7559 39.7856 66.163 40.9892C69.9958 39.4163 71.7742 35.1023 72.1842 33.1419Z" fill="#57B7FF"/>
<path d="M49.15 27.2559C48.8409 28.4361 48.7168 30.6981 48.6934 31.6816C49.6651 31.787 51.7914 32.1804 52.522 32.911C52.4377 31.7027 53.0957 29.8317 53.4352 29.0472C52.7561 28.5789 50.9484 27.565 49.15 27.2559Z" fill="#FF5076"/>
<path d="M65.9202 27.1675C64.7322 27.4451 62.6738 28.3913 61.7931 28.8297C62.1536 29.7383 62.7982 31.8023 62.4932 32.7894C63.5224 32.1508 65.4842 31.8593 66.3364 31.7934C66.4336 30.9742 66.4864 28.9022 65.9202 27.1675Z" fill="#FF5076"/>
<path d="M74.2133 41.3847C73.3496 40.523 71.4582 39.276 70.6205 38.7602C70.0398 39.5465 68.6287 41.1849 67.6295 41.4478C68.7157 41.9838 70.0002 43.495 70.5067 44.1835C71.2534 43.8329 73.0401 42.7823 74.2133 41.3847Z" fill="#FF5076"/>
<path d="M41.0535 41.7173C41.9232 42.5728 43.8232 43.8065 44.6646 44.3164C45.2397 43.526 46.6393 41.8778 47.6367 41.6079C46.5468 41.0795 45.2516 39.5774 44.7403 38.8925C43.9961 39.2483 42.2168 40.3114 41.0535 41.7173Z" fill="#FF5076"/>
<path d="M54.6392 51.6595L60.9778 55.0726H53.664C52.5913 55.0726 50.4654 54.9166 50.9335 52.7322C51.4016 50.5478 53.599 51.1069 54.6392 51.6595Z" fill="white"/>
<path d="M60.8786 54.0957L58.8307 52.8279L61.4637 51.5602C63.1215 50.7801 64.7192 51.6105 64.4483 53.6794C64.1775 55.7483 61.4805 54.6191 60.8786 54.0957Z" fill="white"/>
<path d="M60.2934 50.6852V48.6373L62.0487 50.6852C62.3413 51.0428 63.2579 51.7189 64.5842 51.5629C65.7544 51.4252 65.5593 50.0513 64.8767 49.71C64.1941 49.3687 63.609 49.6125 63.609 49.6125L60.2934 44.9317H58.6356V43.7615C60.976 42.7863 59.8058 40.3484 58.8306 39.7633L58.2455 39.5682L57.6604 39.4707L57.0753 39.5682L56.4902 39.7633C54.3448 41.226 55.6126 43.4689 56.4902 43.859V44.9317H54.8324L51.3218 49.6125C51.3218 49.6125 50.8342 49.3936 50.1516 49.8444C49.469 50.2951 49.4353 51.4687 50.7367 51.7579C51.6144 51.9529 52.8496 51.3678 53.1746 50.9777L55.0275 48.6373V50.9777L57.8555 52.148L60.2934 50.6852Z" fill="white"/>
<defs>
<linearGradient id="paint0_linear_319_302" x1="29.6434" y1="47.0801" x2="29.6434" y2="55.0302" gradientUnits="userSpaceOnUse">
<stop stop-color="#FFCC00"/>
<stop offset="1" stop-color="#FAB63F"/>
</linearGradient>
<linearGradient id="paint1_linear_319_302" x1="26.7468" y1="37.9941" x2="26.7468" y2="41.8556" gradientUnits="userSpaceOnUse">
<stop stop-color="#FFCC00"/>
<stop offset="1" stop-color="#FAB63F"/>
</linearGradient>
<linearGradient id="paint2_linear_319_302" x1="31.8564" y1="12.1973" x2="31.8564" y2="33.1126" gradientUnits="userSpaceOnUse">
<stop stop-color="#FFCC00"/>
<stop offset="1" stop-color="#FAB63F"/>
</linearGradient>
<linearGradient id="paint3_linear_319_302" x1="31.8564" y1="12.1973" x2="31.8564" y2="33.1126" gradientUnits="userSpaceOnUse">
<stop stop-color="#FFCC00"/>
<stop offset="1" stop-color="#FAB63F"/>
</linearGradient>
<linearGradient id="paint4_linear_319_302" x1="46.4524" y1="3.12695" x2="46.4524" y2="19.9358" gradientUnits="userSpaceOnUse">
<stop stop-color="#FFCC00"/>
<stop offset="1" stop-color="#FAB63F"/>
</linearGradient>
<linearGradient id="paint5_linear_319_302" x1="76.4049" y1="0.402344" x2="76.4049" y2="54.835" gradientUnits="userSpaceOnUse">
<stop stop-color="#FFCC00"/>
<stop offset="1" stop-color="#FAB63F"/>
</linearGradient>
<linearGradient id="paint6_linear_319_302" x1="76.4049" y1="0.402344" x2="76.4049" y2="54.835" gradientUnits="userSpaceOnUse">
<stop stop-color="#FFCC00"/>
<stop offset="1" stop-color="#FAB63F"/>
</linearGradient>
<linearGradient id="paint7_linear_319_302" x1="76.4049" y1="0.402344" x2="76.4049" y2="54.835" gradientUnits="userSpaceOnUse">
<stop stop-color="#FFCC00"/>
<stop offset="1" stop-color="#FAB63F"/>
</linearGradient>
<linearGradient id="paint8_linear_319_302" x1="76.4049" y1="0.402344" x2="76.4049" y2="54.835" gradientUnits="userSpaceOnUse">
<stop stop-color="#FFCC00"/>
<stop offset="1" stop-color="#FAB63F"/>
</linearGradient>
<linearGradient id="paint9_linear_319_302" x1="76.4049" y1="0.402344" x2="76.4049" y2="54.835" gradientUnits="userSpaceOnUse">
<stop stop-color="#FFCC00"/>
<stop offset="1" stop-color="#FAB63F"/>
</linearGradient>
<linearGradient id="paint10_linear_319_302" x1="76.4049" y1="0.402344" x2="76.4049" y2="54.835" gradientUnits="userSpaceOnUse">
<stop stop-color="#FFCC00"/>
<stop offset="1" stop-color="#FAB63F"/>
</linearGradient>
</defs>
</svg>
