<svg width="76" height="76" viewBox="0 0 76 76" fill="none" xmlns="http://www.w3.org/2000/svg">
<path fill-rule="evenodd" clip-rule="evenodd" d="M10.1347 0.509766C5.01013 0.509766 1.10156 4.77119 1.10156 9.71662V66.2715C1.10156 71.2223 5.01013 75.4838 10.1347 75.4838H54.7847C59.9093 75.4838 63.8178 71.2223 63.8178 66.2715V10.0098C63.8178 7.49021 62.817 5.07385 61.0354 3.29225C59.2538 1.51066 56.8374 0.509766 54.3178 0.509766H10.1347Z" fill="#8FBFFA"/>
<path fill-rule="evenodd" clip-rule="evenodd" d="M5.17299 55.6426H1.10156V59.714V66.2826C1.10156 71.228 5.01013 75.4894 10.1347 75.4894H54.7847C59.9093 75.4894 63.8178 71.228 63.8178 66.2771V59.714V55.6426H5.17299Z" fill="#2859C5"/>
<path fill-rule="evenodd" clip-rule="evenodd" d="M15.3518 16.3223C14.452 16.3223 13.589 16.6797 12.9527 17.316C12.3164 17.9523 11.959 18.8153 11.959 19.7151C11.959 20.615 12.3164 21.478 12.9527 22.1142C13.589 22.7505 14.452 23.108 15.3518 23.108H28.8961C29.796 23.108 30.659 22.7505 31.2952 22.1142C31.9315 21.478 32.289 20.615 32.289 19.7151C32.289 18.8153 31.9315 17.9523 31.2952 17.316C30.659 16.6797 29.796 16.3223 28.8961 16.3223H15.3518ZM15.3518 31.8914C14.452 31.8914 13.589 32.2489 12.9527 32.8852C12.3164 33.5214 11.959 34.3844 11.959 35.2843C11.959 36.1841 12.3164 37.0471 12.9527 37.6834C13.589 38.3197 14.452 38.6771 15.3518 38.6771H22.1267C23.0265 38.6771 23.8895 38.3197 24.5258 37.6834C25.1621 37.0471 25.5196 36.1841 25.5196 35.2843C25.5196 34.3844 25.1621 33.5214 24.5258 32.8852C23.8895 32.2489 23.0265 31.8914 22.1267 31.8914H15.3518Z" fill="#2859C5"/>
<path d="M51.0381 40.1383C50.6461 40.5338 50.1419 40.7991 49.5941 40.8983L37.9335 42.9938C37.5059 43.0707 37.0662 43.0439 36.6511 42.9157C36.2361 42.7874 35.8579 42.5614 35.5483 42.2566C35.2387 41.9518 35.0068 41.5772 34.8721 41.1642C34.7374 40.7512 34.7038 40.3119 34.7741 39.8832L36.7229 28.038C36.8147 27.4766 37.0805 26.9582 37.4829 26.556L59.8269 4.32061C60.3316 3.81179 60.932 3.40794 61.5935 3.13234C62.255 2.85674 62.9646 2.71484 63.6812 2.71484C64.3978 2.71484 65.1074 2.85674 65.7689 3.13234C66.4304 3.40794 67.0308 3.81179 67.5355 4.32061L73.2898 10.0749C73.7986 10.5795 74.2024 11.18 74.478 11.8415C74.7536 12.503 74.8955 13.2125 74.8955 13.9292C74.8955 14.6458 74.7536 15.3554 74.478 16.0169C74.2024 16.6784 73.7986 17.2788 73.2898 17.7835L51.0381 40.1383Z" fill="#2859C5"/>
</svg>
