<svg width="76" height="76" viewBox="0 0 76 76" fill="none" xmlns="http://www.w3.org/2000/svg">
<path fill-rule="evenodd" clip-rule="evenodd" d="M68.1888 6.87871C68.1888 3.74643 65.5614 0.679286 62.1196 0.625H62.0979L16.8074 0.657571C15.3601 0.657079 13.9507 1.11929 12.7848 1.97671L7.57336 5.81471C7.40168 5.94079 7.26209 6.10551 7.16588 6.29554C7.06967 6.48557 7.01953 6.69557 7.01953 6.90857C7.01953 7.12157 7.06967 7.33158 7.16588 7.52161C7.26209 7.71164 7.40168 7.87635 7.57336 8.00243L12.7848 11.835C13.9465 12.6981 15.3579 13.1596 16.8128 13.1596L62.0979 13.1324H62.1196C65.5614 13.0781 68.1888 10.011 68.1888 6.87871Z" fill="#2859C5"/>
<path d="M9.35296 22.3555C8.63308 22.3555 7.94269 22.6414 7.43367 23.1505C6.92464 23.6595 6.63867 24.3499 6.63867 25.0698V64.0903C6.63867 64.8102 6.92464 65.5006 7.43367 66.0096C7.94269 66.5186 8.63308 66.8046 9.35296 66.8046C18.131 66.8046 23.8907 68.1238 27.8807 69.7252C31.4635 71.1638 33.7327 72.8575 35.7195 74.3449L36.3818 74.8389C36.8497 75.1862 37.4169 75.3737 37.9995 75.3737C38.5822 75.3737 39.1494 75.1862 39.6172 74.8389L40.2741 74.3503C42.2664 72.8629 44.5355 71.1638 48.1184 69.7252C52.1138 68.1238 57.8681 66.8046 66.6461 66.8046C67.366 66.8046 68.0564 66.5186 68.5654 66.0096C69.0744 65.5006 69.3604 64.8102 69.3604 64.0903V25.0698C69.3604 24.3499 69.0744 23.6595 68.5654 23.1505C68.0564 22.6414 67.366 22.3555 66.6461 22.3555C57.309 22.3555 50.849 23.7615 46.099 25.6669C43.2101 26.8349 40.487 28.3772 37.9995 30.254C35.5121 28.3772 32.789 26.8349 29.9001 25.6669C25.1501 23.7615 18.6901 22.3555 9.35296 22.3555Z" fill="#8FBFFA"/>
<path d="M34.6074 73.5192V27.9844L34.6888 28.0387C35.7047 28.6428 36.8667 28.9571 38.0486 28.9475C39.2305 28.9379 40.3872 28.6048 41.3931 27.9844V73.5192C40.797 73.9547 40.2052 74.3963 39.618 74.8438C39.1501 75.1911 38.5829 75.3786 38.0003 75.3786C37.4176 75.3786 36.8504 75.1911 36.3826 74.8438L35.7203 74.3444L34.6074 73.5192Z" fill="#2859C5"/>
</svg>
