<svg width="85" height="85" viewBox="0 0 85 85" fill="none" xmlns="http://www.w3.org/2000/svg">
<path fill-rule="evenodd" clip-rule="evenodd" d="M39.4172 41.3262C33.9116 41.3262 28.5566 41.7888 23.5331 42.2332H23.4706L21.9442 42.3711C17.4969 42.7639 13.8971 46.1511 13.2353 50.5663C12.6725 54.3263 12.0781 58.4616 12.0781 62.7346C12.0781 67.0138 12.6786 71.143 13.2353 74.9091C13.8971 79.3242 17.4969 82.7115 21.9442 83.1043L23.4766 83.236H23.5392C28.5566 83.6799 33.9116 84.1492 39.4172 84.1492C44.9227 84.1492 50.2838 83.6799 55.3079 83.2421L55.3704 83.236L56.8968 83.1043C61.3441 82.7115 64.9433 79.3242 65.6051 74.9091L65.6992 74.2643C68.064 75.5156 70.4416 76.892 72.2678 77.9867C75.4584 79.9016 80.0381 78.7061 81.3203 74.7087C83.8855 66.7011 83.823 59.1373 81.3021 50.9105C80.0629 46.8688 75.4402 45.5926 72.1932 47.5324C70.0603 48.8141 67.8952 50.0405 65.6992 51.2111L65.6051 50.5663C64.9433 46.1511 61.3441 42.7639 56.8968 42.3711L55.3638 42.2393L55.3012 42.2332C50.2844 41.7955 44.9288 41.3262 39.4172 41.3262Z" fill="#8FBFFA"/>
<path d="M19.355 35.9965C30.6035 35.9965 36.9342 29.678 36.9342 18.4294C36.9342 7.1809 30.6035 0.849609 19.355 0.849609C8.10646 0.849609 1.78125 7.18697 1.78125 18.4355C1.78125 29.684 8.10039 35.9965 19.355 35.9965Z" fill="#2859C5"/>
<path d="M58.7871 35.997C67.1766 35.997 71.8996 31.2795 71.8996 22.8839C71.8996 14.4884 67.1766 9.77148 58.7871 9.77148C50.3915 9.77148 45.668 14.4884 45.668 22.8839C45.668 31.2795 50.3915 35.997 58.7871 35.997Z" fill="#2859C5"/>
</svg>
