<svg width="76" height="76" viewBox="0 0 76 76" fill="none" xmlns="http://www.w3.org/2000/svg">
<path fill-rule="evenodd" clip-rule="evenodd" d="M51.3663 3.37679C46.5097 2.9968 41.6308 2.9968 36.7743 3.37679C36.1412 3.42391 35.5448 3.6914 35.0885 4.13275C34.6323 4.5741 34.3452 5.16139 34.2771 5.7925C34.0478 7.84923 33.9318 9.91703 33.9297 11.9865V25.5308C35.0317 25.0096 36.1445 24.5265 37.2628 24.0868C37.9326 23.8262 38.6783 23.8418 39.3365 24.1302C40.2377 24.5211 41.1551 24.9499 42.0725 25.4114V20.8676C45.1397 20.9328 48.1525 20.8459 51.3663 20.6071C51.9993 20.56 52.5958 20.2925 53.052 19.8511C53.5082 19.4098 53.7953 18.8225 53.8634 18.1914C54.3248 13.9354 54.3248 10.0485 53.8634 5.7925C53.7953 5.16139 53.5082 4.5741 53.052 4.13275C52.5958 3.6914 51.9993 3.42391 51.3663 3.37679Z" fill="#2859C5"/>
<path fill-rule="evenodd" clip-rule="evenodd" d="M37.2626 24.0871C37.9323 23.8265 38.678 23.8421 39.3363 24.1305C43.2123 25.8188 47.3 28.202 51.2628 30.6123C53.4831 31.9694 54.9217 34.32 55.1008 36.9257C55.166 37.816 55.2257 39.8517 55.28 41.5508V41.6811H65.5617H65.6648C67.5231 41.7388 69.3015 42.4496 70.6875 43.6887C72.0735 44.9278 72.9784 46.6158 73.2431 48.456C74.1714 55.296 74.1714 59.1123 73.2431 65.9523C72.9793 67.7923 72.0745 69.4803 70.6882 70.7186C69.3018 71.957 67.5229 72.6664 65.6648 72.7217C48.6028 73.3677 27.3934 73.3677 10.3368 72.7217C8.47957 72.6666 6.70129 71.958 5.31506 70.7207C3.92883 69.4834 3.02354 67.7968 2.75855 65.9577C1.83569 59.1177 1.83569 55.3014 2.75855 48.4614C3.02423 46.6032 3.94343 44.9005 5.3512 43.6589C6.75897 42.4173 8.56316 41.718 10.44 41.6865H20.7163L20.7217 41.5508C20.776 39.8463 20.8357 37.8051 20.9008 36.904C21.08 34.3254 22.4914 31.9803 24.7008 30.6285C28.756 28.1423 32.9523 25.7863 37.2626 24.0925V24.0871Z" fill="#8FBFFA"/>
<path fill-rule="evenodd" clip-rule="evenodd" d="M43.4294 73.1873V62.2215C43.4294 60.7818 42.8575 59.401 41.8394 58.383C40.8214 57.3649 39.4406 56.793 38.0008 56.793C36.5611 56.793 35.1803 57.3649 34.1623 58.383C33.1442 59.401 32.5723 60.7818 32.5723 62.2215V73.1873C36.1823 73.209 39.8194 73.209 43.4294 73.1873Z" fill="#2859C5"/>
<path fill-rule="evenodd" clip-rule="evenodd" d="M55.3613 41.6816V73.0262C58.9116 72.9502 62.3642 72.8471 65.6648 72.7222C67.5228 72.6669 69.3018 71.9575 70.6881 70.7192C72.0744 69.4808 72.9792 67.7929 73.243 65.9528C74.1713 59.1128 74.1713 55.2965 73.243 48.4565C72.9774 46.5983 72.0582 44.8956 70.6504 43.654C69.2426 42.4124 67.4384 41.7131 65.5616 41.6816H55.3613Z" fill="#2859C5"/>
<path fill-rule="evenodd" clip-rule="evenodd" d="M20.6403 41.6816V73.0262C17.09 72.9502 13.6374 72.8471 10.3368 72.7222C8.47957 72.6671 6.70129 71.9585 5.31506 70.7212C3.92883 69.484 3.02354 67.7973 2.75855 65.9582C1.83569 59.1182 1.83569 55.3019 2.75855 48.4619C3.02423 46.6037 3.94343 44.9011 5.3512 43.6594C6.75897 42.4178 8.56316 41.7185 10.44 41.6871H20.6403V41.6816Z" fill="#2859C5"/>
</svg>
