<svg width="79" height="79" viewBox="0 0 79 79" fill="none" xmlns="http://www.w3.org/2000/svg">
<path d="M39.4994 1.41016C27.6946 1.41016 18.0735 4.73944 11.4037 11.4037C4.73944 18.0735 1.41016 27.6946 1.41016 39.4994C1.41016 51.3043 4.73944 60.9254 11.4037 67.5952C18.0735 74.2594 27.6946 77.5887 39.4994 77.5887C51.3043 77.5887 60.9254 74.2594 67.5952 67.5952C74.2594 60.9254 77.5887 51.3043 77.5887 39.4994C77.5887 27.6946 74.2594 18.0735 67.5952 11.4037C60.9254 4.73944 51.3043 1.41016 39.4994 1.41016Z" fill="#8FBFFA"/>
<path fill-rule="evenodd" clip-rule="evenodd" d="M38.4831 16.7928C38.0122 16.7933 37.5463 16.8882 37.1127 17.0717C36.6791 17.2553 36.2866 17.5238 35.9584 17.8614C35.6302 18.1991 35.373 18.599 35.2019 19.0377C35.0307 19.4763 34.9491 19.9448 34.962 20.4155V41.531C33.8199 41.2579 32.6488 41.1252 31.4747 41.136C24.7315 41.136 20.9395 44.928 20.9395 51.6713C20.9395 58.4145 24.7315 62.2065 31.4747 62.2065C38.2235 62.2065 42.0155 58.4145 42.0155 51.6713V51.5753V23.9253L42.6814 23.9648C49.1707 24.3203 54.633 29.6303 54.8643 35.8148C54.8869 36.3904 54.8982 36.966 54.8982 37.5472C54.8982 38.4825 55.2697 39.3796 55.9311 40.041C56.5925 40.7024 57.4896 41.074 58.425 41.074C59.3603 41.074 60.2574 40.7024 60.9188 40.041C61.5802 39.3796 61.9517 38.4825 61.9517 37.5472C61.9517 36.87 61.9348 36.2098 61.9122 35.5496C61.5342 25.415 52.8837 17.4586 43.0651 16.9169C41.5411 16.8318 40.0151 16.7885 38.4887 16.7871L38.4831 16.7928Z" fill="#2859C5"/>
</svg>
