<svg width="76" height="76" viewBox="0 0 76 76" fill="none" xmlns="http://www.w3.org/2000/svg">
<path fill-rule="evenodd" clip-rule="evenodd" d="M38.0009 32.4517C44.2437 32.4517 47.756 28.9394 47.756 22.6965C47.756 16.4537 44.2437 12.9414 38.0009 12.9414C31.758 12.9414 28.2457 16.4537 28.2457 22.6965C28.2457 28.9394 31.758 32.4517 38.0009 32.4517ZM38.0009 38.624C34.2742 38.624 30.6391 39.7792 27.5962 41.9307C24.5532 44.0821 22.252 47.124 21.0094 50.6374C20.8655 51.0464 20.8216 51.484 20.8815 51.9134C20.9414 52.3429 21.1033 52.7518 21.3537 53.1058C21.604 53.4598 21.9356 53.7487 22.3205 53.9483C22.7055 54.1478 23.1327 54.2523 23.5663 54.2528H52.4409C52.8745 54.2523 53.3016 54.1478 53.6866 53.9483C54.0716 53.7487 54.4031 53.4598 54.6535 53.1058C54.9039 52.7518 55.0658 52.3429 55.1257 51.9134C55.1855 51.484 55.1417 51.0464 54.9977 50.6374C53.7548 47.1231 51.4528 44.0807 48.4088 41.9291C45.3647 39.7776 41.7285 38.6229 38.0009 38.624Z" fill="#2859C5"/>
<path fill-rule="evenodd" clip-rule="evenodd" d="M9.75543 64.9484C9.75543 63.8686 10.1844 62.833 10.9479 62.0694C11.7115 61.3059 12.747 60.877 13.8269 60.877H62.1737C63.2535 60.877 64.2891 61.3059 65.0527 62.0694C65.8162 62.833 66.2451 63.8686 66.2451 64.9484C66.2451 66.0282 65.8162 67.0638 65.0527 67.8273C64.2891 68.5909 63.2535 69.0198 62.1737 69.0198H59.6277V73.2052C59.6277 73.9251 59.3417 74.6155 58.8327 75.1245C58.3237 75.6336 57.6333 75.9195 56.9134 75.9195H19.0871C18.3673 75.9195 17.6769 75.6336 17.1679 75.1245C16.6588 74.6155 16.3729 73.9251 16.3729 73.2052V69.0198H13.8214C12.7416 69.0198 11.706 68.5909 10.9425 67.8273C10.179 67.0638 9.75543 66.0282 9.75543 64.9484Z" fill="#8FBFFA"/>
<path fill-rule="evenodd" clip-rule="evenodd" d="M71.245 11.1835L71.2178 11.0586C70.4199 5.59746 65.4147 1.79746 59.769 1.26546C52.7933 0.597746 45.0956 0.0820312 38.0058 0.0820312C30.9107 0.0820312 23.2076 0.603174 16.2373 1.26546C10.5753 1.79203 5.57014 5.59203 4.77756 11.0586L4.74499 11.1835C4.50678 12.3173 4.31302 13.4599 4.16413 14.6089C3.73843 18.0629 3.53535 21.5408 3.55614 25.0209C3.55614 29.5809 3.86013 33.066 4.16956 35.4329C4.31665 36.5818 4.50861 37.7244 4.74499 38.8583L4.77756 38.9777C5.49414 43.896 9.61985 47.468 14.5544 48.5212L14.6087 48.38C16.6557 42.6111 20.7568 37.7988 26.1281 34.8629C26.0771 34.8144 26.0264 34.7655 25.9761 34.7163C22.7027 31.4429 21.4541 27.0675 21.4541 22.6975C21.4541 18.3275 22.7027 13.9575 25.9761 10.684C29.2496 7.4106 33.6304 6.1566 38.0004 6.1566C42.3704 6.1566 46.7404 7.40517 50.0193 10.684C53.2927 13.9575 54.5413 18.3275 54.5413 22.6975C54.5413 27.0675 53.2927 31.4375 50.0193 34.7163C49.969 34.7637 49.9183 34.8108 49.8673 34.8575C55.2417 37.7936 59.3449 42.6082 61.3921 48.38L61.441 48.5212C66.381 47.4626 70.5013 43.896 71.2178 38.9832L71.245 38.8583C71.4836 37.7246 71.6774 36.5819 71.8259 35.4329C72.2538 31.979 72.4587 28.5011 72.4393 25.0209C72.4393 20.4609 72.1353 16.9757 71.8259 14.6089C71.6765 13.46 71.4827 12.3173 71.245 11.1835Z" fill="#8FBFFA"/>
</svg>
