<svg width="76" height="76" viewBox="0 0 76 76" fill="none" xmlns="http://www.w3.org/2000/svg">
<path fill-rule="evenodd" clip-rule="evenodd" d="M63.7849 58.3574V67.8574H19.6777C17.0544 67.8574 14.9277 65.7305 14.9277 63.1074C14.9277 60.4843 17.0544 58.3574 19.6777 58.3574H63.7849Z" fill="#2859C5"/>
<path fill-rule="evenodd" clip-rule="evenodd" d="M6.78516 12.2143V63.1071C6.78516 70.2278 12.5575 76 19.678 76H65.1423C67.3908 76 69.2137 74.1771 69.2137 71.9286C69.2137 69.6801 67.3908 67.8571 65.1423 67.8571H19.678C17.0547 67.8571 14.928 65.7302 14.928 63.1071C14.928 60.4841 17.0547 58.3571 19.678 58.3571H65.1423C67.3908 58.3571 69.2137 56.5342 69.2137 54.2857V12.2143C69.2137 5.46853 63.745 0 56.9994 0H18.9994C12.2537 0 6.78516 5.46853 6.78516 12.2143Z" fill="#8FBFFA"/>
<path d="M25.21 27.038H23.446V38H20.62V32.6H13.924V34.364C13.924 34.772 14.02 35.108 14.212 35.372C14.416 35.624 14.71 35.75 15.094 35.75C15.454 35.75 15.73 35.63 15.922 35.39C16.126 35.15 16.228 34.844 16.228 34.472V34.238H18.946C18.958 34.346 18.964 34.478 18.964 34.634C18.964 35.714 18.622 36.572 17.938 37.208C17.266 37.844 16.336 38.162 15.148 38.162C14.296 38.162 13.564 37.994 12.952 37.658C12.352 37.31 11.896 36.842 11.584 36.254C11.284 35.654 11.134 34.976 11.134 34.22V30.584H12.466C13.39 30.584 14.044 30.38 14.428 29.972C14.824 29.552 15.022 28.97 15.022 28.226V27.038H9.694V24.68H25.21V27.038ZM20.62 27.038H17.848V28.226C17.848 29.006 17.704 29.696 17.416 30.296H20.62V27.038ZM26.3643 38V27.038H24.6002V24.68H30.9543V27.038H29.1903V38H26.3643ZM38.4303 19.442C39.7023 19.442 40.8123 19.676 41.7603 20.144C42.7083 20.612 43.4403 21.266 43.9563 22.106C44.4723 22.946 44.7303 23.906 44.7303 24.986V25.31H41.9763V25.04C41.9763 24.32 41.8083 23.714 41.4723 23.222C41.1483 22.73 40.7163 22.364 40.1763 22.124C39.6363 21.872 39.0543 21.746 38.4303 21.746C37.4823 21.746 36.6723 21.992 36.0003 22.484C35.3403 22.976 34.9803 23.708 34.9203 24.68H36.7023V27.038H34.9383V38H32.1123V27.038H30.3483V24.68H32.1123C32.1603 23.624 32.4423 22.7 32.9583 21.908C33.4863 21.116 34.2183 20.51 35.1543 20.09C36.0903 19.658 37.1823 19.442 38.4303 19.442ZM41.8023 30.296C41.4783 30.296 41.2083 30.368 40.9923 30.512C40.7883 30.644 40.6863 30.86 40.6863 31.16C40.6863 31.508 40.8483 31.766 41.1723 31.934C41.4243 31.898 41.6883 31.88 41.9643 31.88C43.2363 31.88 44.2203 32.186 44.9163 32.798C45.6243 33.41 46.0383 34.22 46.1583 35.228H43.4583C43.3863 34.928 43.2123 34.67 42.9363 34.454C42.6603 34.226 42.3123 34.112 41.8923 34.112C41.4123 34.112 41.0163 34.274 40.7043 34.598C40.3923 34.922 40.2363 35.354 40.2363 35.894C40.2363 36.446 40.3863 36.884 40.6863 37.208C40.9983 37.532 41.4003 37.694 41.8923 37.694C42.2883 37.694 42.6243 37.592 42.9003 37.388C43.1883 37.172 43.3743 36.914 43.4583 36.614H46.1583C46.0623 37.646 45.6243 38.468 44.8443 39.08C44.0763 39.704 43.0923 40.016 41.8923 40.016C40.9923 40.016 40.2063 39.842 39.5343 39.494C38.8743 39.158 38.3643 38.672 38.0043 38.036C37.6443 37.412 37.4643 36.68 37.4643 35.84C37.4643 35.144 37.6023 34.526 37.8783 33.986C38.1663 33.446 38.5683 33.008 39.0843 32.672C38.2803 32.18 37.8783 31.49 37.8783 30.602C37.8783 29.894 38.1363 29.336 38.6523 28.928C39.1803 28.508 39.8943 28.298 40.7943 28.298H42.2343V27.038H36.0963V24.68H47.2383V27.038H44.9343V30.296H41.8023ZM67.6136 27.038H65.8496V38H63.0236V35.174C62.6516 35.606 62.1716 35.942 61.5836 36.182C60.9956 36.41 60.3176 36.524 59.5496 36.524C58.1696 36.524 57.0596 36.164 56.2196 35.444C55.3916 34.724 54.8936 33.734 54.7256 32.474C54.5816 32.15 54.3656 31.898 54.0776 31.718C53.8016 31.526 53.4056 31.43 52.8896 31.43C52.2176 31.43 51.6896 31.61 51.3056 31.97C50.9336 32.33 50.7476 32.84 50.7476 33.5C50.7476 34.16 50.9336 34.676 51.3056 35.048C51.6896 35.42 52.2536 35.606 52.9976 35.606H53.3396V37.82H52.5656C51.1856 37.82 50.0576 37.454 49.1816 36.722C48.3176 35.99 47.8856 34.892 47.8856 33.428C47.8856 31.964 48.3356 30.86 49.2356 30.116C50.1356 29.372 51.3056 29 52.7456 29C54.2336 29 55.3796 29.402 56.1836 30.206C56.6996 30.038 57.0656 29.762 57.2816 29.378C57.4976 28.982 57.6056 28.472 57.6056 27.848V27.038H46.6256V24.68H67.6136V27.038ZM63.0236 27.038H60.3776V28.37C60.3776 29.33 60.1256 30.128 59.6216 30.764C59.1176 31.4 58.4036 31.784 57.4796 31.916C57.5036 32.588 57.7496 33.134 58.2176 33.554C58.6856 33.962 59.3336 34.166 60.1616 34.166C61.0376 34.166 61.7336 33.896 62.2496 33.356C62.7656 32.816 63.0236 32.126 63.0236 31.286V27.038Z" fill="#2859C5"/>
</svg>
