<svg width="80" height="80" viewBox="0 0 80 80" fill="none" xmlns="http://www.w3.org/2000/svg">
<path fill-rule="evenodd" clip-rule="evenodd" d="M58.8631 38.6523C57.7264 38.6523 56.6363 39.1039 55.8326 39.9076C55.0289 40.7113 54.5773 41.8014 54.5773 42.9381V57.9952C54.0419 57.9411 53.5041 57.9144 52.9659 57.9152C46.4459 57.9152 42.7773 61.5838 42.7773 68.1038C42.7773 74.6181 46.4459 78.2866 52.9659 78.2866C59.4802 78.2866 63.1488 74.6181 63.1488 68.1038C63.1488 67.8981 63.1488 67.6923 63.1373 67.4923C63.1461 67.3764 63.1499 67.2601 63.1488 67.1438V47.8009C67.0916 49.1838 70.0631 52.9152 70.2459 57.2523C70.2688 57.6866 70.2745 58.1095 70.2745 58.5095C70.2745 59.6461 70.726 60.7362 71.5297 61.5399C72.3335 62.3437 73.4236 62.7952 74.5602 62.7952C75.6968 62.7952 76.7869 62.3437 77.5907 61.5399C78.3944 60.7362 78.8459 59.6461 78.8459 58.5095C78.8459 57.9723 78.8345 57.4238 78.8116 56.8809C78.3773 46.9095 70.0802 38.8123 60.0859 38.6638C59.6783 38.6569 59.2707 38.6531 58.8631 38.6523Z" fill="#2859C5"/>
<path fill-rule="evenodd" clip-rule="evenodd" d="M45.1483 17.5206C45.1483 27.6348 39.4569 33.3263 29.3426 33.3263C19.2283 33.3263 13.5369 27.6406 13.5369 17.5206C13.5369 7.40627 19.2226 1.71484 29.3426 1.71484C39.4569 1.71484 45.1426 7.40627 45.1426 17.5206H45.1483ZM29.3598 38.9834C35.6086 38.9756 41.7822 40.3473 47.4398 43.0006V51.4863C44.7728 52.1862 42.337 53.5756 40.3769 55.5148C37.7541 58.1434 36.3769 61.4348 35.8626 64.8863H13.4969C8.28549 64.8863 3.9712 62.0863 2.10834 58.212C1.1248 56.219 0.897414 53.937 1.46834 51.7891C2.07977 49.5548 3.55977 47.5834 5.79406 46.0977C12.7742 41.4463 20.9775 38.9704 29.3655 38.9834H29.3598Z" fill="#8FBFFA"/>
</svg>
