<svg width="79" height="79" viewBox="0 0 79 79" fill="none" xmlns="http://www.w3.org/2000/svg">
<path fill-rule="evenodd" clip-rule="evenodd" d="M39.4994 11.2012C35.6228 11.2012 27.5253 11.472 18.5532 12.3862C14.3099 12.8 10.346 14.6883 7.35096 17.7225C4.35594 20.7567 2.51934 24.7448 2.16066 28.9931C1.71214 34.1957 1.4618 39.4135 1.41016 44.6351C1.41016 47.434 1.58508 53.5508 2.16066 60.2771C2.52185 64.5234 4.35956 68.5088 7.35435 71.5407C10.3491 74.5726 14.3117 76.4593 18.5532 76.8727C27.5253 77.7925 35.6228 78.0634 39.4994 78.0634C43.3761 78.0634 51.4736 77.7925 60.4457 76.8784C64.6881 76.4647 68.6513 74.5773 71.6462 71.5442C74.6411 68.5112 76.4783 64.5244 76.8382 60.2771C77.2869 55.0745 77.5372 49.8567 77.5887 44.6351C77.5887 41.8362 77.4138 35.7137 76.8382 28.9818C76.477 24.7356 74.6393 20.7501 71.6445 17.7182C68.6497 14.6863 64.6872 12.7996 60.4457 12.3862C53.4857 11.6681 46.4961 11.2727 39.4994 11.2012Z" fill="#8FBFFA"/>
<path fill-rule="evenodd" clip-rule="evenodd" d="M15.8496 19.491V5.16378C15.8496 4.04135 16.2955 2.96489 17.0892 2.17121C17.8829 1.37753 18.9593 0.931641 20.0818 0.931641C21.2042 0.931641 22.2806 1.37753 23.0743 2.17121C23.868 2.96489 24.3139 4.04135 24.3139 5.16378V19.4966C24.3139 20.0524 24.2044 20.6027 23.9917 21.1162C23.7791 21.6297 23.4673 22.0962 23.0743 22.4892C22.6813 22.8822 22.2148 23.1939 21.7013 23.4066C21.1879 23.6193 20.6375 23.7288 20.0818 23.7288C19.526 23.7288 18.9756 23.6193 18.4622 23.4066C17.9487 23.1939 17.4822 22.8822 17.0892 22.4892C16.6962 22.0962 16.3844 21.6297 16.1718 21.1162C15.9591 20.6027 15.8496 20.0524 15.8496 19.4966V19.491ZM54.6838 19.491V5.16378C54.6838 4.04135 55.1296 2.96489 55.9233 2.17121C56.717 1.37753 57.7935 0.931641 58.9159 0.931641C60.0383 0.931641 61.1148 1.37753 61.9085 2.17121C62.7022 2.96489 63.148 4.04135 63.148 5.16378V19.4966C63.148 20.6191 62.7022 21.6955 61.9085 22.4892C61.1148 23.2829 60.0383 23.7288 58.9159 23.7288C57.7935 23.7288 56.717 23.2829 55.9233 22.4892C55.1296 21.6955 54.6838 20.6191 54.6838 19.4966V19.491ZM35.2667 5.16378V19.4966C35.2667 20.0524 35.3761 20.6027 35.5888 21.1162C35.8015 21.6297 36.1133 22.0962 36.5062 22.4892C36.8992 22.8822 37.3658 23.1939 37.8793 23.4066C38.3927 23.6193 38.9431 23.7288 39.4988 23.7288C40.0546 23.7288 40.6049 23.6193 41.1184 23.4066C41.6319 23.1939 42.0984 22.8822 42.4914 22.4892C42.8844 22.0962 43.1961 21.6297 43.4088 21.1162C43.6215 20.6027 43.731 20.0524 43.731 19.4966V5.16378C43.731 4.04135 43.2851 2.96489 42.4914 2.17121C41.6977 1.37753 40.6213 0.931641 39.4988 0.931641C38.3764 0.931641 37.2999 1.37753 36.5062 2.17121C35.7126 2.96489 35.2667 4.04135 35.2667 5.16378Z" fill="#2859C5"/>
<path fill-rule="evenodd" clip-rule="evenodd" d="M22.1303 34.0938C21.6672 34.0937 21.2085 34.185 20.7807 34.3622C20.3528 34.5394 19.964 34.7992 19.6365 35.1267C19.309 35.4542 19.0492 35.843 18.872 36.2709C18.6947 36.6988 18.6035 37.1574 18.6035 37.6205C18.6035 38.0837 18.6947 38.5423 18.872 38.9702C19.0492 39.3981 19.309 39.7869 19.6365 40.1144C19.964 40.4418 20.3528 40.7016 20.7807 40.8789C21.2085 41.0561 21.6672 41.1473 22.1303 41.1473H56.8677C57.8031 41.1473 58.7001 40.7758 59.3615 40.1144C60.0229 39.453 60.3945 38.5559 60.3945 37.6205C60.3945 36.6852 60.0229 35.7881 59.3615 35.1267C58.7001 34.4653 57.8031 34.0938 56.8677 34.0938H22.1303ZM22.1303 50.853C21.1949 50.853 20.2979 51.2246 19.6365 51.886C18.9751 52.5474 18.6035 53.4445 18.6035 54.3798C18.6035 55.3152 18.9751 56.2122 19.6365 56.8736C20.2979 57.535 21.1949 57.9066 22.1303 57.9066H38.7824C39.7177 57.9066 40.6148 57.535 41.2762 56.8736C41.9376 56.2122 42.3092 55.3152 42.3092 54.3798C42.3092 53.4445 41.9376 52.5474 41.2762 51.886C40.6148 51.2246 39.7177 50.853 38.7824 50.853H22.1303Z" fill="#2859C5"/>
</svg>
