<svg width="942" height="457" viewBox="0 0 942 457" fill="none" xmlns="http://www.w3.org/2000/svg">
<path d="M30.2366 6.02522H10.1244V27.9933L4.63919 31.6546L0.982422 40.808L10.1244 46.3V64.6067L4.63919 73.7601L0.982422 82.9134L10.1244 99.3895L4.63919 104.881L0.982422 110.373L4.63919 125.019L0.982422 168.955V342.869V361.175V392.297V432.572V447.217L10.1244 452.709H213.075L225.874 443.556L235.016 452.709H244.158L247.815 447.217L255.128 452.709H278.897L284.382 447.217L306.323 452.709H330.092L355.689 443.556L363.003 452.709H392.257L416.026 447.217L436.138 452.709L489.162 456.37L496.475 447.217L843.265 452.709L852.407 447.217L867.034 452.709H910.916H929.199L934.685 447.217L929.199 438.064L934.685 423.418L941.998 414.265L934.685 408.773V390.466V373.99L929.199 363.006L934.685 353.853V346.53L929.199 333.715L934.685 326.393L929.199 317.239L934.685 309.917L941.998 300.763L929.199 297.102V275.134L934.685 284.287V265.981L929.199 262.319L918.229 249.505H929.199V236.69V225.706V211.06L934.685 194.584L941.998 190.923V181.77L929.199 159.802V146.987L918.229 136.003L929.199 123.188H918.229V101.22V93.8974V79.2521V64.6067C921.276 61.5556 927.737 52.8904 929.199 42.6386C930.662 32.3869 922.495 38.3671 918.229 42.6386C920.057 38.3671 922.617 28.3594 918.229 22.5013L894.46 15.1786L885.318 0.533203H857.892C846.922 0.533203 494.647 6.02522 485.505 6.02522V17.0092H465.393L447.109 15.1786L434.31 9.68656L401.399 6.02522L379.458 4.19455H364.831H353.861H342.891C325.826 4.80477 294.621 6.02522 306.323 6.02522H320.95L330.092 17.0092H320.95H275.24L260.613 6.02522L240.501 9.68656L218.56 6.02522L203.933 0.533203V4.19455V9.68656L181.993 6.02522H169.194H160.052H152.738L145.425 0.533203L141.768 6.02522L139.94 15.1786L125.313 17.0092L130.798 15.1786C125.922 12.1275 115.805 6.02522 114.342 6.02522H110.686L108.857 9.68656H101.544L96.0585 6.02522L92.4017 0.533203H85.0882L63.1476 6.02522C57.2967 7.48976 63.1476 9.07634 66.8043 9.68656H79.603C77.1652 12.1275 71.9238 17.0092 70.4611 17.0092H63.1476L61.3192 11.5172L35.7218 4.19455L30.2366 6.02522Z" fill="#2D3572"/>
</svg>
