<?xml version="1.0" encoding="UTF-8"?>
<svg id="Layer_1" data-name="Layer 1" xmlns="http://www.w3.org/2000/svg" viewBox="0 0 5246.22 5794.9">
  <defs>
    <style>
      .cls-1 {
        fill: #2d3572;
        stroke-width: 0px;
      }
    </style>
  </defs>
  <path class="cls-1" d="M29.5,11.4H9.4v45.3l-5.5,7.6L.2,83.2l9.1,11.3v37.8l-5.5,18.9L.1,170.1l9.1,34-5.5,11.3-3.7,11.3,3.7,30.2-3.7,90.6v5415.7c0,3,.8,5.8,2,7.3l6.2,7.6c.6.8,1.4,1.2,2.1,1.2h200.5c.9,0,1.7-.6,2.4-1.6l8.9-13.1c1.6-2.4,3.9-2,5.3.9l5.4,11.2c.8,1.6,1.8,2.5,2.9,2.5h5.2c1.4,0,2.7-1.4,3.4-3.8h0c1.3-4.1,4-5,5.9-2.1l2.7,4.2c.7,1.1,1.6,1.7,2.5,1.7h20.7c1.1,0,2.2-.9,2.9-2.5l2.6-5.4c1-2.1,2.5-3,3.9-2.2l19.2,9.9c.3.2.7.3,1,.3h22.5c.5,0,.9-.2,1.4-.5l22.1-16.3c1.7-1.2,3.5-.1,4.6,2.7l4.2,10.9c.8,2,2,3.2,3.2,3.2h26.8c.3,0,.6,0,.9-.2l22.3-10.6c.7-.3,1.4-.3,2,0l18.7,10.5c.3.1.5.2.8.3l50.4,7.2c1.4.2,2.7-1,3.5-3.2l4.7-12.1c.8-2.1,2-3.2,3.3-3.2l4650.9,26.9c.8,0,1.5-.4,2.2-1.2l6.4-7.9c1.1-1.3,2.4-1.6,3.6-.7l12.1,9.3c.5.4,1,.5,1.5.5h59.7c1.1,0,2.2-.9,2.9-2.5l2-4.1c1.3-2.8,1.6-7.1.6-10.4l-2.8-9.6c-.6-2.2-.8-4.9-.3-7.4l4.6-25.1c.2-.8.4-1.6.6-2.3l4.2-10.9c1.5-3.8,1.1-9.3-.7-12.2l-2.2-3.5c-1-1.6-1.7-4.1-1.7-6.8v-65.5c0-1.3-.1-2.6-.4-3.8l-4-16.7c-.6-2.6-.6-5.7.2-8.2l3.7-12.8c.4-1.3.6-2.8.6-4.4v-11c0-1.2-.1-2.3-.3-3.4l-4.2-20.3c-.6-2.8-.4-6,.5-8.5l2.4-6.6c1-2.8,1.1-6.5.2-9.5l-2.6-9c-.9-3-.8-6.7.2-9.5l3.8-10.5,3.4-8.9c1.8-4.8.7-11.9-2.1-13.5l-3.8-2.3c-1.8-1-3-4.4-3-8.2l-2.5-4901.2,5.5,18.9v-36.3c0-.9-.3-1.8-.8-2.6l-4.3-6c-.2-.3-.4-.6-.5-.9l-8.2-19.9c-1.2-2.9.9-6.1,4.1-6.1h0c2.4,0,4.4-2,4.4-4.4v-75.2l5.2-32.3c.1-.9.6-1.7,1.2-2.4l5.1-5.3c.8-.8,1.2-1.9,1.2-3.1v-16.5c0-.4,0-.8-.2-1.2l-12.5-44.1c-.1-.4-.2-.8-.2-1.2v-24.8c0-.7-.2-1.3-.4-1.9l-9.7-20c-.5-1.1-.6-2.4-.1-3.6l7.7-18.5c1.2-2.9-.9-6.1-4.1-6.1h0c-2.4,0-4.4-2-4.4-4.4v-115.4c0-.6.1-1.2.4-1.8,3.2-6.9,9.2-24.2,10.6-44.5.7-9.7-.7-12.4-2.8-11.5-3,1.2-6.3-1.1-6.1-4.3.6-8.1.4-17.2-1.6-24s-1-1.9-1.9-2.5l-21.1-13.4c-.9-.6-1.5-1.4-1.8-2.4l-7.7-25.5c-.6-1.9-2.3-3.1-4.2-3.1h-24.2c-11,0-4668.1,11.3-4677.2,11.3v22.7h-20.1l-18.3-3.8-12.8-11.3-32.9-7.6-21.9-3.8h-36.6c-17.1,1.3-48.3,3.8-36.6,3.8h14.6l9.1,22.7h-54.9l-14.6-22.7-20.1,7.6-21.9-7.6L202.6,0v18.9l-21.9-7.6h-29.3L144.1,0l-3.7,11.3-1.8,18.9-14.6,3.8,5.5-3.8c-4.9-6.3-15-18.9-16.5-18.9h-3.7l-1.8,7.6h-7.3l-5.5-7.6L91,0h-7.3l-21.9,11.3c-5.9,3,0,6.3,3.7,7.6h12.8c-2.4,5-7.7,15.1-9.1,15.1h-7.3l-1.8-11.3-25.6-15.1-5.5,3.8h.5Z"/>
</svg>