<?xml version="1.0" encoding="UTF-8"?>
<svg id="Isolation_Mode" data-name="Isolation Mode" xmlns="http://www.w3.org/2000/svg" viewBox="0 0 5246.6 5794.86">
  <defs>
    <style>
      .cls-1 {
        fill: #2d3572;
        stroke-width: 0px;
      }
    </style>
  </defs>
  <path class="cls-1" d="M29.25,11.33H9.14v45.31l-5.49,7.55-3.66,18.88,9.14,11.33v37.76l-5.49,18.88-3.66,18.88,9.14,33.98-5.49,11.33-3.66,11.33,3.66,30.21-3.66,90.61v5415.66c0,3,.76,5.78,2.01,7.32l6.15,7.62c.64.8,1.38,1.22,2.13,1.22h200.47c.86,0,1.71-.56,2.41-1.59l8.86-13.07c1.65-2.43,3.91-2.04,5.34.91l5.45,11.25c.78,1.6,1.83,2.5,2.93,2.5h5.21c1.38,0,2.68-1.43,3.45-3.81h0c1.32-4.08,4.03-5.04,5.93-2.09l2.71,4.19c.72,1.11,1.59,1.71,2.49,1.71h20.67c1.1,0,2.15-.9,2.93-2.5l2.61-5.4c1.03-2.12,2.52-2.98,3.93-2.25l19.17,9.9c.33.17.67.26,1.01.26h22.54c.48,0,.95-.17,1.39-.5l22.14-16.33c1.66-1.23,3.52-.14,4.63,2.71l4.23,10.91c.79,2.03,1.98,3.21,3.23,3.21h26.79c.31,0,.63-.07.93-.22l22.29-10.62c.67-.32,1.36-.29,2.02.08l18.71,10.54c.26.15.53.24.81.28l50.45,7.18c1.36.19,2.67-1,3.52-3.19l4.69-12.11c.8-2.06,2.02-3.25,3.3-3.21l4650.92,26.91c.77.03,1.53-.4,2.2-1.22l6.41-7.95c1.08-1.34,2.4-1.59,3.59-.67l12.05,9.33c.47.36.96.54,1.46.54h59.7c1.1,0,2.15-.9,2.93-2.5l1.99-4.11c1.34-2.77,1.6-7.07.62-10.42l-2.8-9.64c-.65-2.23-.77-4.95-.33-7.38l4.55-25.08c.15-.84.37-1.63.64-2.33l4.24-10.94c1.46-3.76,1.12-9.26-.75-12.16l-2.25-3.48c-1.04-1.61-1.65-4.14-1.65-6.83v-65.46c0-1.32-.15-2.63-.44-3.81l-4.04-16.66c-.63-2.61-.57-5.7.15-8.2l3.73-12.83c.39-1.33.59-2.84.59-4.39v-10.99c0-1.16-.11-2.3-.33-3.36l-4.21-20.29c-.58-2.8-.39-6.04.49-8.48l2.39-6.57c1.01-2.78,1.1-6.53.24-9.51l-2.63-9.04c-.86-2.97-.77-6.73.24-9.51l3.82-10.51,3.43-8.87c1.84-4.76.75-11.86-2.1-13.54l-3.82-2.26c-1.78-1.05-3-4.4-3-8.21l-2.51-4901.16,5.49,18.88v-36.33c0-.93-.29-1.83-.84-2.58l-4.34-5.98c-.2-.28-.37-.58-.5-.9l-8.25-19.87c-1.2-2.89.92-6.08,4.06-6.08h0c2.43,0,4.39-1.97,4.39-4.39v-74.54c0-.23.02-.47.06-.7l5.21-32.27c.14-.89.56-1.71,1.18-2.36l5.11-5.28c.79-.82,1.24-1.91,1.24-3.06v-16.49c0-.4-.06-.81-.17-1.19l-12.47-44.14c-.11-.39-.17-.79-.17-1.19v-24.81c0-.66-.15-1.32-.44-1.91l-9.67-19.97c-.55-1.13-.58-2.44-.1-3.6l7.69-18.53c1.2-2.89-.92-6.08-4.06-6.08h0c-2.43,0-4.39-1.97-4.39-4.39v-115.45c0-.63.13-1.24.39-1.81,3.18-6.93,9.18-24.2,10.58-44.47.67-9.71-.69-12.36-2.77-11.53-3.03,1.21-6.31-1.08-6.08-4.33.58-8.13.45-17.19-1.59-24.05-.3-1.02-.96-1.9-1.86-2.47l-21.06-13.38c-.89-.56-1.54-1.43-1.85-2.43l-7.73-25.52c-.56-1.85-2.27-3.12-4.2-3.12h-24.17c-10.97,0-4668.08,11.33-4677.23,11.33v22.65h-20.11l-18.28-3.78-12.8-11.33-32.91-7.55-21.94-3.78h-36.57c-17.07,1.26-48.27,3.78-36.57,3.78h14.63l9.14,22.65h-54.85l-14.63-22.65-20.11,7.55-21.94-7.55-14.63-11.33v18.88l-21.94-7.55h-29.25l-7.31-11.33-3.66,11.33-1.83,18.88-14.63,3.78,5.49-3.78c-4.88-6.29-14.99-18.88-16.46-18.88h-3.66l-1.83,7.55h-7.31l-5.49-7.55-3.66-11.33h-7.31l-21.94,11.33c-5.85,3.02,0,6.29,3.66,7.55h12.8c-2.44,5.03-7.68,15.1-9.14,15.1h-7.31l-1.83-11.33-25.6-15.1-5.49,3.78Z"/>
</svg>