<svg width="63" height="63" viewBox="0 0 63 63" fill="none" xmlns="http://www.w3.org/2000/svg">
<path d="M33.0996 58.7014L42.3165 30.5391H46.925L56.1416 58.7014M36.1719 49.5784H53.0693" stroke="#8FBFFA" stroke-width="7"/>
<path d="M29 6.32443V11.0467H25.5176V33H20.0301V23.5194H16.5829V23.8438C16.5829 25.9826 15.9146 27.6889 14.5779 28.9626C13.2412 30.2363 11.4707 30.8732 9.26633 30.8732C7.62479 30.8732 6.18258 30.5607 4.9397 29.9359C3.69682 29.287 2.72362 28.3858 2.0201 27.2323C1.34003 26.0788 1 24.757 1 23.267H6.17085C6.17085 24.036 6.41709 24.6849 6.90955 25.2136C7.42546 25.7423 8.0938 26.0067 8.91457 26.0067C9.73534 26.0067 10.3802 25.7543 10.8492 25.2497C11.3417 24.745 11.5879 24.0841 11.5879 23.267C11.5879 22.474 11.3065 21.8011 10.7437 21.2483C10.2044 20.6956 9.39531 20.4192 8.31658 20.4192H6.73367V15.8411H8.31658C9.23116 15.8411 9.95812 15.6128 10.4975 15.1562C11.0369 14.6756 11.3065 14.0628 11.3065 13.3178C11.3065 12.5487 11.072 11.9359 10.603 11.4793C10.1575 11.0227 9.58291 10.7944 8.8794 10.7944C8.12898 10.7944 7.50754 11.0227 7.01508 11.4793C6.54606 11.9359 6.31156 12.5247 6.31156 13.2457H1.21106C1.21106 11.8278 1.52764 10.5661 2.1608 9.46061C2.79397 8.35514 3.68509 7.502 4.83417 6.9012C6.0067 6.3004 7.35511 6 8.8794 6C11.1072 6 12.8894 6.6008 14.2261 7.8024C15.5628 8.97997 16.2312 10.5661 16.2312 12.5607C16.2312 13.8585 15.9028 14.976 15.2462 15.9132C14.6131 16.8505 13.6985 17.5234 12.5025 17.9319V18.0761C13.206 18.2684 13.7923 18.5327 14.2613 18.8692H20.0301V6.32443H29Z" fill="#F7941D"/>
<path d="M61 23.5C61.8284 23.5 62.5 22.8284 62.5 22V8.5C62.5 7.67157 61.8284 7 61 7C60.1716 7 59.5 7.67157 59.5 8.5L59.5 20.5L47.5 20.5C46.6716 20.5 46 21.1716 46 22C46 22.8284 46.6716 23.5 47.5 23.5H61ZM40.9393 4.06066L59.9393 23.0607L62.0607 20.9393L43.0607 1.93934L40.9393 4.06066Z" fill="#F7941D"/>
<path d="M2 38.5C1.17157 38.5 0.5 39.1716 0.5 40L0.5 53.5C0.5 54.3284 1.17157 55 2 55C2.82843 55 3.5 54.3284 3.5 53.5V41.5H15.5C16.3284 41.5 17 40.8284 17 40C17 39.1716 16.3284 38.5 15.5 38.5H2ZM0.93934 41.0607L19.9393 60.0607L22.0607 57.9393L3.06066 38.9393L0.93934 41.0607Z" fill="#8FBFFA"/>
</svg>
