<svg width="167" height="158" viewBox="0 0 167 158" fill="none" xmlns="http://www.w3.org/2000/svg">
<path d="M12.1587 111.146L20.8259 99.9596L0.182373 116.345C11.3708 118.866 21.7714 115.715 38.4753 108.152C51.8384 102.102 69.2566 104.791 76.2954 106.892C76.7681 107.837 78.5016 109.791 81.6532 110.043C84.8049 110.295 86.2232 108.047 86.5383 106.892C108.474 104.245 120.366 106.629 123.571 108.152C149.414 119.37 160.918 118.183 163.439 116.188L142.481 99.9596L151.305 111.146C146.735 111.146 140.747 109.728 123.571 101.535C106.394 93.3423 90.3204 102.796 86.0656 105.947C82.6618 108.467 79.0794 106.997 77.7136 105.947C71.5679 101.167 55.1161 93.5944 38.4753 101.535C21.8344 109.476 13.9972 111.251 12.1587 111.146Z" fill="#FF5076"/>
<path d="M136.011 95.9295L126.918 88.1219L146.516 97.6472C143.015 99.521 132.656 102.363 119.235 98.7402C105.814 95.1175 90.0208 100.77 83.8016 104.049C89.9163 93.1187 110.769 91.6509 119.235 93.8995C126.918 95.9399 132.562 96.2938 136.011 95.9295Z" fill="#7034B2"/>
<path d="M27.1114 95.9295L36.205 88.1219L16.6067 97.6472C20.1083 99.521 30.4666 102.363 43.8875 98.7402C57.3084 95.1175 73.102 100.77 79.3212 104.049C73.2066 93.1187 52.354 91.6509 43.8875 93.8995C36.205 95.9399 30.5607 96.2938 27.1114 95.9295Z" fill="#7034B2"/>
<path d="M121.562 86.4431L112.763 77.1723L124.862 83.3005L129.262 85.8146C127.144 88.1534 121.562 91.4714 106.478 91.4714C98.1497 91.4714 86.9933 97.9138 84.3221 101.056C89.1932 92.5713 95.7973 88.4354 102.707 88.0144C108.976 87.6324 119.085 87.6032 121.562 86.4431Z" fill="#57B7FF"/>
<path d="M41.82 85.1572L51.6634 73.7009L38.725 81.5612L33.9945 84.7601C35.9523 87.4518 41.3671 91.1525 56.8097 90.4624C65.3353 90.0815 76.1761 97.2526 78.6276 100.877C74.4053 90.9832 68.017 86.3541 60.9818 86.1682C54.598 85.9995 44.2515 86.4271 41.82 85.1572Z" fill="#57B7FF"/>
<path d="M83.6977 73.9715C83.9441 73.6311 84.4158 73.2606 85.0604 72.889C89.1203 70.3161 100.852 65.6193 108.878 71.659C116.788 77.6106 110.475 83.0663 106.561 84.7619L82.3074 95.0903C84.9336 93.0865 90.186 87.8452 94.8205 85.6871C102.699 82.0182 107.72 79.6271 106.098 75.3586C103.116 67.5147 89.6702 70.2309 85.0604 72.889C84.3538 73.3367 83.8796 73.7202 83.6977 73.9715Z" fill="#E53C38"/>
<path d="M60.9231 81.8074C51.8359 76.8181 56.4519 70.9452 59.7123 68.7104C57.6088 69.49 52.7358 72.0199 52.4551 76.1944C52.0883 81.6515 59.2928 84.354 63.2895 85.7053C63.2895 85.7053 69.5925 88.051 73.5442 89.7592C77.6093 91.5163 83.7989 94.5926 83.7989 94.5926C80.9592 90.3828 71.1778 86.329 71.1778 86.329C71.1778 86.329 64.38 83.7054 60.9231 81.8074Z" fill="#E53C38"/>
<path d="M29.1672 75.5806L53.2084 68.5097L51.0086 64.5814L29.1672 75.5806Z" fill="url(#paint0_linear_25_442)"/>
<path d="M54.1525 72.5952C51.071 67.9318 48.9676 61.9755 48.691 56.3842C48.4144 50.793 49.644 45.2303 52.25 40.2826C54.856 35.335 58.742 31.1858 63.4981 28.2723C68.2543 25.3589 73.7045 23.7893 79.2741 23.7289C84.8436 23.6686 90.3262 25.1197 95.1438 27.9294C99.9614 30.739 103.935 34.8031 106.647 39.6931C109.359 44.5831 110.707 50.1178 110.551 55.7138C110.394 61.3097 108.738 66.7595 105.757 71.4887L101.572 68.824C104.076 64.8517 105.467 60.2741 105.598 55.5738C105.73 50.8735 104.597 46.2245 102.319 42.1172C100.042 38.0098 96.7039 34.5962 92.6573 32.2362C88.6108 29.8762 84.0057 28.6573 79.3275 28.708C74.6493 28.7588 70.0714 30.0772 66.0765 32.5243C62.0815 34.9714 58.8175 38.4566 56.6285 42.6124C54.4396 46.7682 53.4069 51.4406 53.6392 56.137C53.8715 60.8333 55.3603 65.3797 57.9486 69.2968L56.038 71.181L54.1525 72.5952Z" fill="#FFD83D"/>
<path d="M25.241 55.1536L49.125 57.3534V52.0109L25.241 55.1536Z" fill="url(#paint1_linear_25_442)"/>
<path d="M29.0122 34.0976L50.225 45.254L52.2678 40.8543L29.0122 34.0976Z" fill="url(#paint2_linear_25_442)"/>
<path d="M41.7399 16.3169L56.0389 34.8584L59.4958 31.2693L41.7399 16.3169Z" fill="url(#paint3_linear_25_442)"/>
<path d="M29.0122 34.0976L50.225 45.254L52.2678 40.8543L29.0122 34.0976Z" stroke="#FFD83D"/>
<path d="M41.7399 16.3169L56.0389 34.8584L59.4958 31.2693L41.7399 16.3169Z" stroke="#FFD83D"/>
<path d="M58.553 3.7713L65.9382 27.0269L70.3379 25.2984L58.553 3.7713Z" fill="url(#paint4_linear_25_442)"/>
<path d="M80.0812 0L77.4099 23.8841H82.5953L80.0812 0Z" fill="url(#paint5_linear_25_442)"/>
<path d="M100.508 5.02823L89.5091 25.2983L94.0659 27.341L100.508 5.02823Z" fill="url(#paint6_linear_25_442)"/>
<path d="M118.893 16.1846L99.8798 31.4264L103.337 35.0405L118.893 16.1846Z" fill="url(#paint7_linear_25_442)"/>
<path d="M130.835 33.7834L107.265 41.1686L109.151 45.8826L130.835 33.7834Z" fill="url(#paint8_linear_25_442)"/>
<path d="M134.763 54.9962L110.408 52.4821V57.6675L134.763 54.9962Z" fill="url(#paint9_linear_25_442)"/>
<path d="M130.049 75.7377L109.151 64.267L106.636 68.981L130.049 75.7377Z" fill="url(#paint10_linear_25_442)"/>
<circle cx="80.0477" cy="56.9266" r="6.26893" fill="#E53C38"/>
<path d="M60.1642 45.6208C62.1478 52.6019 66.3644 55.6239 68.0929 56.0496C69.1702 55.3149 70.8346 54.5847 72.4651 55.0931C72.5188 53.899 73.5932 51.872 74.784 50.9335C74.3978 50.3287 73.0403 49.0711 73.346 46.6266C68.7701 43.4971 62.6515 44.6521 60.1642 45.6208Z" fill="#57B7FF"/>
<path d="M79.931 33.9404C74.7992 39.0722 74.2129 44.2267 74.6827 45.9437C75.849 46.5269 77.2972 47.6252 77.6471 49.2969C78.7162 48.7623 81.0099 48.7137 82.4094 49.2969C82.7496 48.6651 83.1871 46.8671 85.471 45.9437C85.9764 40.4232 81.9883 35.6413 79.931 33.9404Z" fill="#FFBA00"/>
<path d="M100.054 45.2955C92.8777 43.0172 87.8714 44.9435 86.5242 46.1989C86.5518 47.5541 86.2432 49.4159 84.8798 50.539C85.8849 51.2695 87.0348 53.3624 87.1748 54.9329C87.9177 54.9443 89.7763 54.4872 91.7232 56.1525C97.026 53.9762 99.4864 48.0077 100.054 45.2955Z" fill="#57B7FF"/>
<path d="M68.1862 37.1478C67.7585 38.7807 67.5868 41.9103 67.5544 43.271C68.8989 43.4168 71.8406 43.961 72.8514 44.9718C72.7348 43.3001 73.6452 40.7116 74.1149 39.6262C73.1754 38.9783 70.6743 37.5755 68.1862 37.1478Z" fill="#FF5076"/>
<path d="M91.3879 37.0262C89.7443 37.4102 86.8965 38.7193 85.678 39.3259C86.1767 40.5829 87.0686 43.4385 86.6466 44.8043C88.0705 43.9207 90.7847 43.5174 91.9638 43.4262C92.0982 42.2929 92.1712 39.4262 91.3879 37.0262Z" fill="#FF5076"/>
<path d="M102.864 56.7004C101.669 55.5082 99.0524 53.783 97.8933 53.0694C97.09 54.1573 95.1376 56.424 93.7552 56.7878C95.2579 57.5294 97.0351 59.62 97.7359 60.5727C98.769 60.0876 101.241 58.6341 102.864 56.7004Z" fill="#FF5076"/>
<path d="M56.9837 57.16C58.1869 58.3437 60.8157 60.0505 61.9797 60.756C62.7755 59.6625 64.7119 57.3821 66.0917 57.0086C64.5838 56.2776 62.792 54.1995 62.0845 53.2518C61.0549 53.7441 58.5932 55.2149 56.9837 57.16Z" fill="#FF5076"/>
<path d="M75.7782 70.9179L84.5479 75.6401H74.4291C72.9449 75.6401 70.0037 75.4242 70.6513 72.402C71.2989 69.3799 74.3391 70.1534 75.7782 70.9179Z" fill="#E53C38"/>
<path d="M84.4102 74.2911L81.5769 72.5371L85.2198 70.7832C87.5134 69.7039 89.7239 70.8527 89.3491 73.7152C88.9743 76.5776 85.2431 75.0152 84.4102 74.2911Z" fill="#E53C38"/>
<path d="M83.6014 69.5687V66.7354L86.0299 69.5687C86.4347 70.0634 87.7029 70.9989 89.5378 70.783C91.1568 70.5925 90.887 68.6917 89.9426 68.2195C88.9981 67.7473 88.1886 68.0846 88.1886 68.0846L83.6014 61.6085H81.3078V59.9895C84.5458 58.6403 82.9268 55.2674 81.5776 54.4579L80.7681 54.188L79.9586 54.0531L79.1491 54.188L78.3395 54.4579C75.3713 56.4816 77.1253 59.5848 78.3395 60.1244V61.6085H76.0459L71.1889 68.0846C71.1889 68.0846 70.5143 67.7817 69.5698 68.4054C68.6254 69.029 68.5789 70.6527 70.3794 71.0528C71.5936 71.3227 73.3026 70.5132 73.7523 69.9735L76.3158 66.7354V69.9735L80.2284 71.5925L83.6014 69.5687Z" fill="#031516"/>
<path d="M15.8532 127.007V129.42H14.0668V140.635H11.2123V137.965L10.181 137.449L6.66351 140.838H3.27494V140.58L8.00789 136.362L5.90845 135.294L3.33019 137.32H0.0336914V136.989L3.71693 134.116C2.95572 133.625 2.37868 133.084 1.98581 132.495C1.59293 131.906 1.39649 131.237 1.39649 130.488C1.39649 129.788 1.5561 129.162 1.87531 128.609C2.2068 128.057 2.67334 127.627 3.27494 127.32C3.88881 127.001 4.60704 126.841 5.42963 126.841C6.2645 126.841 6.98887 126.995 7.60274 127.302C8.22889 127.596 8.70771 128.014 9.0392 128.554C9.37069 129.082 9.53644 129.683 9.53644 130.359C9.53644 131.034 9.40752 131.629 9.1497 132.145C8.89187 132.648 8.45602 133.176 7.84215 133.729L11.2123 135.423V127.007H15.8532ZM4.08525 130.617C4.08525 131.402 4.54565 132.041 5.46646 132.532L5.65062 132.624C6.0435 132.329 6.35044 132.028 6.57143 131.722C6.8047 131.415 6.92134 131.059 6.92134 130.653C6.92134 130.273 6.79243 129.947 6.5346 129.677C6.28905 129.395 5.95142 129.248 5.52171 129.235C5.10428 129.235 4.76051 129.37 4.49041 129.641C4.2203 129.911 4.08525 130.236 4.08525 130.617Z" fill="black"/>
<path d="M21.734 127.007V129.42H19.9292V140.635H17.0379V129.42H15.2331V127.007H17.1299V126.307C17.1299 124.822 16.6143 124.079 15.583 124.079C14.5026 124.079 13.9624 124.822 13.9624 126.307V127.652H11.1631V126.455C11.1631 124.969 11.513 123.796 12.2128 122.937C12.9126 122.078 14.036 121.648 15.583 121.648C18.4805 121.648 19.9292 123.25 19.9292 126.455V127.007H21.734Z" fill="black"/>
<path d="M38.1106 129.42H36.3058V140.635H33.4144V136.528L33.3592 136.602L29.7128 141.114H26.582L29.8049 137.486C28.7613 137.302 27.9633 136.804 27.4108 135.994C26.8583 135.171 26.582 134.152 26.582 132.937V129.42H25.0167V127.007H38.1106V129.42ZM33.4144 129.42H29.4734V132.937C29.4734 133.649 29.633 134.214 29.9522 134.631C30.2837 135.049 30.7809 135.257 31.4439 135.257C32.0701 135.257 32.555 135.055 32.8988 134.65C33.2426 134.245 33.4144 133.729 33.4144 133.103V129.42Z" fill="black"/>
<path d="M39.2847 140.635V129.42H37.48V127.007H43.9809V129.42H42.1761V140.635H39.2847Z" fill="black"/>
<path d="M60.4879 129.42H58.6647V140.635H55.7734V129.42H53.3056V133.913C53.3056 135.129 52.9557 136.111 52.2559 136.86C51.5561 137.596 50.5494 137.965 49.2357 137.965C47.922 137.965 46.9152 137.584 46.2154 136.823C45.5156 136.062 45.1657 135.092 45.1657 133.913V129.42H43.3609V127.007H60.4879V129.42ZM50.4695 129.42H48.0018V134.171C48.0018 134.576 48.1123 134.908 48.3333 135.165C48.5665 135.411 48.8735 135.534 49.2541 135.534C49.647 135.534 49.9478 135.411 50.1565 135.165C50.3652 134.92 50.4695 134.588 50.4695 134.171V129.42Z" fill="black"/>
<path d="M75.6534 129.42H73.8486V140.635H70.9388V133.913H68.6184C68.9376 134.49 69.0972 135.122 69.0972 135.81C69.0972 136.559 68.9192 137.203 68.5631 137.744C68.2194 138.284 67.7528 138.689 67.1635 138.959C66.5865 139.229 65.9419 139.364 65.2298 139.364C64.4932 139.364 63.8056 139.211 63.1672 138.904C62.5411 138.585 62.0377 138.13 61.6571 137.541C61.2765 136.939 61.0862 136.24 61.0862 135.442C61.0862 134.594 61.2826 133.876 61.6755 133.287C62.0684 132.685 62.5963 132.237 63.2593 131.943C63.9223 131.648 64.6589 131.501 65.4692 131.501H70.9388V129.42H59.8707V127.007H75.6534V129.42ZM65.2667 136.915C65.7209 136.915 66.0892 136.78 66.3716 136.51C66.654 136.227 66.7952 135.865 66.7952 135.423C66.7952 134.981 66.654 134.619 66.3716 134.337C66.0892 134.054 65.7209 133.913 65.2667 133.913C64.8124 133.913 64.4379 134.054 64.1433 134.337C63.8486 134.619 63.7013 134.981 63.7013 135.423C63.7013 135.865 63.8425 136.227 64.1248 136.51C64.4195 136.78 64.8001 136.915 65.2667 136.915Z" fill="black"/>
<path d="M76.8365 140.635V129.42H75.0317V127.007H81.5326V129.42H79.7278V140.635H76.8365Z" fill="black"/>
<path d="M96.1612 127.007V129.42H94.3564V140.635H91.4651V137.136C91.1582 137.701 90.6548 138.173 89.955 138.554C89.2674 138.935 88.4387 139.125 87.4688 139.125C86.4252 139.125 85.5044 138.916 84.7064 138.499C83.9206 138.069 83.3129 137.461 82.8832 136.675C82.4535 135.877 82.2386 134.944 82.2386 133.876C82.2386 133.373 82.2693 132.931 82.3307 132.55H83.9329C84.9887 132.55 85.8175 132.397 86.4191 132.09C87.0329 131.783 87.3399 131.261 87.3399 130.524C87.3399 130.168 87.2417 129.88 87.0452 129.659C86.8488 129.426 86.5787 129.309 86.2349 129.309C85.8789 129.309 85.5965 129.426 85.3878 129.659C85.179 129.88 85.0747 130.187 85.0747 130.58C85.0747 130.739 85.0992 130.954 85.1483 131.224H82.5332C82.4841 130.905 82.4596 130.666 82.4596 130.506C82.4596 129.72 82.6315 129.051 82.9752 128.499C83.319 127.946 83.7794 127.535 84.3565 127.265C84.9335 126.982 85.5719 126.841 86.2717 126.841C87.0207 126.841 87.6775 126.995 88.2423 127.302C88.8193 127.609 89.2674 128.051 89.5866 128.628C89.9059 129.192 90.0655 129.849 90.0655 130.598C90.0655 131.826 89.6358 132.802 88.7763 133.526C87.9292 134.251 86.7014 134.613 85.0931 134.613H85.0563C85.1299 135.214 85.4 135.718 85.8666 136.123C86.3331 136.516 87.0145 136.712 87.9108 136.712C88.5738 136.712 89.1754 136.571 89.7156 136.289C90.2558 135.994 90.6793 135.564 90.9863 135C91.3055 134.423 91.4651 133.729 91.4651 132.919V127.007H96.1612Z" fill="black"/>
<path d="M115.901 129.42H114.096V140.635H111.205V134.116H109.087V134.668C109.087 135.466 108.915 136.178 108.571 136.804C108.24 137.431 107.761 137.922 107.135 138.278C106.509 138.621 105.772 138.793 104.925 138.793C103.574 138.793 102.531 138.419 101.794 137.67C101.07 136.909 100.707 135.908 100.707 134.668V131.648H103.617V134.594C103.617 135.122 103.728 135.534 103.949 135.828C104.182 136.123 104.513 136.27 104.943 136.27C105.361 136.27 105.68 136.123 105.901 135.828C106.134 135.534 106.251 135.122 106.251 134.594V131.648H111.205V129.42H99.4367V127.007H115.901V129.42Z" fill="black"/>
<path d="M121.782 127.007V129.42H119.977V140.635H117.086V129.42H115.281V127.007H117.178V126.307C117.178 124.822 116.662 124.079 115.631 124.079C114.551 124.079 114.01 124.822 114.01 126.307V127.652H111.211V126.455C111.211 124.969 111.561 123.796 112.261 122.937C112.961 122.078 114.084 121.648 115.631 121.648C118.528 121.648 119.977 123.25 119.977 126.455V127.007H121.782Z" fill="black"/>
<path d="M137.974 127.007V129.42H136.17V140.635H133.352V138.167C133.033 138.597 132.628 138.928 132.137 139.162C131.658 139.383 131.105 139.493 130.479 139.493C129.632 139.493 128.895 139.303 128.269 138.922C127.655 138.542 127.183 138.014 126.851 137.338C126.52 136.663 126.354 135.902 126.354 135.055C126.354 134.232 126.52 133.502 126.851 132.863C127.183 132.213 127.661 131.703 128.288 131.335C128.914 130.966 129.644 130.782 130.479 130.782C131.093 130.782 131.645 130.893 132.137 131.114C132.628 131.335 133.033 131.654 133.352 132.071V129.42H125.065V127.007H137.974ZM131.271 137.191C131.922 137.191 132.431 136.989 132.799 136.583C133.168 136.178 133.352 135.699 133.352 135.147V135.129C133.352 134.564 133.168 134.085 132.799 133.692C132.431 133.299 131.922 133.103 131.271 133.103C130.657 133.103 130.154 133.293 129.761 133.674C129.38 134.042 129.19 134.527 129.19 135.129C129.19 135.742 129.38 136.24 129.761 136.62C130.154 137.001 130.657 137.191 131.271 137.191Z" fill="black"/>
<path d="M139.153 140.635V129.42H137.348V127.007H143.849V129.42H142.044V140.635H139.153Z" fill="black"/>
<path d="M160.356 129.42H158.533V140.635H155.642V129.42H153.174V133.913C153.174 135.129 152.824 136.111 152.124 136.86C151.424 137.596 150.418 137.965 149.104 137.965C147.79 137.965 146.783 137.584 146.084 136.823C145.384 136.062 145.034 135.092 145.034 133.913V129.42H143.229V127.007H160.356V129.42ZM150.338 129.42H147.87V134.171C147.87 134.576 147.98 134.908 148.201 135.165C148.435 135.411 148.742 135.534 149.122 135.534C149.515 135.534 149.816 135.411 150.025 135.165C150.233 134.92 150.338 134.588 150.338 134.171V129.42Z" fill="black"/>
<path d="M166.24 127.007V129.42H164.435V140.635H161.544V129.42H159.739V127.007H161.636V126.307C161.636 124.822 161.12 124.079 160.089 124.079C159.008 124.079 158.468 124.822 158.468 126.307V127.652H155.669V126.455C155.669 124.969 156.019 123.796 156.719 122.937C157.418 122.078 158.542 121.648 160.089 121.648C162.986 121.648 164.435 123.25 164.435 126.455V127.007H166.24Z" fill="black"/>
<path d="M38.0316 156.419H36.7683V148.096H38.0316V156.419Z" fill="#E53C38"/>
<path d="M40.7067 156.419H39.4435V148.096H40.7067V156.419Z" fill="#E53C38"/>
<path d="M49.5842 149.673H48.5897V155.335H47.4429V153.131L47.3444 153.248L45.3734 155.523H44.1191L45.8034 153.714C45.242 153.66 44.8119 153.436 44.5133 153.042C44.2206 152.642 44.0743 152.128 44.0743 151.501V149.673H43.2231V148.706H49.5842V149.673ZM47.4429 149.673H45.239V151.501C45.239 151.907 45.3286 152.226 45.5077 152.459C45.6929 152.686 45.9706 152.8 46.341 152.8C46.6874 152.8 46.9562 152.689 47.1473 152.468C47.3444 152.241 47.4429 151.961 47.4429 151.626V149.673Z" fill="#E53C38"/>
<path d="M47.3979 148.741C47.1291 148.323 46.9111 148.022 46.7438 147.836C46.5766 147.651 46.4094 147.529 46.2421 147.469C46.0689 147.409 45.836 147.38 45.5433 147.38H45.1043V146.439H45.5164C45.9943 146.445 46.3735 146.496 46.6542 146.591C46.935 146.687 47.2127 146.896 47.4875 147.218C47.7622 147.535 48.0967 148.043 48.4909 148.741H47.3979Z" fill="#E53C38"/>
<path d="M56.7603 149.673H55.7658V155.335H54.6011V152.155H53.2662V152.683C53.2662 153.305 53.1079 153.788 52.7913 154.135C52.4807 154.481 52.0328 154.654 51.4474 154.654C50.892 154.654 50.444 154.496 50.1035 154.18C49.7691 153.863 49.6018 153.445 49.6018 152.925C49.6018 152.376 49.778 151.955 50.1304 151.662C50.4888 151.363 50.9487 151.214 51.5101 151.214H52.191V149.673H49.0284V148.706H56.7603V149.673ZM54.6011 149.673H53.2662V151.214H54.6011V149.673ZM52.191 152.155H51.546C51.2832 152.155 51.0711 152.224 50.9099 152.361C50.7546 152.492 50.6769 152.677 50.6769 152.916C50.6769 153.149 50.7456 153.334 50.883 153.472C51.0263 153.609 51.2085 153.678 51.4295 153.678C51.6684 153.678 51.8536 153.594 51.985 153.427C52.1224 153.26 52.191 153.033 52.191 152.746V152.155Z" fill="#E53C38"/>
<path d="M67.2385 148.706V149.673H66.244V155.335H65.0972V153.714C64.8404 154.072 64.4492 154.251 63.9236 154.251C63.8579 154.251 63.7593 154.245 63.6279 154.233C63.4248 154.58 63.1501 154.858 62.8037 155.067C62.4632 155.276 62.063 155.38 61.6031 155.38C60.8565 155.38 60.2652 155.168 59.8292 154.744C59.3992 154.32 59.1841 153.729 59.1841 152.97V151.743H59.4529C59.8531 151.743 60.1577 151.647 60.3668 151.456C60.5758 151.265 60.6803 150.948 60.6803 150.506V149.673H58.3509V148.706H67.2385ZM61.63 154.386C62.1257 154.386 62.4961 154.195 62.7409 153.812C62.5618 153.645 62.4244 153.442 62.3288 153.203C62.2333 152.958 62.1855 152.689 62.1855 152.397C62.1855 152.044 62.2601 151.731 62.4095 151.456C62.5588 151.175 62.7648 150.957 63.0276 150.802C63.2964 150.647 63.5951 150.569 63.9236 150.569C64.4372 150.569 64.8284 150.748 65.0972 151.107V149.673H61.845V150.659C61.845 151.256 61.7077 151.713 61.4329 152.029C61.1582 152.346 60.7908 152.522 60.3309 152.558V153.105C60.3309 153.487 60.4444 153.797 60.6714 154.036C60.9043 154.269 61.2239 154.386 61.63 154.386ZM64.1744 153.364C64.4671 153.364 64.6941 153.269 64.8553 153.078C65.0166 152.886 65.0972 152.663 65.0972 152.406C65.0972 152.149 65.0166 151.928 64.8553 151.743C64.7 151.552 64.4731 151.456 64.1744 151.456C63.8997 151.456 63.6697 151.543 63.4846 151.716C63.3054 151.883 63.2158 152.11 63.2158 152.397C63.2158 152.701 63.3054 152.94 63.4846 153.113C63.6697 153.281 63.8997 153.364 64.1744 153.364Z" fill="#E53C38"/>
<path d="M69.919 148.706V149.673H68.9246V155.335H67.7688V149.673H66.7743V148.706H67.8047C67.5419 148.299 67.3268 148.007 67.1596 147.828C66.9983 147.642 66.8341 147.523 66.6668 147.469C66.4996 147.409 66.2696 147.38 65.977 147.38H65.538V146.439H65.9501C66.4279 146.445 66.8042 146.496 67.079 146.591C67.3597 146.687 67.6344 146.893 67.9032 147.209C68.178 147.52 68.5124 148.019 68.9066 148.706H69.919Z" fill="#E53C38"/>
<path d="M76.0702 149.673V150.703C76.4345 150.841 76.7242 151.083 76.9392 151.429C77.1602 151.77 77.2707 152.191 77.2707 152.692C77.2707 153.128 77.1841 153.517 77.0109 153.857C76.8377 154.198 76.5808 154.463 76.2404 154.654C75.9059 154.846 75.4998 154.941 75.0219 154.941C74.9742 154.941 74.8726 154.935 74.7173 154.923V153.911L74.9592 153.929C75.3116 153.929 75.5894 153.818 75.7924 153.597C75.9955 153.376 76.097 153.081 76.097 152.71C76.097 152.382 76.0134 152.113 75.8462 151.904C75.6849 151.695 75.455 151.59 75.1563 151.59C74.8398 151.59 74.6009 151.71 74.4396 151.949C74.2843 152.182 74.2066 152.489 74.2066 152.872V153.06H73.2391V152.872C73.2391 152.495 73.1614 152.188 73.0061 151.949C72.8508 151.71 72.6209 151.59 72.3162 151.59C72.0057 151.59 71.7668 151.695 71.5995 151.904C71.4323 152.107 71.3487 152.376 71.3487 152.71C71.3487 153.081 71.4502 153.376 71.6533 153.597C71.8563 153.818 72.1341 153.929 72.4865 153.929L72.7284 153.911V154.923C72.5731 154.935 72.4715 154.941 72.4238 154.941C71.9519 154.941 71.5458 154.846 71.2053 154.654C70.8649 154.457 70.608 154.192 70.4348 153.857C70.2616 153.517 70.175 153.128 70.175 152.692C70.175 152.238 70.2616 151.853 70.4348 151.537C70.608 151.22 70.844 150.981 71.1426 150.82C71.4472 150.659 71.7847 150.578 72.155 150.578C72.5671 150.578 72.8986 150.683 73.1495 150.892C73.4063 151.101 73.5914 151.369 73.7049 151.698H73.7318C73.8333 151.423 73.9797 151.19 74.1708 150.999C74.3679 150.808 74.6218 150.68 74.9323 150.614V149.673H69.4583V148.706H77.9785V149.673H76.0702Z" fill="#E53C38"/>
<path d="M82.7935 151.483C82.3993 151.483 82.0797 151.584 81.8349 151.787C81.59 151.991 81.4675 152.274 81.4675 152.639C81.4675 152.967 81.5661 153.23 81.7632 153.427C81.9603 153.618 82.2231 153.714 82.5516 153.714C82.8204 153.714 83.0503 153.63 83.2415 153.463C83.4386 153.296 83.5371 153.057 83.5371 152.746H84.6033V155.577H83.4744V154.099C83.343 154.272 83.1698 154.407 82.9548 154.502C82.7397 154.592 82.4949 154.637 82.2201 154.637C81.8617 154.637 81.5362 154.559 81.2436 154.404C80.9509 154.248 80.7179 154.018 80.5447 153.714C80.3715 153.409 80.2849 153.039 80.2849 152.603C80.2849 152.155 80.3865 151.773 80.5895 151.456C80.7986 151.133 81.0823 150.892 81.4407 150.73C81.805 150.569 82.2171 150.488 82.677 150.488H83.125V149.673H79.5682V148.706H85.4185L85.4096 149.673H84.2897V151.483H82.7935Z" fill="#E53C38"/>
<path d="M83.1042 148.741C82.8354 148.323 82.6174 148.022 82.4502 147.836C82.2829 147.651 82.1157 147.529 81.9485 147.469C81.7752 147.409 81.5423 147.38 81.2496 147.38H80.8106V146.439H81.2228C81.7006 146.445 82.0799 146.496 82.3606 146.591C82.6413 146.687 82.919 146.896 83.1938 147.218C83.4685 147.535 83.803 148.043 84.1972 148.741H83.1042Z" fill="#E53C38"/>
<path d="M91.236 148.706V149.673H90.2505V155.335H89.1217V153.92C88.9664 154.153 88.7573 154.335 88.4945 154.466C88.2377 154.598 87.942 154.663 87.6075 154.663C87.2014 154.663 86.843 154.574 86.5324 154.395C86.2278 154.209 85.9919 153.956 85.8247 153.633C85.6634 153.311 85.5828 152.94 85.5828 152.522C85.5828 152.122 85.6664 151.764 85.8336 151.447C86.0009 151.13 86.2368 150.886 86.5414 150.712C86.852 150.533 87.2074 150.444 87.6075 150.444C87.948 150.444 88.2466 150.509 88.5035 150.641C88.7603 150.772 88.9664 150.954 89.1217 151.187V149.673H84.866V148.706H91.236ZM87.9122 153.741C88.169 153.741 88.387 153.684 88.5662 153.57C88.7513 153.457 88.8887 153.311 88.9783 153.131C89.0739 152.952 89.1217 152.764 89.1217 152.567V152.558C89.1217 152.235 89.0141 151.958 88.7991 151.725C88.5901 151.492 88.2944 151.375 87.9122 151.375C87.5657 151.375 87.279 151.483 87.0521 151.698C86.8311 151.913 86.7206 152.197 86.7206 152.549C86.7206 152.907 86.8311 153.197 87.0521 153.418C87.279 153.633 87.5657 153.741 87.9122 153.741Z" fill="#E53C38"/>
<path d="M89.0582 148.741C88.7895 148.323 88.5714 148.022 88.4042 147.836C88.237 147.651 88.0697 147.529 87.9025 147.469C87.7293 147.409 87.4963 147.38 87.2037 147.38H86.7647V146.439H87.1768C87.6546 146.445 88.0339 146.496 88.3146 146.591C88.5953 146.687 88.8731 146.896 89.1478 147.218C89.4226 147.535 89.7571 148.043 90.1513 148.741H89.0582Z" fill="#E53C38"/>
<path d="M100.502 149.673H99.4982V155.335H98.3515V152.477H94.6961V153.517C94.6961 153.791 94.7588 154.012 94.8842 154.18C95.0097 154.347 95.1978 154.43 95.4487 154.43C95.6816 154.43 95.8638 154.353 95.9952 154.198C96.1266 154.042 96.1923 153.842 96.1923 153.597V153.481H97.3032C97.3092 153.529 97.3122 153.585 97.3122 153.651C97.3122 154.195 97.1479 154.625 96.8194 154.941C96.4909 155.258 96.04 155.416 95.4666 155.416C94.8574 155.416 94.3855 155.237 94.051 154.878C93.7166 154.514 93.5493 154.042 93.5493 153.463V151.653H94.275C94.7528 151.653 95.1023 151.54 95.3232 151.313C95.5442 151.08 95.6547 150.76 95.6547 150.354V149.673H92.734V148.706H100.502V149.673ZM98.3515 149.673H96.8015V150.354C96.8015 150.808 96.697 151.202 96.4879 151.537H98.3515V149.673Z" fill="#E53C38"/>
<path d="M106.578 148.706V149.673H105.592V155.335H104.472V153.983C104.323 154.203 104.117 154.38 103.854 154.511C103.591 154.637 103.287 154.699 102.94 154.699C102.528 154.699 102.155 154.61 101.82 154.43C101.492 154.245 101.232 153.988 101.041 153.66C100.85 153.325 100.754 152.946 100.754 152.522C100.754 152.104 100.847 151.734 101.032 151.411C101.223 151.089 101.483 150.838 101.811 150.659C102.14 150.479 102.51 150.39 102.922 150.39C103.263 150.39 103.562 150.453 103.818 150.578C104.081 150.703 104.299 150.874 104.472 151.089V149.673H100.038V148.706H106.578ZM103.164 151.151C102.812 151.151 102.51 151.253 102.259 151.456L104.383 153.167C104.484 152.952 104.535 152.734 104.535 152.513C104.535 152.274 104.481 152.05 104.374 151.841C104.266 151.632 104.108 151.465 103.899 151.34C103.696 151.214 103.451 151.151 103.164 151.151ZM101.767 152.522C101.767 152.797 101.829 153.036 101.955 153.239C102.08 153.442 102.25 153.597 102.465 153.705C102.681 153.812 102.913 153.866 103.164 153.866C103.523 153.866 103.827 153.762 104.078 153.552L101.937 151.841C101.823 152.05 101.767 152.277 101.767 152.522Z" fill="#E53C38"/>
<path d="M111.333 151.456C110.945 151.456 110.643 151.54 110.428 151.707C110.213 151.868 110.105 152.107 110.105 152.424C110.105 152.704 110.192 152.931 110.365 153.105C110.544 153.272 110.786 153.355 111.091 153.355C111.354 153.355 111.581 153.275 111.772 153.113C111.969 152.952 112.067 152.731 112.067 152.45H113.071V157.495H112.005V156.357C111.867 156.548 111.688 156.691 111.467 156.787C111.252 156.888 111.007 156.939 110.732 156.939C110.386 156.939 110.084 156.864 109.828 156.715C109.571 156.566 109.374 156.36 109.236 156.097C109.099 155.84 109.03 155.55 109.03 155.228C109.03 154.917 109.096 154.64 109.227 154.395C109.359 154.15 109.541 153.956 109.774 153.812C109.523 153.669 109.326 153.472 109.183 153.221C109.039 152.97 108.968 152.671 108.968 152.325C108.968 151.734 109.171 151.28 109.577 150.963C109.989 150.647 110.541 150.488 111.234 150.488H111.727V149.673H108.17V148.706H113.994V149.673H112.892V151.456H111.333ZM112.005 153.75C111.772 154.036 111.419 154.203 110.947 154.251C110.679 154.275 110.464 154.371 110.302 154.538C110.147 154.699 110.069 154.908 110.069 155.165C110.069 155.44 110.159 155.661 110.338 155.828C110.517 155.995 110.747 156.079 111.028 156.079C111.333 156.079 111.572 155.983 111.745 155.792C111.918 155.607 112.005 155.389 112.005 155.138V153.75Z" fill="#E53C38"/>
<path d="M114.526 155.335V149.673H113.531V148.706H116.676V149.673H115.682V155.335H114.526Z" fill="#E53C38"/>
<path d="M118.169 152.522V153.535C118.169 153.803 118.228 154.021 118.348 154.189C118.473 154.35 118.655 154.43 118.894 154.43C119.115 154.43 119.288 154.356 119.414 154.206C119.545 154.051 119.611 153.848 119.611 153.597V153.373H120.722C120.728 153.427 120.731 153.49 120.731 153.561C120.731 154.129 120.57 154.58 120.247 154.914C119.925 155.249 119.48 155.416 118.912 155.416C118.303 155.416 117.834 155.237 117.506 154.878C117.183 154.52 117.022 154.054 117.022 153.481V151.581H117.945C118.422 151.581 118.769 151.474 118.984 151.259C119.205 151.038 119.315 150.715 119.315 150.291V149.673H116.206V148.706H121.349V149.673H120.471V150.291C120.471 151.779 119.769 152.522 118.366 152.522H118.169Z" fill="#E53C38"/>
<path d="M125.143 156.419H123.88V148.096H125.143V156.419Z" fill="#E53C38"/>
<path d="M127.818 156.419H126.555V148.096H127.818V156.419Z" fill="#E53C38"/>
<defs>
<linearGradient id="paint0_linear_25_442" x1="41.1878" y1="64.5814" x2="41.1878" y2="75.5806" gradientUnits="userSpaceOnUse">
<stop stop-color="#FFCC00"/>
<stop offset="1" stop-color="#FAB63F"/>
</linearGradient>
<linearGradient id="paint1_linear_25_442" x1="37.183" y1="52.0109" x2="37.183" y2="57.3534" gradientUnits="userSpaceOnUse">
<stop stop-color="#FFCC00"/>
<stop offset="1" stop-color="#FAB63F"/>
</linearGradient>
<linearGradient id="paint2_linear_25_442" x1="44.254" y1="16.3169" x2="44.254" y2="45.254" gradientUnits="userSpaceOnUse">
<stop stop-color="#FFCC00"/>
<stop offset="1" stop-color="#FAB63F"/>
</linearGradient>
<linearGradient id="paint3_linear_25_442" x1="44.254" y1="16.3169" x2="44.254" y2="45.254" gradientUnits="userSpaceOnUse">
<stop stop-color="#FFCC00"/>
<stop offset="1" stop-color="#FAB63F"/>
</linearGradient>
<linearGradient id="paint4_linear_25_442" x1="64.4454" y1="3.7713" x2="64.4454" y2="27.0269" gradientUnits="userSpaceOnUse">
<stop stop-color="#FFCC00"/>
<stop offset="1" stop-color="#FAB63F"/>
</linearGradient>
<linearGradient id="paint5_linear_25_442" x1="106.087" y1="0" x2="106.087" y2="75.7377" gradientUnits="userSpaceOnUse">
<stop stop-color="#FFCC00"/>
<stop offset="1" stop-color="#FAB63F"/>
</linearGradient>
<linearGradient id="paint6_linear_25_442" x1="106.087" y1="0" x2="106.087" y2="75.7377" gradientUnits="userSpaceOnUse">
<stop stop-color="#FFCC00"/>
<stop offset="1" stop-color="#FAB63F"/>
</linearGradient>
<linearGradient id="paint7_linear_25_442" x1="106.087" y1="0" x2="106.087" y2="75.7377" gradientUnits="userSpaceOnUse">
<stop stop-color="#FFCC00"/>
<stop offset="1" stop-color="#FAB63F"/>
</linearGradient>
<linearGradient id="paint8_linear_25_442" x1="106.087" y1="0" x2="106.087" y2="75.7377" gradientUnits="userSpaceOnUse">
<stop stop-color="#FFCC00"/>
<stop offset="1" stop-color="#FAB63F"/>
</linearGradient>
<linearGradient id="paint9_linear_25_442" x1="106.087" y1="0" x2="106.087" y2="75.7377" gradientUnits="userSpaceOnUse">
<stop stop-color="#FFCC00"/>
<stop offset="1" stop-color="#FAB63F"/>
</linearGradient>
<linearGradient id="paint10_linear_25_442" x1="106.087" y1="0" x2="106.087" y2="75.7377" gradientUnits="userSpaceOnUse">
<stop stop-color="#FFCC00"/>
<stop offset="1" stop-color="#FAB63F"/>
</linearGradient>
</defs>
</svg>
